<svg width="360" height="800" viewBox="0 0 360 800" fill="none" xmlns="http://www.w3.org/2000/svg">
<g clip-path="url(#clip0_470_2132)">
<rect width="360" height="800" fill="#EDEEF7"/>
<path d="M143.308 40.4955C215.375 31.0511 499.741 177.448 534.209 194.146L317.866 -65.6705L-54.0708 -39.2005C-57.5307 21.9353 -51.4709 142.506 0.447115 135.702C65.3446 127.197 53.2238 52.301 143.308 40.4955Z" fill="url(#paint0_linear_470_2132)"/>
<path d="M345.041 782.711C276.263 818.646 164.737 818.646 95.9596 782.711C27.1822 746.777 27.174 688.519 95.9596 652.584C164.745 616.649 276.263 616.649 345.041 652.584C413.818 688.519 413.826 746.777 345.041 782.711Z" fill="white"/>
<path d="M166.749 773.624C146.008 773.624 129.195 765.611 129.195 755.726C129.195 745.841 146.008 737.828 166.749 737.828C187.49 737.828 204.304 745.841 204.304 755.726C204.304 765.611 187.49 773.624 166.749 773.624Z" fill="#EBEBEB"/>
<path d="M100.221 732.805C84.2196 732.805 71.2477 726.623 71.2477 718.997C71.2477 711.371 84.2196 705.189 100.221 705.189C116.223 705.189 129.195 711.371 129.195 718.997C129.195 726.623 116.223 732.805 100.221 732.805Z" fill="#EBEBEB"/>
<path d="M306.725 715.129C308.361 706.491 314.349 694.18 321.654 687.317C328.68 680.724 339.11 678.425 343.265 681.468C347.421 684.511 344.697 691.088 336.631 699.104C327.527 708.143 310.046 733.223 306.725 747.432V715.129Z" fill="#4E56AB"/>
<g opacity="0.2">
<path d="M306.725 715.129C308.361 706.491 314.349 694.18 321.654 687.317C328.68 680.724 339.11 678.425 343.265 681.468C347.421 684.511 344.697 691.088 336.631 699.104C327.527 708.143 310.046 733.223 306.725 747.432V715.129Z" fill="black"/>
</g>
<path d="M306.725 735.914C306.828 735.912 306.926 735.873 307.002 735.803C307.077 735.734 307.124 735.639 307.134 735.537C309.196 713.778 324.411 689.32 339.036 684.224C339.138 684.187 339.222 684.112 339.269 684.014C339.317 683.916 339.324 683.804 339.29 683.701C339.253 683.598 339.177 683.515 339.08 683.468C338.982 683.42 338.87 683.413 338.766 683.447C323.601 688.723 308.427 713.034 306.3 735.464C306.291 735.572 306.324 735.679 306.393 735.763C306.461 735.847 306.56 735.901 306.668 735.914H306.725Z" fill="white"/>
<path d="M306.725 757.877C306.725 757.877 309.556 760.135 318.995 759.252C328.435 758.368 333.302 751.62 333.302 748.724C333.302 745.828 324.623 745.329 322.742 738.147C324.656 740.198 327.201 741.549 329.973 741.984C334.881 742.908 338.824 741.338 339.944 732.397C337.525 732.75 335.058 732.546 332.73 731.8C328.844 730.548 327.92 728.413 328.934 727.955C329.948 727.497 335.364 727.955 338.832 726.638C342.3 725.321 339.65 707.26 337.376 705.975C335.102 704.691 324.345 707.718 322.251 709.337C320.386 710.777 317.768 713.272 318.979 718.548C317.545 717.207 316.427 715.564 315.707 713.738C314.693 711.284 313.956 711.857 312.435 712.798C311.521 713.313 310.728 714.017 310.109 714.863C309.49 715.71 309.058 716.679 308.844 717.706C308.476 719.996 309.073 727.898 312.296 730.466C312.296 730.466 309.204 730.859 306.676 725.64C306.676 725.64 301.768 727.62 300.656 730.826C299.543 734.033 298.333 749.73 306.725 757.877Z" fill="#4E56AB"/>
<path d="M305.891 759.66C305.991 759.659 306.087 759.622 306.162 759.556C306.237 759.49 306.286 759.399 306.3 759.3C308.46 741.623 321.899 718.4 335.077 709.68C335.168 709.62 335.232 709.525 335.253 709.418C335.275 709.31 335.253 709.199 335.192 709.108C335.131 709.017 335.037 708.953 334.929 708.932C334.822 708.91 334.71 708.932 334.619 708.993C321.278 717.868 307.625 741.329 305.49 759.202C305.476 759.309 305.505 759.418 305.571 759.504C305.637 759.59 305.735 759.646 305.842 759.66H305.891Z" fill="white"/>
<path d="M305.064 762.13C305.552 761.792 305.955 761.344 306.239 760.823C306.523 760.302 306.681 759.721 306.7 759.128V563.699C306.667 563.084 306.489 562.486 306.18 561.953C305.872 561.42 305.442 560.967 304.925 560.632L182.225 489.777C181.713 489.455 181.122 489.279 180.517 489.268C179.911 489.257 179.315 489.411 178.79 489.714C178.266 490.017 177.835 490.457 177.542 490.987C177.249 491.517 177.107 492.116 177.129 492.721L301.629 762.064C302.156 762.345 302.742 762.497 303.339 762.508C303.936 762.519 304.527 762.39 305.064 762.13V762.13Z" fill="#E0E0E0"/>
<path d="M303.404 567.413L253.564 534.799L256.885 532.877L304.95 560.632C305.467 560.967 305.897 561.42 306.205 561.953C306.514 562.486 306.692 563.084 306.725 563.699V565.491L303.404 567.413Z" fill="#37474F"/>
<path opacity="0.2" d="M303.404 567.413L253.564 534.799L256.885 532.877L304.95 560.632C305.467 560.967 305.897 561.42 306.205 561.953C306.514 562.486 306.692 563.084 306.725 563.699V565.491L303.404 567.413Z" fill="#37474F"/>
<path d="M286.758 573.163L306.21 561.973C306.527 562.5 306.704 563.1 306.725 563.715V759.111C306.746 759.715 306.603 760.313 306.309 760.842C306.016 761.371 305.584 761.81 305.06 762.111C304.537 762.413 303.94 762.567 303.336 762.556C302.731 762.544 302.141 762.369 301.629 762.047L286.758 753.499V573.163Z" fill="#263238"/>
<path opacity="0.4" d="M286.758 573.163L306.21 561.973C306.527 562.5 306.704 563.1 306.725 563.715V759.111C306.746 759.715 306.603 760.313 306.309 760.842C306.016 761.371 305.584 761.81 305.06 762.111C304.537 762.413 303.94 762.567 303.336 762.556C302.731 762.544 302.141 762.369 301.629 762.047L286.758 753.499V573.163Z" fill="#263238"/>
<path d="M301.629 762.064L178.929 691.209C178.413 690.873 177.983 690.421 177.674 689.888C177.366 689.355 177.188 688.756 177.154 688.141V492.721C177.154 491.592 177.972 491.134 178.929 491.699L301.629 562.554C302.146 562.889 302.576 563.342 302.884 563.875C303.193 564.408 303.371 565.006 303.404 565.621V761.041C303.404 762.17 302.611 762.628 301.629 762.064Z" fill="#455A64"/>
<path opacity="0.1" d="M301.629 762.064L178.929 691.209C178.413 690.873 177.983 690.421 177.674 689.888C177.366 689.355 177.188 688.756 177.154 688.141V492.721C177.154 491.592 177.972 491.134 178.929 491.699L301.629 562.554C302.146 562.889 302.576 563.342 302.884 563.875C303.193 564.408 303.371 565.006 303.404 565.621V761.041C303.404 762.17 302.611 762.628 301.629 762.064Z" fill="#455A64"/>
<path d="M293.212 610.758L263.764 593.744C261.809 592.615 260.222 593.417 260.222 595.535C260.309 596.725 260.676 597.877 261.291 598.899C261.906 599.921 262.753 600.783 263.764 601.417L293.212 618.431C295.175 619.56 296.754 618.758 296.754 616.64C296.668 615.45 296.303 614.297 295.688 613.275C295.072 612.253 294.224 611.391 293.212 610.758V610.758Z" fill="#4E56AB"/>
<path d="M293.212 622.832L273.719 611.576C271.764 610.447 270.177 611.249 270.177 613.367C270.264 614.557 270.631 615.709 271.246 616.731C271.861 617.753 272.709 618.615 273.719 619.249L293.212 630.505C295.175 631.633 296.754 630.832 296.754 628.713C296.668 627.523 296.303 626.37 295.688 625.348C295.072 624.326 294.224 623.464 293.212 622.832Z" fill="#4E56AB"/>
<path d="M295.339 643.496L291.527 641.296C290.709 640.846 290.112 641.214 290.112 642.114V646.514C290.138 647.006 290.28 647.484 290.526 647.91C290.772 648.337 291.115 648.699 291.527 648.968L295.339 651.136C296.157 651.594 296.754 651.226 296.754 650.318V645.917C296.722 645.432 296.577 644.96 296.332 644.54C296.086 644.12 295.746 643.762 295.339 643.496Z" fill="#4E56AB"/>
<path opacity="0.2" d="M295.339 643.496L291.527 641.296C290.709 640.846 290.112 641.214 290.112 642.114V646.514C290.138 647.006 290.28 647.484 290.526 647.91C290.772 648.337 291.115 648.699 291.527 648.968L295.339 651.136C296.157 651.594 296.754 651.226 296.754 650.318V645.917C296.722 645.432 296.577 644.96 296.332 644.54C296.086 644.12 295.746 643.762 295.339 643.496Z" fill="black"/>
<path d="M295.339 658.849L291.527 656.648C290.709 656.19 290.112 656.558 290.112 657.466V661.867C290.14 662.358 290.283 662.836 290.529 663.262C290.774 663.688 291.116 664.051 291.527 664.321L295.339 666.522C296.157 666.971 296.754 666.603 296.754 665.704V661.303C296.729 660.811 296.587 660.332 296.341 659.906C296.095 659.479 295.752 659.117 295.339 658.849Z" fill="#4E56AB"/>
<g opacity="0.2">
<path d="M295.339 658.849L291.527 656.648C290.709 656.19 290.112 656.558 290.112 657.466V661.867C290.14 662.358 290.283 662.836 290.529 663.262C290.774 663.688 291.116 664.051 291.527 664.321L295.339 666.522C296.157 666.971 296.754 666.603 296.754 665.704V661.303C296.729 660.811 296.587 660.332 296.341 659.906C296.095 659.479 295.752 659.117 295.339 658.849Z" fill="black"/>
</g>
<path d="M285.016 654.809L261.981 641.5C260.999 640.935 260.206 641.336 260.206 642.4C260.25 642.994 260.434 643.57 260.742 644.08C261.051 644.59 261.475 645.021 261.981 645.336L285.016 658.645C285.997 659.21 286.791 658.809 286.791 657.745C286.746 657.151 286.562 656.575 286.254 656.065C285.946 655.555 285.521 655.124 285.016 654.809Z" fill="#4E56AB"/>
<path opacity="0.2" d="M285.016 654.809L261.981 641.5C260.999 640.935 260.206 641.336 260.206 642.4C260.25 642.994 260.434 643.57 260.742 644.08C261.051 644.59 261.475 645.021 261.981 645.336L285.016 658.645C285.997 659.21 286.791 658.809 286.791 657.745C286.746 657.151 286.562 656.575 286.254 656.065C285.946 655.555 285.521 655.124 285.016 654.809Z" fill="black"/>
<path d="M295.339 674.194L291.527 671.994C290.709 671.536 290.112 671.904 290.112 672.812V677.213C290.14 677.704 290.282 678.182 290.528 678.608C290.774 679.034 291.116 679.397 291.527 679.667L295.339 681.867C296.157 682.317 296.754 681.949 296.754 681.049V676.648C296.729 676.157 296.587 675.678 296.341 675.251C296.095 674.825 295.752 674.463 295.339 674.194V674.194Z" fill="#E0E0E0"/>
<path d="M285.016 670.154L261.981 656.861C260.999 656.297 260.206 656.698 260.206 657.761C260.249 658.356 260.432 658.932 260.741 659.442C261.049 659.953 261.474 660.383 261.981 660.698L285.016 674.006C285.997 674.571 286.791 674.17 286.791 673.107C286.749 672.509 286.566 671.93 286.258 671.417C285.949 670.904 285.524 670.471 285.016 670.154V670.154Z" fill="#F0F0F0"/>
<path d="M295.339 689.581L291.527 687.381C290.709 686.923 290.112 687.291 290.112 688.199V692.6C290.14 693.091 290.282 693.568 290.528 693.995C290.774 694.421 291.116 694.783 291.527 695.054L295.339 697.254C296.157 697.704 296.754 697.336 296.754 696.436V692.035C296.729 691.543 296.587 691.065 296.341 690.638C296.095 690.211 295.752 689.849 295.339 689.581V689.581Z" fill="#E0E0E0"/>
<path d="M285.016 685.541L261.981 672.24C260.999 671.667 260.206 672.076 260.206 673.132C260.249 673.728 260.432 674.305 260.741 674.817C261.049 675.328 261.474 675.76 261.981 676.076L285.016 689.377C285.997 689.942 286.791 689.541 286.791 688.477C286.746 687.883 286.562 687.307 286.254 686.797C285.946 686.287 285.521 685.856 285.016 685.541Z" fill="#F0F0F0"/>
<path d="M295.339 704.927L291.527 702.726C290.709 702.268 290.112 702.636 290.112 703.544V707.945C290.14 708.436 290.282 708.914 290.528 709.34C290.774 709.766 291.116 710.129 291.527 710.399L295.339 712.6C296.157 713.05 296.754 712.681 296.754 711.782V707.381C296.729 706.889 296.587 706.41 296.341 705.984C296.095 705.557 295.752 705.195 295.339 704.927Z" fill="#E0E0E0"/>
<path d="M285.016 700.886L261.981 687.586C260.999 687.013 260.206 687.422 260.206 688.477C260.249 689.073 260.432 689.651 260.741 690.162C261.049 690.674 261.474 691.106 261.981 691.422L285.016 704.723C285.997 705.287 286.791 704.886 286.791 703.823C286.746 703.229 286.562 702.653 286.254 702.143C285.946 701.632 285.521 701.202 285.016 700.886V700.886Z" fill="#F0F0F0"/>
<path d="M294.987 720.027L278.627 710.562C277.645 709.998 276.852 710.399 276.852 711.462C276.896 712.057 277.08 712.632 277.389 713.142C277.697 713.653 278.121 714.083 278.627 714.399L294.987 723.863C295.96 724.427 296.754 724.027 296.754 722.971C296.711 722.376 296.529 721.8 296.222 721.288C295.915 720.777 295.492 720.344 294.987 720.027V720.027Z" fill="#4E56AB"/>
<path d="M294.987 727.7L261.981 708.648C260.999 708.084 260.206 708.485 260.206 709.54C260.249 710.136 260.432 710.713 260.741 711.225C261.049 711.737 261.474 712.168 261.981 712.485L294.987 731.536C295.96 732.101 296.754 731.7 296.754 730.645C296.711 730.049 296.529 729.473 296.222 728.961C295.915 728.45 295.492 728.018 294.987 727.7V727.7Z" fill="#BA68C8"/>
<path opacity="0.8" d="M294.987 727.7L261.981 708.648C260.999 708.084 260.206 708.485 260.206 709.54C260.249 710.136 260.432 710.713 260.741 711.225C261.049 711.737 261.474 712.168 261.981 712.485L294.987 731.536C295.96 732.101 296.754 731.7 296.754 730.645C296.711 730.049 296.529 729.473 296.222 728.961C295.915 728.45 295.492 728.018 294.987 727.7V727.7Z" fill="white"/>
<path d="M294.987 727.701L271.944 714.4C270.971 713.836 270.177 714.237 270.177 715.3C270.221 715.894 270.404 716.469 270.711 716.979C271.018 717.489 271.44 717.92 271.944 718.237L294.987 731.537C295.96 732.102 296.754 731.701 296.754 730.646C296.711 730.051 296.529 729.474 296.222 728.963C295.915 728.451 295.492 728.019 294.987 727.701V727.701Z" fill="#4E56AB"/>
<path d="M294.987 735.39L278.627 725.926C277.645 725.361 276.852 725.762 276.852 726.825C276.896 727.42 277.08 727.996 277.389 728.506C277.697 729.016 278.121 729.446 278.627 729.762L294.987 739.226C295.96 739.791 296.754 739.39 296.754 738.335C296.711 737.74 296.529 737.163 296.222 736.652C295.915 736.14 295.492 735.708 294.987 735.39V735.39Z" fill="#BA68C8"/>
<path d="M285.016 639.455L261.981 626.154C260.999 625.59 260.206 625.991 260.206 627.054C260.25 627.648 260.434 628.224 260.742 628.734C261.051 629.244 261.475 629.675 261.981 629.991L285.016 643.291C285.997 643.856 286.791 643.455 286.791 642.4C286.748 641.804 286.564 641.226 286.256 640.715C285.947 640.203 285.522 639.771 285.016 639.455V639.455Z" fill="#4E56AB"/>
<path opacity="0.2" d="M285.016 639.455L261.981 626.154C260.999 625.59 260.206 625.991 260.206 627.054C260.25 627.648 260.434 628.224 260.742 628.734C261.051 629.244 261.475 629.675 261.981 629.991L285.016 643.291C285.997 643.856 286.791 643.455 286.791 642.4C286.748 641.804 286.564 641.226 286.256 640.715C285.947 640.203 285.522 639.771 285.016 639.455V639.455Z" fill="black"/>
<path d="M294.987 735.39L278.627 725.926C277.645 725.361 276.852 725.762 276.852 726.825C276.896 727.42 277.08 727.996 277.389 728.506C277.697 729.016 278.121 729.446 278.627 729.762L294.987 739.226C295.96 739.791 296.754 739.39 296.754 738.335C296.711 737.74 296.529 737.163 296.222 736.652C295.915 736.14 295.492 735.708 294.987 735.39V735.39Z" fill="#4E56AB"/>
<path d="M294.987 743.038L261.981 723.986C260.999 723.422 260.206 723.823 260.206 724.878C260.249 725.474 260.432 726.051 260.741 726.563C261.049 727.075 261.474 727.506 261.981 727.823L294.987 746.841C295.96 747.414 296.754 747.005 296.754 745.95C296.706 745.36 296.521 744.79 296.215 744.285C295.908 743.779 295.488 743.352 294.987 743.038V743.038Z" fill="#BA68C8"/>
<path opacity="0.8" d="M294.987 743.038L261.981 723.986C260.999 723.422 260.206 723.823 260.206 724.878C260.249 725.474 260.432 726.051 260.741 726.563C261.049 727.075 261.474 727.506 261.981 727.823L294.987 746.841C295.96 747.414 296.754 747.005 296.754 745.95C296.706 745.36 296.521 744.79 296.215 744.285C295.908 743.779 295.488 743.352 294.987 743.038V743.038Z" fill="white"/>
<path d="M294.987 743.037L265.302 725.859C264.32 725.295 263.527 725.696 263.527 726.759C263.571 727.353 263.755 727.929 264.063 728.439C264.372 728.95 264.796 729.38 265.302 729.696L294.987 746.874C295.96 747.446 296.754 747.037 296.754 745.982C296.711 745.387 296.529 744.81 296.222 744.299C295.915 743.787 295.492 743.355 294.987 743.037V743.037Z" fill="#4E56AB"/>
<path d="M178.913 491.699L253.564 534.799V734.309L178.913 691.217C178.396 690.882 177.966 690.429 177.658 689.896C177.349 689.363 177.171 688.765 177.138 688.15V492.721C177.146 491.625 177.964 491.134 178.913 491.699Z" fill="#EBEBEB"/>
<path opacity="0.6" d="M178.913 491.699L253.564 534.799V734.309L178.913 691.217C178.396 690.882 177.966 690.429 177.658 689.896C177.349 689.363 177.171 688.765 177.138 688.15V492.721C177.146 491.625 177.964 491.134 178.913 491.699Z" fill="white"/>
<path d="M253.564 542.472V557.818L260.206 565.491H253.564V580.836L183.788 540.55V502.186L253.564 542.472Z" fill="#4E56AB"/>
<g opacity="0.6">
<path d="M244.435 543.003L216.165 526.643C214.799 525.825 213.711 526.496 213.711 528.075C213.756 528.932 214.001 529.768 214.427 530.514C214.853 531.259 215.448 531.895 216.165 532.369L244.435 548.688C245.809 549.506 246.889 548.836 246.889 547.257C246.839 546.406 246.592 545.578 246.166 544.839C245.74 544.101 245.147 543.472 244.435 543.003V543.003Z" fill="white"/>
</g>
<path d="M246.03 555.43L191.314 523.839C190.823 523.561 190.43 523.757 190.43 524.289C190.451 524.586 190.542 524.875 190.696 525.131C190.849 525.386 191.061 525.603 191.314 525.761L246.03 557.311C246.521 557.59 246.913 557.393 246.913 556.862C246.886 556.571 246.792 556.291 246.639 556.043C246.486 555.794 246.277 555.585 246.03 555.43V555.43Z" fill="#4E56AB"/>
<path d="M246.03 555.43L191.314 523.839C190.823 523.561 190.43 523.757 190.43 524.289C190.451 524.586 190.542 524.875 190.696 525.131C190.849 525.386 191.061 525.603 191.314 525.761L246.03 557.311C246.521 557.59 246.913 557.393 246.913 556.862C246.886 556.571 246.792 556.291 246.639 556.043C246.486 555.794 246.277 555.585 246.03 555.43V555.43Z" fill="#4E56AB"/>
<path opacity="0.6" d="M246.03 555.43L191.314 523.839C190.823 523.561 190.43 523.757 190.43 524.289C190.451 524.586 190.542 524.875 190.696 525.131C190.849 525.386 191.061 525.603 191.314 525.761L246.03 557.311C246.521 557.59 246.913 557.393 246.913 556.862C246.886 556.571 246.792 556.291 246.639 556.043C246.486 555.794 246.277 555.585 246.03 555.43V555.43Z" fill="white"/>
<path d="M246.03 561.154L191.314 529.563C190.823 529.277 190.43 529.481 190.43 530.013C190.451 530.31 190.543 530.597 190.696 530.851C190.85 531.106 191.061 531.32 191.314 531.477L246.03 563.069C246.521 563.355 246.913 563.15 246.913 562.619C246.892 562.322 246.801 562.035 246.647 561.78C246.494 561.526 246.282 561.311 246.03 561.154Z" fill="#4E56AB"/>
<path opacity="0.6" d="M246.03 561.154L191.314 529.563C190.823 529.277 190.43 529.481 190.43 530.013C190.451 530.31 190.543 530.597 190.696 530.851C190.85 531.106 191.061 531.32 191.314 531.477L246.03 563.069C246.521 563.355 246.913 563.15 246.913 562.619C246.892 562.322 246.801 562.035 246.647 561.78C246.494 561.526 246.282 561.311 246.03 561.154Z" fill="white"/>
<path opacity="0.6" d="M246.03 566.881L191.314 535.29C190.823 535.012 190.43 535.208 190.43 535.74C190.451 536.038 190.542 536.326 190.696 536.582C190.849 536.838 191.061 537.054 191.314 537.212L246.03 568.804C246.521 569.082 246.913 568.885 246.913 568.354C246.892 568.056 246.801 567.768 246.648 567.512C246.494 567.256 246.282 567.04 246.03 566.881V566.881Z" fill="white"/>
<path d="M243.968 582.996L240.132 580.787C239.314 580.329 238.717 580.697 238.717 581.605V586.006C238.744 586.497 238.886 586.975 239.132 587.401C239.378 587.828 239.72 588.19 240.132 588.46L243.944 590.66C244.762 591.11 245.359 590.742 245.359 589.842V585.45C245.336 584.96 245.199 584.483 244.957 584.056C244.716 583.63 244.377 583.266 243.968 582.996V582.996Z" fill="#4E56AB"/>
<path opacity="0.2" d="M243.968 582.996L240.132 580.787C239.314 580.329 238.717 580.697 238.717 581.605V586.006C238.744 586.497 238.886 586.975 239.132 587.401C239.378 587.828 239.72 588.19 240.132 588.46L243.944 590.66C244.762 591.11 245.359 590.742 245.359 589.842V585.45C245.336 584.96 245.199 584.483 244.957 584.056C244.716 583.63 244.377 583.266 243.968 582.996V582.996Z" fill="white"/>
<path d="M233.645 578.955L210.61 565.646C209.629 565.082 208.835 565.483 208.835 566.546C208.88 567.141 209.064 567.716 209.372 568.226C209.68 568.737 210.105 569.167 210.61 569.483L233.645 582.792C234.627 583.356 235.42 582.955 235.42 581.892C235.376 581.297 235.192 580.722 234.884 580.211C234.575 579.701 234.151 579.271 233.645 578.955V578.955Z" fill="#4E56AB"/>
<path opacity="0.8" d="M233.645 578.955L210.61 565.646C209.629 565.082 208.835 565.483 208.835 566.546C208.88 567.141 209.064 567.716 209.372 568.226C209.68 568.737 210.105 569.167 210.61 569.483L233.645 582.792C234.627 583.356 235.42 582.955 235.42 581.892C235.376 581.297 235.192 580.722 234.884 580.211C234.575 579.701 234.151 579.271 233.645 578.955V578.955Z" fill="white"/>
<path d="M244.5 596.738L186.422 563.2C185.931 562.914 185.539 563.118 185.539 563.642C185.559 563.94 185.65 564.228 185.803 564.484C185.957 564.74 186.169 564.956 186.422 565.114L244.5 598.652C244.991 598.939 245.384 598.734 245.384 598.202C245.362 597.906 245.271 597.619 245.118 597.364C244.964 597.11 244.753 596.895 244.5 596.738Z" fill="#BA68C8"/>
<path d="M244.5 602.488L186.422 568.95C185.931 568.672 185.539 568.868 185.539 569.4C185.56 569.698 185.651 569.986 185.804 570.242C185.958 570.498 186.169 570.714 186.422 570.873L244.5 604.411C244.991 604.689 245.384 604.492 245.384 603.961C245.362 603.663 245.271 603.375 245.118 603.119C244.964 602.863 244.753 602.647 244.5 602.488Z" fill="#BA68C8"/>
<path d="M244.5 608.248L186.422 574.71C185.931 574.424 185.539 574.628 185.539 575.152C185.559 575.449 185.65 575.738 185.803 575.994C185.957 576.25 186.169 576.466 186.422 576.624L244.5 610.162C244.991 610.448 245.384 610.244 245.384 609.72C245.363 609.423 245.272 609.134 245.119 608.878C244.965 608.622 244.753 608.406 244.5 608.248Z" fill="#BA68C8"/>
<path d="M244.5 614.014L186.422 580.476C185.931 580.198 185.539 580.394 185.539 580.926C185.56 581.223 185.651 581.512 185.804 581.767C185.958 582.023 186.169 582.239 186.422 582.398L244.5 615.936C244.991 616.214 245.384 616.018 245.384 615.486C245.362 615.188 245.271 614.9 245.118 614.644C244.964 614.388 244.753 614.172 244.5 614.014Z" fill="#BA68C8"/>
<path d="M244.5 596.738L186.422 563.2C185.931 562.914 185.539 563.118 185.539 563.642C185.559 563.94 185.65 564.228 185.803 564.484C185.957 564.74 186.169 564.956 186.422 565.114L244.5 598.652C244.991 598.939 245.384 598.734 245.384 598.202C245.362 597.906 245.271 597.619 245.118 597.364C244.964 597.11 244.753 596.895 244.5 596.738Z" fill="#E0E0E0"/>
<path d="M244.5 602.488L186.422 568.95C185.931 568.672 185.539 568.868 185.539 569.4C185.56 569.698 185.651 569.986 185.804 570.242C185.958 570.498 186.169 570.714 186.422 570.873L244.5 604.411C244.991 604.689 245.384 604.492 245.384 603.961C245.362 603.663 245.271 603.375 245.118 603.119C244.964 602.863 244.753 602.647 244.5 602.488Z" fill="#E0E0E0"/>
<path d="M244.5 608.248L186.422 574.71C185.931 574.424 185.539 574.628 185.539 575.152C185.559 575.449 185.65 575.738 185.803 575.994C185.957 576.25 186.169 576.466 186.422 576.624L244.5 610.162C244.991 610.448 245.384 610.244 245.384 609.72C245.363 609.423 245.272 609.134 245.119 608.878C244.965 608.622 244.753 608.406 244.5 608.248Z" fill="#E0E0E0"/>
<path d="M244.5 614.014L186.422 580.476C185.931 580.198 185.539 580.394 185.539 580.926C185.56 581.223 185.651 581.512 185.804 581.767C185.958 582.023 186.169 582.239 186.422 582.398L244.5 615.936C244.991 616.214 245.384 616.018 245.384 615.486C245.362 615.188 245.271 614.9 245.118 614.644C244.964 614.388 244.753 614.172 244.5 614.014Z" fill="#E0E0E0"/>
<path opacity="0.8" d="M244.5 596.738L186.422 563.2C185.931 562.914 185.539 563.118 185.539 563.642C185.559 563.94 185.65 564.228 185.803 564.484C185.957 564.74 186.169 564.956 186.422 565.114L244.5 598.652C244.991 598.939 245.384 598.734 245.384 598.202C245.362 597.906 245.271 597.619 245.118 597.364C244.964 597.11 244.753 596.895 244.5 596.738Z" fill="#E0E0E0"/>
<path opacity="0.8" d="M244.5 602.488L186.422 568.95C185.931 568.672 185.539 568.868 185.539 569.4C185.56 569.698 185.651 569.986 185.804 570.242C185.958 570.498 186.169 570.714 186.422 570.873L244.5 604.411C244.991 604.689 245.384 604.492 245.384 603.961C245.362 603.663 245.271 603.375 245.118 603.119C244.964 602.863 244.753 602.647 244.5 602.488Z" fill="#E0E0E0"/>
<path opacity="0.8" d="M244.5 608.248L186.422 574.71C185.931 574.424 185.539 574.628 185.539 575.152C185.559 575.449 185.65 575.738 185.803 575.994C185.957 576.25 186.169 576.466 186.422 576.624L244.5 610.162C244.991 610.448 245.384 610.244 245.384 609.72C245.363 609.423 245.272 609.134 245.119 608.878C244.965 608.622 244.753 608.406 244.5 608.248Z" fill="#E0E0E0"/>
<path opacity="0.8" d="M244.5 614.014L186.422 580.476C185.931 580.198 185.539 580.394 185.539 580.926C185.56 581.223 185.651 581.512 185.804 581.767C185.958 582.023 186.169 582.239 186.422 582.398L244.5 615.936C244.991 616.214 245.384 616.018 245.384 615.486C245.362 615.188 245.271 614.9 245.118 614.644C244.964 614.388 244.753 614.172 244.5 614.014Z" fill="#E0E0E0"/>
<path d="M244.5 638.457L186.422 604.919C185.931 604.633 185.539 604.837 185.539 605.361C185.559 605.658 185.65 605.947 185.803 606.203C185.957 606.459 186.169 606.675 186.422 606.833L244.5 640.371C244.991 640.657 245.384 640.453 245.384 639.921C245.362 639.625 245.271 639.337 245.118 639.083C244.964 638.828 244.753 638.614 244.5 638.457Z" fill="#E0E0E0"/>
<path d="M244.5 644.207L186.422 610.669C185.931 610.391 185.539 610.587 185.539 611.119C185.56 611.416 185.651 611.705 185.804 611.961C185.958 612.217 186.169 612.433 186.422 612.591L244.5 646.129C244.991 646.407 245.384 646.211 245.384 645.679C245.362 645.382 245.271 645.093 245.118 644.838C244.964 644.582 244.753 644.366 244.5 644.207V644.207Z" fill="#E0E0E0"/>
<path d="M244.5 649.965L186.422 616.427C185.931 616.14 185.539 616.345 185.539 616.868C185.559 617.166 185.65 617.455 185.803 617.711C185.957 617.967 186.169 618.183 186.422 618.341L244.5 651.879C244.991 652.165 245.384 651.961 245.384 651.437C245.363 651.139 245.272 650.851 245.119 650.595C244.965 650.339 244.753 650.123 244.5 649.965V649.965Z" fill="#E0E0E0"/>
<path d="M244.5 655.732L186.422 622.194C185.931 621.916 185.539 622.113 185.539 622.644C185.56 622.942 185.651 623.23 185.804 623.486C185.958 623.742 186.169 623.958 186.422 624.117L244.5 657.655C244.991 657.933 245.384 657.736 245.384 657.205C245.362 656.907 245.271 656.619 245.118 656.363C244.964 656.107 244.753 655.891 244.5 655.732V655.732Z" fill="#E0E0E0"/>
<path opacity="0.8" d="M244.5 638.457L186.422 604.919C185.931 604.633 185.539 604.837 185.539 605.361C185.559 605.658 185.65 605.947 185.803 606.203C185.957 606.459 186.169 606.675 186.422 606.833L244.5 640.371C244.991 640.657 245.384 640.453 245.384 639.921C245.362 639.625 245.271 639.337 245.118 639.083C244.964 638.828 244.753 638.614 244.5 638.457Z" fill="#E0E0E0"/>
<path opacity="0.8" d="M244.5 644.207L186.422 610.669C185.931 610.391 185.539 610.587 185.539 611.119C185.56 611.416 185.651 611.705 185.804 611.961C185.958 612.217 186.169 612.433 186.422 612.591L244.5 646.129C244.991 646.407 245.384 646.211 245.384 645.679C245.362 645.382 245.271 645.093 245.118 644.838C244.964 644.582 244.753 644.366 244.5 644.207V644.207Z" fill="#E0E0E0"/>
<path opacity="0.8" d="M244.5 649.965L186.422 616.427C185.931 616.14 185.539 616.345 185.539 616.868C185.559 617.166 185.65 617.455 185.803 617.711C185.957 617.967 186.169 618.183 186.422 618.341L244.5 651.879C244.991 652.165 245.384 651.961 245.384 651.437C245.363 651.139 245.272 650.851 245.119 650.595C244.965 650.339 244.753 650.123 244.5 649.965V649.965Z" fill="#E0E0E0"/>
<path opacity="0.8" d="M244.5 655.732L186.422 622.194C185.931 621.916 185.539 622.113 185.539 622.644C185.56 622.942 185.651 623.23 185.804 623.486C185.958 623.742 186.169 623.958 186.422 624.117L244.5 657.655C244.991 657.933 245.384 657.736 245.384 657.205C245.362 656.907 245.271 656.619 245.118 656.363C244.964 656.107 244.753 655.891 244.5 655.732V655.732Z" fill="#E0E0E0"/>
<path d="M244.5 680.992L186.422 647.454C185.931 647.168 185.539 647.372 185.539 647.896C185.559 648.194 185.65 648.482 185.803 648.738C185.957 648.994 186.169 649.21 186.422 649.368L244.5 682.906C244.991 683.193 245.384 682.988 245.384 682.456C245.362 682.16 245.271 681.873 245.118 681.618C244.964 681.364 244.753 681.149 244.5 680.992V680.992Z" fill="#E0E0E0"/>
<path d="M244.5 686.742L186.422 653.204C185.931 652.926 185.539 653.122 185.539 653.654C185.56 653.952 185.651 654.24 185.804 654.496C185.958 654.752 186.169 654.968 186.422 655.126L244.5 688.664C244.991 688.943 245.384 688.746 245.384 688.215C245.362 687.917 245.271 687.629 245.118 687.373C244.964 687.117 244.753 686.901 244.5 686.742V686.742Z" fill="#E0E0E0"/>
<path d="M244.5 692.502L186.422 658.964C185.931 658.678 185.539 658.882 185.539 659.406C185.559 659.703 185.65 659.992 185.803 660.248C185.957 660.504 186.169 660.72 186.422 660.878L244.5 694.416C244.991 694.702 245.384 694.498 245.384 693.974C245.363 693.677 245.272 693.388 245.119 693.132C244.965 692.876 244.753 692.66 244.5 692.502Z" fill="#E0E0E0"/>
<path d="M244.5 698.268L186.422 664.73C185.931 664.451 185.539 664.648 185.539 665.179C185.56 665.477 185.651 665.765 185.804 666.021C185.958 666.277 186.169 666.493 186.422 666.652L244.5 700.19C244.991 700.468 245.384 700.272 245.384 699.74C245.362 699.442 245.271 699.154 245.118 698.898C244.964 698.642 244.753 698.426 244.5 698.268V698.268Z" fill="#E0E0E0"/>
<path opacity="0.8" d="M244.5 680.992L186.422 647.454C185.931 647.168 185.539 647.372 185.539 647.896C185.559 648.194 185.65 648.482 185.803 648.738C185.957 648.994 186.169 649.21 186.422 649.368L244.5 682.906C244.991 683.193 245.384 682.988 245.384 682.456C245.362 682.16 245.271 681.873 245.118 681.618C244.964 681.364 244.753 681.149 244.5 680.992V680.992Z" fill="#E0E0E0"/>
<path opacity="0.8" d="M244.5 686.742L186.422 653.204C185.931 652.926 185.539 653.122 185.539 653.654C185.56 653.952 185.651 654.24 185.804 654.496C185.958 654.752 186.169 654.968 186.422 655.126L244.5 688.664C244.991 688.943 245.384 688.746 245.384 688.215C245.362 687.917 245.271 687.629 245.118 687.373C244.964 687.117 244.753 686.901 244.5 686.742V686.742Z" fill="#E0E0E0"/>
<path opacity="0.8" d="M244.5 692.502L186.422 658.964C185.931 658.678 185.539 658.882 185.539 659.406C185.559 659.703 185.65 659.992 185.803 660.248C185.957 660.504 186.169 660.72 186.422 660.878L244.5 694.416C244.991 694.702 245.384 694.498 245.384 693.974C245.363 693.677 245.272 693.388 245.119 693.132C244.965 692.876 244.753 692.66 244.5 692.502Z" fill="#E0E0E0"/>
<path opacity="0.8" d="M244.5 698.268L186.422 664.73C185.931 664.451 185.539 664.648 185.539 665.179C185.56 665.477 185.651 665.765 185.804 666.021C185.958 666.277 186.169 666.493 186.422 666.652L244.5 700.19C244.991 700.468 245.384 700.272 245.384 699.74C245.362 699.442 245.271 699.154 245.118 698.898C244.964 698.642 244.753 698.426 244.5 698.268V698.268Z" fill="#E0E0E0"/>
<path d="M243.968 625.197L240.132 622.997C239.314 622.547 238.717 622.915 238.717 623.815V628.232C238.742 628.724 238.884 629.202 239.129 629.629C239.375 630.056 239.719 630.418 240.132 630.686L243.944 632.886C244.762 633.336 245.359 632.976 245.359 632.068V627.667C245.338 627.175 245.202 626.695 244.96 626.266C244.718 625.836 244.379 625.47 243.968 625.197V625.197Z" fill="#4E56AB"/>
<path opacity="0.2" d="M243.968 625.197L240.132 622.997C239.314 622.547 238.717 622.915 238.717 623.815V628.232C238.742 628.724 238.884 629.202 239.129 629.629C239.375 630.056 239.719 630.418 240.132 630.686L243.944 632.886C244.762 633.336 245.359 632.976 245.359 632.068V627.667C245.338 627.175 245.202 626.695 244.96 626.266C244.718 625.836 244.379 625.47 243.968 625.197V625.197Z" fill="white"/>
<path d="M233.645 621.156L210.61 607.856C209.629 607.291 208.835 607.692 208.835 608.747C208.878 609.343 209.062 609.92 209.37 610.432C209.679 610.944 210.104 611.375 210.61 611.692L233.645 624.96C234.627 625.524 235.42 625.124 235.42 624.068C235.372 623.478 235.186 622.907 234.878 622.402C234.57 621.896 234.148 621.469 233.645 621.156V621.156Z" fill="#4E56AB"/>
<path opacity="0.8" d="M233.645 621.156L210.61 607.856C209.629 607.291 208.835 607.692 208.835 608.747C208.878 609.343 209.062 609.92 209.37 610.432C209.679 610.944 210.104 611.375 210.61 611.692L233.645 624.96C234.627 625.524 235.42 625.124 235.42 624.068C235.372 623.478 235.186 622.907 234.878 622.402C234.57 621.896 234.148 621.469 233.645 621.156V621.156Z" fill="white"/>
<path d="M243.968 667.405L240.132 665.205C239.314 664.747 238.717 665.115 238.717 666.023V670.424C238.743 670.915 238.884 671.394 239.13 671.82C239.376 672.247 239.719 672.609 240.132 672.878L243.944 675.078C244.762 675.528 245.359 675.16 245.359 674.26V669.859C245.336 669.37 245.199 668.892 244.957 668.466C244.716 668.04 244.377 667.676 243.968 667.405V667.405Z" fill="#4E56AB"/>
<path opacity="0.2" d="M243.968 667.405L240.132 665.205C239.314 664.747 238.717 665.115 238.717 666.023V670.424C238.743 670.915 238.884 671.394 239.13 671.82C239.376 672.247 239.719 672.609 240.132 672.878L243.944 675.078C244.762 675.528 245.359 675.16 245.359 674.26V669.859C245.336 669.37 245.199 668.892 244.957 668.466C244.716 668.04 244.377 667.676 243.968 667.405V667.405Z" fill="#4E56AB"/>
<path d="M233.645 663.404L210.61 650.096C209.629 649.531 208.835 649.932 208.835 650.995C208.879 651.591 209.063 652.168 209.371 652.68C209.679 653.191 210.104 653.623 210.61 653.94L233.645 667.241C234.627 667.805 235.42 667.404 235.42 666.341C235.376 665.746 235.192 665.171 234.884 664.661C234.575 664.15 234.151 663.72 233.645 663.404V663.404Z" fill="#4E56AB"/>
<path opacity="0.8" d="M233.645 663.404L210.61 650.096C209.629 649.531 208.835 649.932 208.835 650.995C208.879 651.591 209.063 652.168 209.371 652.68C209.679 653.191 210.104 653.623 210.61 653.94L233.645 667.241C234.627 667.805 235.42 667.404 235.42 666.341C235.376 665.746 235.192 665.171 234.884 664.661C234.575 664.15 234.151 663.72 233.645 663.404V663.404Z" fill="white"/>
<path d="M238.545 704.558L234.733 702.358C233.915 701.908 233.31 702.276 233.31 703.176V707.577C233.337 708.069 233.48 708.548 233.727 708.975C233.974 709.401 234.319 709.763 234.733 710.031L238.545 712.231C239.322 712.689 239.96 712.321 239.96 711.413V707.012C239.932 706.521 239.789 706.044 239.543 705.618C239.298 705.192 238.956 704.829 238.545 704.558V704.558Z" fill="#4E56AB"/>
<path d="M244.5 719.512L228.77 710.433C228.279 710.155 227.887 710.351 227.887 710.883C227.908 711.18 227.999 711.469 228.152 711.724C228.306 711.98 228.517 712.196 228.77 712.355L244.5 721.435C244.991 721.713 245.384 721.517 245.384 720.985C245.362 720.687 245.271 720.399 245.118 720.143C244.964 719.887 244.753 719.671 244.5 719.512V719.512Z" fill="#E0E0E0"/>
<path d="M217.383 692.338L213.572 690.137C212.794 689.687 212.156 690.056 212.156 690.955V695.356C212.183 695.848 212.325 696.326 212.571 696.752C212.817 697.179 213.16 697.541 213.572 697.81L217.383 700.011C218.201 700.46 218.807 700.101 218.807 699.193V694.792C218.779 694.3 218.636 693.821 218.389 693.394C218.141 692.968 217.797 692.606 217.383 692.338V692.338Z" fill="#4E56AB"/>
<path d="M223.347 707.291L207.617 698.212C207.126 697.925 206.733 698.13 206.733 698.662C206.754 698.958 206.845 699.245 206.999 699.5C207.152 699.754 207.364 699.969 207.617 700.126L223.347 709.214C223.837 709.5 224.23 709.296 224.23 708.772C224.211 708.473 224.121 708.183 223.967 707.925C223.813 707.668 223.601 707.45 223.347 707.291Z" fill="#E0E0E0"/>
<path d="M196.23 680.116L192.418 677.916C191.641 677.458 191.003 677.826 191.003 678.734V683.135C191.031 683.626 191.173 684.104 191.419 684.53C191.665 684.956 192.007 685.319 192.418 685.589L196.23 687.789C197.048 688.239 197.645 687.871 197.645 686.971V682.57C197.62 682.078 197.478 681.6 197.232 681.173C196.986 680.747 196.643 680.384 196.23 680.116V680.116Z" fill="#4E56AB"/>
<path opacity="0.2" d="M238.545 704.558L234.733 702.358C233.915 701.908 233.31 702.276 233.31 703.176V707.577C233.337 708.069 233.48 708.548 233.727 708.975C233.974 709.401 234.319 709.763 234.733 710.031L238.545 712.231C239.322 712.689 239.96 712.321 239.96 711.413V707.012C239.932 706.521 239.789 706.044 239.543 705.618C239.298 705.192 238.956 704.829 238.545 704.558V704.558Z" fill="white"/>
<path opacity="0.2" d="M217.383 692.338L213.572 690.137C212.794 689.687 212.156 690.056 212.156 690.955V695.356C212.183 695.848 212.325 696.326 212.571 696.752C212.817 697.179 213.16 697.541 213.572 697.81L217.383 700.011C218.201 700.46 218.807 700.101 218.807 699.193V694.792C218.779 694.3 218.636 693.821 218.389 693.394C218.141 692.968 217.797 692.606 217.383 692.338V692.338Z" fill="white"/>
<path opacity="0.2" d="M196.23 680.116L192.418 677.916C191.641 677.458 191.003 677.826 191.003 678.734V683.135C191.031 683.626 191.173 684.104 191.419 684.53C191.665 684.956 192.007 685.319 192.418 685.589L196.23 687.789C197.048 688.239 197.645 687.871 197.645 686.971V682.57C197.62 682.078 197.478 681.6 197.232 681.173C196.986 680.747 196.643 680.384 196.23 680.116V680.116Z" fill="white"/>
<path d="M202.193 695.069L186.463 685.989C185.972 685.703 185.58 685.907 185.58 686.431C185.6 686.729 185.691 687.017 185.844 687.273C185.998 687.529 186.21 687.745 186.463 687.903L202.193 696.983C202.676 697.269 203.077 697.065 203.077 696.533C203.054 696.237 202.962 695.951 202.808 695.697C202.655 695.442 202.444 695.227 202.193 695.069V695.069Z" fill="#E0E0E0"/>
<path d="M280.14 558.587C289.318 563.756 296.754 576.64 296.754 587.356C296.754 598.071 289.318 602.472 280.14 597.172C270.962 591.871 263.527 578.996 263.527 568.394C263.527 557.793 270.971 553.409 280.14 558.587Z" fill="#FAFAFA"/>
<path d="M272.091 591.61L285.392 595.176C285.621 595.251 285.865 595.267 286.102 595.224C286.339 595.18 286.561 595.078 286.749 594.927C286.937 594.776 287.083 594.581 287.176 594.358C287.269 594.136 287.306 593.894 287.281 593.655V571.012C287.234 569.138 286.609 567.324 285.49 565.82C284.371 564.316 282.813 563.195 281.032 562.611L276.484 561.393C273.024 560.468 270.218 562.726 270.218 566.431V589.082C270.233 589.645 270.421 590.189 270.756 590.641C271.091 591.094 271.557 591.432 272.091 591.61V591.61Z" fill="#37474F"/>
<path d="M271.453 597.467L272.852 591.291C272.852 591.291 272.852 582.955 274.038 582.186C275.224 581.417 275.568 581.27 275.568 581.27C274.046 580.747 270.84 580.354 269.842 583.282C268.885 586.047 267.453 592.861 266.774 596.215L271.453 597.467Z" fill="#F28F8F"/>
<path d="M271.568 597.498L276.312 581.343C274.21 580.525 271.51 579.846 270.202 582.014C269.024 583.96 267.142 594.161 266.774 596.214L271.568 597.498Z" fill="#4E56AB"/>
<g opacity="0.4">
<path d="M271.568 597.498L276.312 581.343C274.21 580.525 271.51 579.846 270.202 582.014C269.024 583.96 267.142 594.161 266.774 596.214L271.568 597.498Z" fill="black"/>
</g>
<path d="M270.93 597.328L275.592 598.579C275.405 597.24 274.963 595.949 274.292 594.775C273.358 593.431 272.016 592.424 270.463 591.904C270.799 593.692 270.956 595.509 270.93 597.328Z" fill="#BA68C8"/>
<path d="M270.93 597.328L275.592 598.579C275.405 597.24 274.963 595.949 274.292 594.775C273.358 593.431 272.016 592.424 270.463 591.904C270.799 593.692 270.956 595.509 270.93 597.328Z" fill="#BA68C8"/>
<g opacity="0.7">
<path d="M270.93 597.328L275.592 598.579C275.405 597.24 274.963 595.949 274.292 594.775C273.358 593.431 272.016 592.424 270.463 591.904C270.799 593.692 270.956 595.509 270.93 597.328Z" fill="black"/>
</g>
<path d="M271.928 597.597L285.016 601.09L286.455 596.632C286.455 596.632 282.635 587.691 287.355 585.393C286.758 584.943 281.727 582.98 281.727 582.98L276.32 581.344C275.29 581.066 271.126 582.914 270.071 587.012C269.694 588.46 269.825 589.761 271.944 597.303C271.919 597.401 271.928 597.499 271.928 597.597Z" fill="#4E56AB"/>
<path d="M273.007 564.174C272.108 564.501 270.995 566.628 271.101 571.757C271.191 576.108 272.5 577.483 273.155 578.006C274.135 578.497 275.216 578.752 276.312 578.751V581.344C276.312 581.344 274.611 582.98 274.717 584.223C274.823 585.466 277.171 586.35 278.758 585.614C279.917 584.96 280.919 584.061 281.695 582.98V577.008C281.814 577.146 281.96 577.258 282.123 577.339C282.287 577.42 282.464 577.468 282.646 577.479C282.828 577.49 283.011 577.466 283.183 577.406C283.355 577.346 283.514 577.253 283.65 577.131C283.905 576.956 284.123 576.732 284.29 576.471C284.457 576.211 284.571 575.919 284.623 575.614C284.676 575.309 284.667 574.997 284.596 574.695C284.526 574.394 284.396 574.109 284.214 573.859C283.396 572.787 281.964 572.632 281.408 573.704C280.716 572.023 279.476 570.625 277.891 569.736C275.306 568.166 273.899 566.767 273.007 564.174Z" fill="#FFA8A7"/>
<path d="M275.6 571.88C275.597 572.035 275.641 572.187 275.728 572.316C275.814 572.445 275.938 572.544 276.083 572.599C276.145 572.621 276.21 572.627 276.275 572.617C276.339 572.607 276.4 572.582 276.452 572.543C276.505 572.504 276.547 572.454 276.575 572.395C276.603 572.336 276.617 572.272 276.615 572.207C276.618 572.052 276.574 571.899 276.487 571.77C276.401 571.642 276.277 571.543 276.132 571.487C276.071 571.466 276.005 571.46 275.941 571.469C275.876 571.479 275.815 571.505 275.763 571.543C275.711 571.582 275.668 571.633 275.64 571.691C275.612 571.75 275.598 571.815 275.6 571.88V571.88Z" fill="#37474F"/>
<path d="M275.47 575.512L274.292 575.594C274.326 575.773 274.42 575.936 274.558 576.056C274.696 576.176 274.87 576.247 275.052 576.256C275.38 576.232 275.568 575.88 275.47 575.512Z" fill="#F28F8F"/>
<path d="M271.445 569.099L272.468 568.616C272.407 568.458 272.289 568.328 272.138 568.251C271.987 568.174 271.813 568.155 271.65 568.199C271.576 568.244 271.513 568.303 271.463 568.373C271.413 568.443 271.377 568.522 271.358 568.606C271.339 568.69 271.337 568.776 271.352 568.861C271.367 568.946 271.399 569.026 271.445 569.099V569.099Z" fill="#37474F"/>
<path d="M277.073 571.011L276.05 569.972C276.105 569.917 276.17 569.874 276.242 569.846C276.314 569.818 276.391 569.805 276.468 569.809C276.546 569.813 276.621 569.833 276.69 569.868C276.759 569.904 276.82 569.953 276.868 570.013C277.01 570.132 277.108 570.295 277.145 570.477C277.182 570.658 277.157 570.846 277.073 571.011V571.011Z" fill="#37474F"/>
<path d="M271.682 570.439C271.677 570.594 271.721 570.747 271.808 570.876C271.895 571.005 272.019 571.104 272.165 571.158C272.227 571.18 272.294 571.186 272.359 571.176C272.424 571.166 272.485 571.14 272.538 571.1C272.59 571.06 272.632 571.008 272.66 570.949C272.688 570.889 272.7 570.823 272.697 570.758C272.699 570.603 272.654 570.451 272.568 570.322C272.482 570.194 272.358 570.094 272.214 570.038C272.152 570.016 272.085 570.01 272.02 570.02C271.955 570.031 271.894 570.057 271.841 570.096C271.789 570.136 271.747 570.188 271.719 570.248C271.691 570.307 271.679 570.373 271.682 570.439Z" fill="#37474F"/>
<path d="M274.071 570.766L273.997 574.013L272.386 573.048L274.071 570.766Z" fill="#F28F8F"/>
<path d="M276.312 578.75C277.604 578.914 280.271 578.807 280.688 577.793C280.537 578.291 280.204 578.715 279.756 578.979C278.938 579.503 276.312 579.617 276.312 579.617V578.75Z" fill="#F28F8F"/>
<path d="M284.942 601.082L285.49 599.135L284.05 600.844L284.942 601.082Z" fill="#BA68C8"/>
<path d="M286.014 601.367C286.601 598.569 287.397 595.818 288.394 593.138C289.768 589.367 288.23 586.111 287.306 585.392C286.382 584.672 281.678 582.979 281.678 582.979C279.977 587.821 279.51 594.308 279.47 599.617L286.014 601.367Z" fill="#4E56AB"/>
<path opacity="0.4" d="M286.014 601.367C286.601 598.569 287.397 595.818 288.394 593.138C289.768 589.367 288.23 586.111 287.306 585.392C286.382 584.672 281.678 582.979 281.678 582.979C279.977 587.821 279.51 594.308 279.47 599.617L286.014 601.367Z" fill="black"/>
<path d="M288.337 601.99L293.008 603.241C293.138 603.153 293.261 603.055 293.376 602.947C293.376 602.947 291.167 594.423 290.464 591.593C289.76 588.763 289.22 586.816 287.322 585.393C283.911 587.609 285.49 593.769 285.49 593.769L288.337 601.99Z" fill="#4E56AB"/>
<path opacity="0.4" d="M288.337 601.99L293.008 603.241C293.138 603.153 293.261 603.055 293.376 602.947C293.376 602.947 291.167 594.423 290.464 591.593C289.76 588.763 289.22 586.816 287.322 585.393C283.911 587.609 285.49 593.769 285.49 593.769L288.337 601.99Z" fill="black"/>
<path d="M356.345 547.52V531.315C356.394 528.174 354.349 525.025 350.202 522.636C342.022 517.9 328.721 517.9 320.525 522.636C316.378 525.025 314.333 528.174 314.382 531.315V547.462C314.382 550.587 316.394 556.174 320.525 558.555C328.705 563.291 342.006 563.291 350.202 558.555C354.292 556.199 356.337 550.653 356.345 547.552V547.52Z" fill="#DADBDD"/>
<path d="M335.364 511.209L300.738 531.201L335.364 551.193L369.99 531.201L335.364 511.209Z" fill="white"/>
<path d="M352.689 541.189L335.634 531.455C335.563 531.414 335.486 531.388 335.405 531.378C335.325 531.368 335.243 531.373 335.165 531.395C335.087 531.416 335.013 531.452 334.949 531.502C334.885 531.552 334.831 531.613 334.791 531.684C334.751 531.754 334.725 531.832 334.714 531.912C334.704 531.992 334.71 532.074 334.731 532.152C334.752 532.231 334.789 532.304 334.838 532.368C334.888 532.432 334.95 532.486 335.02 532.526L351.47 541.892L352.689 541.189Z" fill="#E0E0E0"/>
<path d="M300.738 531.201V532.633L335.364 552.616V551.193L300.738 531.201Z" fill="#E6E6E6"/>
<path d="M369.99 531.201V532.633L335.364 552.616V551.193L369.99 531.201Z" fill="#F0F0F0"/>
<path d="M353.548 542.122L352.493 542.727C352.333 542.466 352.111 542.25 351.846 542.097L351.478 541.884L352.681 541.197C353.036 541.436 353.332 541.752 353.548 542.122V542.122Z" fill="#E0E0E0"/>
<path d="M314.341 540.484L335.364 554.758L356.329 540.517L335.364 552.615L314.341 540.484Z" fill="#E0E0E0"/>
<path d="M354.897 558.955C354.604 559.106 354.279 559.185 353.948 559.185C353.618 559.185 353.293 559.106 353 558.955L351.437 569.041C351.437 570.947 356.386 570.947 356.386 569.041L354.897 558.955Z" fill="white"/>
<path d="M354.987 564.715L355.298 570.245C355.4 570.214 355.499 570.173 355.593 570.122L354.987 564.715Z" fill="#EBEBEB"/>
<path d="M352.648 570.285L353.302 561.287L352.329 570.154C352.432 570.204 352.539 570.248 352.648 570.285V570.285Z" fill="#EBEBEB"/>
<path d="M353.76 570.465H354.071L353.908 563.324L353.76 570.465Z" fill="#EBEBEB"/>
<path d="M353.957 559.798C353.594 559.789 353.243 559.67 352.951 559.455C352.826 559.363 352.742 559.227 352.714 559.075C352.687 558.923 352.719 558.766 352.803 558.637C352.893 558.51 353.028 558.422 353.181 558.393C353.333 558.364 353.492 558.396 353.621 558.481C353.699 558.557 353.803 558.599 353.912 558.599C354.02 558.599 354.124 558.557 354.202 558.481C354.266 558.425 354.34 558.382 354.421 558.356C354.502 558.33 354.588 558.321 354.673 558.329C354.758 558.338 354.84 558.364 354.914 558.407C354.988 558.449 355.052 558.506 355.103 558.574C355.154 558.643 355.189 558.721 355.208 558.804C355.227 558.887 355.228 558.973 355.212 559.057C355.196 559.14 355.163 559.22 355.114 559.29C355.065 559.36 355.003 559.419 354.93 559.463C354.649 559.674 354.308 559.791 353.957 559.798V559.798Z" fill="#E0E0E0"/>
<path d="M353.916 558.227C353.836 558.228 353.756 558.213 353.682 558.183C353.607 558.153 353.54 558.109 353.482 558.053C353.425 557.996 353.38 557.929 353.349 557.855C353.318 557.781 353.302 557.702 353.302 557.622V543.323C353.301 543.002 353.216 542.686 353.056 542.407C352.895 542.129 352.664 541.898 352.386 541.736L335.02 531.838C334.882 531.759 334.781 531.629 334.738 531.476C334.695 531.323 334.714 531.159 334.791 531.02C334.829 530.951 334.881 530.89 334.943 530.841C335.005 530.793 335.076 530.756 335.152 530.735C335.228 530.714 335.308 530.708 335.386 530.717C335.465 530.727 335.54 530.752 335.609 530.791L353.016 540.705C353.48 540.973 353.866 541.358 354.134 541.822C354.402 542.286 354.544 542.812 354.546 543.348V557.646C354.542 557.726 354.524 557.804 354.49 557.876C354.457 557.948 354.41 558.013 354.351 558.067C354.293 558.121 354.224 558.163 354.149 558.19C354.075 558.218 353.995 558.23 353.916 558.227V558.227Z" fill="white"/>
<path d="M352.574 557.623C352.573 557.357 352.65 557.097 352.796 556.876C352.943 556.654 353.152 556.481 353.397 556.378C353.642 556.275 353.912 556.247 354.172 556.298C354.433 556.349 354.673 556.476 354.861 556.663C355.05 556.851 355.179 557.09 355.231 557.35C355.283 557.611 355.257 557.881 355.156 558.126C355.055 558.372 354.883 558.582 354.662 558.73C354.441 558.878 354.182 558.956 353.916 558.956C353.74 558.958 353.566 558.924 353.403 558.857C353.24 558.791 353.092 558.693 352.968 558.569C352.843 558.445 352.744 558.298 352.677 558.135C352.609 557.973 352.574 557.799 352.574 557.623V557.623Z" fill="#F5F5F5"/>
<path d="M355.241 557.696C355.185 557.834 355.1 557.959 354.992 558.061C354.883 558.164 354.754 558.242 354.613 558.29C354.471 558.338 354.321 558.355 354.173 558.34C354.024 558.325 353.881 558.278 353.752 558.203C353.588 558.104 353.452 557.964 353.358 557.797C353.263 557.63 353.214 557.442 353.214 557.25C353.214 557.058 353.263 556.87 353.358 556.703C353.452 556.536 353.588 556.396 353.752 556.297C353.502 556.331 353.267 556.436 353.074 556.599C352.881 556.762 352.738 556.977 352.662 557.218C352.587 557.459 352.581 557.717 352.646 557.961C352.711 558.205 352.844 558.425 353.029 558.597C353.215 558.768 353.445 558.884 353.694 558.929C353.942 558.975 354.199 558.949 354.433 558.854C354.667 558.76 354.87 558.601 355.017 558.396C355.165 558.191 355.251 557.948 355.266 557.696H355.241Z" fill="#EBEBEB"/>
<path d="M116.933 549.728L123.256 546.088L119.78 545.352L116.319 547.765L116.933 549.728Z" fill="#E0E0E0"/>
<path d="M128.001 517.147C128.001 507.331 134.013 502.775 141.399 507.037L152.311 513.335C159.673 517.597 165.702 529.082 165.702 538.93C165.702 539.331 165.702 539.748 165.702 540.1C165.702 540.321 165.702 540.509 165.702 540.722C165.702 540.935 165.661 541.106 165.645 541.294C165.629 541.483 165.596 541.728 165.563 541.941C165.398 543.103 165.108 544.244 164.696 545.344C164.524 545.753 164.344 546.162 164.148 546.505C164.057 546.695 163.953 546.878 163.837 547.053L163.731 547.225C163.549 547.518 163.338 547.792 163.101 548.043C162.97 548.19 162.847 548.346 162.708 548.485L162.283 548.894C162.136 549.008 161.997 549.147 161.841 549.262C161.694 549.38 161.538 549.487 161.375 549.581L160.892 549.859C160.267 550.196 159.59 550.426 158.888 550.538C158.834 550.525 158.778 550.525 158.725 550.538C158.536 550.538 158.365 550.579 158.177 550.579C157.978 550.595 157.778 550.595 157.579 550.579C157.054 550.584 156.529 550.527 156.017 550.407C155.711 550.346 155.408 550.27 155.109 550.178C154.153 549.885 153.236 549.479 152.377 548.967L141.465 542.669C140.717 542.234 140.001 541.748 139.322 541.213C139.322 541.082 139.322 540.967 139.322 540.845C139.322 540.722 139.322 540.46 139.322 540.313C139.322 539.986 139.322 539.65 139.322 539.315C139.346 530.947 134.307 521.073 128.001 517.147Z" fill="#E0E0E0"/>
<path d="M126.16 510.072L132.5 506.424C132.459 506.424 131.853 510.833 131.853 510.833L127.15 511.389L126.16 510.072Z" fill="#E0E0E0"/>
<path d="M155.453 552.942L161.309 549.621L157.784 548.107L155.453 552.942Z" fill="#E0E0E0"/>
<path d="M152.311 549.065C152.353 551.489 153.132 553.843 154.545 555.814C154.806 556.157 154.406 556.46 154.111 556.305C152.774 555.611 151.589 554.657 150.626 553.499C148.776 551.312 147.482 548.711 146.855 545.916L152.311 549.065Z" fill="#E0E0E0"/>
<path d="M154.479 556.288L148.14 559.937C148.14 559.937 144.581 556.935 144.581 550.857L151.461 550.391C151.461 550.391 151.624 554.35 154.479 556.288Z" fill="#E0E0E0"/>
<path d="M137.596 538.406C137.596 538.711 137.596 539.006 137.596 539.289C137.596 539.453 137.596 539.592 137.596 539.747C137.596 539.903 137.596 540.034 137.547 540.181C137.497 540.328 137.546 540.508 137.489 540.672C137.394 541.396 137.224 542.109 136.982 542.799C136.947 542.924 136.903 543.047 136.851 543.167C136.791 543.331 136.723 543.492 136.647 543.649C136.583 543.801 136.509 543.949 136.426 544.091C136.361 544.234 136.284 544.37 136.197 544.5L136.115 544.631C135.971 544.856 135.812 545.072 135.641 545.277C135.551 545.396 135.453 545.508 135.346 545.613L135.035 545.915C134.929 546.015 134.817 546.108 134.7 546.193C134.588 546.28 134.47 546.359 134.348 546.431C134.225 546.504 134.111 546.578 133.98 546.643L133.604 546.823L133.211 546.962C132.972 547.035 132.729 547.095 132.483 547.142H132.36C132.224 547.155 132.087 547.155 131.951 547.142C131.805 547.159 131.656 547.159 131.51 547.142C131.158 547.142 130.807 547.106 130.463 547.036C130.187 546.989 129.913 546.926 129.645 546.848C128.927 546.628 128.237 546.323 127.591 545.94L119.411 541.212C118.682 540.791 117.994 540.3 117.358 539.747V539.747C117.129 539.551 116.9 539.338 116.671 539.126C116.259 538.742 115.868 538.335 115.501 537.907L114.978 537.433C114.839 537.269 114.708 537.097 114.569 536.925C114.535 536.866 114.494 536.811 114.446 536.762C113.902 536.042 113.399 535.29 112.941 534.512C112.818 534.308 112.704 534.095 112.581 533.882C112.458 533.67 112.344 533.457 112.229 533.236C112.115 533.015 112.009 532.794 111.894 532.582L111.583 531.911C111.477 531.69 111.379 531.453 111.281 531.24C111.109 530.848 110.953 530.422 110.814 530.046C110.814 529.972 110.757 529.899 110.732 529.825C110.642 529.596 110.569 529.367 110.495 529.138C110.348 528.696 110.217 528.255 110.086 527.796C109.798 526.721 109.583 525.628 109.44 524.524C109.44 524.336 109.399 524.156 109.375 523.968C109.35 523.78 109.375 523.649 109.334 523.486C109.293 523.322 109.334 523.158 109.334 522.995C109.334 522.689 109.334 522.387 109.334 522.087C109.334 514.725 113.841 511.281 119.387 514.479L127.567 519.216C133.088 522.398 137.596 531.011 137.596 538.406Z" fill="#E0E0E0"/>
<path d="M106.381 517.621L112.671 514.006L115.043 515.683L107.706 520.124L106.381 517.621Z" fill="#E0E0E0"/>
<path d="M127.976 550.072L134.299 546.432L129.342 544.951L127.976 550.072Z" fill="#E0E0E0"/>
<path d="M120.598 542.006C120.598 543.315 118.962 545.098 117.088 545.433C116.835 545.482 116.9 546.039 117.203 546.251C118.319 546.858 119.607 547.071 120.859 546.857C121.673 546.832 122.465 546.592 123.155 546.161C123.845 545.73 124.408 545.123 124.786 544.403L120.598 542.006Z" fill="#BA68C8"/>
<path d="M135.068 510.677L145.988 516.984C153.35 521.246 159.371 532.73 159.371 542.571C159.371 542.98 159.371 543.389 159.371 543.749C159.371 543.97 159.371 544.158 159.371 544.371C159.371 544.583 159.33 544.747 159.305 544.935C159.281 545.123 159.256 545.385 159.224 545.589C159.076 546.747 158.802 547.886 158.406 548.984C158.234 549.401 158.054 549.802 157.858 550.154C157.767 550.341 157.663 550.522 157.547 550.694C157.512 550.753 157.474 550.811 157.432 550.865C157.255 551.175 157.046 551.465 156.811 551.733C156.68 551.88 156.549 552.043 156.41 552.174L155.993 552.583C155.845 552.698 155.698 552.837 155.551 552.951C155.403 553.068 155.247 553.174 155.085 553.27L154.594 553.548C153.971 553.885 153.296 554.114 152.598 554.227C152.545 554.209 152.487 554.209 152.434 554.227C152.246 554.227 152.066 554.227 151.886 554.227C151.687 554.24 151.488 554.24 151.289 554.227C150.763 554.23 150.239 554.172 149.727 554.056C149.42 553.995 149.117 553.918 148.819 553.827V553.827C147.865 553.531 146.948 553.128 146.087 552.624V552.624C146.127 555.047 146.909 557.4 148.328 559.364C148.59 559.716 148.189 560.019 147.886 559.863C146.547 559.169 145.362 558.212 144.401 557.05C142.556 554.863 141.263 552.265 140.63 549.475L141.448 549.925L135.207 546.326C134.603 545.977 134.021 545.592 133.465 545.172C133.513 544.965 133.548 544.754 133.571 544.542C133.571 544.403 133.62 544.199 133.637 543.986C133.666 543.805 133.685 543.622 133.694 543.438V543.34C133.702 543.204 133.702 543.067 133.694 542.931C133.694 542.62 133.694 542.293 133.694 541.966C133.694 533.687 128.786 524.354 122.471 520.698L121.776 520.289C121.841 510.824 127.788 506.473 135.068 510.677Z" fill="white"/>
<path d="M113.023 518.104L121.203 522.832C126.741 526.039 131.256 534.652 131.256 542.047C131.256 542.35 131.256 542.644 131.256 542.931C131.256 543.217 131.256 543.233 131.256 543.389C131.256 543.544 131.256 543.675 131.215 543.822C131.202 543.984 131.18 544.145 131.15 544.305C131.06 545.033 130.89 545.749 130.643 546.44C130.611 546.567 130.567 546.69 130.512 546.808C130.456 546.97 130.391 547.128 130.315 547.282C130.25 547.436 130.176 547.586 130.095 547.732C130.027 547.875 129.948 548.012 129.857 548.141C129.838 548.188 129.813 548.232 129.784 548.272C129.628 548.501 129.473 548.714 129.309 548.918C129.215 549.036 129.114 549.148 129.007 549.254L128.696 549.556C128.59 549.656 128.478 549.749 128.36 549.834C128.253 549.923 128.138 550.002 128.017 550.072C127.894 550.145 127.78 550.219 127.649 550.284L127.272 550.464L126.88 550.603C126.64 550.676 126.397 550.736 126.152 550.783H126.029C125.893 550.796 125.756 550.796 125.62 550.783C125.471 550.804 125.319 550.804 125.17 550.783C124.819 550.785 124.468 550.752 124.123 550.685C123.847 550.638 123.574 550.575 123.305 550.497C122.586 550.28 121.896 549.975 121.252 549.589L118.487 548.002C118.104 548.715 117.538 549.314 116.849 549.737C116.159 550.161 115.37 550.395 114.561 550.415C113.308 550.626 112.02 550.41 110.904 549.802C110.61 549.614 110.536 549.057 110.798 548.984C112.671 548.648 114.299 546.865 114.299 545.556L113.056 544.836C112.327 544.413 111.64 543.923 111.002 543.372V543.372C110.773 543.176 110.544 542.963 110.323 542.751C109.908 542.367 109.515 541.96 109.146 541.532C108.998 541.36 108.851 541.196 108.704 541C108.557 540.804 108.434 540.673 108.295 540.501L108.172 540.337C107.627 539.617 107.125 538.866 106.667 538.088L106.299 537.458C106.176 537.245 106.062 537.033 105.947 536.812C105.833 536.591 105.735 536.37 105.62 536.158L105.301 535.487C105.195 535.258 105.105 535.029 105.006 534.816C104.835 534.423 104.671 533.998 104.532 533.622L104.458 533.401C104.368 533.172 104.287 532.943 104.221 532.714C104.066 532.264 103.943 531.83 103.804 531.372C103.516 530.297 103.3 529.204 103.158 528.1C103.158 527.912 103.117 527.732 103.101 527.544C103.084 527.356 103.101 527.217 103.06 527.061C103.019 526.906 103.06 526.734 103.06 526.571C103.06 526.268 103.06 525.957 103.06 525.654C102.97 518.317 107.485 514.906 113.023 518.104Z" fill="white"/>
<path d="M178.741 626.309C181.833 625.344 185.007 627.847 187.085 632.903C189.162 637.958 193.522 650.817 194.169 654.244C194.815 657.672 180.189 665.132 180.598 664.935C181.007 664.739 178.741 626.309 178.741 626.309Z" fill="#263238"/>
<path d="M185.539 745.297C185.98 745.46 186.087 746.295 186.152 747.947C186.201 749.199 186.471 751.383 185.007 751.816C183.543 752.25 181.391 752.029 180.451 750.851C179.281 749.379 178.488 748.086 176.819 746.287C175.363 744.732 173.8 743.276 173.211 741.092C172.68 739.113 173.121 738.262 174.471 737.689C176.32 736.871 179.232 739.473 180.68 739.882C181.931 740.233 185.105 745.133 185.539 745.297Z" fill="#263238"/>
<path d="M185.539 743.767V745.796C184.777 746.283 183.897 746.554 182.994 746.578C182.09 746.603 181.197 746.38 180.41 745.935C180.32 745.739 179.878 743.031 179.878 743.031L185.539 743.767Z" fill="#FFA8A7"/>
<path d="M169.105 756.994C169.105 756.994 169.686 758.761 169.997 760.266C170.25 761.493 170.602 763.538 170.177 764.471C169.751 765.403 168.066 765.992 165.473 765.968C163.788 765.968 161.162 767.105 159.371 768.103C157.579 769.101 153.645 769.55 151.69 769.321C149.383 769.051 146.986 767.685 146.61 766.753C146.234 765.82 146.733 764.798 152.181 762.475C152.23 762.475 159.755 760.021 162.397 757.1L169.105 756.994Z" fill="#263238"/>
<path d="M169.105 754.801C169.105 754.801 169.105 756.306 169.105 757.165C169.105 758.024 168.091 759.308 165.457 759.218C163.608 759.153 162.324 758.654 162.397 757.132V754.932L169.105 754.801Z" fill="#FFA8A7"/>
<path d="M186.864 716.83C186.412 713.235 185.609 709.692 184.467 706.253C184.467 706.253 185.187 697.133 185.539 688.486C185.915 679.145 185.539 667.398 185.694 665.075C185.694 665.075 155.551 658.973 155.011 669.771C154.471 680.568 156.205 708.053 156.557 712.797C156.909 717.542 157.735 721.738 158.716 729.427C159.698 737.117 162.397 754.933 162.397 754.933C163.44 755.464 164.598 755.73 165.768 755.707C166.938 755.684 168.084 755.373 169.105 754.802C169.105 754.802 171.224 733.207 171.003 727.734C170.83 723.669 170.132 719.644 168.925 715.759L169.997 699.112C170.504 691.366 171.035 687.66 171.158 684.282L171.804 683.955C171.804 683.955 172.467 697.321 172.819 702.065C173.17 706.81 173.931 711.358 175.273 720.168C176.467 727.808 180.009 743.98 180.009 743.98C183.453 745.845 185.506 743.742 185.506 743.742C185.506 743.742 187.78 723.456 186.864 716.83Z" fill="#455A64"/>
<path d="M171.158 684.306C171.158 684.306 178.471 680.699 182.128 677.451C182.128 677.451 178.733 682.236 174.267 684.363C174.267 684.363 172.68 700.96 172.688 700.633L171.772 684.273L171.158 684.306Z" fill="#37474F"/>
<path d="M164.647 622.891L166.43 632.707L175.297 632.061L173.44 620.928L164.647 622.891Z" fill="#FFA8A7"/>
<path d="M184.663 631.342C183.788 628.675 180.402 625.771 177.015 626.434C171.978 627.286 167.015 628.524 162.168 630.139C159.068 631.243 156.246 633.926 155.984 644.135L154.414 674.532L158.168 675.35L159.477 668.462L160.083 675.35C164.009 676.332 170.823 675.522 175.297 674.532C184.623 672.495 185.743 668.626 185.743 668.626C185.743 668.626 185.866 651.522 185.588 644.135C185.326 637.82 185.269 633.141 184.663 631.342Z" fill="#37474F"/>
<path d="M158.087 611.26C158.087 611.26 155.935 614.442 156.213 614.777C156.711 615.112 157.265 615.354 157.849 615.489L158.087 611.26Z" fill="#FFA8A7"/>
<path d="M164.647 601.181C162.577 602.228 159.003 604.158 158.021 611.725C157.007 619.496 158.34 621.999 159.387 623.03C160.099 623.725 163.96 623.766 165.89 623.185C168.344 622.457 173.759 620.388 176.246 616.396C179.175 611.7 179.829 605.41 176.524 602.907C171.886 599.39 166.397 600.298 164.647 601.181Z" fill="#FFA8A7"/>
<path d="M157.588 603.783C158.267 605.648 159.412 610.213 164.173 612.119C164.173 612.119 164.851 609.207 167.297 609.517C169.743 609.828 170.16 612.945 168.655 614.883C167.15 616.822 165.694 616.119 165.694 616.119C165.694 616.119 165.367 620.29 168.148 622.18C168.148 622.18 171.51 624.307 175.068 622.671C176.704 621.935 178.937 618.098 180.263 614.949C183.076 608.29 183.477 602.949 179.232 601.264C178.708 598.237 177.342 597.1 174.602 596.536C168.704 595.317 164.246 599.194 159.289 598.515C156.696 598.155 156.811 601.656 157.588 603.783Z" fill="#37474F"/>
<path d="M179.33 602.278L182.111 600.56C182.003 600.367 181.858 600.198 181.683 600.064C181.508 599.929 181.308 599.83 181.094 599.775C180.88 599.72 180.658 599.708 180.439 599.741C180.221 599.774 180.012 599.851 179.824 599.967C179.636 600.083 179.473 600.236 179.346 600.416C179.219 600.597 179.13 600.801 179.083 601.017C179.037 601.233 179.035 601.456 179.078 601.673C179.12 601.889 179.206 602.095 179.33 602.278V602.278Z" fill="#37474F"/>
<path d="M165.301 626.465L164.287 629.402C164.287 629.402 165.031 630.71 168.197 630.776C171.363 630.841 174.741 629.835 175.788 628.485C176.026 628.221 176.203 627.907 176.305 627.566C176.407 627.225 176.431 626.866 176.377 626.514C176.377 626.514 175.117 623.733 173.923 623.856L174.119 625.066C174.119 625.066 173.849 626.056 170.978 626.817C166.512 628.003 165.301 626.465 165.301 626.465Z" fill="#455A64"/>
<path d="M139.862 645.983C138.585 644.519 138.095 641.271 136.393 639.046C134.692 636.821 134.062 635.193 133.391 636.167C132.5 637.451 134.512 640.028 134.062 640.257C133.612 640.486 131.952 643.905 131.78 645.787C131.608 647.668 136.598 652.412 136.598 652.412L139.862 645.983Z" fill="#FFA8A7"/>
<path d="M165.301 626.465C165.095 626.461 164.892 626.513 164.714 626.615C164.535 626.717 164.388 626.866 164.287 627.046C163.787 627.949 163.339 628.88 162.945 629.835L164.287 629.402L165.301 626.465Z" fill="#455A64"/>
<path d="M134.201 639.996C134.201 639.996 128.172 639.473 127.297 639.996C126.422 640.52 126.684 643.129 127.297 644.733C127.911 646.336 130.986 647.375 133.841 649.305C133.841 649.011 134.201 639.996 134.201 639.996Z" fill="#FFA8A7"/>
<path d="M162.945 629.869C160.352 630.777 158.087 631.816 155.665 636.364C152.557 642.205 146.667 651.546 146.667 651.546L139.886 645.567C139.886 645.567 138.864 644.577 136.958 647.726C136.399 648.574 136.046 649.54 135.925 650.548C135.804 651.556 135.92 652.578 136.262 653.534C136.262 653.534 144.091 662.72 145.588 664.119C147.084 665.518 149.563 664.43 151.174 662.229C152.786 660.029 162.97 647.309 162.97 647.309C162.97 647.309 168.5 639.963 162.945 629.869Z" fill="#37474F"/>
<path d="M92.9982 614.596H112.311C113.04 614.596 113.739 614.306 114.255 613.791C114.77 613.275 115.06 612.576 115.06 611.847V581.164C115.06 578.749 114.1 576.434 112.393 574.726C110.686 573.019 108.37 572.06 105.955 572.06H99.3296C96.9192 572.066 94.6098 573.028 92.9077 574.735C91.2056 576.442 90.2497 578.754 90.2498 581.164V611.847C90.2498 612.576 90.5393 613.275 91.0548 613.791C91.5702 614.306 92.2693 614.596 92.9982 614.596Z" fill="#37474F"/>
<path d="M115.567 604.126C117.44 609.647 120.581 625.533 120.581 625.533C120.581 625.533 127.125 633.533 129.26 635.471C130.43 636.551 133.064 638.49 133.064 638.49L128.279 642.007C123.958 638.684 119.9 635.033 116.14 631.087C115.303 630.197 114.716 629.102 114.438 627.913L111.166 613.876C111.166 613.876 111.166 602.588 109.44 601.107C107.714 599.627 107.215 599.316 107.215 599.316C109.432 599.152 114.095 599.782 115.567 604.126Z" fill="#F28F8F"/>
<path d="M106.193 599.153C109.244 598.801 113.154 598.866 115.06 602.277C116.966 605.688 120.14 623.325 120.14 623.325C120.14 623.325 117.137 625.656 113.898 625.615L106.193 599.153Z" fill="#4E56AB"/>
<path d="M114.675 615.586C114.126 618.215 113.914 620.903 114.045 623.586C114.283 627.12 116.72 633.287 116.72 633.287C116.72 633.287 114.814 635.382 109.44 634.539C105.064 633.86 106.61 620.633 109.121 618.097C110.586 616.584 112.572 615.686 114.675 615.586V615.586Z" fill="#4E56AB"/>
<path opacity="0.3" d="M114.675 615.586C114.126 618.215 113.914 620.903 114.045 623.586C114.283 627.12 116.72 633.287 116.72 633.287C116.72 633.287 114.814 635.382 109.44 634.539C105.064 633.86 106.61 620.633 109.121 618.097C110.586 616.584 112.572 615.686 114.675 615.586V615.586Z" fill="black"/>
<path d="M104.565 709.002C104.53 709.606 104.681 710.205 104.998 710.72C105.807 712.057 106.759 713.302 107.837 714.434C109.35 716.07 111.616 717.992 113.244 719.407C114.144 720.225 114.176 721.387 112.884 721.804C110.475 722.391 107.933 722.037 105.775 720.814C104.139 719.947 101.865 715.906 100.524 715.334C98.9778 714.638 98.1189 714.295 97.5954 713.583C97.1996 713.179 96.9525 712.652 96.8946 712.089C96.8366 711.526 96.9712 710.96 97.2764 710.483C98.0044 709.125 99.1006 707.039 99.5505 707.276L99.4114 707.702C99.7631 708.806 102.773 710.09 104.319 709.788L104.565 709.002Z" fill="#37474F"/>
<path d="M88.802 662.851C88.1067 655.489 86.1108 643.644 88.1558 634.875L115.313 636.315C116.066 644.961 116.949 671.955 116.001 675.047C114.904 678.695 105.113 703.947 104.549 709.027C104.51 709.623 104.661 710.216 104.982 710.72C105.79 712.06 106.742 713.308 107.821 714.442C108.557 715.26 109.457 716.078 110.405 716.896C110.485 717.013 110.533 717.148 110.544 717.288C110.544 718.106 108.483 718.36 107.272 718.008C105.763 717.476 104.462 716.476 103.559 715.154C102.863 714.229 101.301 712.454 100.287 711.121C99.9482 710.709 99.6599 710.259 99.4278 709.779C99.157 709.18 99.1105 708.504 99.2969 707.873L99.3624 707.669C99.8932 706.013 100.223 704.299 100.344 702.564C100.72 696.994 101.677 684.127 102.561 680.699C103.174 678.202 104.106 675.793 105.334 673.534L102.234 649.411C102.234 649.411 101.906 670.679 100.941 676.102C100.18 680.446 99.8859 685.877 98.9943 693.329C98.1763 700.462 97.2274 713.027 97.2274 713.027C97.2031 713.031 97.1781 713.031 97.1538 713.027V719.031H92.074V715.546C92.074 713.973 91.9427 712.402 91.6814 710.851C90.8634 706.106 89.1619 695.252 88.8102 691.579C88.254 685.755 90.3562 678.433 90.3562 678.433C90.3562 678.433 89.481 670.033 88.802 662.851Z" fill="#FFA8A7"/>
<path d="M98.3726 599.407C98.3726 599.407 91.0678 600.225 90.1926 600.642C97.0474 605.46 91.4932 616.184 91.4932 616.184L94.119 624.422C91.1987 628.16 88.6793 630.385 87.1169 634.483C85.3827 639.064 83.8449 645.878 84.2539 659.841C90.7979 664.749 110.708 664.217 118.463 659.841C118.463 659.841 117.154 647.514 115.608 637.935C114.585 631.612 112.172 624.724 112.581 622.393C115.657 612.937 115.853 611.235 115.297 609.125C113.767 603.186 107.714 599.17 106.225 599.17L98.3726 599.407Z" fill="#4E56AB"/>
<path opacity="0.6" d="M98.3726 599.407C98.3726 599.407 91.0678 600.225 90.1926 600.642C97.0474 605.46 91.4932 616.184 91.4932 616.184L94.119 624.422C91.1987 628.16 88.6793 630.385 87.1169 634.483C85.3827 639.064 83.8449 645.878 84.2539 659.841C90.7979 664.749 110.708 664.217 118.463 659.841C118.463 659.841 117.154 647.514 115.608 637.935C114.585 631.612 112.172 624.724 112.581 622.393C115.657 612.937 115.853 611.235 115.297 609.125C113.767 603.186 107.714 599.17 106.225 599.17L98.3726 599.407Z" fill="white"/>
<path d="M97.2028 716.487V715.759C97.8409 718.205 99.1168 720.437 100.9 722.229C102.536 723.71 104.745 725.427 105.317 727.088C105.89 728.748 102.692 729.493 100.581 729.28C98.5361 729.03 96.652 728.044 95.2805 726.507C93.939 724.969 93.9635 723.922 93.3418 723.072C92.7202 722.221 91.2723 721.288 90.9369 720.307C90.8322 719.391 90.9329 718.463 91.2314 717.591C91.4686 716.683 91.7304 715.677 92.0494 715.759V716.323C92.7854 716.902 93.6979 717.211 94.6343 717.198C95.346 717.215 97.211 717.059 97.2028 716.487Z" fill="#37474F"/>
<path d="M92.074 716.306C92.81 716.885 93.7225 717.194 94.6589 717.181C95.4115 717.181 97.2438 717.058 97.2356 716.486V715.758C97.8737 718.204 99.1496 720.437 100.933 722.228L102.168 723.333C103.035 724.298 102.79 725.14 100.753 725.312C98.7162 725.484 96.9247 724.257 95.3869 722.367C94.0757 720.467 92.9655 718.436 92.074 716.306V716.306Z" fill="#FFA8A7"/>
<path d="M110.986 577.074C112.295 577.851 113.915 581.164 113.759 588.052C113.62 593.909 111.722 595.357 110.765 595.774C109.808 596.191 107.976 595.937 106.193 595.643V599.152C106.193 599.152 108.647 602.023 108.508 603.635C108.369 605.246 104.941 605.622 102.626 604.052C100.955 602.756 99.5164 601.185 98.3726 599.406L98.4135 591.332C98.4135 591.332 97.3582 592.346 95.575 590.792C94.1026 589.508 93.6118 587.332 94.757 586.17C95.0544 585.891 95.4142 585.686 95.8067 585.574C96.1991 585.462 96.6126 585.445 97.0128 585.525C97.4131 585.605 97.7883 585.78 98.1074 586.034C98.4264 586.289 98.68 586.616 98.847 586.988C98.847 586.988 99.8368 584.232 103.951 582.898C107.665 581.663 109.685 580.264 110.986 577.074Z" fill="#FFA8A7"/>
<path d="M107.215 586.588C107.215 586.732 107.172 586.873 107.093 586.993C107.013 587.114 106.9 587.208 106.768 587.264C106.635 587.321 106.489 587.337 106.347 587.311C106.205 587.286 106.074 587.219 105.97 587.119C105.866 587.019 105.793 586.891 105.761 586.751C105.729 586.61 105.739 586.463 105.79 586.328C105.841 586.193 105.93 586.076 106.046 585.991C106.163 585.907 106.302 585.858 106.446 585.852C106.545 585.85 106.643 585.867 106.735 585.903C106.828 585.939 106.912 585.992 106.983 586.061C107.055 586.129 107.112 586.211 107.152 586.301C107.191 586.392 107.213 586.489 107.215 586.588V586.588Z" fill="#37474F"/>
<path d="M107.411 591.545L109.121 592.093C109.091 592.207 109.038 592.314 108.966 592.407C108.893 592.5 108.803 592.578 108.7 592.635C108.597 592.693 108.483 592.728 108.366 592.741C108.248 592.753 108.13 592.741 108.017 592.706C107.786 592.628 107.594 592.463 107.482 592.247C107.369 592.031 107.344 591.779 107.411 591.545V591.545Z" fill="#F28F8F"/>
<path d="M113.252 584.323L111.763 583.292C111.826 583.191 111.909 583.105 112.006 583.037C112.104 582.969 112.214 582.922 112.33 582.899C112.447 582.875 112.567 582.875 112.683 582.899C112.799 582.923 112.909 582.971 113.007 583.039C113.206 583.179 113.343 583.391 113.389 583.631C113.435 583.871 113.386 584.119 113.252 584.323V584.323Z" fill="#37474F"/>
<path d="M105.072 584.878L106.569 583.847C106.506 583.747 106.423 583.66 106.326 583.592C106.229 583.525 106.119 583.477 106.003 583.453C105.887 583.428 105.767 583.427 105.651 583.45C105.534 583.473 105.424 583.519 105.325 583.585C105.127 583.729 104.991 583.942 104.944 584.182C104.897 584.422 104.943 584.67 105.072 584.878V584.878Z" fill="#37474F"/>
<path d="M112.908 586.049C112.91 586.193 112.869 586.335 112.79 586.456C112.712 586.577 112.599 586.673 112.467 586.731C112.334 586.789 112.188 586.806 112.045 586.781C111.903 586.756 111.771 586.69 111.666 586.591C111.561 586.491 111.488 586.363 111.455 586.222C111.422 586.082 111.432 585.934 111.482 585.799C111.533 585.663 111.622 585.546 111.739 585.461C111.856 585.376 111.995 585.327 112.139 585.32C112.338 585.316 112.53 585.39 112.674 585.526C112.818 585.663 112.902 585.85 112.908 586.049V586.049Z" fill="#37474F"/>
<path d="M109.44 585.631L109.555 590.064L111.886 589.345L109.44 585.631Z" fill="#F28F8F"/>
<path d="M106.193 595.644C104.311 595.39 100.467 594.278 99.8286 592.748C100.071 593.523 100.545 594.205 101.186 594.703C102.348 595.693 106.193 596.814 106.193 596.814V595.644Z" fill="#F28F8F"/>
<path d="M92.8511 619.93L98.0127 626.915L94.119 624.42L92.8511 619.93Z" fill="#BA68C8"/>
<path d="M133.514 638.491C134.618 639.914 135.297 642.679 135.878 643.611C136.459 644.544 137.154 645.354 135.878 645.525C134.602 645.697 132.737 643.202 132.041 641.689C131.689 640.836 131.025 640.148 130.185 639.767C130.782 639.562 130.471 637.165 130.888 636.83C130.888 636.83 133.064 637.722 133.514 638.491Z" fill="#F28F8F"/>
<path d="M133.841 649.287C132.688 648.428 132.647 647.373 132.426 645.696C132.205 644.019 127.583 642.203 127.436 643.455C127.289 644.706 126.872 645.753 128.254 647.275C129.637 648.796 131.731 650.416 133.841 649.287Z" fill="#F28F8F"/>
<path d="M98.3725 599.406C98.3725 599.406 91.534 600.003 90.1925 600.641C88.851 601.279 86.6178 605.14 88.6138 610.744C90.6097 616.347 92.4256 622.94 92.2211 624.265C92.0166 625.59 87.2477 632.445 87.2477 632.445C88.5635 633.416 90.0511 634.13 91.6322 634.548L94.0862 629.214L93.5136 634.883C95.9786 635.482 98.5112 635.757 101.047 635.701C101.047 635.701 103.362 613.926 98.3725 599.406Z" fill="#4E56AB"/>
<path d="M81.5218 626.113C80.9737 622.89 81.5218 621.835 82.6506 618.678L88.3766 622.383C87.907 623.575 87.6308 624.834 87.5586 626.113C87.6077 627.046 88.8756 636.289 90.0617 639.512C90.2755 640.085 90.6955 640.558 91.2396 640.837C92.4191 641.558 93.4881 642.445 94.4134 643.471C95.2887 644.289 95.9922 644.437 95.9022 644.715C95.767 645.016 95.5253 645.257 95.2234 645.392C94.9215 645.526 94.5807 645.544 94.2662 645.443C93.5536 645.211 92.8702 644.898 92.2294 644.51C92.7975 645.713 93.5541 646.818 94.4707 647.782C96.573 650.023 96.7611 651.48 92.8347 651.782C90.3807 651.97 88.3275 650.596 86.1107 645.32C85.4238 643.386 84.8583 641.411 84.4175 639.406C83.2232 634.833 82.0616 629.361 81.5218 626.113Z" fill="#FFA8A7"/>
<path d="M90.1925 600.641C87.4359 601.876 86.6506 604.313 85.6281 607.896C84.6056 611.479 81.399 622.228 81.399 622.228C81.399 622.228 84.1475 625.5 87.943 624.583L92.851 612.665C92.851 612.665 95.1414 604.886 90.1925 600.641Z" fill="#4E56AB"/>
</g>
<defs>
<linearGradient id="paint0_linear_470_2132" x1="-23.332" y1="102.042" x2="386.547" y2="20.2729" gradientUnits="userSpaceOnUse">
<stop stop-color="#4E57AA"/>
<stop offset="1" stop-color="#BA68C8"/>
</linearGradient>
<clipPath id="clip0_470_2132">
<rect width="360" height="800" fill="white"/>
</clipPath>
</defs>
</svg>
