<svg xmlns="http://www.w3.org/2000/svg" xmlns:xlink="http://www.w3.org/1999/xlink" width="1642.896" height="675.212" viewBox="0 0 1642.896 675.212"><defs><style>.a,.b,.c,.d,.e{fill:none;}.a,.b,.c,.d{stroke:#aba5f2;}.a,.e{stroke-width:4px;}.b{stroke-width:3px;}.c{stroke-width:2px;}.e{stroke:#ffa763;}.f{opacity:0.8;}.g{fill:#605c9c;font-size:394px;font-family:TitilliumWeb-SemiBold, Titillium Web;font-weight:600;}.h{fill:#6c63ff;}.i{filter:url(#u);}.j{filter:url(#s);}.k{filter:url(#q);}.l{filter:url(#o);}.m{filter:url(#m);}.n{filter:url(#k);}.o{filter:url(#i);}.p{filter:url(#g);}.q{filter:url(#e);}.r{filter:url(#c);}.s{filter:url(#a);}</style><filter id="a" x="655.081" y="12.647" width="307.234" height="562.485" filterUnits="userSpaceOnUse"><feOffset dy="10" input="SourceAlpha"/><feGaussianBlur stdDeviation="5" result="b"/><feFlood flood-opacity="0.902"/><feComposite operator="in" in2="b"/><feComposite in="SourceGraphic"/></filter><filter id="c" x="655.081" y="11.857" width="307.234" height="562.485" filterUnits="userSpaceOnUse"><feOffset dy="10" input="SourceAlpha"/><feGaussianBlur stdDeviation="5" result="d"/><feFlood flood-opacity="0.902"/><feComposite operator="in" in2="d"/><feComposite in="SourceGraphic"/></filter><filter id="e" x="655.081" y="11.067" width="307.234" height="562.485" filterUnits="userSpaceOnUse"><feOffset dy="10" input="SourceAlpha"/><feGaussianBlur stdDeviation="5" result="f"/><feFlood flood-opacity="0.902"/><feComposite operator="in" in2="f"/><feComposite in="SourceGraphic"/></filter><filter id="g" x="655.081" y="9.486" width="307.234" height="562.485" filterUnits="userSpaceOnUse"><feOffset dy="10" input="SourceAlpha"/><feGaussianBlur stdDeviation="5" result="h"/><feFlood flood-opacity="0.902"/><feComposite operator="in" in2="h"/><feComposite in="SourceGraphic"/></filter><filter id="i" x="655.081" y="8.695" width="307.234" height="562.485" filterUnits="userSpaceOnUse"><feOffset dy="10" input="SourceAlpha"/><feGaussianBlur stdDeviation="5" result="j"/><feFlood flood-opacity="0.902"/><feComposite operator="in" in2="j"/><feComposite in="SourceGraphic"/></filter><filter id="k" x="655.081" y="7.905" width="307.234" height="562.485" filterUnits="userSpaceOnUse"><feOffset dy="10" input="SourceAlpha"/><feGaussianBlur stdDeviation="5" result="l"/><feFlood flood-opacity="0.902"/><feComposite operator="in" in2="l"/><feComposite in="SourceGraphic"/></filter><filter id="m" x="655.081" y="7.114" width="307.234" height="562.485" filterUnits="userSpaceOnUse"><feOffset dy="10" input="SourceAlpha"/><feGaussianBlur stdDeviation="5" result="n"/><feFlood flood-opacity="0.902"/><feComposite operator="in" in2="n"/><feComposite in="SourceGraphic"/></filter><filter id="o" x="655.081" y="6.324" width="307.234" height="562.485" filterUnits="userSpaceOnUse"><feOffset dy="10" input="SourceAlpha"/><feGaussianBlur stdDeviation="5" result="p"/><feFlood flood-opacity="0.902"/><feComposite operator="in" in2="p"/><feComposite in="SourceGraphic"/></filter><filter id="q" x="655.081" y="5.533" width="307.234" height="562.485" filterUnits="userSpaceOnUse"><feOffset dy="10" input="SourceAlpha"/><feGaussianBlur stdDeviation="5" result="r"/><feFlood flood-opacity="0.902"/><feComposite operator="in" in2="r"/><feComposite in="SourceGraphic"/></filter><filter id="s" x="655.081" y="4.743" width="307.234" height="562.485" filterUnits="userSpaceOnUse"><feOffset dy="10" input="SourceAlpha"/><feGaussianBlur stdDeviation="5" result="t"/><feFlood flood-opacity="0.902"/><feComposite operator="in" in2="t"/><feComposite in="SourceGraphic"/></filter><filter id="u" x="655.081" y="0" width="307.234" height="562.485" filterUnits="userSpaceOnUse"><feOffset dy="10" input="SourceAlpha"/><feGaussianBlur stdDeviation="5" result="v"/><feFlood flood-color="#161616" flood-opacity="0.902"/><feComposite operator="in" in2="v"/><feComposite in="SourceGraphic"/></filter></defs><g transform="translate(-139.287 -58.788)"><g transform="translate(700.053 259.233)"><path class="a" d="M36.294,201.413C156.447,282.835,369.921,354.036,464.764,318.3s39.88-221.071,0-274.011S288.618,1.311,219.923,8.754-83.859,119.989,36.294,201.413Z" transform="translate(0 0)"/><path class="b" d="M71.681,183.717C164.64,246.82,329.8,302,403.181,274.3s30.855-171.331,0-212.359S266.9,28.638,213.752,34.407-21.279,120.614,71.681,183.717Z" transform="translate(15.229 9.563)"/><path class="c" d="M105.422,166.676c67.031,45.462,186.128,85.215,239.041,65.261s22.249-123.432,0-152.99-98.271-23.994-136.6-19.839S38.389,121.216,105.422,166.676Z" transform="translate(29.75 18.771)"/><path class="d" d="M145.746,146.36c36.047,24.426,100.088,45.787,128.542,35.065s11.964-66.322,0-82.2-52.845-12.892-73.453-10.66S109.7,121.934,145.746,146.36Z" transform="translate(47.104 29.75)"/></g><path class="e" d="M9269.828,9138s-160.166,204.367-290.154,146.336-392.287-297.117-622.089-271.584-348.185,90.527-471.209,241.407-192.663,227.48-257.657,234.444" transform="translate(-7489.219 -8876)"/><g class="f"><text class="g" transform="translate(702.5 581)"><tspan x="-110.32" y="0">4</tspan></text><text class="g" transform="translate(1217.5 581)"><tspan x="-110.32" y="0">3</tspan></text><g transform="translate(813.634 67.863)"><g class="s" transform="matrix(1, 0, 0, 1, -674.35, -9.07)"><path class="h" d="M89.945,152.863q3.187-3.046,6.7-5.7t7.355-4.93q3.842-2.272,8.018-4.162t8.69-3.4q4.514-1.509,9.371-2.64t10.064-1.883q5.206-.753,10.767-1.129t11.483-.376q5.922,0,11.463.374t10.709,1.122q5.168.748,9.967,1.872t9.237,2.623q4.437,1.5,8.516,3.378t7.805,4.136q3.726,2.258,7.1,4.9t6.409,5.667q1.575,1.573,3.061,3.281t2.882,3.553q1.4,1.845,2.7,3.827t2.527,4.1q1.219,2.12,2.351,4.379t2.175,4.657q1.044,2.4,2,4.937t1.828,5.22q.871,2.681,1.655,5.5t1.483,5.79q.7,2.967,1.312,6.079t1.141,6.37q.528,3.258.97,6.664t.8,6.96q.357,3.554.63,7.259t.461,7.561q.2,4.142.29,8.15t.063,7.879q-.026,3.872-.165,7.606t-.392,7.33q-.253,3.6-.619,7.05t-.846,6.768q-.48,3.313-1.073,6.483t-1.3,6.2q-.706,3.026-1.524,5.906t-1.749,5.613q-.931,2.733-1.974,5.319t-2.2,5.022q-1.154,2.437-2.42,4.723t-2.642,4.423q-1.376,2.136-2.862,4.12t-3.082,3.816q-3.325,3.818-7.112,7.168t-8.032,6.231q-4.245,2.88-8.941,5.285t-9.84,4.333q-5.143,1.928-10.726,3.376t-11.6,2.414q-6.017.966-12.459,1.45t-13.3.483q-6.861,0-13.282-.48t-12.4-1.44q-5.975-.96-11.5-2.4t-10.582-3.354q-5.061-1.915-9.655-4.305t-8.715-5.251q-4.121-2.861-7.766-6.191t-6.806-7.123q-1.518-1.82-2.919-3.794t-2.686-4.1q-1.285-2.126-2.452-4.4T66.1,318.449q-1.05-2.429-1.982-5.007t-1.745-5.306q-.814-2.727-1.508-5.6t-1.27-5.9q-.576-3.021-1.032-6.187t-.793-6.477q-.337-3.31-.554-6.763t-.315-7.047q-.1-3.594-.076-7.328t.164-7.606q.142-3.872.4-7.881t.642-8.153q.355-3.858.788-7.565t.946-7.264q.513-3.557,1.105-6.966t1.264-6.671q.672-3.262,1.423-6.378t1.583-6.089q.832-2.972,1.744-5.8t1.905-5.515q.993-2.687,2.067-5.232t2.23-4.951q1.156-2.405,2.394-4.672t2.559-4.394q1.321-2.128,2.724-4.119t2.891-3.845q1.487-1.854,3.059-3.572T89.945,152.863Zm111.606,22.1q-1.514-2.138-3.268-4t-3.749-3.464q-1.995-1.6-4.232-2.927t-4.719-2.391q-2.481-1.062-5.209-1.858t-5.7-1.326q-2.976-.53-6.2-.8t-6.706-.265q-3.479,0-6.72.265t-6.245.8q-3,.53-5.776,1.326t-5.31,1.858q-2.539,1.062-4.849,2.391t-4.391,2.927q-2.082,1.6-3.937,3.464t-3.486,4q-1.676,2.2-3.18,4.826t-2.839,5.693q-1.334,3.064-2.5,6.568t-2.166,7.45q-1,3.947-1.834,8.342t-1.5,9.244q-.67,4.849-1.177,10.158T105,238.332q-.362,6.086-.48,11.738t.008,10.862q.126,5.21.5,9.973t.984,9.07q.614,4.308,1.471,8.157t1.956,7.233q1.1,3.384,2.438,6.3t2.917,5.359q1.624,2.514,3.526,4.718t4.082,4.1q2.18,1.893,4.635,3.473t5.184,2.845q2.729,1.265,5.728,2.215t6.268,1.584q3.268.634,6.8.951t7.331.317q3.8,0,7.338-.317t6.823-.951q3.282-.634,6.3-1.584t5.776-2.215q2.756-1.265,5.245-2.845t4.71-3.473q2.22-1.893,4.17-4.1t3.628-4.718q1.631-2.443,3.049-5.359t2.624-6.3q1.205-3.384,2.195-7.233t1.763-8.157q.773-4.308,1.329-9.07t.894-9.973q.338-5.21.457-10.862t.02-11.738q-.094-5.775-.368-11.084t-.729-10.158q-.455-4.849-1.09-9.244T211.03,199.5q-.817-3.947-1.817-7.45t-2.184-6.568q-1.184-3.064-2.553-5.693T201.551,174.967Z" transform="translate(655.08 12.65)"/></g><g class="r" transform="matrix(1, 0, 0, 1, -674.35, -9.07)"><path class="h" d="M89.945,152.863q3.187-3.046,6.7-5.7t7.355-4.93q3.842-2.272,8.018-4.162t8.69-3.4q4.514-1.509,9.371-2.64t10.064-1.883q5.206-.753,10.767-1.129t11.483-.376q5.922,0,11.463.374t10.709,1.122q5.168.748,9.967,1.872t9.237,2.623q4.437,1.5,8.516,3.378t7.805,4.136q3.726,2.258,7.1,4.9t6.409,5.667q1.575,1.573,3.061,3.281t2.882,3.553q1.4,1.845,2.7,3.827t2.527,4.1q1.219,2.12,2.351,4.379t2.175,4.657q1.044,2.4,2,4.937t1.828,5.22q.871,2.681,1.655,5.5t1.483,5.79q.7,2.967,1.312,6.079t1.141,6.37q.528,3.258.97,6.664t.8,6.96q.357,3.554.63,7.259t.461,7.561q.2,4.142.29,8.15t.063,7.879q-.026,3.872-.165,7.606t-.392,7.33q-.253,3.6-.619,7.05t-.846,6.768q-.48,3.313-1.073,6.483t-1.3,6.2q-.706,3.026-1.524,5.906t-1.749,5.613q-.931,2.733-1.974,5.319t-2.2,5.022q-1.154,2.437-2.42,4.723t-2.642,4.423q-1.376,2.136-2.862,4.12t-3.082,3.816q-3.325,3.818-7.112,7.168t-8.032,6.231q-4.245,2.88-8.941,5.285t-9.84,4.333q-5.143,1.928-10.727,3.376t-11.6,2.414q-6.017.966-12.459,1.45t-13.3.483q-6.861,0-13.282-.48t-12.4-1.44q-5.975-.96-11.5-2.4t-10.582-3.354q-5.061-1.915-9.655-4.305t-8.715-5.251q-4.122-2.861-7.766-6.191t-6.806-7.123q-1.518-1.82-2.919-3.794t-2.686-4.1q-1.285-2.126-2.452-4.4T66.1,318.449q-1.05-2.429-1.982-5.007t-1.746-5.305q-.814-2.727-1.508-5.6t-1.27-5.9q-.576-3.021-1.032-6.187t-.793-6.477q-.337-3.31-.554-6.763t-.315-7.047q-.1-3.594-.076-7.328t.164-7.606q.142-3.872.4-7.881t.642-8.153q.355-3.858.788-7.565t.946-7.264q.513-3.557,1.105-6.966t1.264-6.671q.672-3.262,1.423-6.378t1.583-6.088q.832-2.972,1.744-5.8t1.905-5.515q.993-2.687,2.067-5.232t2.23-4.951q1.156-2.405,2.394-4.672t2.559-4.394q1.321-2.128,2.724-4.119t2.891-3.845q1.487-1.854,3.059-3.572T89.945,152.863Zm111.606,22.1q-1.514-2.138-3.268-4t-3.749-3.464q-1.995-1.6-4.232-2.927t-4.719-2.391q-2.481-1.062-5.209-1.858t-5.7-1.326q-2.976-.53-6.2-.8t-6.706-.265q-3.479,0-6.72.265t-6.245.8q-3,.53-5.776,1.326t-5.31,1.858q-2.539,1.062-4.849,2.391t-4.391,2.927q-2.082,1.6-3.937,3.464t-3.486,4q-1.676,2.2-3.18,4.826t-2.839,5.693q-1.334,3.064-2.5,6.568t-2.166,7.45q-1,3.947-1.834,8.342t-1.5,9.244q-.67,4.849-1.177,10.158T105,238.332q-.362,6.086-.48,11.738t.008,10.862q.126,5.21.5,9.973t.984,9.07q.614,4.308,1.471,8.157t1.956,7.233q1.1,3.384,2.438,6.3t2.917,5.359q1.624,2.514,3.526,4.718t4.082,4.1q2.18,1.893,4.635,3.473t5.184,2.845q2.729,1.265,5.728,2.215t6.268,1.584q3.268.634,6.8.951t7.331.317q3.8,0,7.338-.317t6.823-.951q3.282-.634,6.3-1.584t5.776-2.215q2.756-1.265,5.245-2.845t4.71-3.473q2.22-1.893,4.17-4.1t3.628-4.718q1.631-2.443,3.049-5.359t2.624-6.3q1.205-3.384,2.195-7.233t1.763-8.157q.773-4.308,1.33-9.07t.894-9.973q.338-5.21.457-10.862t.02-11.738q-.094-5.775-.368-11.084t-.729-10.158q-.455-4.849-1.09-9.244T211.03,199.5q-.817-3.947-1.817-7.45t-2.184-6.568q-1.184-3.064-2.553-5.693T201.551,174.967Z" transform="translate(655.08 11.86)"/></g><g class="q" transform="matrix(1, 0, 0, 1, -674.35, -9.07)"><path class="h" d="M89.945,152.863q3.187-3.046,6.7-5.7t7.355-4.93q3.842-2.272,8.018-4.162t8.69-3.4q4.514-1.509,9.371-2.64t10.064-1.883q5.206-.753,10.767-1.129t11.483-.376q5.922,0,11.463.374t10.709,1.122q5.168.748,9.967,1.872t9.237,2.623q4.437,1.5,8.516,3.378t7.805,4.136q3.726,2.258,7.1,4.9t6.409,5.667q1.575,1.573,3.061,3.281t2.882,3.553q1.4,1.845,2.7,3.827t2.527,4.1q1.219,2.12,2.351,4.379t2.175,4.657q1.044,2.4,2,4.937t1.828,5.22q.871,2.681,1.655,5.5t1.483,5.79q.7,2.967,1.312,6.079t1.141,6.37q.528,3.258.97,6.664t.8,6.96q.357,3.554.63,7.259t.461,7.561q.2,4.142.29,8.15t.063,7.879q-.026,3.872-.165,7.606t-.392,7.33q-.253,3.6-.619,7.05t-.846,6.768q-.48,3.313-1.073,6.483t-1.3,6.2q-.706,3.026-1.524,5.906t-1.749,5.613q-.931,2.733-1.974,5.319t-2.2,5.022q-1.154,2.437-2.42,4.723t-2.642,4.423q-1.376,2.136-2.862,4.12t-3.082,3.816q-3.325,3.818-7.112,7.168t-8.032,6.231q-4.245,2.88-8.941,5.285t-9.84,4.333q-5.143,1.928-10.727,3.376t-11.6,2.414q-6.017.966-12.459,1.45t-13.3.483q-6.861,0-13.282-.48t-12.4-1.44q-5.975-.96-11.5-2.4t-10.582-3.354q-5.061-1.915-9.655-4.305t-8.715-5.251q-4.122-2.861-7.766-6.191t-6.806-7.123q-1.518-1.82-2.919-3.794t-2.686-4.1q-1.285-2.126-2.452-4.4T66.1,318.449q-1.05-2.429-1.982-5.007t-1.746-5.305q-.814-2.727-1.508-5.6t-1.27-5.9q-.576-3.021-1.032-6.187t-.793-6.477q-.337-3.31-.554-6.763t-.315-7.047q-.1-3.594-.076-7.328t.164-7.606q.142-3.872.4-7.881t.642-8.153q.355-3.858.788-7.565t.946-7.264q.513-3.557,1.105-6.966t1.264-6.671q.672-3.262,1.423-6.378t1.583-6.088q.832-2.972,1.744-5.8t1.905-5.515q.993-2.687,2.067-5.232t2.23-4.951q1.156-2.405,2.394-4.672t2.559-4.394q1.321-2.128,2.724-4.119t2.891-3.845q1.487-1.854,3.059-3.572T89.945,152.863Zm111.606,22.1q-1.514-2.138-3.268-4t-3.749-3.464q-1.995-1.6-4.232-2.927t-4.719-2.391q-2.481-1.062-5.209-1.858t-5.7-1.326q-2.976-.53-6.2-.8t-6.706-.265q-3.479,0-6.72.265t-6.245.8q-3,.53-5.776,1.326t-5.31,1.858q-2.539,1.062-4.849,2.391t-4.391,2.927q-2.082,1.6-3.937,3.464t-3.486,4q-1.676,2.2-3.18,4.826t-2.839,5.693q-1.334,3.064-2.5,6.568t-2.166,7.45q-1,3.947-1.834,8.342t-1.5,9.244q-.67,4.849-1.177,10.158T105,238.332q-.362,6.086-.48,11.738t.008,10.862q.126,5.21.5,9.973t.984,9.07q.614,4.308,1.471,8.157t1.956,7.233q1.1,3.384,2.438,6.3t2.917,5.359q1.624,2.514,3.526,4.718t4.082,4.1q2.18,1.893,4.635,3.473t5.184,2.845q2.729,1.265,5.728,2.215t6.268,1.584q3.268.634,6.8.951t7.331.317q3.8,0,7.338-.317t6.823-.951q3.282-.634,6.3-1.584t5.776-2.215q2.756-1.265,5.245-2.845t4.71-3.473q2.22-1.893,4.17-4.1t3.628-4.718q1.631-2.443,3.049-5.359t2.624-6.3q1.205-3.384,2.195-7.233t1.763-8.157q.773-4.308,1.33-9.07t.894-9.973q.338-5.21.457-10.862t.02-11.738q-.094-5.775-.368-11.084t-.729-10.158q-.455-4.849-1.09-9.244T211.03,199.5q-.817-3.947-1.817-7.45t-2.184-6.568q-1.184-3.064-2.553-5.693T201.551,174.967Z" transform="translate(655.08 11.07)"/></g><g class="p" transform="matrix(1, 0, 0, 1, -674.35, -9.07)"><path class="h" d="M89.945,152.863q3.187-3.046,6.7-5.7t7.355-4.93q3.842-2.272,8.018-4.162t8.69-3.4q4.514-1.509,9.371-2.64t10.064-1.883q5.206-.753,10.767-1.129t11.483-.376q5.922,0,11.463.374t10.709,1.122q5.168.748,9.967,1.872t9.237,2.623q4.437,1.5,8.516,3.378t7.805,4.136q3.726,2.258,7.1,4.9t6.409,5.667q1.575,1.573,3.061,3.281t2.882,3.553q1.4,1.845,2.7,3.827t2.527,4.1q1.219,2.12,2.351,4.379t2.175,4.657q1.044,2.4,2,4.937t1.828,5.22q.871,2.681,1.655,5.5t1.483,5.79q.7,2.967,1.312,6.079t1.141,6.37q.528,3.258.97,6.664t.8,6.96q.357,3.554.63,7.259t.461,7.561q.2,4.142.29,8.15t.063,7.879q-.026,3.872-.165,7.606t-.392,7.33q-.253,3.6-.619,7.05t-.846,6.768q-.48,3.313-1.073,6.483t-1.3,6.2q-.706,3.026-1.524,5.906t-1.749,5.613q-.931,2.733-1.974,5.319t-2.2,5.022q-1.154,2.437-2.42,4.723t-2.642,4.423q-1.376,2.136-2.862,4.12t-3.082,3.816q-3.325,3.818-7.112,7.168t-8.032,6.231q-4.245,2.88-8.941,5.285t-9.84,4.333q-5.143,1.928-10.727,3.376t-11.6,2.414q-6.017.966-12.459,1.45t-13.3.483q-6.861,0-13.282-.48t-12.4-1.44q-5.975-.96-11.5-2.4t-10.582-3.354q-5.061-1.915-9.655-4.305t-8.715-5.251q-4.122-2.861-7.766-6.191t-6.806-7.123q-1.518-1.82-2.919-3.794t-2.686-4.1q-1.285-2.126-2.452-4.4T66.1,318.449q-1.05-2.429-1.982-5.007t-1.746-5.305q-.814-2.727-1.508-5.6t-1.27-5.9q-.576-3.021-1.032-6.187t-.793-6.477q-.337-3.31-.554-6.763t-.315-7.047q-.1-3.594-.076-7.328t.164-7.606q.142-3.872.4-7.881t.642-8.153q.355-3.858.788-7.565t.946-7.264q.513-3.557,1.105-6.966t1.264-6.671q.672-3.262,1.423-6.378t1.583-6.088q.832-2.972,1.744-5.8t1.905-5.515q.993-2.687,2.067-5.232t2.23-4.951q1.156-2.405,2.394-4.672t2.559-4.394q1.321-2.128,2.724-4.119t2.891-3.845q1.487-1.854,3.059-3.572T89.945,152.863Zm111.606,22.1q-1.514-2.138-3.268-4t-3.749-3.464q-1.995-1.6-4.232-2.927t-4.719-2.391q-2.481-1.062-5.209-1.858t-5.7-1.326q-2.976-.53-6.2-.8t-6.706-.265q-3.479,0-6.72.265t-6.245.8q-3,.53-5.776,1.326t-5.31,1.858q-2.539,1.062-4.849,2.391t-4.391,2.927q-2.082,1.6-3.937,3.464t-3.486,4q-1.676,2.2-3.18,4.826t-2.839,5.693q-1.334,3.064-2.5,6.568t-2.166,7.45q-1,3.947-1.834,8.342t-1.5,9.244q-.67,4.849-1.177,10.158T105,238.332q-.362,6.086-.48,11.738t.008,10.862q.126,5.21.5,9.973t.984,9.07q.614,4.308,1.471,8.157t1.956,7.233q1.1,3.384,2.438,6.3t2.917,5.359q1.624,2.514,3.526,4.718t4.082,4.1q2.18,1.893,4.635,3.473t5.184,2.845q2.729,1.265,5.728,2.215t6.268,1.584q3.268.634,6.8.951t7.331.317q3.8,0,7.338-.317t6.823-.951q3.282-.634,6.3-1.584t5.776-2.215q2.756-1.265,5.245-2.845t4.71-3.473q2.22-1.893,4.17-4.1t3.628-4.718q1.631-2.443,3.049-5.359t2.624-6.3q1.205-3.384,2.195-7.233t1.763-8.157q.773-4.308,1.33-9.07t.894-9.973q.338-5.21.457-10.862t.02-11.738q-.094-5.775-.368-11.084t-.729-10.158q-.455-4.849-1.09-9.244T211.03,199.5q-.817-3.947-1.817-7.45t-2.184-6.568q-1.184-3.064-2.553-5.693T201.551,174.967Z" transform="translate(655.08 9.49)"/></g><g class="o" transform="matrix(1, 0, 0, 1, -674.35, -9.07)"><path class="h" d="M89.945,152.863q3.187-3.046,6.7-5.7t7.355-4.93q3.842-2.272,8.018-4.162t8.69-3.4q4.514-1.509,9.371-2.64t10.064-1.883q5.206-.753,10.767-1.129t11.483-.376q5.922,0,11.463.374t10.709,1.122q5.168.748,9.967,1.872t9.237,2.623q4.437,1.5,8.516,3.378t7.805,4.136q3.726,2.258,7.1,4.9t6.409,5.667q1.575,1.573,3.061,3.281t2.882,3.553q1.4,1.845,2.7,3.827t2.527,4.1q1.219,2.12,2.351,4.379t2.175,4.657q1.044,2.4,2,4.937t1.828,5.22q.871,2.681,1.655,5.5t1.483,5.79q.7,2.967,1.312,6.079t1.141,6.37q.528,3.258.97,6.664t.8,6.96q.357,3.554.63,7.259t.461,7.561q.2,4.142.29,8.15t.063,7.879q-.026,3.872-.165,7.606t-.392,7.33q-.253,3.6-.619,7.05t-.846,6.768q-.48,3.313-1.073,6.483t-1.3,6.2q-.706,3.026-1.524,5.906t-1.749,5.613q-.931,2.733-1.974,5.319t-2.2,5.022q-1.154,2.437-2.42,4.723t-2.642,4.423q-1.376,2.136-2.862,4.12t-3.082,3.816q-3.325,3.818-7.112,7.168t-8.032,6.231q-4.245,2.88-8.941,5.285t-9.84,4.333q-5.143,1.928-10.727,3.376t-11.6,2.414q-6.017.966-12.459,1.45t-13.3.483q-6.861,0-13.282-.48t-12.4-1.44q-5.975-.96-11.5-2.4t-10.582-3.354q-5.061-1.915-9.655-4.305t-8.715-5.251q-4.122-2.861-7.766-6.191t-6.806-7.123q-1.518-1.82-2.919-3.794t-2.686-4.1q-1.285-2.126-2.452-4.4T66.1,318.449q-1.05-2.429-1.982-5.007t-1.746-5.305q-.814-2.727-1.508-5.6t-1.27-5.9q-.576-3.021-1.032-6.187t-.793-6.477q-.337-3.31-.554-6.763t-.315-7.047q-.1-3.594-.076-7.328t.164-7.606q.142-3.872.4-7.881t.642-8.153q.355-3.858.788-7.565t.946-7.264q.513-3.557,1.105-6.966t1.264-6.671q.672-3.262,1.423-6.378t1.583-6.088q.832-2.972,1.744-5.8t1.905-5.515q.993-2.687,2.067-5.232t2.23-4.951q1.156-2.405,2.394-4.672t2.559-4.394q1.321-2.128,2.724-4.119t2.891-3.845q1.487-1.854,3.059-3.572T89.945,152.863Zm111.606,22.1q-1.514-2.138-3.268-4t-3.749-3.464q-1.995-1.6-4.232-2.927t-4.719-2.391q-2.481-1.062-5.209-1.858t-5.7-1.326q-2.976-.53-6.2-.8t-6.706-.265q-3.479,0-6.72.265t-6.245.8q-3,.53-5.776,1.326t-5.31,1.858q-2.539,1.062-4.849,2.391t-4.391,2.927q-2.082,1.6-3.937,3.464t-3.486,4q-1.676,2.2-3.18,4.826t-2.839,5.693q-1.334,3.064-2.5,6.568t-2.166,7.45q-1,3.947-1.834,8.342t-1.5,9.244q-.67,4.849-1.177,10.158T105,238.332q-.362,6.086-.48,11.738t.008,10.862q.126,5.21.5,9.973t.984,9.07q.614,4.308,1.471,8.157t1.956,7.233q1.1,3.384,2.438,6.3t2.917,5.359q1.624,2.514,3.526,4.718t4.082,4.1q2.18,1.893,4.635,3.473t5.184,2.845q2.729,1.265,5.728,2.215t6.268,1.584q3.268.634,6.8.951t7.331.317q3.8,0,7.338-.317t6.823-.951q3.282-.634,6.3-1.584t5.776-2.215q2.756-1.265,5.245-2.845t4.71-3.473q2.22-1.893,4.17-4.1t3.628-4.718q1.631-2.443,3.049-5.359t2.624-6.3q1.205-3.384,2.195-7.233t1.763-8.157q.773-4.308,1.33-9.07t.894-9.973q.338-5.21.457-10.862t.02-11.738q-.094-5.775-.368-11.084t-.729-10.158q-.455-4.849-1.09-9.244T211.03,199.5q-.817-3.947-1.817-7.45t-2.184-6.568q-1.184-3.064-2.553-5.693T201.551,174.967Z" transform="translate(655.08 8.7)"/></g><g class="n" transform="matrix(1, 0, 0, 1, -674.35, -9.07)"><path class="h" d="M89.945,152.863q3.187-3.046,6.7-5.7t7.355-4.93q3.842-2.272,8.018-4.162t8.69-3.4q4.514-1.509,9.371-2.64t10.064-1.883q5.206-.753,10.767-1.129t11.483-.376q5.922,0,11.463.374t10.709,1.122q5.168.748,9.967,1.872t9.237,2.623q4.437,1.5,8.516,3.378t7.805,4.136q3.726,2.258,7.1,4.9t6.409,5.667q1.575,1.573,3.061,3.281t2.882,3.553q1.4,1.845,2.7,3.827t2.527,4.1q1.219,2.12,2.351,4.379t2.175,4.657q1.044,2.4,2,4.937t1.828,5.22q.871,2.681,1.655,5.5t1.483,5.79q.7,2.967,1.312,6.079t1.141,6.37q.528,3.258.97,6.664t.8,6.96q.357,3.554.63,7.259t.461,7.561q.2,4.142.29,8.15t.063,7.879q-.026,3.872-.165,7.606t-.392,7.33q-.253,3.6-.619,7.05t-.846,6.768q-.48,3.313-1.073,6.483t-1.3,6.2q-.706,3.026-1.524,5.906t-1.749,5.613q-.931,2.733-1.974,5.319t-2.2,5.022q-1.154,2.437-2.42,4.723t-2.642,4.423q-1.376,2.136-2.862,4.12t-3.082,3.816q-3.325,3.818-7.112,7.168t-8.032,6.231q-4.245,2.88-8.941,5.285t-9.84,4.333q-5.143,1.928-10.727,3.376t-11.6,2.414q-6.017.966-12.459,1.45t-13.3.483q-6.861,0-13.282-.48t-12.4-1.44q-5.975-.96-11.5-2.4t-10.582-3.354q-5.061-1.915-9.655-4.305t-8.715-5.251q-4.122-2.861-7.766-6.191t-6.806-7.123q-1.518-1.82-2.919-3.794t-2.686-4.1q-1.285-2.126-2.452-4.4T66.1,318.449q-1.05-2.429-1.982-5.007t-1.746-5.305q-.814-2.727-1.508-5.6t-1.27-5.9q-.576-3.021-1.032-6.187t-.793-6.477q-.337-3.31-.554-6.763t-.315-7.047q-.1-3.594-.076-7.328t.164-7.606q.142-3.872.4-7.881t.642-8.153q.355-3.858.788-7.565t.946-7.264q.513-3.557,1.105-6.966t1.264-6.671q.672-3.262,1.423-6.378t1.583-6.088q.832-2.972,1.744-5.8t1.905-5.515q.993-2.687,2.067-5.232t2.23-4.951q1.156-2.405,2.394-4.672t2.559-4.394q1.321-2.128,2.724-4.119t2.891-3.845q1.487-1.854,3.059-3.572T89.945,152.863Zm111.606,22.1q-1.514-2.138-3.268-4t-3.749-3.464q-1.995-1.6-4.232-2.927t-4.719-2.391q-2.481-1.062-5.209-1.858t-5.7-1.326q-2.976-.53-6.2-.8t-6.706-.265q-3.479,0-6.72.265t-6.245.8q-3,.53-5.776,1.326t-5.31,1.858q-2.539,1.062-4.849,2.391t-4.391,2.927q-2.082,1.6-3.937,3.464t-3.486,4q-1.676,2.2-3.18,4.826t-2.839,5.693q-1.334,3.064-2.5,6.568t-2.166,7.45q-1,3.947-1.834,8.342t-1.5,9.244q-.67,4.849-1.177,10.158T105,238.332q-.362,6.086-.48,11.738t.008,10.862q.126,5.21.5,9.973t.984,9.07q.614,4.308,1.471,8.157t1.956,7.233q1.1,3.384,2.438,6.3t2.917,5.359q1.624,2.514,3.526,4.718t4.082,4.1q2.18,1.893,4.635,3.473t5.184,2.845q2.729,1.265,5.728,2.215t6.268,1.584q3.268.634,6.8.951t7.331.317q3.8,0,7.338-.317t6.823-.951q3.282-.634,6.3-1.584t5.776-2.215q2.756-1.265,5.245-2.845t4.71-3.473q2.22-1.893,4.17-4.1t3.628-4.718q1.631-2.443,3.049-5.359t2.624-6.3q1.205-3.384,2.195-7.233t1.763-8.157q.773-4.308,1.33-9.07t.894-9.973q.338-5.21.457-10.862t.02-11.738q-.094-5.775-.368-11.084t-.729-10.158q-.455-4.849-1.09-9.244T211.03,199.5q-.817-3.947-1.817-7.45t-2.184-6.568q-1.184-3.064-2.553-5.693T201.551,174.967Z" transform="translate(655.08 7.9)"/></g><g class="m" transform="matrix(1, 0, 0, 1, -674.35, -9.07)"><path class="h" d="M89.945,152.863q3.187-3.046,6.7-5.7t7.355-4.93q3.842-2.272,8.018-4.162t8.69-3.4q4.514-1.509,9.371-2.64t10.064-1.883q5.206-.753,10.767-1.129t11.483-.376q5.922,0,11.463.374t10.709,1.122q5.168.748,9.967,1.872t9.237,2.623q4.437,1.5,8.516,3.378t7.805,4.136q3.726,2.258,7.1,4.9t6.409,5.667q1.575,1.573,3.061,3.281t2.882,3.553q1.4,1.845,2.7,3.827t2.527,4.1q1.219,2.12,2.351,4.379t2.175,4.657q1.044,2.4,2,4.937t1.828,5.22q.871,2.681,1.655,5.5t1.483,5.79q.7,2.967,1.312,6.079t1.141,6.37q.528,3.258.97,6.664t.8,6.96q.357,3.554.63,7.259t.461,7.561q.2,4.142.29,8.15t.063,7.879q-.026,3.872-.165,7.606t-.392,7.33q-.253,3.6-.619,7.05t-.846,6.768q-.48,3.313-1.073,6.483t-1.3,6.2q-.706,3.026-1.524,5.906t-1.749,5.613q-.931,2.733-1.974,5.319t-2.2,5.022q-1.154,2.437-2.42,4.723t-2.642,4.423q-1.376,2.136-2.862,4.12t-3.082,3.816q-3.325,3.818-7.112,7.168t-8.032,6.231q-4.245,2.88-8.941,5.285t-9.84,4.333q-5.143,1.928-10.727,3.376t-11.6,2.414q-6.017.966-12.459,1.45t-13.3.483q-6.861,0-13.282-.48t-12.4-1.44q-5.975-.96-11.5-2.4t-10.582-3.354q-5.061-1.915-9.655-4.305t-8.715-5.251q-4.122-2.861-7.766-6.191t-6.806-7.123q-1.518-1.82-2.919-3.794t-2.686-4.1q-1.285-2.126-2.452-4.4T66.1,318.449q-1.05-2.429-1.982-5.007t-1.746-5.305q-.814-2.727-1.508-5.6t-1.27-5.9q-.576-3.021-1.032-6.187t-.793-6.477q-.337-3.31-.554-6.763t-.315-7.047q-.1-3.594-.076-7.328t.164-7.606q.142-3.872.4-7.881t.642-8.153q.355-3.858.788-7.565t.946-7.264q.513-3.557,1.105-6.966t1.264-6.671q.672-3.262,1.423-6.378t1.583-6.089q.832-2.972,1.744-5.8t1.905-5.515q.993-2.687,2.067-5.232t2.23-4.951q1.156-2.405,2.394-4.672t2.559-4.394q1.321-2.128,2.724-4.119t2.891-3.845q1.487-1.854,3.059-3.572T89.945,152.863Zm111.606,22.1q-1.514-2.138-3.268-4t-3.749-3.464q-1.995-1.6-4.232-2.927t-4.719-2.391q-2.481-1.062-5.209-1.858t-5.7-1.326q-2.976-.53-6.2-.8t-6.706-.265q-3.479,0-6.72.265t-6.245.8q-3,.53-5.776,1.326t-5.31,1.858q-2.539,1.062-4.849,2.391t-4.391,2.927q-2.082,1.6-3.937,3.464t-3.486,4q-1.676,2.2-3.18,4.826t-2.839,5.693q-1.334,3.064-2.5,6.568t-2.166,7.45q-1,3.947-1.834,8.342t-1.5,9.244q-.67,4.849-1.177,10.158T105,238.332q-.362,6.086-.48,11.738t.008,10.862q.126,5.21.5,9.973t.984,9.07q.614,4.308,1.471,8.157t1.956,7.233q1.1,3.384,2.438,6.3t2.917,5.359q1.624,2.514,3.526,4.718t4.082,4.1q2.18,1.893,4.635,3.473t5.184,2.845q2.729,1.265,5.728,2.215t6.268,1.584q3.268.634,6.8.951t7.331.317q3.8,0,7.338-.317t6.823-.951q3.282-.634,6.3-1.584t5.776-2.215q2.756-1.265,5.245-2.845t4.71-3.473q2.22-1.893,4.17-4.1t3.628-4.718q1.631-2.443,3.049-5.359t2.624-6.3q1.205-3.384,2.195-7.233t1.763-8.157q.773-4.308,1.33-9.07t.894-9.973q.338-5.21.457-10.862t.02-11.738q-.094-5.775-.368-11.084t-.729-10.158q-.455-4.849-1.09-9.244T211.03,199.5q-.817-3.947-1.817-7.45t-2.184-6.568q-1.184-3.064-2.553-5.693T201.551,174.967Z" transform="translate(655.08 7.11)"/></g><g class="l" transform="matrix(1, 0, 0, 1, -674.35, -9.07)"><path class="h" d="M89.945,152.863q3.187-3.046,6.7-5.7t7.355-4.93q3.842-2.272,8.018-4.162t8.69-3.4q4.514-1.509,9.371-2.64t10.064-1.883q5.206-.753,10.767-1.129t11.483-.376q5.922,0,11.463.374t10.709,1.122q5.168.748,9.967,1.872t9.237,2.623q4.437,1.5,8.516,3.378t7.805,4.136q3.726,2.258,7.1,4.9t6.409,5.667q1.575,1.573,3.061,3.281t2.882,3.553q1.4,1.845,2.7,3.827t2.527,4.1q1.219,2.12,2.351,4.379t2.175,4.657q1.044,2.4,2,4.937t1.828,5.22q.871,2.681,1.655,5.5t1.483,5.79q.7,2.967,1.312,6.079t1.141,6.37q.528,3.258.97,6.664t.8,6.96q.357,3.554.63,7.259t.461,7.561q.2,4.142.29,8.15t.063,7.879q-.026,3.872-.165,7.606t-.392,7.33q-.253,3.6-.619,7.05t-.846,6.768q-.48,3.313-1.073,6.483t-1.3,6.2q-.706,3.026-1.524,5.906t-1.749,5.613q-.931,2.733-1.974,5.319t-2.2,5.022q-1.154,2.437-2.42,4.723t-2.642,4.423q-1.376,2.136-2.862,4.12t-3.082,3.816q-3.325,3.818-7.112,7.168t-8.032,6.231q-4.245,2.88-8.941,5.285t-9.84,4.333q-5.143,1.928-10.727,3.376t-11.6,2.414q-6.017.966-12.459,1.45t-13.3.483q-6.861,0-13.282-.48t-12.4-1.44q-5.975-.96-11.5-2.4t-10.582-3.354q-5.061-1.915-9.655-4.305t-8.715-5.251q-4.122-2.861-7.766-6.191t-6.806-7.123q-1.518-1.82-2.919-3.794t-2.686-4.1q-1.285-2.126-2.452-4.4T66.1,318.449q-1.05-2.429-1.982-5.007t-1.746-5.305q-.814-2.727-1.508-5.6t-1.27-5.9q-.576-3.021-1.032-6.187t-.793-6.477q-.337-3.31-.554-6.763t-.315-7.047q-.1-3.594-.076-7.328t.164-7.606q.142-3.872.4-7.881t.642-8.153q.355-3.858.788-7.565t.946-7.264q.513-3.557,1.105-6.966t1.264-6.671q.672-3.262,1.423-6.378t1.583-6.088q.832-2.972,1.744-5.8t1.905-5.515q.993-2.687,2.067-5.232t2.23-4.951q1.156-2.405,2.394-4.672t2.559-4.394q1.321-2.128,2.724-4.119t2.891-3.845q1.487-1.854,3.059-3.572T89.945,152.863Zm111.606,22.1q-1.514-2.138-3.268-4t-3.749-3.464q-1.995-1.6-4.232-2.927t-4.719-2.391q-2.481-1.062-5.209-1.858t-5.7-1.326q-2.976-.53-6.2-.8t-6.706-.265q-3.479,0-6.72.265t-6.245.8q-3,.53-5.776,1.326t-5.31,1.858q-2.539,1.062-4.849,2.391t-4.391,2.927q-2.082,1.6-3.937,3.464t-3.486,4q-1.676,2.2-3.18,4.826t-2.839,5.693q-1.334,3.064-2.5,6.568t-2.166,7.45q-1,3.947-1.834,8.342t-1.5,9.244q-.67,4.849-1.177,10.158T105,238.332q-.362,6.086-.48,11.738t.008,10.862q.126,5.21.5,9.973t.984,9.07q.614,4.308,1.471,8.157t1.956,7.233q1.1,3.384,2.438,6.3t2.917,5.359q1.624,2.514,3.526,4.718t4.082,4.1q2.18,1.893,4.635,3.473t5.184,2.845q2.729,1.265,5.728,2.215t6.268,1.584q3.268.634,6.8.951t7.331.317q3.8,0,7.338-.317t6.823-.951q3.282-.634,6.3-1.584t5.776-2.215q2.756-1.265,5.245-2.845t4.71-3.473q2.22-1.893,4.17-4.1t3.628-4.718q1.631-2.443,3.049-5.359t2.624-6.3q1.205-3.384,2.195-7.233t1.763-8.157q.773-4.308,1.33-9.07t.894-9.973q.338-5.21.457-10.862t.02-11.738q-.094-5.775-.368-11.084t-.729-10.158q-.455-4.849-1.09-9.244T211.03,199.5q-.817-3.947-1.817-7.45t-2.184-6.568q-1.184-3.064-2.553-5.693T201.551,174.967Z" transform="translate(655.08 6.32)"/></g><g class="k" transform="matrix(1, 0, 0, 1, -674.35, -9.07)"><path class="h" d="M89.945,152.863q3.187-3.046,6.7-5.7t7.355-4.93q3.842-2.272,8.018-4.162t8.69-3.4q4.514-1.509,9.371-2.64t10.064-1.883q5.206-.753,10.767-1.129t11.483-.376q5.922,0,11.463.374t10.709,1.122q5.168.748,9.967,1.872t9.237,2.623q4.437,1.5,8.516,3.378t7.805,4.136q3.726,2.258,7.1,4.9t6.409,5.667q1.575,1.573,3.061,3.281t2.882,3.553q1.4,1.845,2.7,3.827t2.527,4.1q1.219,2.12,2.351,4.379t2.175,4.657q1.044,2.4,2,4.937t1.828,5.22q.871,2.681,1.655,5.5t1.483,5.79q.7,2.967,1.312,6.079t1.141,6.37q.528,3.258.97,6.664t.8,6.96q.357,3.554.63,7.259t.461,7.561q.2,4.142.29,8.15t.063,7.879q-.026,3.872-.165,7.606t-.392,7.33q-.253,3.6-.619,7.05t-.846,6.768q-.48,3.313-1.073,6.483t-1.3,6.2q-.706,3.026-1.524,5.906t-1.749,5.613q-.931,2.733-1.974,5.319t-2.2,5.022q-1.154,2.437-2.42,4.723t-2.642,4.423q-1.376,2.136-2.862,4.12t-3.082,3.816q-3.325,3.818-7.112,7.168t-8.032,6.231q-4.245,2.88-8.941,5.285t-9.84,4.333q-5.143,1.928-10.727,3.376t-11.6,2.414q-6.017.966-12.459,1.45t-13.3.483q-6.861,0-13.282-.48t-12.4-1.44q-5.975-.96-11.5-2.4t-10.582-3.354q-5.061-1.915-9.655-4.305t-8.715-5.251q-4.122-2.861-7.766-6.191t-6.806-7.123q-1.518-1.82-2.919-3.794t-2.686-4.1q-1.285-2.126-2.452-4.4T66.1,318.449q-1.05-2.429-1.982-5.007t-1.746-5.305q-.814-2.727-1.508-5.6t-1.27-5.9q-.576-3.021-1.032-6.187t-.793-6.477q-.337-3.31-.554-6.763t-.315-7.047q-.1-3.594-.076-7.328t.164-7.606q.142-3.872.4-7.881t.642-8.153q.355-3.858.788-7.565t.946-7.264q.513-3.557,1.105-6.966t1.264-6.671q.672-3.262,1.423-6.378t1.583-6.088q.832-2.972,1.744-5.8t1.905-5.515q.993-2.687,2.067-5.232t2.23-4.951q1.156-2.405,2.394-4.672t2.559-4.394q1.321-2.128,2.724-4.119t2.891-3.845q1.487-1.854,3.059-3.572T89.945,152.863Zm111.606,22.1q-1.514-2.138-3.268-4t-3.749-3.464q-1.995-1.6-4.232-2.927t-4.719-2.391q-2.481-1.062-5.209-1.858t-5.7-1.326q-2.976-.53-6.2-.8t-6.706-.265q-3.479,0-6.72.265t-6.245.8q-3,.53-5.776,1.326t-5.31,1.858q-2.539,1.062-4.849,2.391t-4.391,2.927q-2.082,1.6-3.937,3.464t-3.486,4q-1.676,2.2-3.18,4.826t-2.839,5.693q-1.334,3.064-2.5,6.568t-2.166,7.45q-1,3.947-1.834,8.342t-1.5,9.244q-.67,4.849-1.177,10.158T105,238.332q-.362,6.086-.48,11.738t.008,10.862q.126,5.21.5,9.973t.984,9.07q.614,4.308,1.471,8.157t1.956,7.233q1.1,3.384,2.438,6.3t2.917,5.359q1.624,2.514,3.526,4.718t4.082,4.1q2.18,1.893,4.635,3.473t5.184,2.845q2.729,1.265,5.728,2.215t6.268,1.584q3.268.634,6.8.951t7.331.317q3.8,0,7.338-.317t6.823-.951q3.282-.634,6.3-1.584t5.776-2.215q2.756-1.265,5.245-2.845t4.71-3.473q2.22-1.893,4.17-4.1t3.628-4.718q1.631-2.443,3.049-5.359t2.624-6.3q1.205-3.384,2.195-7.233t1.763-8.157q.773-4.308,1.33-9.07t.894-9.973q.338-5.21.457-10.862t.02-11.738q-.094-5.775-.368-11.084t-.729-10.158q-.455-4.849-1.09-9.244T211.03,199.5q-.817-3.947-1.817-7.45t-2.184-6.568q-1.184-3.064-2.553-5.693T201.551,174.967Z" transform="translate(655.08 5.53)"/></g><g class="j" transform="matrix(1, 0, 0, 1, -674.35, -9.07)"><path class="h" d="M89.945,152.863q3.187-3.046,6.7-5.7t7.355-4.93q3.842-2.272,8.018-4.162t8.69-3.4q4.514-1.509,9.371-2.64t10.064-1.883q5.206-.753,10.767-1.129t11.483-.376q5.922,0,11.463.374t10.709,1.122q5.168.748,9.967,1.872t9.237,2.623q4.437,1.5,8.516,3.378t7.805,4.136q3.726,2.258,7.1,4.9t6.409,5.667q1.575,1.573,3.061,3.281t2.882,3.553q1.4,1.845,2.7,3.827t2.527,4.1q1.219,2.12,2.351,4.379t2.175,4.657q1.044,2.4,2,4.937t1.828,5.22q.871,2.681,1.655,5.5t1.483,5.79q.7,2.967,1.312,6.079t1.141,6.37q.528,3.258.97,6.664t.8,6.96q.357,3.554.63,7.259t.461,7.561q.2,4.142.29,8.15t.063,7.879q-.026,3.872-.165,7.606t-.392,7.33q-.253,3.6-.619,7.05t-.846,6.768q-.48,3.313-1.073,6.483t-1.3,6.2q-.706,3.026-1.524,5.906t-1.749,5.613q-.931,2.733-1.974,5.319t-2.2,5.022q-1.154,2.437-2.42,4.723t-2.642,4.423q-1.376,2.136-2.862,4.12t-3.082,3.816q-3.325,3.818-7.112,7.168t-8.032,6.231q-4.245,2.88-8.941,5.285t-9.84,4.333q-5.143,1.928-10.727,3.376t-11.6,2.414q-6.017.966-12.459,1.45t-13.3.483q-6.861,0-13.282-.48t-12.4-1.44q-5.975-.96-11.5-2.4t-10.582-3.354q-5.061-1.915-9.655-4.305t-8.715-5.251q-4.122-2.861-7.766-6.191t-6.806-7.123q-1.518-1.82-2.919-3.794t-2.686-4.1q-1.285-2.126-2.452-4.4T66.1,318.449q-1.05-2.429-1.982-5.007t-1.746-5.305q-.814-2.727-1.508-5.6t-1.27-5.9q-.576-3.021-1.032-6.187t-.793-6.477q-.337-3.31-.554-6.763t-.315-7.047q-.1-3.594-.076-7.328t.164-7.606q.142-3.872.4-7.881t.642-8.153q.355-3.858.788-7.565t.946-7.264q.513-3.557,1.105-6.966t1.264-6.671q.672-3.262,1.423-6.378t1.583-6.089q.832-2.972,1.744-5.8t1.905-5.515q.993-2.687,2.067-5.232t2.23-4.951q1.156-2.405,2.394-4.672t2.559-4.394q1.321-2.128,2.724-4.119t2.891-3.845q1.487-1.854,3.059-3.572T89.945,152.863Zm111.606,22.1q-1.514-2.138-3.268-4t-3.749-3.464q-1.995-1.6-4.232-2.927t-4.719-2.391q-2.481-1.062-5.209-1.858t-5.7-1.326q-2.976-.53-6.2-.8t-6.706-.265q-3.479,0-6.72.265t-6.245.8q-3,.53-5.776,1.326t-5.31,1.858q-2.539,1.062-4.849,2.391t-4.391,2.927q-2.082,1.6-3.937,3.464t-3.486,4q-1.676,2.2-3.18,4.826t-2.839,5.693q-1.334,3.064-2.5,6.568t-2.166,7.45q-1,3.947-1.834,8.342t-1.5,9.244q-.67,4.849-1.177,10.158T105,238.332q-.362,6.086-.48,11.738t.008,10.862q.126,5.21.5,9.973t.984,9.07q.614,4.308,1.471,8.157t1.956,7.233q1.1,3.384,2.438,6.3t2.917,5.359q1.624,2.514,3.526,4.718t4.082,4.1q2.18,1.893,4.635,3.473t5.184,2.845q2.729,1.265,5.728,2.215t6.268,1.584q3.268.634,6.8.951t7.331.317q3.8,0,7.338-.317t6.823-.951q3.282-.634,6.3-1.584t5.776-2.215q2.756-1.265,5.245-2.845t4.71-3.473q2.22-1.893,4.17-4.1t3.628-4.718q1.631-2.443,3.049-5.359t2.624-6.3q1.205-3.384,2.195-7.233t1.763-8.157q.773-4.308,1.33-9.07t.894-9.973q.338-5.21.457-10.862t.02-11.738q-.094-5.775-.368-11.084t-.729-10.158q-.455-4.849-1.09-9.244T211.03,199.5q-.817-3.947-1.817-7.45t-2.184-6.568q-1.184-3.064-2.553-5.693T201.551,174.967Z" transform="translate(655.08 4.74)"/></g><g class="i" transform="matrix(1, 0, 0, 1, -674.35, -9.07)"><path class="h" d="M89.945,152.863q3.187-3.046,6.7-5.7t7.355-4.93q3.842-2.272,8.018-4.162t8.69-3.4q4.514-1.509,9.371-2.64t10.064-1.883q5.206-.753,10.767-1.129t11.483-.376q5.922,0,11.463.374t10.709,1.122q5.168.748,9.967,1.872t9.237,2.623q4.437,1.5,8.516,3.378t7.805,4.136q3.726,2.258,7.1,4.9t6.409,5.667q1.575,1.573,3.061,3.281t2.882,3.553q1.4,1.845,2.7,3.827t2.527,4.1q1.219,2.12,2.351,4.379t2.175,4.657q1.044,2.4,2,4.937t1.828,5.22q.871,2.681,1.655,5.5t1.483,5.79q.7,2.967,1.312,6.079t1.141,6.37q.528,3.258.97,6.664t.8,6.96q.357,3.554.63,7.259t.461,7.561q.2,4.142.29,8.15t.063,7.879q-.026,3.872-.165,7.606t-.392,7.33q-.253,3.6-.619,7.05t-.846,6.768q-.48,3.313-1.073,6.483t-1.3,6.2q-.706,3.026-1.524,5.906t-1.749,5.613q-.931,2.733-1.974,5.319t-2.2,5.022q-1.154,2.437-2.42,4.723t-2.642,4.423q-1.376,2.136-2.862,4.12t-3.082,3.816q-3.325,3.818-7.112,7.168t-8.032,6.231q-4.245,2.88-8.941,5.285t-9.84,4.333q-5.143,1.928-10.727,3.376t-11.6,2.414q-6.017.966-12.459,1.45t-13.3.483q-6.861,0-13.282-.48t-12.4-1.44q-5.975-.96-11.5-2.4t-10.582-3.354q-5.061-1.915-9.655-4.305t-8.715-5.251q-4.122-2.861-7.766-6.191t-6.806-7.123q-1.518-1.82-2.919-3.794t-2.686-4.1q-1.285-2.126-2.452-4.4T66.1,318.449q-1.05-2.429-1.982-5.007t-1.746-5.305q-.814-2.727-1.508-5.6t-1.27-5.9q-.576-3.021-1.032-6.187t-.793-6.477q-.337-3.31-.554-6.763t-.315-7.047q-.1-3.594-.076-7.328t.164-7.606q.142-3.872.4-7.881t.642-8.153q.355-3.858.788-7.565t.946-7.264q.513-3.557,1.105-6.966t1.264-6.671q.672-3.262,1.423-6.378t1.583-6.088q.832-2.972,1.744-5.8t1.905-5.515q.993-2.687,2.067-5.232t2.23-4.951q1.156-2.405,2.394-4.672t2.559-4.394q1.321-2.128,2.724-4.119t2.891-3.845q1.487-1.854,3.059-3.572T89.945,152.863Zm111.606,22.1q-1.514-2.138-3.268-4t-3.749-3.464q-1.995-1.6-4.232-2.927t-4.719-2.391q-2.481-1.062-5.209-1.858t-5.7-1.326q-2.976-.53-6.2-.8t-6.706-.265q-3.479,0-6.72.265t-6.245.8q-3,.53-5.776,1.326t-5.31,1.858q-2.539,1.062-4.849,2.391t-4.391,2.927q-2.082,1.6-3.937,3.464t-3.486,4q-1.676,2.2-3.18,4.826t-2.839,5.693q-1.334,3.064-2.5,6.568t-2.166,7.45q-1,3.947-1.834,8.342t-1.5,9.244q-.67,4.849-1.177,10.158T105,238.332q-.362,6.086-.48,11.738t.008,10.862q.126,5.21.5,9.973t.984,9.07q.614,4.308,1.471,8.157t1.956,7.233q1.1,3.384,2.438,6.3t2.917,5.359q1.624,2.514,3.526,4.718t4.082,4.1q2.18,1.893,4.635,3.473t5.184,2.845q2.729,1.265,5.728,2.215t6.268,1.584q3.268.634,6.8.951t7.331.317q3.8,0,7.338-.317t6.823-.951q3.282-.634,6.3-1.584t5.776-2.215q2.756-1.265,5.245-2.845t4.71-3.473q2.22-1.893,4.17-4.1t3.628-4.718q1.631-2.443,3.049-5.359t2.624-6.3q1.205-3.384,2.195-7.233t1.763-8.157q.773-4.308,1.33-9.07t.894-9.973q.338-5.21.457-10.862t.02-11.738q-.094-5.775-.368-11.084t-.729-10.158q-.455-4.849-1.09-9.244T211.03,199.5q-.817-3.947-1.817-7.45t-2.184-6.568q-1.184-3.064-2.553-5.693T201.551,174.967Z" transform="translate(655.08)"/></g></g></g></g></svg>