<svg xmlns="http://www.w3.org/2000/svg" width="737.113" height="460.198" viewBox="0 0 737.113 460.198"><defs><style>.a{opacity:0.85;}.b,.l{fill:#f2f2f2;}.b{opacity:0.62;}.c{fill:#a9a9b2;}.d,.n,.o{fill:#6c63ff;}.e{fill:#a8a8a8;}.f{opacity:0.2;}.g{opacity:0.1;}.h{fill:#71717f;opacity:0.6;}.i{fill:none;stroke:#282640;stroke-miterlimit:10;stroke-width:2px;}.j{fill:#2f2e41;}.k{fill:#65628c;}.m{fill:#52515d;}.n{opacity:0.4;}.o{opacity:0.8;}.p,.r{fill:#fff;}.q{fill:#3f3d56;}.r{font-size:80px;font-family:TitilliumWeb-SemiBold, Titillium Web;font-weight:600;}</style></defs><g class="a"><circle class="b" cx="140.232" cy="140.232" r="140.232" transform="translate(52.412)"/><path class="c" d="M31.391,151.642c0,51.022,32.009,92.308,71.565,92.308" transform="translate(-31.391 -117.972)"/><path class="d" d="M140.092,243.413c0-51.6,35.72-93.346,79.862-93.346" transform="translate(-68.527 -117.434)"/><path class="d" d="M70.775,158.668c0,48.466,20.411,87.683,45.636,87.683" transform="translate(-44.846 -120.372)"/><path class="c" d="M140.092,229.958c0-65.928,41.286-119.275,92.308-119.275" transform="translate(-68.527 -103.979)"/><path class="e" d="M117.224,289.993s10.149-.313,13.208-2.491,15.612-4.779,16.371-1.286,15.252,17.373,3.794,17.466-26.624-1.785-29.677-3.644S117.224,289.993,117.224,289.993Z" transform="translate(-60.714 -163.364)"/><path class="f" d="M150.8,305.306c-11.458.092-26.624-1.785-29.677-3.644-2.325-1.416-3.251-6.5-3.561-8.842l-.339.013s.643,8.185,3.7,10.045,18.218,3.737,29.677,3.644c3.308-.027,4.45-1.2,4.387-2.946C154.524,304.628,153.262,305.286,150.8,305.306Z" transform="translate(-60.714 -166.203)"/><ellipse class="c" cx="123.115" cy="16.749" rx="123.115" ry="16.749" transform="translate(7.643 262.728)"/><ellipse class="g" cx="103.364" cy="14.062" rx="103.364" ry="14.062" transform="translate(27.394 265.415)"/><ellipse class="h" cx="186.318" cy="25.347" rx="186.318" ry="25.347" transform="translate(364.478 409.504)"/><ellipse class="c" cx="111.922" cy="15.226" rx="111.922" ry="15.226" transform="translate(92.572 409.749)"/><path class="i" d="M494,695.753C553.253,710.9,667.15,676,679.659,636.5" transform="translate(-189.434 -283.616)"/><path class="i" d="M341,357.7s85.588-23.7,90.855,52.669-70.445,98.1-11.192,113.239" transform="translate(-137.164 -187.179)"/><path class="i" d="M215.4,637.241s25.724-7.124,27.307,15.83-21.173,29.484-3.364,34.035" transform="translate(-94.255 -283.512)"/><path class="j" d="M800.152,662.7l-5.187,33.112s-25.533,13.564-7.58,13.963,102.529,0,102.529,0,16.357,0-9.575-14.362l-5.186-34.708Z" transform="translate(-287.478 -291.886)"/><path class="g" d="M783.776,709.421c4.077-3.628,11.192-7.408,11.192-7.408l5.186-33.113,75,.071,5.186,32.643c6.047,3.349,9.793,5.917,11.985,7.886,3.331-.76,6.97-3.584-11.985-14.082l-5.186-34.708-75,1.995-5.186,33.113S773.513,707.217,783.776,709.421Z" transform="translate(-287.481 -291.886)"/><rect class="j" width="337.909" height="235.379" rx="18.046" transform="translate(380.821 140.027)"/><rect class="k" width="315.169" height="176.335" transform="translate(392.191 152.594)"/><circle class="l" cx="1.995" cy="1.995" r="1.995" transform="translate(547.781 145.014)"/><path class="m" d="M947.735,621.322v20.634a11.879,11.879,0,0,1-11.882,11.881H621.7a11.879,11.879,0,0,1-11.881-11.882V621.322Z" transform="translate(-229.003 -278.43)"/><path class="j" d="M857.6,660.013V664H642.968v-3.192l.3-.8,5.29-14.362h204.66Z" transform="translate(-219.659 -220.576)"/><path class="j" d="M1094.562,754.906c-.391,1.672-1.867,3.435-5.2,5.1-11.968,5.984-36.3-1.6-36.3-1.6s-18.75-3.192-18.75-11.57a14.96,14.96,0,0,1,1.644-.977c5.032-2.662,21.716-9.231,51.3.278a12.337,12.337,0,0,1,5.623,3.685A5.883,5.883,0,0,1,1094.562,754.906Z" transform="translate(-374.02 -319.374)"/><path class="g" d="M1095.415,754.906c-14.649,5.613-27.707,6.032-41.108-3.275-6.758-4.692-12.9-5.853-17.506-5.765,5.032-2.662,21.716-9.231,51.3.278a12.337,12.337,0,0,1,5.623,3.685A5.882,5.882,0,0,1,1095.415,754.906Z" transform="translate(-374.873 -319.374)"/><ellipse class="l" cx="5.186" cy="1.596" rx="5.186" ry="1.596" transform="translate(696.988 429.065)"/><circle class="l" cx="7.58" cy="7.58" r="7.58" transform="translate(542.196 351.669)"/><path class="g" d="M857.6,667.466v3.99H642.968v-3.192l.3-.8Z" transform="translate(-219.659 -228.029)"/><rect class="j" width="136.94" height="159.325" transform="translate(71.505 104.68)"/><rect class="m" width="164.592" height="56.62" transform="translate(57.679 88.879)"/><rect class="m" width="164.592" height="56.62" transform="translate(57.679 156.033)"/><rect class="m" width="164.592" height="56.62" transform="translate(57.679 223.186)"/><rect class="n" width="10.534" height="10.534" transform="translate(178.818 98.755)"/><rect class="o" width="10.534" height="10.534" transform="translate(193.961 98.755)"/><rect class="d" width="10.534" height="10.534" transform="translate(209.103 98.755)"/><rect class="n" width="10.534" height="10.534" transform="translate(178.818 165.25)"/><rect class="o" width="10.534" height="10.534" transform="translate(193.961 165.25)"/><rect class="d" width="10.534" height="10.534" transform="translate(209.103 165.25)"/><rect class="n" width="10.534" height="10.534" transform="translate(178.818 231.745)"/><rect class="o" width="10.534" height="10.534" transform="translate(193.961 231.745)"/><rect class="d" width="10.534" height="10.534" transform="translate(209.103 231.745)"/><circle class="j" cx="52.011" cy="52.011" r="52.011" transform="translate(156.434 302.19)"/><rect class="j" width="15.801" height="28.31" transform="translate(184.744 395.02)"/><rect class="j" width="15.801" height="28.31" transform="translate(216.345 395.02)"/><ellipse class="j" cx="13.167" cy="4.938" rx="13.167" ry="4.938" transform="translate(184.744 418.721)"/><ellipse class="j" cx="13.167" cy="4.938" rx="13.167" ry="4.938" transform="translate(216.345 418.063)"/><circle class="p" cx="17.776" cy="17.776" r="17.776" transform="translate(191.986 323.258)"/><circle class="q" cx="5.925" cy="5.925" r="5.925" transform="translate(203.836 335.109)"/><path class="d" d="M270.968,542.472c-4.2-18.808,9.225-37.813,29.985-42.448s40.993,6.854,45.193,25.662-9.559,25.745-30.318,30.38S275.168,561.28,270.968,542.472Z" transform="translate(-112.976 -236.64)"/><ellipse class="j" cx="26.005" cy="8.164" rx="26.005" ry="8.164" transform="translate(226.893 339.048) rotate(-23.171)"/><ellipse class="j" cx="26.005" cy="8.164" rx="26.005" ry="8.164" transform="translate(129.455 373.942) rotate(-23.171)"/><path class="p" d="M364.961,659.632c0,5.09-13.107,15.142-27.651,15.142S309,665.381,309,660.29s13.766-3.95,28.31-3.95S364.961,654.541,364.961,659.632Z" transform="translate(-126.231 -290.288)"/><text class="r" transform="translate(428.733 212.541) rotate(-17)"><tspan x="41.459" y="91">404</tspan></text></g></svg>