<svg width="40" height="40" viewBox="0 0 40 40" fill="none" xmlns="http://www.w3.org/2000/svg">
<rect width="40" height="40" rx="4" fill="#F4F5F6"/>
<rect width="40" height="40" rx="4" fill="#F4F5F6"/>
<g clip-path="url(#clip0_817_11401)">
<path d="M24 22C25.1046 22 26 21.1046 26 20C26 18.8954 25.1046 18 24 18C22.8954 18 22 18.8954 22 20C22 21.1046 22.8954 22 24 22Z" fill="#4E56AB" stroke="#4E56AB" stroke-width="2" stroke-linecap="round" stroke-linejoin="round"/>
<path d="M24 14H16C12.6863 14 10 16.6863 10 20C10 23.3137 12.6863 26 16 26H24C27.3137 26 30 23.3137 30 20C30 16.6863 27.3137 14 24 14Z" stroke="#4E56AB" stroke-width="2" stroke-linecap="round" stroke-linejoin="round"/>
</g>
<defs>
<clipPath id="clip0_817_11401">
<rect width="24" height="24" fill="white" transform="translate(8 8)"/>
</clipPath>
</defs>
</svg>
