<svg width="40" height="40" viewBox="0 0 40 40" fill="none" xmlns="http://www.w3.org/2000/svg">
<rect width="40" height="40" rx="4" fill="#EBECEE"/>
<rect width="40" height="40" rx="4" fill="#F4F5F6"/>
<mask id="mask0_822_11029" style="mask-type:alpha" maskUnits="userSpaceOnUse" x="8" y="8" width="24" height="24">
<rect x="8" y="8" width="24" height="24" fill="#D9D9D9"/>
</mask>
<g mask="url(#mask0_822_11029)">
<path d="M13 30C12.45 30 11.979 29.8044 11.587 29.413C11.1957 29.021 11 28.55 11 28V23.45L13.75 20.325L15.175 21.75L13 24.5005H26.65L24.875 21.8L26.3 20.375L29 23.45V28C29 28.55 28.8043 29.021 28.413 29.413C28.021 29.8044 27.55 30 27 30H13ZM13 28H27V26H13V28ZM18.625 22.375L15.1 18.85C14.7167 18.4667 14.5293 17.996 14.538 17.438C14.546 16.8794 14.7417 16.4084 15.125 16.025L20.025 11.125C20.4083 10.7417 20.8833 10.5417 21.45 10.525C22.0167 10.5084 22.4917 10.6917 22.875 11.075L26.4 14.6C26.7833 14.9834 26.9833 15.45 27 16C27.0167 16.55 26.8333 17.0167 26.45 17.4L21.45 22.4C21.0667 22.7834 20.596 22.9707 20.038 22.962C19.4793 22.954 19.0083 22.7584 18.625 22.375ZM25 16.5005L21.5 12.5005L16.5 17.5005L20 21.5005L25 16.5005Z" fill="#5A636F"/>
</g>
</svg>
