<svg width="48" height="48" viewBox="0 0 48 48" fill="none" xmlns="http://www.w3.org/2000/svg">
<circle cx="24" cy="24" r="24" fill="#4E56AB"/>
<path d="M28.9375 25.6875V27.8945H18.6934L18.5566 26.1855L24.4844 16.7812H26.7207L24.2988 20.834L21.3496 25.6875H28.9375ZM27.3262 16.7812V31H24.5137V16.7812H27.3262Z" fill="white"/>
<circle cx="24" cy="24" r="24" fill="#FB2A2A"/>
<path d="M30.026 15.6159C30.2068 15.4247 30.4242 15.2717 30.6651 15.166C30.9061 15.0602 31.1658 15.0038 31.4289 15.0002C31.692 14.9965 31.9532 15.0457 32.197 15.1447C32.4408 15.2437 32.6623 15.3906 32.8484 15.5766C33.0345 15.7627 33.1814 15.9842 33.2804 16.228C33.3794 16.4718 33.4285 16.733 33.4249 16.9961C33.4212 17.2592 33.3648 17.519 33.2591 17.7599C33.1533 18.0009 33.0003 18.2182 32.8092 18.399L27.0407 24.1675C27.0331 24.1751 27.027 24.1841 27.0229 24.1941C27.0188 24.2041 27.0166 24.2148 27.0166 24.2256C27.0166 24.2363 27.0188 24.247 27.0229 24.257C27.027 24.267 27.0331 24.276 27.0407 24.2836L32.8092 30.0521C32.9944 30.2343 33.1418 30.4514 33.2428 30.6909C33.3437 30.9304 33.3962 31.1875 33.3973 31.4474C33.3984 31.7073 33.348 31.9648 33.2491 32.2051C33.1502 32.4454 33.0046 32.6638 32.8209 32.8476C32.6371 33.0314 32.4188 33.177 32.1785 33.276C31.9382 33.375 31.6807 33.4254 31.4208 33.4244C31.1609 33.4233 30.9038 33.3709 30.6643 33.27C30.4248 33.1691 30.2076 33.0218 30.0253 32.8365L24.2569 27.0681C24.2493 27.0605 24.2402 27.0544 24.2303 27.0503C24.2203 27.0461 24.2096 27.044 24.1988 27.044C24.188 27.044 24.1774 27.0461 24.1674 27.0503C24.1574 27.0544 24.1484 27.0605 24.1408 27.0681L18.3723 32.8365C18.1901 33.0218 17.9729 33.1692 17.7335 33.2701C17.494 33.3711 17.2369 33.4236 16.977 33.4247C16.7171 33.4258 16.4596 33.3754 16.2193 33.2765C15.9789 33.1775 15.7606 33.032 15.5768 32.8483C15.393 32.6645 15.2474 32.4462 15.1484 32.2059C15.0494 31.9656 14.999 31.7081 15 31.4482C15.001 31.1883 15.0535 30.9312 15.1544 30.6917C15.2553 30.4522 15.4026 30.235 15.5879 30.0527L21.3563 24.2843C21.3639 24.2767 21.37 24.2676 21.3741 24.2577C21.3783 24.2477 21.3804 24.237 21.3804 24.2262C21.3804 24.2154 21.3783 24.2047 21.3741 24.1948C21.37 24.1848 21.3639 24.1758 21.3563 24.1681L15.5879 18.3997C15.2236 18.0295 15.0203 17.5304 15.0224 17.011C15.0244 16.4916 15.2316 15.9941 15.5988 15.6268C15.966 15.2596 16.4635 15.0522 16.9828 15.0501C17.5022 15.0479 18.0014 15.251 18.3717 15.6152L24.1401 21.3837C24.1477 21.3913 24.1568 21.3974 24.1667 21.4015C24.1767 21.4056 24.1874 21.4078 24.1982 21.4078C24.209 21.4078 24.2197 21.4056 24.2296 21.4015C24.2396 21.3974 24.2486 21.3913 24.2563 21.3837L30.0247 15.6152L30.026 15.6159Z" fill="white"/>
</svg>
