<svg width="40" height="40" viewBox="0 0 40 40" fill="none" xmlns="http://www.w3.org/2000/svg">
<rect width="40" height="40" rx="4" fill="#4E56AB"/>
<path d="M26.3158 26.4011H17.0526C16.5895 26.4011 16.1931 26.2337 15.8636 25.8988C15.5335 25.5634 15.3684 25.1604 15.3684 24.6898V12.7112C15.3684 12.2406 15.5335 11.8376 15.8636 11.5022C16.1931 11.1674 16.5895 11 17.0526 11H22.9474L28 16.1337V24.6898C28 25.1604 27.8352 25.5634 27.5057 25.8988C27.1756 26.2337 26.7789 26.4011 26.3158 26.4011ZM22.1053 16.9893V12.7112H17.0526V24.6898H26.3158V16.9893H22.1053ZM13.6842 29.8235C13.2211 29.8235 12.8247 29.6561 12.4952 29.3213C12.1651 28.9859 12 28.5829 12 28.1123V16.1337H13.6842V28.1123H22.9474V29.8235H13.6842ZM17.0526 12.7112V16.9893V12.7112V24.6898V12.7112Z" fill="white"/>
</svg>
