<svg width="62" height="78" viewBox="0 0 62 78" fill="none" xmlns="http://www.w3.org/2000/svg">
<rect x="11" y="38" width="40" height="40" rx="4" fill="#4E56AB"/>
<path d="M37.3158 64.4011H28.0526C27.5895 64.4011 27.1931 64.2337 26.8636 63.8988C26.5335 63.5634 26.3684 63.1604 26.3684 62.6898V50.7112C26.3684 50.2406 26.5335 49.8376 26.8636 49.5022C27.1931 49.1674 27.5895 49 28.0526 49H33.9474L39 54.1337V62.6898C39 63.1604 38.8352 63.5634 38.5057 63.8988C38.1756 64.2337 37.7789 64.4011 37.3158 64.4011ZM33.1053 54.9893V50.7112H28.0526V62.6898H37.3158V54.9893H33.1053ZM24.6842 67.8235C24.2211 67.8235 23.8247 67.6561 23.4952 67.3213C23.1651 66.9859 23 66.5829 23 66.1123V54.1337H24.6842V66.1123H33.9474V67.8235H24.6842ZM28.0526 50.7112V54.9893V50.7112V62.6898V50.7112Z" fill="white"/>
<rect width="62" height="36" rx="8" fill="#384351" fill-opacity="0.7"/>
<path d="M22.6523 19.061H23.8711C23.8076 19.645 23.6405 20.1676 23.3696 20.6289C23.0988 21.0902 22.7158 21.4562 22.2207 21.7271C21.7256 21.9937 21.1077 22.127 20.3672 22.127C19.8255 22.127 19.3325 22.0254 18.8882 21.8223C18.4481 21.6191 18.0693 21.3314 17.752 20.959C17.4346 20.5824 17.1891 20.1317 17.0156 19.6069C16.8464 19.078 16.7617 18.4897 16.7617 17.8423V16.9219C16.7617 16.2744 16.8464 15.6883 17.0156 15.1636C17.1891 14.6346 17.4367 14.1818 17.7583 13.8052C18.0841 13.4285 18.4756 13.1387 18.9326 12.9355C19.3896 12.7324 19.9038 12.6309 20.4751 12.6309C21.1733 12.6309 21.7637 12.762 22.2461 13.0244C22.7285 13.2868 23.103 13.6507 23.3696 14.1162C23.6405 14.5775 23.8076 15.1128 23.8711 15.7222H22.6523C22.5931 15.2905 22.4831 14.9202 22.3223 14.6113C22.1615 14.2982 21.9329 14.057 21.6367 13.8877C21.3405 13.7184 20.9533 13.6338 20.4751 13.6338C20.0646 13.6338 19.7028 13.7121 19.3896 13.8687C19.0807 14.0252 18.8205 14.2474 18.6089 14.5352C18.4015 14.8229 18.245 15.1678 18.1392 15.5698C18.0334 15.9718 17.9805 16.4183 17.9805 16.9092V17.8423C17.9805 18.2951 18.027 18.7204 18.1201 19.1182C18.2174 19.516 18.3634 19.8651 18.5581 20.1655C18.7528 20.466 19.0003 20.703 19.3008 20.8765C19.6012 21.0457 19.9567 21.1304 20.3672 21.1304C20.8877 21.1304 21.3024 21.0479 21.6113 20.8828C21.9202 20.7178 22.153 20.4808 22.3096 20.1719C22.4704 19.863 22.5846 19.4927 22.6523 19.061ZM25.1168 18.6421V18.4961C25.1168 18.001 25.1887 17.5418 25.3326 17.1187C25.4765 16.6912 25.6838 16.321 25.9546 16.0078C26.2255 15.6904 26.5534 15.445 26.9385 15.2715C27.3236 15.0938 27.7553 15.0049 28.2335 15.0049C28.7159 15.0049 29.1496 15.0938 29.5347 15.2715C29.924 15.445 30.2541 15.6904 30.525 16.0078C30.8 16.321 31.0095 16.6912 31.1534 17.1187C31.2973 17.5418 31.3692 18.001 31.3692 18.4961V18.6421C31.3692 19.1372 31.2973 19.5964 31.1534 20.0195C31.0095 20.4427 30.8 20.813 30.525 21.1304C30.2541 21.4435 29.9262 21.689 29.5411 21.8667C29.1602 22.0402 28.7286 22.127 28.2462 22.127C27.7637 22.127 27.33 22.0402 26.9449 21.8667C26.5598 21.689 26.2297 21.4435 25.9546 21.1304C25.6838 20.813 25.4765 20.4427 25.3326 20.0195C25.1887 19.5964 25.1168 19.1372 25.1168 18.6421ZM26.2911 18.4961V18.6421C26.2911 18.9849 26.3313 19.3086 26.4117 19.6133C26.4921 19.9137 26.6127 20.1803 26.7735 20.4131C26.9385 20.6458 27.1438 20.8299 27.3892 20.9653C27.6347 21.0965 27.9203 21.1621 28.2462 21.1621C28.5678 21.1621 28.8492 21.0965 29.0904 20.9653C29.3358 20.8299 29.539 20.6458 29.6998 20.4131C29.8606 20.1803 29.9812 19.9137 30.0616 19.6133C30.1462 19.3086 30.1885 18.9849 30.1885 18.6421V18.4961C30.1885 18.1576 30.1462 17.8381 30.0616 17.5376C29.9812 17.2329 29.8585 16.9642 29.6934 16.7314C29.5326 16.4945 29.3295 16.3083 29.084 16.1729C28.8428 16.0374 28.5593 15.9697 28.2335 15.9697C27.9118 15.9697 27.6283 16.0374 27.3829 16.1729C27.1417 16.3083 26.9385 16.4945 26.7735 16.7314C26.6127 16.9642 26.4921 17.2329 26.4117 17.5376C26.3313 17.8381 26.2911 18.1576 26.2911 18.4961ZM34.0812 16.4521V24.6406H32.9005V15.1318H33.9796L34.0812 16.4521ZM38.7086 18.5088V18.6421C38.7086 19.1414 38.6494 19.6048 38.5309 20.0322C38.4124 20.4554 38.2389 20.8236 38.0104 21.1367C37.7861 21.4499 37.5089 21.6932 37.1788 21.8667C36.8487 22.0402 36.47 22.127 36.0426 22.127C35.6067 22.127 35.2216 22.055 34.8873 21.9111C34.553 21.7673 34.2695 21.5578 34.0367 21.2827C33.804 21.0076 33.6178 20.6776 33.4781 20.2925C33.3427 19.9074 33.2496 19.4736 33.1988 18.9912V18.2803C33.2496 17.7725 33.3448 17.3175 33.4845 16.9155C33.6241 16.5135 33.8082 16.1707 34.0367 15.8872C34.2695 15.5994 34.5509 15.3815 34.881 15.2334C35.2111 15.0811 35.5919 15.0049 36.0236 15.0049C36.4552 15.0049 36.8382 15.0895 37.1725 15.2588C37.5068 15.4238 37.7882 15.6608 38.0167 15.9697C38.2452 16.2786 38.4166 16.6489 38.5309 17.0806C38.6494 17.508 38.7086 17.984 38.7086 18.5088ZM37.5279 18.6421V18.5088C37.5279 18.166 37.492 17.8444 37.42 17.5439C37.3481 17.2393 37.236 16.9727 37.0836 16.7441C36.9355 16.5114 36.7451 16.3294 36.5123 16.1982C36.2796 16.0628 36.0024 15.9951 35.6808 15.9951C35.3846 15.9951 35.1264 16.0459 34.9064 16.1475C34.6905 16.249 34.5065 16.3866 34.3541 16.5601C34.2018 16.7293 34.0769 16.924 33.9796 17.144C33.8865 17.3599 33.8167 17.5841 33.7701 17.8169V19.4609C33.8548 19.7572 33.9733 20.0365 34.1256 20.2988C34.2779 20.557 34.4811 20.7664 34.735 20.9272C34.9889 21.0838 35.3084 21.1621 35.6935 21.1621C36.0109 21.1621 36.2838 21.0965 36.5123 20.9653C36.7451 20.8299 36.9355 20.6458 37.0836 20.4131C37.236 20.1803 37.3481 19.9137 37.42 19.6133C37.492 19.3086 37.5279 18.9849 37.5279 18.6421ZM42.1252 21.2891L44.0358 15.1318H45.2927L42.5378 23.0601C42.4743 23.2293 42.3897 23.4113 42.2839 23.606C42.1823 23.8049 42.0511 23.9932 41.8903 24.1709C41.7295 24.3486 41.5348 24.4925 41.3063 24.6025C41.082 24.7168 40.8133 24.7739 40.5002 24.7739C40.4071 24.7739 40.2886 24.7612 40.1447 24.7358C40.0008 24.7104 39.8993 24.6893 39.84 24.6724L39.8337 23.7202C39.8675 23.7244 39.9204 23.7287 39.9924 23.7329C40.0685 23.7414 40.1214 23.7456 40.1511 23.7456C40.4177 23.7456 40.6441 23.7096 40.8303 23.6377C41.0165 23.57 41.173 23.4536 41.3 23.2886C41.4312 23.1278 41.5433 22.9056 41.6364 22.6221L42.1252 21.2891ZM40.7223 15.1318L42.506 20.4639L42.8107 21.7017L41.9665 22.1333L39.4401 15.1318H40.7223Z" fill="white"/>
</svg>
