<svg width="24" height="24" viewBox="0 0 24 24" fill="none" xmlns="http://www.w3.org/2000/svg">
<rect width="24" height="24" rx="4" fill="#364087"/>
<path d="M18.3158 18.4011H9.05263C8.58947 18.4011 8.19312 18.2337 7.86358 17.8988C7.53347 17.5634 7.36842 17.1604 7.36842 16.6898V4.71123C7.36842 4.24064 7.53347 3.83765 7.86358 3.50225C8.19312 3.16742 8.58947 3 9.05263 3H14.9474L20 8.13369V16.6898C20 17.1604 19.8352 17.5634 19.5057 17.8988C19.1756 18.2337 18.7789 18.4011 18.3158 18.4011ZM14.1053 8.98931V4.71123H9.05263V16.6898H18.3158V8.98931H14.1053ZM5.68421 21.8235C5.22105 21.8235 4.8247 21.6561 4.49516 21.3213C4.16505 20.9859 4 20.5829 4 20.1123V8.13369H5.68421V20.1123H14.9474V21.8235H5.68421ZM9.05263 4.71123V8.98931V4.71123V16.6898V4.71123Z" fill="white"/>
</svg>
