<svg width="40" height="40" viewBox="0 0 40 40" fill="none" xmlns="http://www.w3.org/2000/svg">
<rect width="40" height="40" rx="4" fill="#F4F5F6"/>
<path d="M17 15H14C13.4696 15 12.9609 15.2107 12.5858 15.5858C12.2107 15.9609 12 16.4696 12 17V26C12 26.5304 12.2107 27.0391 12.5858 27.4142C12.9609 27.7893 13.4696 28 14 28H23C23.5304 28 24.0391 27.7893 24.4142 27.4142C24.7893 27.0391 25 26.5304 25 26V23" stroke="#ADB2B8" stroke-width="1.5" stroke-linecap="round" stroke-linejoin="round"/>
<path d="M17 23H20L28.5 14.5C28.8978 14.1022 29.1213 13.5626 29.1213 13C29.1213 12.4374 28.8978 11.8978 28.5 11.5C28.1022 11.1022 27.5626 10.8787 27 10.8787C26.4374 10.8787 25.8978 11.1022 25.5 11.5L17 20V23Z" stroke="#ADB2B8" stroke-width="1.5" stroke-linecap="round" stroke-linejoin="round"/>
<path d="M24 13L27 16" stroke="#ADB2B8" stroke-width="1.5" stroke-linecap="round" stroke-linejoin="round"/>
</svg>
