<svg width="606" height="388" viewBox="0 0 606 388" fill="none" xmlns="http://www.w3.org/2000/svg">
<path d="M587.713 387.631C592.407 387.631 596.913 385.783 600.254 382.486C603.596 379.188 605.505 374.708 605.568 370.014C606.311 321.428 610.224 249.756 518.719 229.923C444.662 213.892 488.563 82.2723 289.129 90.786C145.966 96.8873 183.935 217.552 72.681 227.609C-1.38986 234.299 -2.03505 327.978 0.812207 370.898C1.11119 375.422 3.11929 379.664 6.42952 382.764C9.73975 385.863 14.1045 387.588 18.6391 387.588L587.713 387.631Z" fill="#9FAAD6"/>
<path opacity="0.55" d="M518.719 229.966C444.662 213.934 488.563 82.3153 289.129 90.829C255.074 92.2316 231.286 100.212 213.291 111.601C219.35 110.802 225.788 110.199 232.647 109.96C432.095 101.447 388.18 233.052 462.237 249.097C552.774 268.734 549.913 339.074 549.113 387.631H587.713C592.407 387.632 596.913 385.784 600.254 382.486C603.596 379.189 605.505 374.709 605.568 370.015C606.311 321.471 610.224 249.799 518.719 229.966Z" fill="#4E57AA"/>
<path d="M430.216 85.289L196.067 57.8824C193.687 57.6027 191.275 57.795 188.97 58.4481C186.664 59.1013 184.51 60.2025 182.63 61.6888C180.75 63.1752 179.182 65.0174 178.015 67.1103C176.848 69.2032 176.104 71.5056 175.828 73.8859L158.351 223.627C158.074 226.006 158.268 228.416 158.922 230.72C159.576 233.024 160.677 235.176 162.163 237.055C163.649 238.933 165.491 240.5 167.583 241.666C169.675 242.832 171.976 243.575 174.355 243.852L408.588 271.189C410.967 271.466 413.377 271.272 415.681 270.618C417.985 269.964 420.138 268.863 422.016 267.377C423.894 265.89 425.461 264.049 426.627 261.957C427.794 259.865 428.536 257.564 428.813 255.185L446.29 105.444C446.83 100.64 445.44 95.8184 442.425 92.0389C439.411 88.2593 435.02 85.8314 430.216 85.289Z" fill="#D7F0F9"/>
<path d="M444.564 120.27L446.29 105.444C446.829 100.64 445.44 95.8184 442.425 92.0389C439.411 88.2593 435.02 85.8314 430.216 85.289L196.067 57.8824C193.687 57.6027 191.275 57.795 188.97 58.4481C186.664 59.1013 184.51 60.2025 182.63 61.6888C180.75 63.1752 179.182 65.0174 178.015 67.1103C176.848 69.2032 176.104 71.5056 175.828 73.8859L174.103 88.7113L444.564 120.27Z" fill="#0582C1"/>
<path d="M201.705 78.5709C201.596 79.5364 201.203 80.4479 200.575 81.1896C199.947 81.9314 199.113 82.4702 198.179 82.7378C197.245 83.0053 196.252 82.9896 195.327 82.6926C194.402 82.3956 193.586 81.8307 192.982 81.0693C192.378 80.308 192.013 79.3846 191.935 78.4161C191.856 77.4475 192.066 76.4774 192.539 75.6285C193.013 74.7797 193.727 74.0904 194.592 73.6479C195.457 73.2054 196.434 73.0296 197.399 73.1428C198.689 73.2941 199.866 73.9502 200.673 74.9676C201.48 75.9849 201.852 77.2805 201.705 78.5709Z" fill="white"/>
<path d="M225.185 81.319C225.07 82.2798 224.673 83.1851 224.044 83.9205C223.415 84.6558 222.583 85.1883 221.651 85.4506C220.72 85.7129 219.731 85.6932 218.811 85.3941C217.891 85.095 217.08 84.5299 216.481 83.7701C215.881 83.0103 215.521 82.0899 215.444 81.1253C215.368 80.1607 215.579 79.195 216.051 78.3504C216.524 77.5057 217.235 76.82 218.097 76.3797C218.959 75.9395 219.932 75.7645 220.893 75.8769C221.532 75.9517 222.151 76.1519 222.713 76.466C223.275 76.7801 223.769 77.202 224.168 77.7075C224.566 78.2131 224.862 78.7922 225.036 79.4119C225.211 80.0316 225.261 80.6797 225.185 81.319Z" fill="#79C9E8"/>
<path d="M249.604 84.1528C249.492 85.1146 249.097 86.0216 248.47 86.759C247.842 87.4964 247.01 88.0311 246.078 88.2955C245.147 88.5599 244.158 88.5421 243.236 88.2443C242.315 87.9465 241.503 87.3821 240.902 86.6225C240.301 85.863 239.94 84.9423 239.862 83.9771C239.785 83.0119 239.996 82.0454 240.468 81.2C240.94 80.3545 241.652 79.6681 242.514 79.2275C243.377 78.7869 244.35 78.6119 245.312 78.7247C246.601 78.8759 247.777 79.5325 248.581 80.5504C249.386 81.5682 249.754 82.8639 249.604 84.1528Z" fill="#FFBF4D"/>
<path d="M155.336 254.706C153.393 264.025 152.509 273.534 152.699 283.052C153.176 295.886 151.647 380.266 151.647 380.266H161.956C161.956 380.266 176.627 314.19 177.174 308.972C177.721 303.755 185.085 251.578 185.085 251.578L155.336 254.706Z" fill="#00668E"/>
<path d="M162.195 250.867C162.195 250.867 164.565 268.89 168.604 281.724C172.644 294.558 192.448 380.298 192.448 380.298H202.758C202.758 380.298 200.864 314.222 200.149 309.005C199.433 303.787 194.216 251.597 194.216 251.597L162.195 250.867Z" fill="#0582C1"/>
<path d="M193.29 380.266V387.461H212.926C213.168 387.462 213.404 387.384 213.599 387.24C213.793 387.096 213.936 386.893 214.005 386.661C214.074 386.429 214.067 386.18 213.984 385.953C213.901 385.726 213.746 385.531 213.543 385.399C210.738 383.492 206.081 380.855 201.818 380.266H193.29Z" fill="#0582C1"/>
<path d="M152.18 380.266V387.461H171.816C172.049 387.455 172.275 387.377 172.462 387.237C172.648 387.097 172.787 386.903 172.857 386.681C172.928 386.458 172.928 386.22 172.857 385.998C172.786 385.776 172.648 385.581 172.461 385.441C169.586 383.534 165 380.897 160.722 380.308L152.18 380.266Z" fill="#0582C1"/>
<path d="M187.567 167.006C187.567 167.006 194.328 156.753 186.571 155.785C180.624 155.013 178.156 156.781 178.156 156.781C178.156 156.781 171.297 156.037 167.552 159.277C164.985 161.507 155.56 178.773 170.806 185.015C186.052 191.256 182.798 175.197 182.798 175.197L187.567 167.006Z" fill="#00668E"/>
<path d="M186.571 155.757C180.624 154.986 178.156 156.753 178.156 156.753C178.156 156.753 171.297 156.01 167.552 159.25C164.985 161.48 155.56 178.746 170.806 184.987C177.973 187.933 181.045 185.955 182.293 183.024C167.833 187.105 166.262 169.671 168.646 164.706C171.031 159.741 176.893 161.999 176.893 161.999C179.166 156.262 186.571 156.894 189.629 157.328C189.259 156.866 188.795 156.487 188.268 156.216C187.741 155.946 187.163 155.789 186.571 155.757Z" fill="#05556D"/>
<path d="M178.072 171.998C178.072 171.998 176.08 169.992 174.579 171.998C173.079 174.004 174.074 178.492 176.571 178.745C176.571 178.745 175.828 185.239 170.834 184.986V190.246H182.574V186.276C182.574 186.276 189.826 183.289 189.587 177.286C189.466 173.788 188.789 170.332 187.581 167.047C185.057 169.718 181.708 171.462 178.072 171.998Z" fill="#F98D3D"/>
<path d="M179.867 187.919C181.031 188.41 180.835 189.139 180.891 190.247H182.574V186.278C182.574 186.278 179.769 187.189 175.561 184.875C176.844 186.089 178.294 187.114 179.867 187.919Z" fill="#ED701B"/>
<path d="M182.279 162.431C182.279 162.431 176.192 160.004 175.477 161.827C175.014 163.02 176.192 164.043 177.819 165.081L176.417 165.306C176.343 165.316 176.274 165.347 176.218 165.397C176.162 165.446 176.122 165.51 176.102 165.582C176.083 165.654 176.085 165.73 176.108 165.8C176.132 165.871 176.176 165.933 176.234 165.979C177.433 166.488 178.737 166.699 180.035 166.596L182.279 162.431Z" fill="#F98D3D"/>
<path d="M225.76 177.679C214.146 169.081 182.434 162.25 182.434 162.25L179.825 167.019C179.825 167.019 208.606 178.24 206.713 179.839C205.591 180.82 191.523 187.258 186.768 189.432C185.736 189.894 184.616 190.124 183.486 190.105L168.913 190.021C165.358 189.849 161.811 190.505 158.552 191.936C155.293 193.367 152.411 195.535 150.132 198.269C142.74 206.782 130.159 226.489 130.159 226.489L151.338 257.626L153.681 261.063V261.357L155.771 261.568C162.573 262.199 184.383 263.924 195.941 261.469L196.249 261.399L195.702 210.317C206.857 201.612 217.046 191.738 226.096 180.862C226.302 180.64 226.457 180.375 226.552 180.088C226.647 179.8 226.68 179.496 226.648 179.194C226.616 178.893 226.521 178.602 226.367 178.341C226.214 178.079 226.007 177.854 225.76 177.679ZM154.705 247.345L152.643 242.829L146.065 228.452L156.977 216.222L155.013 243.053L154.705 247.345Z" fill="#FFBF4D"/>
<path d="M152.643 242.828L154.705 247.344L153.709 260.964L153.681 261.006L151.338 257.569L152.643 242.828Z" fill="#EFAA3A"/>
<g style="mix-blend-mode:multiply" opacity="0.29">
<path d="M190.779 208.382C188.816 209.784 189.377 222.407 188.83 230.332C188.016 243.559 187.231 255.004 187.82 262.395C190.548 262.246 193.261 261.904 195.941 261.371L196.249 261.301L195.702 210.219C206.857 201.515 217.046 191.64 226.097 180.765C226.292 180.543 226.44 180.282 226.529 180C226.619 179.718 226.649 179.421 226.617 179.126C226.585 178.832 226.493 178.548 226.345 178.291C226.198 178.035 225.998 177.812 225.76 177.637C215.044 188.912 203.336 199.201 190.779 208.382Z" fill="#F98D2B"/>
</g>
<path d="M200.149 308.988C199.63 305.215 196.782 276.995 195.226 261.566L187.82 262.394C187.82 262.394 198.62 351.22 199.335 380.282H202.757C202.757 380.282 200.864 314.206 200.149 308.988Z" fill="#00668E"/>
<path d="M152.657 173.457L150.427 169.446C152.223 166.064 152.673 162.128 151.686 158.428C150.699 154.728 148.349 151.538 145.108 149.499C141.866 147.461 137.974 146.724 134.211 147.437C130.449 148.151 127.096 150.261 124.826 153.345C122.556 156.428 121.536 160.257 121.973 164.061C122.409 167.866 124.268 171.364 127.178 173.854C130.087 176.343 133.831 177.64 137.657 177.483C141.483 177.326 145.108 175.728 147.804 173.008L152.657 173.457Z" fill="#0582C1"/>
<path d="M129.191 161.031H129.78V163.135C129.78 163.78 129.977 164.061 130.426 164.061C130.875 164.061 131.029 163.879 131.365 163.472V161.031H131.94V164.482H131.464V163.935C131.339 164.124 131.171 164.28 130.973 164.39C130.775 164.5 130.554 164.56 130.328 164.566C129.598 164.566 129.262 164.089 129.262 163.163L129.191 161.031Z" fill="white"/>
<path d="M134.395 164.75V165.914H133.82V161.033H134.297V161.426C134.599 161.142 134.991 160.973 135.405 160.949C136.289 160.949 136.808 161.636 136.808 162.702C136.808 163.768 136.106 164.568 135.307 164.568C134.953 164.541 134.618 164.398 134.353 164.161L134.395 164.75ZM135.237 164.063C135.812 164.063 136.233 163.544 136.233 162.66C136.233 161.777 135.966 161.398 135.321 161.398C134.965 161.429 134.633 161.594 134.395 161.861V163.67C134.623 163.893 134.92 164.031 135.237 164.063Z" fill="white"/>
<path d="M138.364 163.679C138.646 163.932 139.009 164.077 139.388 164.086C139.837 164.086 140.061 163.847 140.061 163.553C140.061 163.258 139.655 163.048 139.276 162.893C138.897 162.739 138.252 162.487 138.252 161.912C138.252 161.336 138.687 160.93 139.43 160.93C139.825 160.93 140.207 161.069 140.51 161.322L140.23 161.687C140.012 161.496 139.734 161.387 139.444 161.379C139.009 161.379 138.813 161.617 138.813 161.883C138.813 162.15 139.192 162.318 139.57 162.473C139.949 162.627 140.622 162.865 140.622 163.51C140.622 164.156 140.174 164.548 139.36 164.548C138.893 164.539 138.443 164.371 138.084 164.072L138.364 163.679Z" fill="white"/>
<path d="M142.446 163.649C142.535 163.644 142.625 163.665 142.702 163.711C142.78 163.757 142.841 163.825 142.88 163.906C142.918 163.987 142.931 164.078 142.917 164.167C142.903 164.256 142.863 164.339 142.801 164.404C142.74 164.47 142.66 164.515 142.572 164.535C142.484 164.555 142.393 164.548 142.309 164.515C142.225 164.482 142.154 164.424 142.103 164.35C142.052 164.276 142.025 164.188 142.025 164.098C142.023 164.041 142.032 163.984 142.053 163.931C142.073 163.877 142.103 163.828 142.142 163.787C142.181 163.745 142.228 163.711 142.28 163.688C142.332 163.664 142.389 163.651 142.446 163.649Z" fill="white"/>
<path d="M144.928 163.653C145.018 163.65 145.106 163.674 145.182 163.721C145.257 163.769 145.317 163.838 145.353 163.92C145.389 164.001 145.4 164.092 145.384 164.18C145.369 164.268 145.327 164.349 145.265 164.413C145.203 164.478 145.123 164.522 145.035 164.54C144.948 164.559 144.857 164.551 144.774 164.517C144.691 164.484 144.62 164.426 144.57 164.352C144.52 164.278 144.494 164.191 144.494 164.101C144.492 164.043 144.502 163.985 144.523 163.931C144.544 163.876 144.575 163.827 144.616 163.785C144.656 163.743 144.705 163.71 144.759 163.687C144.812 163.664 144.87 163.653 144.928 163.653Z" fill="white"/>
<path d="M94.6877 355.277C94.6877 355.277 91.5039 352.317 93.6358 341.068C95.7677 329.82 101.182 319.006 98.5168 306.789C95.8519 294.572 75.0655 263.8 74.9954 261.752C74.9252 259.704 68.5715 297.56 79.3294 312.512C90.0872 327.463 91.3916 332.611 90.9148 340.451C90.4379 348.292 91.027 354.617 92.2051 356.441L94.6877 355.277Z" fill="#79C9E8"/>
<path d="M92.7098 332.647C91.4615 337.668 90.7041 350.25 92.7098 353.265C92.8922 353.546 93.1587 353.391 93.4953 352.858C92.8782 350.783 92.4854 347.136 93.6356 341.063C95.7675 329.842 101.181 319 98.5166 306.783C95.8517 294.567 75.0652 263.794 74.9951 261.746C74.9951 261.746 78.1369 287.385 88.6844 305.044C96.2444 317.681 93.9161 327.626 92.7098 332.647Z" fill="#49B4D6"/>
<path d="M98.4749 354.5C98.4749 354.5 92.3596 339.24 102.683 326.027C113.006 312.815 129.598 295.843 129.935 289.125C129.935 289.125 134.143 321.034 120.706 330.067C107.269 339.099 97.8157 340.558 100.144 354.444L98.4749 354.5Z" fill="#79C9E8"/>
<path d="M113.034 323.733C97.9979 334.673 96.7636 347.282 99.0919 353.117C99.1704 353.334 99.3011 353.527 99.4723 353.682C99.6435 353.836 99.8501 353.945 100.074 354.001C98.054 340.592 107.437 339.063 120.748 330.156C134.059 321.25 129.977 289.215 129.977 289.215C129.977 289.215 128.055 312.708 113.034 323.733Z" fill="#49B4D6"/>
<path d="M88.4183 354.839C89.6163 349.313 89.9288 343.632 89.344 338.008C88.3061 329.34 79.1893 324.403 70.6755 315.188C66.2854 310.447 64.995 285.383 67.702 283.055C67.702 283.055 52.6803 301.288 54.9946 314.613C57.3088 327.938 81.8402 336.62 84.0983 343.058C85.4499 346.869 86.1516 350.88 86.1742 354.923L88.4183 354.839Z" fill="#79C9E8"/>
<path d="M62.6245 290.221C57.6593 303.672 62.7507 319.97 79.2592 330.097C91.4057 337.545 87.5345 353.043 87.5345 353.043L89.5262 346.928C89.7342 343.964 89.6731 340.988 89.3439 338.036C88.306 329.34 79.1891 324.402 70.6754 315.187C66.4676 310.615 65.065 287.136 67.4354 283.391C65.7174 285.585 64.1117 287.865 62.6245 290.221Z" fill="#49B4D6"/>
<path d="M67.4353 283.391L67.7018 283.055C67.5996 283.156 67.5101 283.269 67.4353 283.391Z" fill="#49B4D6"/>
<path d="M101.616 353.829C101.616 353.829 105.137 340.757 113.861 339.004C122.585 337.25 132.585 324.361 133.118 321.836C133.189 321.836 131.646 346.171 101.616 353.829Z" fill="#79C9E8"/>
<path d="M113.356 343.367C108.026 346.032 105.796 349.622 104.941 352.89C131.674 344.292 132.993 321.879 132.993 321.879C132.661 322.798 132.188 323.659 131.59 324.432C129.135 328.99 122.796 338.612 113.356 343.367Z" fill="#49B4D6"/>
<path d="M120.481 348.977H74.8972L80.3112 383.06C80.5086 384.312 81.1471 385.453 82.1116 386.276C83.0761 387.099 84.303 387.55 85.5709 387.548H109.808C111.076 387.55 112.303 387.099 113.267 386.276C114.232 385.453 114.87 384.312 115.067 383.06L120.481 348.977Z" fill="#FFBF4D"/>
<path d="M119.584 354.658L120.481 349.02H74.8972L75.7949 354.658H119.584Z" fill="#FF9F50"/>
<path d="M109.429 348.977L104.029 383.017C103.829 384.269 103.19 385.408 102.226 386.23C101.262 387.053 100.036 387.505 98.7693 387.506H109.808C111.076 387.508 112.302 387.057 113.267 386.234C114.231 385.411 114.87 384.27 115.067 383.017L120.481 348.977H109.429Z" fill="#FF9F50"/>
<path d="M434.83 288.316H228.846V330.198H434.83V288.316Z" fill="#FFBF4D"/>
<g style="mix-blend-mode:multiply" opacity="0.29">
<path d="M434.83 288.316H228.846V298.485H434.83V288.316Z" fill="#F98D2B"/>
</g>
<path d="M246.757 288.316H265.565L260.516 298.485H241.707L246.757 288.316Z" fill="#F77E2D"/>
<path d="M289.115 288.316H307.91L302.874 298.485H284.08L289.115 288.316Z" fill="#F77E2D"/>
<path d="M331.473 288.316H350.268L345.232 298.485H326.438L331.473 288.316Z" fill="#F77E2D"/>
<path d="M373.831 288.316H392.626L387.577 298.485H368.796L373.831 288.316Z" fill="#F77E2D"/>
<path d="M434.83 288.316V288.597L429.935 298.485H411.155L416.19 288.316H434.83Z" fill="#F77E2D"/>
<path d="M269.002 330.195H254.485V387.463H269.002V330.195Z" fill="#79C9E8"/>
<path d="M269.016 330.195H265.719V387.463H269.016V330.195Z" fill="#49B4D6"/>
<path d="M410.327 330.195H395.81V387.463H410.327V330.195Z" fill="#79C9E8"/>
<path d="M410.327 330.195H406.035V387.463H410.327V330.195Z" fill="#49B4D6"/>
<path d="M269.002 330.152H254.485V337.362H269.002V330.152Z" fill="#49B4D6"/>
<path d="M410.327 330.152H395.81V337.362H410.327V330.152Z" fill="#49B4D6"/>
<path d="M269.002 281.762H254.485V288.27H269.002V281.762Z" fill="#79C9E8"/>
<path d="M269.016 281.762H265.719V288.27H269.016V281.762Z" fill="#49B4D6"/>
<path d="M410.327 281.762H395.81V288.27H410.327V281.762Z" fill="#79C9E8"/>
<path d="M410.327 281.762H406.035V288.27H410.327V281.762Z" fill="#49B4D6"/>
<path d="M269.002 287.461H254.485V288.274H269.002V287.461Z" fill="#49B4D6"/>
<path d="M410.327 287.461H395.81V288.274H410.327V287.461Z" fill="#49B4D6"/>
<path d="M265.566 288.316L244.779 330.198H228.846V324.419L246.757 288.316H265.566Z" fill="#0582C1"/>
<path d="M289.115 288.316L268.343 330.198H287.137L307.91 288.316H289.115Z" fill="#0582C1"/>
<path d="M350.268 288.316L329.495 330.198H310.701L331.473 288.316H350.268Z" fill="#0582C1"/>
<path d="M392.626 288.316L371.854 330.198H353.059L373.831 288.316H392.626Z" fill="#0582C1"/>
<path d="M416.19 288.316L395.417 330.198H414.212L434.83 288.597L416.19 288.316Z" fill="#0582C1"/>
<path d="M265.565 288.316L260.516 298.485H241.707L246.757 288.316H265.565Z" fill="#00668E"/>
<path d="M307.91 288.316L302.874 298.485H284.08L289.115 288.316H307.91Z" fill="#00668E"/>
<path d="M350.268 288.316L345.232 298.485H326.438L331.473 288.316H350.268Z" fill="#00668E"/>
<path d="M392.626 288.316L387.577 298.485H368.796L373.831 288.316H392.626Z" fill="#00668E"/>
<path d="M434.83 288.597L429.935 298.485H411.155L416.19 288.316L434.83 288.597Z" fill="#00668E"/>
<path style="mix-blend-mode:overlay" opacity="0.55" d="M431.281 306.434H234.582V327.388H431.281V306.434Z" fill="url(#paint0_linear_1004_15465)"/>
<path d="M263.428 285.477C270.485 284.329 275.275 277.678 274.127 270.62C272.979 263.563 266.327 258.773 259.27 259.921C252.213 261.069 247.423 267.721 248.571 274.778C249.719 281.835 256.371 286.625 263.428 285.477Z" fill="#FFBF4D"/>
<path d="M267.235 272.677C267.232 271.518 266.886 270.386 266.24 269.424C265.594 268.461 264.677 267.712 263.606 267.27C262.534 266.829 261.356 266.715 260.219 266.942C259.083 267.17 258.04 267.73 257.221 268.55C256.403 269.371 255.846 270.415 255.621 271.552C255.396 272.689 255.513 273.867 255.957 274.938C256.401 276.008 257.152 276.923 258.116 277.567C259.08 278.21 260.213 278.554 261.372 278.554C262.143 278.554 262.906 278.402 263.619 278.106C264.331 277.811 264.978 277.378 265.522 276.832C266.067 276.286 266.499 275.638 266.792 274.925C267.086 274.212 267.237 273.448 267.235 272.677Z" fill="#0582C1"/>
<path d="M405.034 285.493C412.091 284.345 416.881 277.693 415.733 270.636C414.585 263.579 407.933 258.789 400.876 259.937C393.819 261.085 389.029 267.737 390.177 274.794C391.325 281.851 397.976 286.641 405.034 285.493Z" fill="#FFBF4D"/>
<path d="M408.84 272.677C408.837 271.518 408.491 270.386 407.845 269.424C407.199 268.461 406.283 267.712 405.211 267.27C404.14 266.829 402.961 266.715 401.825 266.942C400.689 267.17 399.645 267.73 398.827 268.55C398.008 269.371 397.451 270.415 397.226 271.552C397.001 272.689 397.118 273.867 397.562 274.938C398.006 276.008 398.758 276.923 399.722 277.567C400.685 278.21 401.818 278.554 402.977 278.554C403.748 278.554 404.512 278.402 405.224 278.106C405.936 277.811 406.583 277.378 407.128 276.832C407.673 276.286 408.104 275.638 408.398 274.925C408.692 274.212 408.842 273.448 408.84 272.677Z" fill="#0582C1"/>
<path d="M512.884 383.017H447.271L457.314 358.696L461.339 348.878L462.461 346.199L464.271 341.809L464.635 340.926L468.675 331.107L469.418 329.326L476.571 311.962C476.856 311.265 477.341 310.669 477.965 310.249C478.59 309.83 479.325 309.605 480.078 309.605C480.83 309.605 481.566 309.83 482.19 310.249C482.815 310.669 483.3 311.265 483.584 311.962L490.738 329.326L491.481 331.107L495.506 340.926L495.885 341.809L497.694 346.199L498.802 348.878L502.842 358.696L512.884 383.017Z" fill="#FFBF4D"/>
<g style="mix-blend-mode:multiply" opacity="0.29">
<path d="M451.577 372.598L447.271 383.019H512.884L508.579 372.598H451.577Z" fill="#F98D2B"/>
</g>
<path d="M517.162 376.789H442.026V387.407H517.162V376.789Z" fill="#79C9E8"/>
<path d="M517.163 376.789H500.935V387.407H517.163V376.789Z" fill="#49B4D6"/>
<g style="mix-blend-mode:multiply" opacity="0.29">
<path d="M510.304 376.79H501.018L493.557 358.71L489.531 348.892L488.409 346.199L486.642 341.809L486.277 340.911L482.238 331.093L481.452 329.34L475.421 314.697L476.543 311.892C476.827 311.195 477.313 310.599 477.937 310.179C478.562 309.759 479.297 309.535 480.05 309.535C480.802 309.535 481.538 309.759 482.162 310.179C482.787 310.599 483.272 311.195 483.556 311.892L490.709 329.256L491.453 331.037L495.478 340.855L495.857 341.753L497.666 346.129L498.774 348.822L502.814 358.64L510.304 376.79Z" fill="#F98D2B"/>
</g>
<path d="M495.506 340.912H464.635L468.675 331.094H491.481L495.506 340.912Z" fill="#0582C1"/>
<path d="M502.842 358.681V358.695H457.314V358.681L461.339 348.863H498.802L502.842 358.681Z" fill="#0582C1"/>
<path d="M495.506 340.912H486.235L482.196 331.094H491.481L495.506 340.912Z" fill="#00668E"/>
<path d="M502.842 358.681V358.695H493.557V358.681L489.531 348.863H498.802L502.842 358.681Z" fill="#00668E"/>
<path d="M94.7016 144.491C97.0799 144.515 99.3861 143.675 101.192 142.127C102.998 140.58 104.18 138.429 104.52 136.075C104.644 135.192 104.705 134.302 104.702 133.41C104.702 128.202 102.633 123.208 98.9508 119.525C95.2683 115.843 90.2737 113.774 85.0658 113.774C84.631 113.774 84.1822 113.774 83.7474 113.774C83.2677 108.449 80.756 103.513 76.7338 99.9914C72.7116 96.4694 67.4877 94.6313 62.1463 94.8587C56.8048 95.0861 51.756 97.3614 48.0477 101.213C44.3393 105.064 42.2562 110.195 42.2307 115.541C42.2307 116.046 42.2307 116.551 42.2307 117.056C39.1777 115.357 35.7461 114.455 32.2524 114.432C28.7588 114.41 25.3158 115.268 22.2411 116.927C19.1664 118.586 16.559 120.992 14.6597 123.924C12.7604 126.857 11.6303 130.22 11.3737 133.705C11.3737 133.789 11.3737 133.873 11.3737 133.957C11.3051 135.304 11.5117 136.651 11.9808 137.916C12.4499 139.18 13.1718 140.336 14.1023 141.313C15.0329 142.289 16.1526 143.066 17.3932 143.595C18.6338 144.125 19.9692 144.396 21.3181 144.392L94.7016 144.491Z" fill="#9FAAD6"/>
<path d="M561.947 159.867C577.376 159.867 578.287 136.57 562.831 135.812H561.554C558.868 135.809 556.198 136.23 553.644 137.061C552.605 130.78 549.345 125.082 544.458 121.003C539.571 116.924 533.382 114.735 527.017 114.835C520.652 114.936 514.534 117.318 509.778 121.549C505.022 125.78 501.944 131.578 501.103 137.888C495.894 135.415 489.984 134.844 484.398 136.275C470.863 139.754 473.71 159.895 487.68 159.895L561.947 159.867Z" fill="#9FAAD6"/>
<path d="M376.033 45.0628C391.462 45.0628 392.36 21.7798 376.903 21.0224H375.627C372.942 21.0207 370.273 21.4371 367.716 22.2567C366.686 15.97 363.429 10.2634 358.541 6.17818C353.653 2.09292 347.459 -0.0986413 341.089 0.00340989C334.72 0.105461 328.599 2.49432 323.844 6.73407C319.089 10.9738 316.017 16.7818 315.189 23.0982C311.894 21.5132 308.284 20.6933 304.628 20.6998C302.56 20.6978 300.501 20.957 298.498 21.4712C284.963 24.9637 287.81 45.0908 301.78 45.0908L376.033 45.0628Z" fill="#9FAAD6"/>
<path d="M129.612 88.1072C150.101 88.1072 166.711 71.4977 166.711 51.0087C166.711 30.5197 150.101 13.9102 129.612 13.9102C109.123 13.9102 92.5134 30.5197 92.5134 51.0087C92.5134 71.4977 109.123 88.1072 129.612 88.1072Z" fill="#FFBF4D"/>
<path d="M129.907 13.9102C136.583 18.2923 141.667 24.7107 144.404 32.2122C147.142 39.7137 147.387 47.8981 145.103 55.55C142.819 63.2019 138.128 69.913 131.727 74.6867C125.325 79.4604 117.555 82.042 109.569 82.0481H109.261C114.083 85.2093 119.576 87.2028 125.304 87.8705C131.031 88.5382 136.835 87.8616 142.255 85.8944C147.676 83.9273 152.563 80.7237 156.529 76.5381C160.495 72.3524 163.431 67.2999 165.103 61.7815C166.775 56.2632 167.139 50.431 166.163 44.7478C165.188 39.0647 162.902 33.687 159.486 29.0418C156.069 24.3966 151.617 20.6117 146.483 17.9874C141.348 15.3632 135.673 13.972 129.907 13.9242V13.9102Z" fill="#FF9F50"/>
<path d="M342.96 144.9C316.634 138.448 311.079 121.996 310.841 121.28C310.633 120.614 310.238 120.02 309.704 119.571C309.17 119.121 308.518 118.833 307.825 118.742C307.147 118.66 306.459 118.767 305.838 119.051C305.216 119.336 304.686 119.787 304.305 120.355C303.772 120.958 293.828 135.264 266.744 134.381C265.814 134.349 264.907 134.668 264.2 135.273C263.494 135.878 263.04 136.725 262.929 137.649L259.184 164.578C254.793 196.235 290.167 221.538 291.696 222.646C292.177 222.964 292.715 223.188 293.281 223.305C293.859 223.416 294.458 223.343 294.992 223.095C296.759 222.449 337.659 207.848 342.063 176.08L345.822 149.038C345.957 148.129 345.743 147.202 345.222 146.445C344.702 145.687 343.914 145.155 343.017 144.956L342.96 144.9ZM334.643 175.056C331.361 198.689 302.061 212.098 294.333 215.282C287.768 210.121 263.209 189.348 266.505 165.602L269.787 141.856C289.423 141.856 300.77 134.17 306.255 129.107C310.196 135.489 319.06 145.938 337.911 151.31L334.643 175.056Z" fill="#FF0000"/>
<path d="M287.881 156.82C287.457 159.952 288.075 163.137 289.638 165.884C291.202 168.631 293.625 170.788 296.535 172.024L292.86 198.505C292.792 198.995 292.821 199.495 292.946 199.975C293.071 200.454 293.289 200.904 293.588 201.3C293.886 201.695 294.26 202.028 294.688 202.278C295.115 202.529 295.588 202.693 296.079 202.761C296.57 202.83 297.069 202.8 297.549 202.676C298.028 202.551 298.478 202.333 298.874 202.034C299.269 201.735 299.602 201.361 299.852 200.933C300.103 200.506 300.267 200.033 300.336 199.543L300.911 195.335L305.525 195.966C306.516 196.104 307.522 195.842 308.32 195.238C309.119 194.634 309.644 193.738 309.782 192.747C309.92 191.756 309.658 190.75 309.054 189.952C308.45 189.154 307.554 188.628 306.563 188.49L301.949 187.859L303.996 173.02C306.663 172.676 309.181 171.593 311.264 169.893C313.348 168.193 314.914 165.944 315.785 163.4C316.656 160.857 316.798 158.12 316.195 155.499C315.591 152.879 314.266 150.48 312.37 148.574C310.473 146.667 308.081 145.33 305.464 144.713C302.847 144.096 300.109 144.223 297.561 145.081C295.013 145.939 292.755 147.494 291.044 149.568C289.334 151.643 288.238 154.154 287.881 156.82ZM308.99 159.625C308.802 160.974 308.219 162.237 307.313 163.254C306.408 164.271 305.221 164.998 303.903 165.341C302.585 165.684 301.195 165.628 299.909 165.182C298.622 164.735 297.497 163.917 296.676 162.83C295.854 161.744 295.373 160.439 295.294 159.079C295.214 157.72 295.539 156.367 296.228 155.192C296.917 154.017 297.939 153.073 299.164 152.479C300.39 151.885 301.764 151.668 303.113 151.854C304.919 152.112 306.551 153.073 307.652 154.529C308.753 155.984 309.234 157.816 308.99 159.625Z" fill="#FF0303"/>
<defs>
<linearGradient id="paint0_linear_1004_15465" x1="332.932" y1="342.438" x2="332.932" y2="308.706" gradientUnits="userSpaceOnUse">
<stop stop-color="white"/>
<stop offset="0.12" stop-color="white" stop-opacity="0.82"/>
<stop offset="0.3" stop-color="white" stop-opacity="0.58"/>
<stop offset="0.47" stop-color="white" stop-opacity="0.37"/>
<stop offset="0.64" stop-color="white" stop-opacity="0.21"/>
<stop offset="0.78" stop-color="white" stop-opacity="0.1"/>
<stop offset="0.91" stop-color="white" stop-opacity="0.02"/>
<stop offset="1" stop-color="white" stop-opacity="0"/>
</linearGradient>
</defs>
</svg>
