<svg xmlns="http://www.w3.org/2000/svg" xmlns:xlink="http://www.w3.org/1999/xlink" width="571.099" height="421.261" viewBox="0 0 571.099 421.261"><defs><clipPath id="a"><rect width="571.099" height="421.261" fill="#fff"/></clipPath></defs><g transform="translate(-358 -174)"><g transform="translate(358 174)" clip-path="url(#a)"><path d="M7.534,247.554c9.018,34.852,28.092,64.979,58.235,79.583,62.664,30.351,203.988,14.7,309.462-3.271,54.56-9.293,102.516-34.94,137.353-71.033Z" transform="translate(-1.387 -45.586)" fill="#6c63ff" opacity="0.1"/><path d="M563.928,37.916H506.056a4.8,4.8,0,0,1-5-4.522,4.8,4.8,0,0,1,5-4.527h10.01a4.792,4.792,0,0,1-5-4.527,4.788,4.788,0,0,1,5-4.522h-7.144a4.8,4.8,0,0,1-5.005-4.527,4.794,4.794,0,0,1,5.005-4.522h30.205a86.556,86.556,0,0,0-23.565-5.877C433.2-4.677,403.79,1.651,393.417,8.157a121.753,121.753,0,0,1-42.333,16.79c-50.816,9.485-145.851,20.9-231.986-3.634C76.286,9.1,44.466,29.713,25.4,64.175H573.979c-.716-10.015-2.86-19.266-6.8-27.36A5.278,5.278,0,0,1,563.928,37.916Z" transform="translate(-4.677 -0.001)" fill="#6c63ff" opacity="0.1"/><path d="M1.24,158.388a208.985,208.985,0,0,0,2.243,60.806l508.1,16.816a215.565,215.565,0,0,0,35.3-48.708ZM202.2,201.765h-10a4.548,4.548,0,1,1,0,9.049H134.324a4.547,4.547,0,1,1,0-9.049h10.01a4.547,4.547,0,1,1,0-9.049h-7.149a4.548,4.548,0,1,1,0-9.049h57.872a4.547,4.547,0,1,1,0,9.049H202.2a4.547,4.547,0,1,1,0,9.049Z" transform="translate(0.001 -29.166)" fill="#6c63ff" opacity="0.1"/><path d="M569.62,79.041,14.9,91.242A184.044,184.044,0,0,0,1.61,143.071H559.9a196.839,196.839,0,0,0,8.057-33.036A141.438,141.438,0,0,0,569.62,79.041Zm-455.381,40h-10a4.55,4.55,0,1,1,0,9.054H46.363a4.55,4.55,0,1,1,0-9.054h10.01a4.547,4.547,0,1,1,0-9.049H49.223a4.548,4.548,0,1,1,0-9.049H107.1a4.547,4.547,0,1,1,0,9.049h7.144a4.547,4.547,0,1,1,0,9.049Z" transform="translate(-0.296 -14.555)" fill="#6c63ff" opacity="0.1"/><path d="M294.486,487.405c128.163,0,232.059-9.558,232.059-21.349s-103.9-21.349-232.059-21.349-232.06,9.559-232.06,21.349S166.323,487.405,294.486,487.405Z" transform="translate(-11.495 -81.89)" fill="#6c63ff" opacity="0.1"/><path d="M611.336,238.763a.8.8,0,0,1,0-.109v-.161a4.422,4.422,0,0,0-.659-1.667,13.137,13.137,0,0,0-4.807-4.548c-3.427-1.879-8.136-2.684-9.506-6.271a19.145,19.145,0,0,1-.639-3.484,10.536,10.536,0,0,0-6.952-7.906c-1.63-.545-3.39-.7-4.974-1.371-3.541-1.506-5.41-5.218-6.993-8.65q-3.074-6.645-6.147-13.3a5.171,5.171,0,0,1-5.031-.565,10.44,10.44,0,0,1-3.255-4.024c-2.113-4.1-3.022-8.748-5.5-12.652s-7.44-6.988-11.822-5.291a20.149,20.149,0,0,1-2.648,1.1c-3.753.878-7.906-3.411-11.12-1.329a3.629,3.629,0,0,0-1.261,1.381.544.544,0,0,1,0-.1,6.632,6.632,0,0,0-.685,2.709v.654c0,.747.047,1.506.057,2.264a10.088,10.088,0,0,1-.146,1.9v-.052a6.354,6.354,0,0,1-.27,1.039c-.835,2.243-3.151,3.712-4.236,5.819v-.1a5.375,5.375,0,0,0-.317.711,5.291,5.291,0,0,0-.3,1.718c-.094,3.961,4.106,7.689,4.595,11.941.348,3.011,1.038,3.977,3.6,5.68l.56.374c-.224,0-.452.031-.706.037a1.71,1.71,0,0,0-.3.031,3.17,3.17,0,0,0-2.669.467c-1.963,1.558-6.6.359-8.665,0s-9.122.608-10.108,4.522-2.678,11.993-2.678,11.993,0,5.124-.628,6.08a.3.3,0,0,0,0,.207c0,1.438.051,10.082-1.34,12.31a5.029,5.029,0,0,0-.062,3.079c-1.464,1.885-2.84,4.086-2.6,5.529.446,2.954,6.438,12.242,15.025,7.268,0,0,4.885-8.935-1.261-13.686l.264-1.038c1.859,2.284,3.235,3.924,3.235,3.924s.073.193.187.52h-.187a24.412,24.412,0,0,1,1.443,6.79,8.321,8.321,0,0,1-.457,2.5h.161c-.047.177-.1.353-.161.52a4.536,4.536,0,0,1-1.615,2.186c-4.294,3.042-9.21,24.769-9.21,24.769s-9.74,35.122-11.687,37.121c-1.609,1.641,8.5,6.261,16.094,5.711a12.383,12.383,0,0,0,3.115-.591c.047.519.1,1.038.151,1.51.161,1.557.327,3,.431,3.453.27,1.132.8,12.688.8,12.688a81.605,81.605,0,0,0-.831,12.731c0,.358.047.7.078,1.039l-.945.145c-1.433,3.219,4.47,30.076,5.275,32.334a21.5,21.5,0,0,1,.893,5.477,5.974,5.974,0,0,0-.088,2.954,7.191,7.191,0,0,1,.52,2,5.505,5.505,0,0,0,.181,2.866,5.419,5.419,0,0,1-.088,3.115s-.176,7.824-1.786,12.081A6.96,6.96,0,0,0,523.788,424a4.24,4.24,0,0,0,.364.42s8.877.073,10.441,0h.2c.628-.088,2.238-7.128.8-10.519s-.176-7.564-.176-7.564v-6.168s1.61-1.485,0-4.672-1.344-4.154-1.344-4.154,1.791-5.129-.088-6.781.358-7.912.358-7.912l.633-20.87a8.158,8.158,0,0,0-1.012-.259c-.036-.343-.073-.7-.109-1.07-.369-3.78-.685-8.92.135-10.383s1.215-14.246,1.345-23.13l8.182.312c.171,4.154.353,7.943.468,8.426.27,1.132.809,12.688.809,12.688a81.239,81.239,0,0,0-.835,12.731c0,.358.047.7.078,1.039l-.945.145c-1.433,3.219,4.47,30.076,5.275,32.334a21.644,21.644,0,0,1,.9,5.477,6.016,6.016,0,0,0-.093,2.954,7.187,7.187,0,0,1,.519,2,5.51,5.51,0,0,0,.182,2.866,5.427,5.427,0,0,1-.088,3.115s-.177,7.824-1.786,12.081a6.956,6.956,0,0,0,1.152,6.884,4.338,4.338,0,0,0,.364.42s8.878.073,10.441,0h.2c.628-.088,2.238-7.128.8-10.518s-.176-7.565-.176-7.565v-6.157s1.61-1.485,0-4.672-1.345-4.154-1.345-4.154,1.791-5.129-.088-6.781.358-7.912.358-7.912l.644-20.87a7.855,7.855,0,0,0-1.039-.259c-.036-.343-.073-.7-.109-1.07-.369-3.78-.685-8.92.135-10.383.659-1.2,1.039-8.925,1.21-16.468,0-.52,0-1.039.042-1.557a80.6,80.6,0,0,0,11.2-1.256s-4.376-15.477-3.037-17.995c.577-1.085-.254-6.864-1.391-13.089a9.1,9.1,0,0,0,5.6,2.025c1.957,3.764,7.912,12.424,11.266,13.758,3.935,1.557.981-12.253-.893-14.251a16.791,16.791,0,0,1-2.222-3.566c.051-.063.109-.114.161-.171s.093-14.693-.8-14.428-1.968-2.176-1.968-2.176l-2.772-24.334-1.163-10.186c.971.716,2.124,1.173,3.115,1.885,2.7,1.978,3.582,5.452,4.766,8.525a14,14,0,0,0,4.595,6.625c2.248,1.588,5.544,2.009,7.787.4,2.076-1.511,2.689-4.237,3.146-6.723,3.769,1.324,8.344-2.217,7.855-6.085-.119-.955-.472-2,.026-2.834,1-1.651,4.154-.691,5.192-2.321a1.736,1.736,0,0,0,.259-.94A.633.633,0,0,0,611.336,238.763Zm-50.417,13.385c-.057.929,1.221,8.394,2.258,14.3-.851-3.681-2.559-7.611-5.923-10.305a4.654,4.654,0,0,0-.042-.52h.042s-.14-1.485-.162-3.6a39.776,39.776,0,0,1,.415-5.6v-.047h-.067a3.03,3.03,0,0,1,.067-.472,16.88,16.88,0,0,1,1.262-4.538,12.588,12.588,0,0,1,.96-1.63C560.286,244.765,560.971,251.208,560.919,252.148Zm2.794,17.3c.457,2.549.784,4.34.784,4.34l2.757,18.929v.088c-1.485-7.99-3.38-16.411-3.38-16.411A32.685,32.685,0,0,0,563.713,269.446Z" transform="translate(-91.832 -30.928)" fill="#fff"/><path d="M535.97,199.712c-.519-4.8-5.711-8.935-4.154-13.5.846-2.487,3.494-4.008,4.387-6.48.592-1.63.327-3.422.333-5.155s.41-3.671,1.853-4.631c3.115-2.077,7.123,2.2,10.758,1.324a19.1,19.1,0,0,0,2.559-1.091c4.242-1.687,9.039,1.386,11.422,5.27s3.276,8.514,5.321,12.6a10.331,10.331,0,0,0,3.146,4,4.89,4.89,0,0,0,4.87.566l5.945,13.239c1.557,3.411,3.343,7.108,6.749,8.608,1.526.67,3.229.82,4.808,1.365a10.384,10.384,0,0,1,6.749,7.866,19.423,19.423,0,0,0,.618,3.473c1.323,3.572,5.877,4.371,9.194,6.23a12.861,12.861,0,0,1,4.673,4.522c.519.9.965,2.076.41,2.959-1,1.62-4.049.665-5.015,2.311-.488.831-.145,1.869,0,2.825.472,3.847-3.956,7.372-7.6,6.054-.441,2.476-1.039,5.191-3.042,6.692-2.155,1.61-5.347,1.184-7.523-.394a13.926,13.926,0,0,1-4.439-6.594c-1.147-3.064-2-6.521-4.615-8.488-.945-.707-2.076-1.163-3-1.875-2.076-1.588-3.115-4.211-3.857-6.749a70.612,70.612,0,0,0-3.115-9.413,14.167,14.167,0,0,0-6.609-7.139c-2.829-1.272-6.09-1.189-9.013-2.222-5.031-1.775-8.753-6.006-13.758-8a22.275,22.275,0,0,1-4.517-2.554C536.987,203.673,536.3,202.713,535.97,199.712Z" transform="translate(-97.877 -31.189)" fill="#3f3d56"/><g transform="translate(433.686 140.02)" opacity="0.1"><path d="M537.546,179.132a5.2,5.2,0,0,0,.28-.628c.587-1.63.327-3.422.333-5.155a9.191,9.191,0,0,1,.161-1.724,7.277,7.277,0,0,0-.68,3.281A23.847,23.847,0,0,1,537.546,179.132Z" transform="translate(-532.671 -171.624)" opacity="0.1"/><path d="M600.449,260.747c-2.155,1.6-5.347,1.184-7.523-.4a13.685,13.685,0,0,1-4.418-6.6c-1.147-3.063-2-6.521-4.615-8.488-.94-.707-2.076-1.168-3-1.875-2.076-1.588-3.115-4.21-3.862-6.723a70.049,70.049,0,0,0-3.115-9.413,14.167,14.167,0,0,0-6.609-7.139c-2.825-1.272-6.085-1.189-9.008-2.222-5.036-1.775-8.758-6.006-13.758-8a22.555,22.555,0,0,1-4.522-2.554c-2.461-1.7-3.115-2.658-3.478-5.654-.52-4.5-5.089-8.416-4.377-12.652a6.517,6.517,0,0,0-.306.707c-1.557,4.569,3.634,8.706,4.153,13.5.338,3,1.039,3.956,3.479,5.654a22.592,22.592,0,0,0,4.522,2.554c5,1.993,8.721,6.23,13.758,8,2.923,1.039,6.183.95,9.008,2.222a14.283,14.283,0,0,1,6.609,7.139,63.732,63.732,0,0,1,3.115,9.413c.763,2.513,1.765,5.135,3.862,6.723.94.707,2.077,1.168,3,1.874,2.6,1.968,3.468,5.425,4.615,8.489a13.909,13.909,0,0,0,4.444,6.588c2.175,1.579,5.368,2,7.523.4a7.674,7.674,0,0,0,2.539-4.319A6.376,6.376,0,0,1,600.449,260.747Z" transform="translate(-531.571 -174.829)" opacity="0.1"/><path d="M629.014,257.4a2.189,2.189,0,0,0-.249,1.215c1.173-1.158,3.821-.477,4.745-1.968a1.9,1.9,0,0,0,.239-1.22C632.544,256.574,629.9,255.894,629.014,257.4Z" transform="translate(-549.467 -187.057)" opacity="0.1"/><path d="M619.651,268.017c-.1.52-.2,1.075-.321,1.615,3.177.991,6.847-1.558,7.366-4.777C625.435,267.332,622.32,268.988,619.651,268.017Z" transform="translate(-547.731 -188.792)" opacity="0.1"/></g><path d="M544.062,208.949s1.729,3.489-3.375,3.561,3.286,22.657,3.286,22.657l8.483,10.8,10.555-5.711.608-15.752.778-9.516s-9.864-3.2-8.047-7.44S544.062,208.949,544.062,208.949Z" transform="translate(-99.261 -37.928)" fill="#fbbebe"/><path d="M582.746,320.695s6.23,6.131,13.5-2l-5.581-5.924H583.6Z" transform="translate(-107.309 -57.594)" fill="#575a89"/><path d="M583.38,312.767l-.857,7.928s6.23,6.131,13.5-2" transform="translate(-107.268 -57.594)" opacity="0.1"/><path d="M594.859,314.091s2.508,6.577,4.325,8.566,4.672,15.747.866,14.189-11.074-13.151-11.509-15.139a67.255,67.255,0,0,1-.6-7.616Z" transform="translate(-108.265 -57.838)" fill="#fbbebe"/><path d="M529.712,352.466l33.57,1.3-3.894-14.193-16.909-.343Z" transform="translate(-97.543 -62.467)" fill="#575a89"/><path d="M535.433,352.466l33.575,1.3-3.894-14.193-16.914-.343Z" transform="translate(-98.597 -62.467)" opacity="0.1"/><path d="M539.623,377.029c-.794,1.48-.488,6.6-.13,10.383.228,2.409.478,4.263.478,4.263s-12.549,3.893-14.449.519a10.264,10.264,0,0,1-.8-4.117,83.071,83.071,0,0,1,.8-12.674s-.519-11.5-.778-12.631c-.1-.452-.265-1.885-.421-3.437-.228-2.3-.446-4.87-.446-4.87l17.132-9.085s0,1.7-.031,4.325C540.885,357.939,540.609,375.212,539.623,377.029Z" transform="translate(-96.469 -63.6)" fill="#fbbebe"/><path d="M540.161,401.095s-12.549,3.893-14.449.519a10.264,10.264,0,0,1-.8-4.117c2.6-.395,10.5-1.485,14.775-.665C539.912,399.241,540.161,401.095,540.161,401.095Z" transform="translate(-96.659 -73.019)" opacity="0.1"/><path d="M540.353,466.744h-.2c-1.511.057-10.1,0-10.1,0a4.771,4.771,0,0,1-.353-.415,7.083,7.083,0,0,1-1.116-6.853c1.557-4.242,1.729-12.029,1.729-12.029a5.569,5.569,0,0,0,.088-3.115,5.624,5.624,0,0,1-.176-2.855,7.414,7.414,0,0,0-.519-1.988,5.938,5.938,0,0,1,.088-2.944,22.038,22.038,0,0,0-.867-5.451c-.778-2.248-6.489-28.986-5.1-32.189,0,0,12.112-2.077,16.7-.52l-.607,20.768s-2.165,6.23-.348,7.875.089,6.75.089,6.75-.26.95,1.3,4.153,0,4.673,0,4.673v6.142s-1.209,4.153.171,7.528S540.96,466.635,540.353,466.744Z" transform="translate(-96.42 -73.253)" fill="#3f3d56"/><path d="M569.716,376.431c-.794,1.48-.488,6.6-.13,10.383.228,2.409.478,4.263.478,4.263s-12.549,3.893-14.449.519a10.265,10.265,0,0,1-.8-4.117,83.068,83.068,0,0,1,.8-12.674s-.519-11.5-.778-12.631c-.14-.608-.384-6.4-.577-11.6-.161-4.434-.29-8.442-.29-8.442l17.133,2.647s0,7.534-.213,15.274C570.7,367.564,570.355,375.258,569.716,376.431Z" transform="translate(-102.01 -63.002)" fill="#fbbebe"/><path d="M570.254,401.095s-12.549,3.893-14.449.519a10.264,10.264,0,0,1-.8-4.117c2.6-.395,10.5-1.485,14.775-.665C570,399.241,570.254,401.095,570.254,401.095Z" transform="translate(-102.2 -73.019)" opacity="0.1"/><path d="M570.443,466.739h-.2c-1.511.057-10.1,0-10.1,0a4.772,4.772,0,0,1-.353-.415,7.083,7.083,0,0,1-1.116-6.853c1.557-4.262,1.713-12.05,1.713-12.05a5.57,5.57,0,0,0,.088-3.115,5.625,5.625,0,0,1-.176-2.856,7.422,7.422,0,0,0-.519-1.988,5.934,5.934,0,0,1,.088-2.944,22.047,22.047,0,0,0-.867-5.452c-.778-2.248-6.489-28.985-5.1-32.189,0,0,12.112-2.076,16.7-.519L570,419.126s-2.165,6.23-.348,7.876.089,6.749.089,6.749-.26.951,1.3,4.154,0,4.672,0,4.672v6.142s-1.209,4.154.171,7.528S571.051,466.63,570.443,466.739Z" transform="translate(-101.958 -73.249)" fill="#3f3d56"/><path d="M550.713,209.115a12.2,12.2,0,1,0-12.2-12.2A12.2,12.2,0,0,0,550.713,209.115Z" transform="translate(-99.164 -34.014)" opacity="0.1"/><path d="M550.713,208.479a12.2,12.2,0,1,0-12.2-12.2A12.2,12.2,0,0,0,550.713,208.479Z" transform="translate(-99.164 -33.897)" fill="#fbbebe"/><path d="M523.877,354.465l17.132-9.085s0,1.7-.031,4.325c-2.5,1.5-6.276,3.743-9.905,5.867-1.973,1.158-3.9,2.279-5.55,3.219a7.363,7.363,0,0,1-1.2.519C524.095,357.03,523.877,354.465,523.877,354.465Z" transform="translate(-96.469 -63.6)" opacity="0.1"/><path d="M571.108,344.757s0,7.533-.213,15.274h-.063a28.809,28.809,0,0,1-3.836-.119c-2.238-.239-4.029-.831-4.673-2-1.3-2.284-4.952-5.191-8.036-7.357-.161-4.433-.291-8.442-.291-8.442Z" transform="translate(-102.015 -62.997)" opacity="0.1"/><path d="M558.214,254.987a49.428,49.428,0,0,0-.249,10.191c7.871,6.49,6.4,20.16,6.4,20.16s6.058,27.693,4.76,30.2,2.939,17.911,2.939,17.911a75.463,75.463,0,0,1-10.939,1.256,28.814,28.814,0,0,1-3.836-.119c-2.238-.239-4.029-.831-4.673-2-2.419-4.237-12.891-10.555-12.891-10.555s-6.635,3.976-12.813,7.6c-1.974,1.158-3.9,2.279-5.55,3.219a10.292,10.292,0,0,1-4.335,1.189c-7.347.545-17.133-4.055-15.576-5.685,1.905-1.993,11.339-36.949,11.339-36.949s4.756-21.634,8.909-24.661a4.493,4.493,0,0,0,1.557-2.175c1.422-3.951-.955-10.285-.955-10.285s-13.41-16.525-12.808-17.481.608-6.054.608-6.054,1.646-8.047,2.6-11.941,7.788-4.849,9.776-4.5,6.484,1.557,8.385,0,5.109.607,5.109.607l7.88,2.17,7.087-4.154s7.1.364,7.709,1.314,9.953,2.772,9.953,2.772c4.756,3.2,4.584,18.431,4.584,18.431s-11.421,9.947-13.758,15.056A17.146,17.146,0,0,0,558.214,254.987Z" transform="translate(-92.309 -39.208)" fill="#575a89"/><path d="M583.777,237.938l2.6,2.077,2.684,24.141,2.679,24.23s1.038,2.424,1.905,2.164.779,14.361.779,14.361-9.937-6.111-13.5,2l-2.772-19.568s-3.551-19.988-3.463-21.546-1.817-18.43-1.817-18.43Z" transform="translate(-105.491 -43.815)" fill="#575a89"/><path d="M512.917,239.319l-1.905,2.337s.176,10.036-1.3,12.46,4.07,16.614,6.147,15.747,6.75-23.015,6.75-23.275S512.917,239.319,512.917,239.319Z" transform="translate(-93.815 -44.069)" fill="#575a89"/><path d="M512.21,256.819s-6.059,6.142-5.628,9.085,6.23,12.191,14.537,7.222C521.119,273.126,528.823,258.636,512.21,256.819Z" transform="translate(-93.28 -47.292)" fill="#575a89"/><path d="M541.531,482.016c-1.511.057-10.1,0-10.1,0a4.771,4.771,0,0,1-.353-.415C533.276,480.854,538.021,479.732,541.531,482.016Z" transform="translate(-97.795 -88.51)" opacity="0.1"/><path d="M571.637,482.016c-1.511.057-10.1,0-10.1,0a4.647,4.647,0,0,1-.353-.415C563.372,480.854,568.117,479.732,571.637,482.016Z" transform="translate(-103.339 -88.51)" opacity="0.1"/><path d="M531.072,295.789c-1.324,12.7-.888,37.9-.613,49.093-1.974,1.158-3.9,2.279-5.55,3.219a10.292,10.292,0,0,1-4.335,1.189C520.024,345.9,527.646,311.136,531.072,295.789Z" transform="translate(-95.855 -54.468)" opacity="0.1"/><path d="M535.068,286.957c-.037.181-.665,2.944-1.62,7.206C533.822,290.523,534.341,287.912,535.068,286.957Z" transform="translate(-98.231 -52.841)" opacity="0.1"/><path d="M558.013,285.277s7.357,46.206-14.428,51.917C543.579,337.173,558.656,334.883,558.013,285.277Z" transform="translate(-100.098 -52.532)" opacity="0.1"/><path d="M572.44,347.905a28.814,28.814,0,0,1-3.836-.119l-5.877-63.178C566.475,287.059,570.96,331.894,572.44,347.905Z" transform="translate(-103.623 -52.409)" opacity="0.1"/><path d="M541.713,188.507a3.209,3.209,0,0,1,1.158.12,5.054,5.054,0,0,1,1.464,1.1,5.216,5.216,0,0,0,4.952.96,6.531,6.531,0,0,1,1.864-.519,2.969,2.969,0,0,1,2.362,1.557c.514.831.779,1.817,1.221,2.7a3.4,3.4,0,0,0,2.118,1.947,3.707,3.707,0,0,1,1.35.311,1.913,1.913,0,0,1,.581.805c.81,1.749,1.454,3.816,3.183,4.672a4.765,4.765,0,0,0,2.03.441,4.251,4.251,0,0,0,2.077-.374,3.987,3.987,0,0,0,1.526-1.522,9.49,9.49,0,0,0,.95-6.069,16.7,16.7,0,0,0-2.715-7.3,15.239,15.239,0,0,0-13.94-6.432,19.349,19.349,0,0,0-2.778.519c-3.3.883-6.542,2.533-8.545,5.3a17.956,17.956,0,0,1-1.594,1.963C539.886,188.606,540.8,188.528,541.713,188.507Z" transform="translate(-99.249 -33.301)" opacity="0.1"/><path d="M541.713,187.871a3.227,3.227,0,0,1,1.158.119,5.056,5.056,0,0,1,1.464,1.1,5.216,5.216,0,0,0,4.952.96,6.533,6.533,0,0,1,1.864-.52,2.969,2.969,0,0,1,2.362,1.557c.514.831.779,1.818,1.221,2.705a3.4,3.4,0,0,0,2.118,1.947,3.708,3.708,0,0,1,1.35.312,1.91,1.91,0,0,1,.581.8c.81,1.75,1.454,3.817,3.183,4.673a4.765,4.765,0,0,0,2.03.441,4.233,4.233,0,0,0,2.077-.374,3.979,3.979,0,0,0,1.526-1.521,9.49,9.49,0,0,0,.95-6.069,16.7,16.7,0,0,0-2.715-7.3,15.237,15.237,0,0,0-13.94-6.433,19.351,19.351,0,0,0-2.778.52c-3.3.882-6.542,2.533-8.545,5.3a18.025,18.025,0,0,1-1.594,1.962C539.886,187.97,540.8,187.892,541.713,187.871Z" transform="translate(-99.249 -33.184)" fill="#3f3d56"/><path d="M525.625,225.211s.608,4.849-1.469,6.059S525.625,225.211,525.625,225.211Z" transform="translate(-96.4 -41.471)" opacity="0.1"/><path d="M580.086,269.989s4.932-7.268,5.628-5.191S580.086,269.989,580.086,269.989Z" transform="translate(-106.819 -48.692)" opacity="0.1"/><path d="M580.512,273.267s4.865-5.97,5.332-3.634S580.512,273.267,580.512,273.267Z" transform="translate(-106.898 -49.552)" opacity="0.1"/><path d="M556.382,265.036a7.9,7.9,0,0,1-4.891-1.61h-.426a7.685,7.685,0,0,1-5.342,2.009,7.582,7.582,0,0,1-5.539-2.222h-.566a8.157,8.157,0,0,1-10.529-.192l-2.03-.037s2.377,6.334.955,10.285l34.7.618a49.439,49.439,0,0,1,.249-10.192v-.047l-1.905-.037A7.988,7.988,0,0,1,556.382,265.036Z" transform="translate(-97.055 -48.427)" opacity="0.1"/><path d="M556.382,266.309a7.9,7.9,0,0,1-4.891-1.61h-.426a7.68,7.68,0,0,1-5.342,2.009,7.577,7.577,0,0,1-5.539-2.222h-.566a8.155,8.155,0,0,1-10.529-.193l-2.03-.036s2.377,6.333.955,10.285l34.7.618a49.432,49.432,0,0,1,.249-10.191v-.047l-1.905-.036A7.988,7.988,0,0,1,556.382,266.309Z" transform="translate(-97.055 -48.662)" opacity="0.1"/><path d="M556.382,265.672a7.9,7.9,0,0,1-4.891-1.61h-.426a7.681,7.681,0,0,1-5.342,2.009,7.577,7.577,0,0,1-5.539-2.222h-.566a8.155,8.155,0,0,1-10.529-.193l-2.03-.036s2.377,6.333.955,10.285l34.7.618a49.441,49.441,0,0,1,.249-10.192v-.047l-1.905-.036A7.987,7.987,0,0,1,556.382,265.672Z" transform="translate(-97.055 -48.544)" fill="#3f3d56"/><path d="M561.11,223.7s7.3.467,7.352,1.506S561.11,223.7,561.11,223.7Z" transform="translate(-103.325 -41.194)" opacity="0.1"/><path d="M537.7,218.275s-7.3.467-7.351,1.506S537.7,218.275,537.7,218.275Z" transform="translate(-97.661 -40.194)" opacity="0.1"/><path d="M571.578,244.264c-.073-.052-.145-.094-.218-.14,1.869,1.682,1.557,5.358-.738,8.389s-5.779,4.294-7.9,2.934c.068.057.125.119.2.176,2.076,1.588,5.711.343,8.11-2.793S573.665,245.858,571.578,244.264Z" transform="translate(-103.623 -44.954)" opacity="0.1"/><path d="M524.009,252.032c-1.848-3.333-1.609-7.014.483-8.411-.078.037-.161.068-.239.109-2.294,1.277-2.6,5.1-.7,8.55s5.327,5.192,7.621,3.936a2.024,2.024,0,0,0,.219-.145C529.107,257.109,525.857,255.364,524.009,252.032Z" transform="translate(-96.18 -44.861)" opacity="0.1"/><path d="M526.884,219.2l-.67,1.039-1.708-.909.9-1.381A3.758,3.758,0,0,1,526.884,219.2Z" transform="translate(-96.585 -40.133)" opacity="0.1"/><path d="M513.74,261.3s1.521-7.154-.52-9.428-1.386-14.194,1.729-13.935,7.788,9.688,7.009,11.681-3.723,12.2-3.723,12.2Z" transform="translate(-94.291 -43.814)" fill="#fbbebe"/><path d="M567.551,200.549a3.981,3.981,0,0,1-1.526,1.522,4.248,4.248,0,0,1-2.076.374,4.764,4.764,0,0,1-2.03-.441c-1.73-.862-2.373-2.928-3.183-4.672a1.922,1.922,0,0,0-.53-.821,3.722,3.722,0,0,0-1.335-.327,3.424,3.424,0,0,1-2.118-1.947c-.446-.883-.711-1.859-1.221-2.7a2.856,2.856,0,0,0-2.362-1.557,6.375,6.375,0,0,0-1.863.545,5.234,5.234,0,0,1-4.953-.966,5.057,5.057,0,0,0-1.464-1.1,3.208,3.208,0,0,0-1.158-.119c-.6,0-1.189.057-1.786.1a13.1,13.1,0,0,1-.95,1.111c.908-.078,1.822-.156,2.736-.177a3.209,3.209,0,0,1,1.158.12,5.043,5.043,0,0,1,1.464,1.1,5.234,5.234,0,0,0,4.953.966,6.376,6.376,0,0,1,1.863-.546,2.969,2.969,0,0,1,2.362,1.557c.514.831.779,1.818,1.221,2.705a3.4,3.4,0,0,0,2.118,1.947,3.722,3.722,0,0,1,1.335.327,1.91,1.91,0,0,1,.581.8c.81,1.75,1.454,3.817,3.183,4.673a4.765,4.765,0,0,0,2.03.441,4.233,4.233,0,0,0,2.077-.374,3.979,3.979,0,0,0,1.526-1.521,8.611,8.611,0,0,0,1.038-4.808A7.931,7.931,0,0,1,567.551,200.549Z" transform="translate(-99.253 -34.678)" opacity="0.1"/><path d="M515.886,272.1c2.581,0,4.672-1.418,4.672-3.167s-2.092-3.167-4.672-3.167-4.673,1.418-4.673,3.167S513.3,272.1,515.886,272.1Z" transform="translate(-94.137 -48.939)" fill="#575a89"/><path d="M294.11,413.421A160.164,160.164,0,1,0,133.946,253.256,160.165,160.165,0,0,0,294.11,413.421Z" transform="translate(-24.665 -17.142)" fill="#7f7caf" opacity="0.85"/><path d="M395.331,372.527c0,25.284-39.748,2.16-82.361,2.16s-85.715,22.169-85.715-3.115c0-14.417,13.737-34.467,33.445-49.031,14.849-10.975,33.081-18.836,51.4-18.836,18.836,0,37.287,8.509,52.005,20.191C382.679,338.624,395.331,358.415,395.331,372.527Z" transform="translate(-41.847 -55.925)" fill="#444053"/><path d="M371.646,323.883c-22.651-3.41-63.62-7.57-103.4-1.354,14.849-10.976,33.081-18.836,51.4-18.836C338.476,303.693,356.927,312.2,371.646,323.883Z" transform="translate(-49.396 -55.923)" fill="#f6f8fb"/><path d="M216.453,150.828s-48.246,30.844-47.852,79.091S216.453,150.828,216.453,150.828Z" transform="translate(-31.046 -27.774)" opacity="0.05"/><path d="M517.7,44.042s-43.714-2.632-38.559,28c0,0-1.039,5.41,3.883,7.871,0,0,.078-2.269,4.48-1.5a20.249,20.249,0,0,0,4.751.228,9.863,9.863,0,0,0,5.8-2.4s12.289-5.072,17.071-25.159c0,0,3.535-4.382,3.395-5.5l-7.377,3.146s2.518,5.322.519,9.745c0,0-.239-9.548-1.656-9.345-.286.047-3.831,1.843-3.831,1.843s4.335,9.272,1.039,16.006c0,0,1.241-11.422-2.42-15.336l-5.191,3.032s5.067,9.574,1.63,17.387c0,0,.883-11.982-2.721-16.65l-4.708,3.671s4.761,9.439,1.859,15.918c0,0-.379-13.95-2.877-15,0,0-4.117,3.634-4.745,5.124,0,0,3.26,6.848,1.241,10.461,0,0-1.241-9.293-2.258-9.345,0,0-4.1,6.157-4.532,10.383,0,0,.181-6.282,3.535-10.97a12.313,12.313,0,0,0-6.276,3.255s.638-4.356,7.268-4.735c0,0,3.39-4.672,4.3-4.953,0,0-6.62-.556-10.633,1.225,0,0,3.53-4.107,11.842-2.243L497.2,54.4s-8.712-1.194-12.408.125c0,0,4.251-3.634,13.659-.986l5.062-3.027s-7.429-1.6-11.858-1.038c0,0,4.672-2.518,13.338.213l3.635-1.625s-5.447-1.07-7.04-1.236-1.677-.613-1.677-.613a18.871,18.871,0,0,1,10.243,1.189S517.83,44.525,517.7,44.042Z" transform="translate(-88.153 -8.1)" fill="#6c63ff"/><path d="M467.568,27.357S447.84,26.163,450.145,40a3.377,3.377,0,0,0,1.755,3.556s.031-1.038,2.025-.675a9.376,9.376,0,0,0,2.144.1A4.511,4.511,0,0,0,458.7,41.9s5.55-2.295,7.71-11.37c0,0,1.6-1.978,1.557-2.487l-3.334,1.423a5.964,5.964,0,0,1,.245,4.4s-.109-4.314-.748-4.21c-.13,0-1.734.831-1.734.831s1.962,4.19.483,7.232c0,0,.561-5.161-1.091-6.931l-2.346,1.371s2.289,4.33.738,7.86c0,0,.394-5.415-1.231-7.523l-2.129,1.656s2.15,4.262.841,7.191c0,0-.171-6.3-1.3-6.78a13.02,13.02,0,0,0-2.144,2.316s1.474,3.115.56,4.73c0,0-.56-4.2-1.039-4.216,0,0-1.853,2.778-2.045,4.672a10.114,10.114,0,0,1,1.594-4.958,5.562,5.562,0,0,0-2.835,1.469s.286-1.968,3.292-2.139a12.942,12.942,0,0,1,1.942-2.238,12.171,12.171,0,0,0-4.8.556s1.593-1.859,5.352-1.038l2.077-1.708s-3.936-.519-5.607.052c0,0,1.921-1.641,6.173-.441l2.284-1.371a20.773,20.773,0,0,0-5.358-.462s2.113-1.137,6.028.1l1.636-.737s-2.461-.483-3.178-.556-.763-.275-.763-.275a8.508,8.508,0,0,1,4.62.519S467.625,27.575,467.568,27.357Z" transform="translate(-82.857 -5.033)" fill="#6c63ff"/><path d="M679.707,463.477c7.721,0,13.981-1.057,13.981-2.362s-6.26-2.362-13.981-2.362-13.981,1.057-13.981,2.362S671.986,463.477,679.707,463.477Z" transform="translate(-122.589 -84.477)" fill="#6c63ff" opacity="0.1"/><path d="M26.607,511.643c7.722,0,13.981-1.057,13.981-2.363s-6.26-2.362-13.981-2.362-13.981,1.057-13.981,2.362S18.885,511.643,26.607,511.643Z" transform="translate(-2.325 -93.346)" fill="#6c63ff" opacity="0.1"/><path d="M126.087,515.276c7.722,0,13.981-1.057,13.981-2.362s-6.259-2.362-13.981-2.362-13.981,1.057-13.981,2.362S118.366,515.276,126.087,515.276Z" transform="translate(-20.644 -94.015)" fill="#6c63ff" opacity="0.1"/><path d="M640.644,495.41c11.53,0,20.876-1.581,20.876-3.531s-9.346-3.53-20.876-3.53-20.875,1.581-20.875,3.53S629.115,495.41,640.644,495.41Z" transform="translate(-114.127 -89.926)" fill="#6c63ff"/><path d="M651.576,483.435a6.092,6.092,0,0,0,1.993-3.006,2.678,2.678,0,0,0-1.391-3.058c-1.278-.488-2.643.4-3.676,1.293s-2.221,1.91-3.577,1.723a5.438,5.438,0,0,0,1.682-5.093,2.146,2.146,0,0,0-.468-1.039c-.711-.758-1.994-.436-2.845.161-2.7,1.9-3.453,5.566-3.468,8.868a16.646,16.646,0,0,1-.047-3.634,3.756,3.756,0,0,0-1.371-3.235,4.157,4.157,0,0,0-2.077-.488,4.32,4.32,0,0,0-3.395.96c-1.039,1.106-.764,2.954.135,4.154a13.456,13.456,0,0,0,3.51,2.814,7.793,7.793,0,0,1,2.513,2.394,2.553,2.553,0,0,1,.187.431h7.605A21.19,21.19,0,0,0,651.576,483.435Z" transform="translate(-116.429 -87.25)" fill="#6c63ff"/><path d="M35.988,432.249s2.85,3.728-1.319,9.345-7.606,10.383-6.23,13.893c0,0,6.287-10.456,11.422-10.607S41.616,438.536,35.988,432.249Z" transform="translate(-5.18 -79.596)" fill="#6c63ff"/><path d="M36.026,432.249a4.662,4.662,0,0,1,.581,1.167c4.994,5.867,7.653,11.344,2.855,11.479-4.475.13-9.864,8.125-11.126,10.144q.066.235.156.463S34.78,445.047,39.914,444.9,41.654,438.536,36.026,432.249Z" transform="translate(-5.218 -79.596)" opacity="0.1"/><path d="M44.109,437.879c0,1.314-.151,2.378-.332,2.378s-.327-1.039-.327-2.378.182-.7.369-.7S44.109,436.565,44.109,437.879Z" transform="translate(-8.001 -80.476)" fill="#ffd037"/><path d="M45.952,439.79c-1.153.628-2.155,1.007-2.243.846s.779-.794,1.931-1.422.7-.171.784,0S47.126,439.162,45.952,439.79Z" transform="translate(-8.048 -80.82)" fill="#ffd037"/><path d="M17.848,432.249s-2.85,3.728,1.314,9.345,7.606,10.383,6.23,13.893c0,0-6.292-10.456-11.422-10.607S12.215,438.536,17.848,432.249Z" transform="translate(-2.107 -79.596)" fill="#6c63ff"/><path d="M17.846,432.249a4.469,4.469,0,0,0-.581,1.167c-4.994,5.867-7.658,11.344-2.855,11.479,4.47.13,9.864,8.125,11.121,10.144a4.835,4.835,0,0,1-.151.463S19.087,445.047,13.958,444.9,12.213,438.536,17.846,432.249Z" transform="translate(-2.105 -79.596)" opacity="0.1"/><path d="M12.8,437.879c0,1.314.145,2.378.327,2.378s.327-1.039.327-2.378-.182-.7-.363-.7S12.8,436.565,12.8,437.879Z" transform="translate(-2.357 -80.476)" fill="#ffd037"/><path d="M10.406,439.79c1.153.628,2.16,1.007,2.248.846s-.779-.794-1.931-1.422-.7-.171-.784,0S9.253,439.162,10.406,439.79Z" transform="translate(-1.788 -80.82)" fill="#ffd037"/><path d="M13.911,459.179s7.975-.245,10.383-1.957,12.268-3.754,12.865-1.039,11.982,13.654,2.98,13.727-20.917-1.407-23.316-2.866S13.911,459.179,13.911,459.179Z" transform="translate(-2.562 -83.76)" fill="#a8a8a8"/><path d="M40.29,469.952c-9,.073-20.917-1.407-23.316-2.866-1.827-1.111-2.554-5.1-2.8-6.946h-.265s.519,6.432,2.9,7.891,14.314,2.939,23.316,2.866c2.6,0,3.494-.95,3.447-2.315C43.213,469.417,42.226,469.937,40.29,469.952Z" transform="translate(-2.562 -84.732)" opacity="0.2"/><path d="M252.012,261.408c3.048-.171,17.392-1.252,26.5-6.448a10.328,10.328,0,0,1,4.813-1.418c2.9-.082,6.23,1.127,4.1,7.9-3.458,11.074-23.534,23.534-35.994,22.844-11.982-.665-26.2-5.493-35.584-22.47a10.389,10.389,0,0,1-1.283-5.342c.109-3.427,1.355-7.72,7.788-2.933,8.691,6.464,25.18,7.689,28.486,7.871A10.824,10.824,0,0,0,252.012,261.408Z" transform="translate(-39.51 -46.295)" fill="#444053"/><path d="M393.282,261.408c3.048-.171,17.392-1.252,26.5-6.448a10.328,10.328,0,0,1,4.813-1.418c2.9-.082,6.23,1.127,4.1,7.9-3.458,11.074-23.534,23.534-35.994,22.844-11.982-.665-26.2-5.493-35.584-22.47a10.388,10.388,0,0,1-1.283-5.342c.109-3.427,1.355-7.72,7.788-2.933,8.69,6.464,25.18,7.689,28.486,7.871A10.824,10.824,0,0,0,393.282,261.408Z" transform="translate(-65.524 -46.295)" fill="#444053"/></g></g></svg>