<svg width="514" height="400" viewBox="0 0 514 400" fill="none" xmlns="http://www.w3.org/2000/svg">
<g clip-path="url(#clip0_1015_15982)">
<path d="M43.5865 328.42C42.5723 325.306 41.5692 322.077 40.6058 318.826L42.9824 318.118C43.9414 321.347 44.9379 324.553 45.9455 327.648L43.5865 328.42ZM468.984 324.397L466.522 324.092C466.932 320.782 467.32 317.438 467.677 314.161L470.142 314.43C469.787 317.718 469.397 321.071 468.987 324.397H468.984ZM37.8654 309.168C36.9967 305.955 36.1567 302.684 35.3631 299.442L37.7728 298.851C38.5598 302.073 39.3976 305.324 40.2596 308.517L37.8654 309.168ZM471.158 304.465L468.689 304.231C469.002 300.903 469.293 297.553 469.553 294.278L472.025 294.474C471.767 297.767 471.476 301.12 471.16 304.461L471.158 304.465ZM33.09 289.659C32.3735 286.386 31.6923 283.077 31.064 279.822L33.4891 279.35C34.1152 282.585 34.792 285.874 35.5042 289.127L33.09 289.659ZM472.73 284.47L470.254 284.313C470.475 280.985 470.649 277.631 470.801 274.338L473.279 274.455C473.136 277.754 472.951 281.124 472.739 284.466L472.73 284.47ZM29.2936 269.933C28.7424 266.622 28.2309 263.279 27.7768 260.001L30.2328 259.657C30.6869 262.912 31.194 266.229 31.7408 269.522L29.2936 269.933ZM473.667 264.415L471.187 264.342C471.284 261.001 471.352 257.642 471.385 254.358L473.868 254.385C473.833 257.693 473.764 261.07 473.667 264.426V264.415ZM26.5311 250.032C26.1608 246.687 25.8389 243.321 25.5743 240.03L28.048 239.829C28.3103 243.096 28.63 246.437 28.9982 249.761L26.5311 250.032ZM471.396 244.382C471.368 241.039 471.304 237.68 471.209 234.4L473.687 234.328C473.784 237.625 473.848 240.999 473.877 244.36L471.396 244.382ZM24.9239 230C24.7586 226.634 24.6506 223.255 24.5999 219.956L27.0801 219.918C27.1308 223.189 27.2388 226.539 27.402 229.878L24.9239 230ZM470.81 224.427C470.64 221.088 470.429 217.735 470.186 214.467L472.662 214.284C472.904 217.57 473.116 220.942 473.288 224.301L470.81 224.427ZM27.1044 209.951L24.6241 209.901C24.6924 206.526 24.8247 203.145 25.0187 199.854L27.4924 199.998C27.305 203.26 27.1727 206.619 27.1044 209.951ZM469.326 204.527C468.996 201.187 468.621 197.853 468.211 194.615L470.673 194.302C471.083 197.564 471.46 200.923 471.795 204.282L469.326 204.527ZM28.2817 190.066L25.8146 189.817C26.1519 186.456 26.562 183.095 27.036 179.828L29.4898 180.186C29.0224 183.423 28.6168 186.756 28.2817 190.066ZM466.822 184.73C466.306 181.42 465.739 178.109 465.137 174.907L467.576 174.445C468.182 177.672 468.753 181.005 469.273 184.348L466.822 184.73ZM173.422 184.388C169.976 183.845 167.482 182.271 164.028 179.555L165.597 177.628C168.622 180.003 170.807 181.426 173.686 181.916L173.422 184.388ZM182.02 178.473L179.815 177.343C180.953 175.114 181.956 172.02 182.8 168.149L185.226 168.681C184.326 172.817 183.279 176.021 182.04 178.473H182.02ZM156.748 172.424C154.764 170.217 152.66 167.681 150.29 164.664L152.242 163.119C154.576 166.094 156.651 168.593 158.593 170.758L156.748 172.424ZM31.1477 170.385L28.7116 169.912C29.3553 166.602 30.0829 163.291 30.8743 160.076L33.2819 160.674C32.4992 163.841 31.7827 167.114 31.1477 170.385ZM463.135 165.154C462.401 161.87 461.608 158.615 460.781 155.479L463.177 154.843C464.015 158.01 464.815 161.296 465.556 164.611L463.135 165.154ZM186.89 158.674L184.43 158.357C184.811 155.388 185.153 152.139 185.475 148.425L187.946 148.646C187.629 152.389 187.283 155.673 186.89 158.674ZM144.208 156.653C142.193 153.925 140.1 151.038 138.297 148.549L140.305 147.09C142.104 149.575 144.192 152.453 146.203 155.174L144.208 156.653ZM325.833 156.45C323.83 156.427 321.875 155.831 320.2 154.73L321.523 152.625C324.237 154.342 326.907 154.346 329.788 152.978L330.855 155.223C329.296 156.002 327.582 156.421 325.84 156.45H325.833ZM35.9186 151.091L33.5464 150.365C34.5319 147.134 35.6122 143.921 36.7608 140.815L39.0867 141.678C37.958 144.739 36.8931 147.913 35.9208 151.091H35.9186ZM338.973 148.721L337.15 147.035C339.357 144.592 341.418 142.021 343.323 139.335L345.333 140.793C343.371 143.558 341.248 146.205 338.975 148.721H338.973ZM313.149 147.013C311.333 144.144 309.708 141.158 308.286 138.074L310.528 137.011C311.904 139.994 313.476 142.884 315.233 145.66L313.149 147.013ZM458.034 145.909C457.035 142.687 455.968 139.509 454.866 136.483L457.196 135.631C458.314 138.701 459.401 141.91 460.404 145.17L458.034 145.909ZM132.435 140.442C130.164 137.335 128.272 134.782 126.482 132.411L128.466 130.911C130.265 133.292 132.166 135.854 134.443 138.975L132.435 140.442ZM188.707 138.595L186.229 138.434C186.418 135.521 186.608 132.255 186.815 128.425L189.291 128.558C189.079 132.389 188.888 135.673 188.698 138.595H188.707ZM42.8082 132.475L40.5374 131.471C41.8999 128.381 43.3521 125.35 44.8939 122.376L47.0985 123.524C45.5773 126.446 44.1472 129.43 42.8082 132.475ZM351.008 132.475L348.936 131.109C350.699 128.423 352.52 125.576 354.364 122.703L356.449 124.047C354.602 126.927 352.781 129.776 351.008 132.464V132.475ZM304.296 128.798C303.171 125.974 302.009 122.893 300.746 119.377L303.079 118.534C304.335 122.023 305.486 125.08 306.606 127.878L304.296 128.798ZM451.217 127.254C449.883 124.14 448.472 121.114 447.028 118.262L449.233 117.135C450.706 120.035 452.141 123.109 453.494 126.271L451.217 127.254ZM120.347 124.532C118.096 121.732 116.001 119.236 113.953 116.912L115.809 115.263C117.895 117.62 120.014 120.14 122.291 122.972L120.347 124.532ZM189.794 118.529L187.331 118.404C187.496 115.093 187.664 111.758 187.84 108.377L190.318 108.507C190.133 111.886 189.977 115.208 189.8 118.529H189.794ZM361.882 115.647L359.814 114.277C361.886 111.132 363.74 108.413 365.48 105.963L367.501 107.406C365.784 109.832 363.945 112.529 361.888 115.647H361.882ZM52.0127 114.945L49.9227 113.608C51.7308 110.741 53.7259 107.997 55.8952 105.393L57.7912 106.998C55.6915 109.516 53.7611 112.171 52.0127 114.945ZM297.432 109.887C296.295 106.545 295.179 103.202 294.238 100.373L296.59 99.5846C297.532 102.412 298.645 105.749 299.78 109.075L297.432 109.887ZM107.121 109.712C104.777 107.407 102.303 105.237 99.7108 103.215L101.223 101.246C103.891 103.325 106.436 105.557 108.845 107.931L107.121 109.712ZM442.209 109.607C440.43 106.7 438.567 103.95 436.668 101.441L438.653 99.9399C440.599 102.52 442.511 105.338 444.33 108.313L442.209 109.607ZM64.7513 100.242L63.2477 98.256C66.2086 95.9917 69.293 94.3585 72.4104 93.4007L73.1379 95.7776C70.2983 96.6493 67.4763 98.1479 64.7513 100.242ZM373.494 99.4809L371.567 97.9161C373.68 95.2768 375.929 92.7501 378.306 90.3462L380.07 92.1118C377.751 94.4488 375.555 96.9055 373.491 99.4721L373.494 99.4809ZM190.859 98.4944L188.383 98.3465C188.603 94.7337 188.81 91.4497 189.044 88.3136L191.52 88.4901C191.299 91.6174 191.079 94.8904 190.859 98.4944ZM91.5006 97.9735C88.4141 96.4286 85.3584 95.4443 82.4504 95.0449L82.7877 92.5819C85.9647 93.0233 89.2673 94.0826 92.6052 95.7489L91.5006 97.9735ZM430.286 93.9546C428.019 91.6085 425.561 89.4565 422.935 87.5213L424.397 85.5107C427.135 87.5287 429.699 89.7722 432.063 92.2177L430.286 93.9546ZM291.072 90.8648C289.839 87.1659 288.821 84.149 287.873 81.3748L290.219 80.5671C291.171 83.3501 292.19 86.3736 293.426 90.0792L291.072 90.8648ZM387.482 85.7557L386.062 83.7186C389.111 81.5779 392.194 79.9955 395.221 79.0089L395.988 81.3748C393.194 82.2775 390.333 83.7517 387.482 85.7491V85.7557ZM414.551 82.71C411.61 81.4441 408.492 80.638 405.307 80.3199L405.527 77.8436C408.968 78.183 412.337 79.0494 415.515 80.4126L414.551 82.71ZM192.32 78.5168L189.849 78.2961C190.157 74.8068 190.495 71.4368 190.848 68.2808L193.315 68.5589C192.953 71.6906 192.622 75.0386 192.311 78.5079L192.32 78.5168ZM284.579 71.9179C283.382 68.5633 282.251 65.4978 281.127 62.5471L283.444 61.6643C284.575 64.6327 285.71 67.7136 286.916 71.0837L284.579 71.9179ZM194.576 58.6473L192.122 58.292C192.622 54.8116 193.176 51.4636 193.76 48.3407L196.198 48.802C195.61 51.8785 195.065 55.1912 194.567 58.6385L194.576 58.6473ZM277.44 53.2623C276.118 50.0489 274.764 46.9746 273.448 44.1254L275.699 43.0793C277.021 45.9594 278.386 49.0646 279.731 52.3089L277.44 53.2623ZM198.306 39.0714L195.898 38.4689C196.763 34.9973 197.717 31.7266 198.734 28.7582L201.082 29.5615C200.078 32.4571 199.146 35.6594 198.297 39.0626L198.306 39.0714ZM269.041 35.2003C267.409 32.1216 265.734 29.2305 264.087 26.6086L266.183 25.2844C267.872 27.9592 269.572 30.9056 271.232 34.0417L269.041 35.2003ZM204.808 20.4445L202.583 19.341C204.064 16.2623 205.86 13.3459 207.943 10.6388L209.891 12.1837C207.914 14.7508 206.207 17.5162 204.799 20.4356L204.808 20.4445ZM258.401 18.5443C256.381 15.9787 254.157 13.5807 251.752 11.3738L253.416 9.52873C255.921 11.8269 258.236 14.3229 260.341 16.9927L258.401 18.5443ZM216.821 5.74376L215.485 3.64933C218.402 1.77258 221.68 0.531809 225.108 0.0078125L225.485 2.46418C222.397 2.9325 219.441 4.04695 216.812 5.73493L216.821 5.74376ZM243.925 5.74376C241.131 4.21493 238.111 3.1435 234.978 2.57012L235.419 0.122575C238.815 0.740426 242.09 1.89907 245.12 3.55443L243.925 5.74376Z" fill="#B3D2FF"/>
<path d="M90.8634 342.458C90.8634 342.458 37.3648 189.571 80.8454 153.432C109.907 129.276 133.793 173.12 170.56 144.95C203.293 119.872 192.887 43.5704 245.093 33.0232C303.788 21.1673 316.712 163.478 364.882 144.034C423.332 120.433 481.474 168.347 431.229 342.778L90.8634 342.458Z" fill="#B8C0E0"/>
<path d="M484.708 288.911C464.123 285.717 467.481 314.58 438.137 314.58C411.306 314.58 402.723 204.673 383.203 236.085C283.126 397.163 341.239 167.582 261.65 164.665C225.661 163.34 201.683 203.523 192.838 274.654C180.018 338.961 150.292 225.597 119.698 236.146C100.253 242.845 102.48 314.58 75.6511 314.58C46.3047 314.58 49.6646 285.717 29.0774 288.911C6.91384 292.352 0.293213 343.45 0.293213 343.45H513.494C513.494 343.45 506.874 292.352 484.708 288.911Z" fill="#94A0D1"/>
<path d="M466.478 320.158C447.54 318.794 450.628 331.118 423.632 331.118C398.94 331.118 399.628 303.498 383.11 297.627C352.686 286.813 327.617 341.531 315.824 314.069C293.426 241.208 228.1 204.667 197.964 314.069C186.171 341.531 158.593 292.531 130.675 297.627C113.492 300.763 114.837 331.118 90.1535 331.118C63.1573 331.118 66.2483 318.794 47.3102 320.158C26.9169 321.626 20.8276 343.442 20.8276 343.442H492.96C492.96 343.442 486.869 321.626 466.478 320.158Z" fill="#4E56AB"/>
<path d="M0.293265 343.453C0.293265 343.453 -2.92556 356.576 11.9913 359.862C32.3933 364.358 152.153 376.165 123.058 385.139C106.636 390.215 131.436 397.083 211.437 399.616C291.438 402.15 428.696 392.225 382.537 377.547C336.378 362.868 524.959 374.002 513.495 343.46L0.293265 343.453Z" fill="#737DBE"/>
<path d="M256.998 330.873C329.203 330.873 387.736 272.279 387.736 199.999C387.736 127.719 329.203 69.125 256.998 69.125C184.794 69.125 126.261 127.719 126.261 199.999C126.261 272.279 184.794 330.873 256.998 330.873Z" fill="#EB5648"/>
<path d="M256.999 320.94C323.723 320.94 377.815 266.792 377.815 199.997C377.815 133.203 323.723 79.0547 256.999 79.0547C190.274 79.0547 136.183 133.203 136.183 199.997C136.183 266.792 190.274 320.94 256.999 320.94Z" fill="white"/>
<path d="M256.999 312.335C318.975 312.335 369.216 262.041 369.216 199.999C369.216 137.958 318.975 87.6641 256.999 87.6641C195.022 87.6641 144.781 137.958 144.781 199.999C144.781 262.041 195.022 312.335 256.999 312.335Z" fill="#EB5648"/>
<path d="M314.051 192.461C311.732 191.216 309.015 190.943 306.495 191.704C303.976 192.464 301.862 194.195 300.618 196.516L291.301 213.887C289.778 211.092 287.961 208.469 285.879 206.063V142.502C285.879 140.307 285.008 138.202 283.458 136.65C281.908 135.098 279.805 134.226 277.612 134.226C275.419 134.226 273.316 135.098 271.766 136.65C270.215 138.202 269.344 140.307 269.344 142.502V194.103C268.061 193.571 266.752 193.095 265.411 192.684V128.823C265.411 126.628 264.54 124.523 262.99 122.971C261.439 121.419 259.336 120.547 257.144 120.547C254.951 120.547 252.848 121.419 251.298 122.971C249.747 124.523 248.876 126.628 248.876 128.823V190.866C247.553 190.97 246.243 191.132 244.945 191.351V138.975C244.945 136.78 244.074 134.675 242.524 133.123C240.973 131.571 238.87 130.699 236.678 130.699C234.485 130.699 232.382 131.571 230.832 133.123C229.281 134.675 228.41 136.78 228.41 138.975V197.765C227.049 198.643 225.737 199.596 224.479 200.618V159.831C224.479 157.636 223.608 155.531 222.058 153.979C220.507 152.427 218.405 151.555 216.212 151.555C214.019 151.555 211.916 152.427 210.366 153.979C208.815 155.531 207.944 157.636 207.944 159.831V232.441C207.945 232.923 207.987 233.405 208.07 233.88C208.07 234.281 208.055 234.685 208.055 235.089C208.055 259.587 227.897 279.45 252.368 279.45C261.09 279.45 269.618 276.875 276.885 272.046C284.151 267.217 289.833 260.35 293.219 252.304L318.099 205.904C319.342 203.584 319.613 200.865 318.854 198.344C318.095 195.823 316.368 193.707 314.051 192.461Z" fill="white"/>
<path d="M343.589 46.8063V67.0157C343.446 67.8341 343.019 68.5757 342.384 69.1101C341.748 69.6445 340.945 69.9375 340.115 69.9375C339.285 69.9375 338.481 69.6445 337.846 69.1101C337.21 68.5757 336.783 67.8341 336.64 67.0157V46.8063C336.64 45.8839 337.006 44.9992 337.658 44.3469C338.309 43.6946 339.193 43.3281 340.115 43.3281C341.036 43.3281 341.92 43.6946 342.572 44.3469C343.223 44.9992 343.589 45.8839 343.589 46.8063Z" fill="#8FB3F2"/>
<path d="M340.114 79.867C342.063 79.867 343.642 78.2861 343.642 76.3359C343.642 74.3856 342.063 72.8047 340.114 72.8047C338.166 72.8047 336.587 74.3856 336.587 76.3359C336.587 78.2861 338.166 79.867 340.114 79.867Z" fill="#8FB3F2"/>
<path d="M92.4705 169.286C95.7808 165.855 97.6124 161.259 97.5708 156.489C97.5292 151.718 95.6178 147.155 92.2481 143.782C88.8784 140.409 84.3201 138.495 79.5549 138.454C74.7896 138.412 70.1986 140.246 66.7706 143.559C66.6161 143.682 66.4762 143.822 66.354 143.977C63.0436 147.408 61.212 152.004 61.2536 156.774C61.2952 161.544 63.2067 166.108 66.5764 169.481C69.946 172.854 74.5043 174.767 79.2696 174.809C84.0349 174.851 88.6258 173.017 92.0538 169.703C92.2084 169.581 92.3482 169.441 92.4705 169.286ZM92.0891 156.631C92.0916 159.042 91.4029 161.403 90.1049 163.433L72.6174 145.928C74.5328 144.706 76.7412 144.022 79.0111 143.948C81.281 143.874 83.5291 144.413 85.5198 145.507C87.5106 146.601 89.1707 148.211 90.3265 150.169C91.4822 152.126 92.091 154.358 92.0891 156.631ZM66.7354 156.631C66.7329 154.221 67.4216 151.86 68.7196 149.83L86.207 167.335C84.2916 168.557 82.0833 169.241 79.8134 169.315C77.5434 169.389 75.2954 168.85 73.3046 167.756C71.3139 166.662 69.6537 165.051 68.498 163.094C67.3422 161.137 66.7335 158.905 66.7354 156.631Z" fill="#8FB3F2"/>
<path d="M431.551 156.703C434.895 153.278 436.755 148.671 436.727 143.882C436.699 139.093 434.787 134.508 431.404 131.122C428.021 127.736 423.441 125.821 418.657 125.793C413.873 125.766 409.271 127.627 405.849 130.974C405.774 131.036 405.699 131.102 405.629 131.173C405.558 131.244 405.492 131.319 405.43 131.394C402.087 134.819 400.227 139.426 400.255 144.215C400.282 149.004 402.195 153.589 405.578 156.975C408.961 160.361 413.541 162.276 418.325 162.304C423.109 162.331 427.711 160.47 431.132 157.123C431.207 157.061 431.282 156.995 431.353 156.924C431.423 156.853 431.49 156.778 431.551 156.703ZM431.168 144.049C431.17 146.459 430.481 148.82 429.183 150.85L411.696 133.345C413.611 132.123 415.82 131.439 418.09 131.365C420.36 131.291 422.608 131.83 424.598 132.924C426.589 134.018 428.249 135.628 429.405 137.586C430.561 139.543 431.17 141.775 431.168 144.049ZM405.814 144.049C405.811 141.638 406.5 139.277 407.798 137.247L425.286 154.752C423.37 155.974 421.162 156.658 418.892 156.732C416.622 156.806 414.374 156.267 412.383 155.173C410.392 154.079 408.732 152.469 407.577 150.511C406.421 148.554 405.812 146.322 405.814 144.049Z" fill="#F49F9F"/>
<path d="M149.785 72.2138L159.283 62.7062C159.606 62.3832 159.862 61.9997 160.036 61.5777C160.211 61.1556 160.301 60.7033 160.301 60.2465C160.301 59.7897 160.211 59.3373 160.036 58.9153C159.862 58.4933 159.606 58.1098 159.283 57.7868C158.96 57.4638 158.577 57.2076 158.156 57.0327C157.734 56.8579 157.282 56.768 156.826 56.768C156.37 56.768 155.918 56.8579 155.496 57.0327C155.075 57.2076 154.692 57.4638 154.369 57.7868L144.869 67.2945L135.371 57.7868C135.049 57.4634 134.665 57.2067 134.244 57.0315C133.822 56.8563 133.37 56.7659 132.913 56.7656C132.457 56.7653 132.004 56.855 131.582 57.0297C131.16 57.2043 130.777 57.4605 130.454 57.7835C130.131 58.1065 129.874 58.4901 129.699 58.9123C129.524 59.3345 129.434 59.787 129.434 60.2441C129.433 60.7013 129.523 61.154 129.697 61.5764C129.872 61.9988 130.128 62.3827 130.45 62.7062L139.955 72.2138L130.45 81.7215C130.128 82.0445 129.872 82.428 129.697 82.8501C129.522 83.2722 129.432 83.7246 129.432 84.1815C129.432 84.6384 129.522 85.0909 129.696 85.513C129.871 85.9352 130.127 86.3188 130.449 86.642C131.101 87.2946 131.985 87.6614 132.907 87.6616C133.363 87.6617 133.815 87.5718 134.237 87.397C134.659 87.2223 135.042 86.9661 135.365 86.6431L144.869 77.1354L154.369 86.6431C154.692 86.9661 155.075 87.2223 155.497 87.397C155.918 87.5718 156.37 87.6617 156.827 87.6616C157.283 87.6615 157.735 87.5714 158.157 87.3964C158.578 87.2215 158.962 86.9651 159.284 86.642C159.607 86.3188 159.863 85.9352 160.037 85.513C160.212 85.0909 160.302 84.6384 160.302 84.1815C160.302 83.7246 160.212 83.2722 160.037 82.8501C159.862 82.428 159.606 82.0445 159.283 81.7215L149.785 72.2138Z" fill="#FFD2D2"/>
<path d="M384.109 226.677C375.083 234.49 361.621 236.964 351.623 229.352C348.649 227.174 345.644 223.671 343.556 220.005L346.01 216.033C365.493 228.063 373.205 207.534 389.047 205.934L385.877 210.568C385.877 210.568 384.384 226.355 384.109 226.677Z" fill="#9358E0"/>
<path d="M402.048 363.755L402.346 363.598C402.346 363.819 402.604 364.532 402.811 364.532L411.603 364.713C411.811 364.713 411.938 364.32 411.938 364.112L412.688 363.892C412.688 362.568 412.58 362.097 411.998 361.078C409.862 358.233 412.412 345.516 412.34 342.195C412.867 341.286 403.08 341.998 402.946 341.784C402.894 341.784 402.842 341.795 402.795 341.816C402.747 341.836 402.704 341.867 402.669 341.905C402.634 341.943 402.607 341.988 402.59 342.037C402.573 342.087 402.567 342.139 402.571 342.19L403.722 356.721C404.238 359.476 402.123 361.142 402.048 363.755Z" fill="#F99370"/>
<path d="M363.943 365.011H381.452C382.982 364.949 382.969 363.389 382.687 362.177C381.723 357.816 383.427 347.799 383.743 343.314C383.764 343.12 383.745 342.922 383.685 342.736C383.625 342.549 383.527 342.377 383.396 342.231C383.265 342.086 383.105 341.969 382.927 341.889C382.748 341.81 382.554 341.769 382.358 341.77H374.642C374.444 341.77 374.249 341.812 374.069 341.893C373.889 341.974 373.729 342.093 373.598 342.241C373.468 342.389 373.37 342.564 373.312 342.753C373.254 342.941 373.237 343.14 373.262 343.336L374.666 354.555C375.429 359.428 369.622 360.357 366.313 360.895C364.121 361.063 360.475 364.04 363.943 365.011Z" fill="#F99370"/>
<path d="M383.355 363.191C383.309 364.05 382.881 365.029 381.887 365.01H363.725C359.441 363.418 365.597 357.727 373.983 357.762C377.391 358.7 382.403 358.031 382.403 358.031C382.403 358.031 383.441 359.574 383.355 363.191Z" fill="#103663"/>
<path d="M411.295 365.009H403.532C399.749 364.49 402.447 357.801 407.412 357.75C412.377 357.7 415.073 364.499 411.295 365.009Z" fill="#103663"/>
<path d="M368.054 362.55C368.117 362.549 368.179 362.533 368.235 362.503C368.29 362.473 368.338 362.43 368.373 362.378C368.408 362.326 368.43 362.265 368.437 362.203C368.444 362.14 368.435 362.076 368.412 362.018C367.583 359.972 366.037 359.343 365.971 359.316C365.51 359.127 365.219 359.855 365.687 360.034C365.748 360.06 367.009 360.59 367.697 362.307C367.726 362.378 367.775 362.44 367.839 362.483C367.902 362.526 367.977 362.549 368.054 362.55Z" fill="#E8C0A6"/>
<path d="M371.053 362.187C371.113 362.187 371.173 362.173 371.227 362.146C371.281 362.118 371.327 362.079 371.363 362.03C371.399 361.981 371.423 361.925 371.433 361.865C371.443 361.805 371.439 361.744 371.421 361.686C370.744 359.113 367.413 357.184 368.312 358.985C369.429 359.643 370.272 360.683 370.684 361.914C370.709 361.993 370.758 362.062 370.824 362.111C370.89 362.16 370.97 362.187 371.053 362.187Z" fill="#E8C0A6"/>
<path d="M374.466 361.767C374.527 361.767 374.587 361.752 374.642 361.724C374.697 361.695 374.744 361.655 374.779 361.605C374.815 361.555 374.838 361.497 374.847 361.436C374.857 361.375 374.851 361.313 374.832 361.255C374.033 358.695 371.006 356.4 371.699 358.296C372.798 359.107 373.634 360.225 374.102 361.509C374.128 361.584 374.178 361.65 374.243 361.696C374.308 361.742 374.386 361.767 374.466 361.767Z" fill="#E8C0A6"/>
<path d="M410.197 360.061C410.281 360.06 410.362 360.031 410.428 359.979C410.494 359.928 410.542 359.856 410.564 359.775C410.586 359.694 410.582 359.608 410.551 359.53C410.52 359.452 410.464 359.386 410.393 359.342C407.789 357.817 404.539 359.26 404.403 359.322C403.946 359.523 404.266 360.24 404.72 360.026C404.751 359.929 408.018 358.752 410.197 360.061Z" fill="#E8C0A6"/>
<path d="M362.452 363.191H383.355C383.287 363.83 383.092 364.448 382.781 365.01H363.724C363.507 365.01 363.292 364.958 363.099 364.858C362.905 364.757 362.739 364.612 362.614 364.433C362.489 364.255 362.409 364.048 362.381 363.832C362.353 363.616 362.377 363.396 362.452 363.191Z" fill="#0F2E54"/>
<path d="M411.295 365.01H403.532C403.298 365.01 403.066 364.963 402.851 364.87C402.635 364.778 402.441 364.642 402.28 364.472C402.119 364.302 401.995 364.1 401.914 363.88C401.834 363.66 401.799 363.426 401.812 363.191H413.016C413.03 363.426 412.995 363.66 412.914 363.881C412.834 364.101 412.709 364.302 412.548 364.473C412.386 364.643 412.192 364.779 411.977 364.871C411.761 364.963 411.529 365.011 411.295 365.01Z" fill="#0F2E54"/>
<path d="M386.613 185.914C386.613 185.914 386.523 180.231 391.653 179.223L394.35 182.017L386.613 185.914Z" fill="#8C4225"/>
<path d="M413.564 355.092C413.564 355.092 405.285 357.107 401.019 354.942C398.799 341.007 392.641 302.195 390.489 275.607C390.408 277.152 385.897 339.694 385.039 354.942C382.094 355.928 376.172 357.12 372.859 354.721C371.371 338.667 366.591 285.817 373.791 242.65C373.791 242.65 393.521 244.857 408.932 240.188C413.171 253.888 414.295 338.661 413.564 355.092Z" fill="#1D3F70"/>
<path d="M376.051 353.398C374.027 307.273 378.67 267.584 377.973 267.105C376.75 267.209 372.082 307.242 376.051 353.398Z" fill="#163356"/>
<path d="M407.048 353.398C406.246 305.99 399.208 261.087 398.146 260.926C397.35 261.513 404.27 305.9 407.048 353.398Z" fill="#163356"/>
<path d="M388.904 205.756C388.463 202.004 389.061 196.575 389.583 194.344C390.529 189.943 397.498 191.647 396.341 195.973C396.12 195.832 395.397 203.805 395.9 206.019C402.434 207.983 382.76 214.443 388.904 205.756Z" fill="#F99370"/>
<path d="M396.407 195.609C396.391 195.731 396.369 195.853 396.341 195.973C396.177 195.865 395.726 200.266 395.721 203.457C392.723 204.823 389.38 204.223 388.77 204.097C388.704 200.052 389.076 196.372 389.669 194.053C390.884 190.136 397.028 191.563 396.407 195.609Z" fill="#E57D61"/>
<path d="M401.056 193.969C400.062 196.977 398.464 200.287 395.699 201.938C394.568 202.588 393.292 202.943 391.989 202.971C384.61 203.968 377.339 193.909 383.979 188.904C385.067 188.112 385.97 187.092 386.625 185.915C392.531 174.492 404.668 183.457 401.056 193.969Z" fill="#F99370"/>
<path d="M376.097 221.652L373.059 232.813C366.551 234.815 359.61 234.358 353.49 230.606C360.219 234.411 369.467 232.264 370.927 230.03C372.461 227.66 375.887 221.994 376.097 221.652Z" fill="#7640CC"/>
<path d="M411.802 258.833C411.096 259.692 410.345 260.553 409.549 261.415C409.549 261.415 405.673 262.143 402.637 258.104C415.016 231.841 391.115 229.38 395.893 206.02C411.861 207.907 434.078 231.764 411.802 258.833Z" fill="#9358E0"/>
<path d="M389.594 190.171C389.398 189.588 390.315 189.288 390.494 189.882C390.672 190.475 389.773 190.758 389.594 190.171Z" fill="#C16256"/>
<path d="M385.776 188.882C385.58 188.3 386.499 188 386.678 188.591C386.856 189.182 385.957 189.469 385.776 188.882Z" fill="#C16256"/>
<path d="M401.056 193.969C400.062 196.977 398.464 200.288 395.699 201.938C395.469 202.073 395.232 202.195 394.989 202.303C397.139 200.758 398.847 196.982 398.847 196.982L398.949 193.567C396.444 190.052 398.287 186.845 398.287 186.845C393.058 187.445 391.867 184.084 391.867 184.084C390.253 184.033 388.717 182.916 388.717 182.916C395.893 175.7 404.174 186.059 401.056 193.969Z" fill="#E57D61"/>
<path d="M386.913 193.209C387.222 193.304 387.484 192.874 387.083 192.838C386.455 192.955 385.081 192.309 385.84 191.995C386.926 191.625 388.624 189.126 387.632 189.568C387.632 189.585 386.68 191.311 385.72 191.647C384.409 192.309 386.005 193.209 386.913 193.209Z" fill="#C16256"/>
<path d="M411.802 258.833C411.096 259.692 410.345 260.553 409.549 261.415C409.549 261.415 405.602 261.967 402.566 257.924C403.007 256.84 403.506 256.136 403.889 255.055C403.885 255.057 406.231 257.685 411.802 258.833Z" fill="#7640CC"/>
<path d="M409.829 261.935C410.664 262.186 411.544 261.195 410.408 260.908C404.264 261.175 402.628 257.117 402.56 256.936C399.896 255.442 403.168 262.303 409.829 261.935Z" fill="#163356"/>
<path d="M370.923 261.217C370.923 261.217 372.127 266.392 381.772 268.941C384.534 269.674 386.131 269.312 386.534 267.396C386.739 266.434 387.264 264.748 388.23 264.137C388.23 264.137 390.388 265.07 391.201 266.394C392.987 269.297 395.677 266.659 396.984 263.623C398.605 259.871 403.799 256.03 404.701 252.879L370.923 261.217Z" fill="#F4D4BE"/>
<path d="M410.223 254.819C409.908 255.375 409.721 255.286 409.399 254.964C400.737 248.487 397.635 262.64 388.298 262.894C378.796 263.834 373.509 264.373 370.921 261.214C366.401 254.205 373.591 222.861 379.402 215.272C381.951 211.326 386.457 207.81 388.9 205.762C388.849 205.967 387.555 211.356 395.893 206.018C396.312 206.197 398.955 208.776 398.79 210.158C399.213 216.505 414.253 247.69 410.223 254.819Z" fill="#9358E0"/>
<path d="M386.162 177.817C387.807 177.434 389.529 177.542 391.113 178.128C391.424 177.107 392.066 176.219 392.937 175.603C393.358 176.766 393.911 177.877 394.586 178.914C394.806 176.74 396.151 174.977 396.151 174.977C396.51 177.058 399.385 178.556 400.741 180.812C400.741 180.812 408.409 183.443 402.946 190.183C402.725 192.677 401.504 195.199 401.504 195.199C397.48 191.52 398.347 187.097 400.181 185.947C396.901 187.111 393.977 185.727 392.328 183.551C389.872 183.138 386.891 181.807 386.162 177.817Z" fill="#8C4225"/>
<path d="M405.208 256.812L403.307 256.417C410.902 239.302 401.971 232.068 397.247 222.43C408.202 235.115 409.86 242.074 405.208 256.812Z" fill="#7640CC"/>
<path d="M402.765 195.843C401.506 199.222 397.253 197.586 398.598 194.236C399.861 190.857 404.097 192.493 402.765 195.843Z" fill="#F99370"/>
<path d="M401.563 196.389C402.339 195.577 402.339 194.213 401.985 193.834C401.341 193.172 400.119 193.249 400.117 193.635C400.283 194.021 401.111 193.388 401.705 194.054C402.344 194.56 401.065 196.184 401.563 196.389Z" fill="#C16256"/>
<path d="M399.954 195.879C400.227 195.859 400.673 194.619 402.024 194.7C402.047 194.703 402.071 194.7 402.094 194.693C402.116 194.686 402.137 194.674 402.155 194.659C402.173 194.644 402.188 194.625 402.199 194.604C402.209 194.584 402.216 194.561 402.218 194.537C401.336 193.645 399.156 195.897 399.954 195.879Z" fill="#C16256"/>
<path d="M398.457 206.477C398.503 209.661 390.342 212.471 389.881 212.475L388.902 209.577C387.645 209.889 386.541 211.648 386.541 211.648C382.921 208.196 386.32 205.188 388.902 205.757C388.851 205.962 388.283 210.688 395.864 205.85C396.839 205.402 398.457 206.477 398.457 206.477Z" fill="#F4D4BE"/>
<path d="M385.039 354.944C384.204 355.23 383.35 355.457 382.484 355.626C382.484 355.626 386.644 293.565 387.264 285.285C387.883 277.004 390.489 275.609 390.489 275.609C390.489 275.609 384.971 353.604 385.039 354.944Z" fill="#163356"/>
<path d="M385.202 351.935C385.092 353.724 385.03 354.804 385.039 354.943C382.094 355.929 376.172 357.121 372.858 354.722C372.858 354.722 372.775 353.738 372.603 351.926C372.603 351.935 378.385 354.607 385.202 351.935Z" fill="#163356"/>
<path d="M413.564 355.094C413.564 355.094 405.285 357.109 401.019 354.944C401.019 354.944 400.843 353.867 400.536 351.935C400.536 351.935 406.37 353.48 413.667 351.852C413.698 353.734 413.53 354.939 413.564 355.094Z" fill="#163356"/>
<path d="M348.164 217.239C348.164 219.784 344.696 221.832 344.696 221.832C344.308 221.247 343.922 220.627 343.556 219.996L346.01 216.023C346.751 216.425 347.467 216.897 348.164 217.239Z" fill="#7640CC"/>
<path d="M342.408 208.852C341.457 209.464 343.016 211.344 342.897 212.368C341.839 211.853 340.844 211.216 339.932 210.472C338.584 208.805 337.321 207.071 336.146 205.277C333.236 203.953 337.85 210.536 338.197 211.348L338.175 211.37C336.42 209.966 334.764 208.441 333.221 206.806C329.949 206.124 336.545 212.149 337.145 212.867V212.88C335.277 211.825 333.537 210.558 331.957 209.106C328.602 208.711 335.769 214.315 336.565 214.818V214.842C335.145 214.654 332.222 212.024 331.285 212.659C330.403 214.103 339.993 219.28 343.356 219.927C344.566 220.26 346.312 217.212 346.017 216.016C345.739 214.893 344.965 213.518 344.694 213.015C344.268 211.843 343.801 208.945 342.408 208.852Z" fill="#F99370"/>
<path d="M351.612 229.32C351.711 229.398 351.81 229.477 351.909 229.565C351.81 229.488 351.722 229.42 351.623 229.345C351.619 229.342 351.617 229.338 351.615 229.334C351.613 229.329 351.612 229.325 351.612 229.32Z" fill="#395B96"/>
<path d="M392.328 189.403C392.355 189.394 392.381 189.38 392.403 189.361C392.427 189.343 392.447 189.32 392.462 189.294C392.477 189.268 392.486 189.239 392.489 189.209C392.493 189.179 392.49 189.148 392.481 189.119C392.472 189.091 392.457 189.064 392.438 189.041C392.114 188.667 391.713 188.369 391.261 188.167C390.81 187.966 390.32 187.866 389.825 187.876C389.796 187.877 389.766 187.884 389.739 187.896C389.712 187.909 389.688 187.926 389.667 187.948C389.647 187.97 389.631 187.996 389.621 188.024C389.611 188.052 389.606 188.082 389.607 188.112C389.608 188.142 389.615 188.171 389.628 188.198C389.64 188.225 389.658 188.25 389.68 188.27C389.702 188.29 389.727 188.306 389.755 188.316C389.783 188.327 389.813 188.331 389.843 188.33C390.266 188.327 390.684 188.414 391.071 188.586C391.457 188.758 391.802 189.011 392.083 189.328C392.111 189.364 392.149 189.391 392.193 189.404C392.237 189.418 392.284 189.417 392.328 189.403Z" fill="#C16256"/>
<path d="M386.137 187.331C386.179 187.334 386.22 187.326 386.256 187.307C386.982 186.949 387.8 187.444 387.8 187.448C387.825 187.465 387.853 187.476 387.883 187.482C387.912 187.487 387.943 187.486 387.972 187.48C388.001 187.473 388.029 187.46 388.053 187.442C388.077 187.424 388.098 187.401 388.113 187.375C388.13 187.35 388.141 187.322 388.147 187.293C388.152 187.263 388.152 187.233 388.145 187.203C388.138 187.174 388.126 187.146 388.108 187.122C388.091 187.098 388.068 187.077 388.042 187.062C388 187.035 387.013 186.424 386.058 186.899C386 186.91 385.948 186.944 385.914 186.993C385.881 187.042 385.868 187.103 385.879 187.161C385.891 187.22 385.924 187.272 385.974 187.305C386.023 187.339 386.083 187.351 386.142 187.34L386.137 187.331Z" fill="#C16256"/>
<path d="M388.293 194.075C388.252 194.084 388.214 194.103 388.183 194.13C387.583 194.671 386.671 194.413 386.662 194.408C386.633 194.399 386.603 194.395 386.573 194.398C386.543 194.401 386.514 194.41 386.487 194.424C386.461 194.439 386.438 194.458 386.419 194.482C386.401 194.506 386.387 194.533 386.38 194.563C386.37 194.591 386.366 194.622 386.368 194.652C386.371 194.682 386.379 194.711 386.394 194.738C386.408 194.765 386.428 194.788 386.451 194.807C386.475 194.826 386.502 194.84 386.532 194.847C386.58 194.861 387.694 195.183 388.489 194.47C388.54 194.443 388.578 194.397 388.595 194.342C388.613 194.288 388.608 194.228 388.583 194.177C388.557 194.126 388.513 194.086 388.459 194.067C388.405 194.048 388.345 194.051 388.293 194.075Z" fill="#C16256"/>
<path d="M110.58 212.603C113.475 193.817 124.313 198.245 124.313 198.245C124.313 198.245 130.265 195.155 135.193 202.689C143.002 214.647 152.134 211.659 154.274 222.433C156.371 232.989 142.023 244.986 124.932 237.187C124.939 237.187 107.657 231.513 110.58 212.603Z" fill="#662948"/>
<path d="M167.101 243.462C167.837 244.091 166.082 245.579 165.999 246.459C167.028 246.207 168.025 245.836 168.97 245.356C170.476 244.151 171.918 242.872 173.298 241.52C176.144 240.816 170.763 245.868 170.324 246.459C170.331 246.467 170.336 246.475 170.34 246.484C172.153 245.589 173.902 244.57 175.573 243.432C178.66 243.356 171.572 247.545 170.957 247.998V248.011C172.803 247.444 174.578 246.668 176.248 245.698C179.359 245.899 171.839 249.593 171.098 249.827V249.849C172.61 249.6 174.097 249.215 175.54 248.702C178.406 249.304 171.449 251.571 170.75 251.714C170.309 252.054 167.593 252.818 164.151 253.005C163.024 253.063 162.076 250.048 162.568 249.053C163.029 248.119 163.975 247.066 164.305 246.669C164.815 245.813 165.972 243.173 167.101 243.462Z" fill="#F99370"/>
<path d="M123.016 234.527C125.823 236.601 127.316 239.757 129.494 242.668C132.053 246.281 134.977 250.137 138.729 252.69C146.699 257.863 156.64 255.815 165.027 253.067C168.067 252.127 166.695 247.345 163.62 248.177C156.446 249.801 146.834 251.266 141.754 244.736C136.855 239.069 135.341 231.11 129.849 225.809C123.854 220.303 116.235 230.013 123.016 234.527Z" fill="#F99370"/>
<path d="M126.612 244.523C127.377 246.731 128.557 248.773 130.087 250.537C132.651 253.44 135.696 254.755 137.984 255.196L138.204 255.241C141.692 255.845 149.144 247.24 145.107 244.287C141.071 241.334 141.774 239.551 136.961 232.449C132.148 225.347 128.094 224.062 128.094 224.062C128.158 229.556 123.936 237.075 126.612 244.523Z" fill="#CE4ABF"/>
<path d="M62.0462 337.19L59.416 320.982C60.2295 320.565 64.2663 320.729 65.6905 320.338C66.5966 320.252 77.9705 317.08 79.1544 316.789L80.6646 326.096L68.4574 326.537C67.7574 326.566 67.089 326.837 66.5663 327.304C66.0436 327.77 65.699 328.404 65.5913 329.097C64.9299 332.271 66.0433 335.593 64.0061 337.89C63.8475 338.032 63.6534 338.129 63.4443 338.17C63.2353 338.212 63.019 338.195 62.8183 338.124C62.6176 338.052 62.4399 337.928 62.304 337.763C62.1682 337.599 62.0791 337.401 62.0462 337.19Z" fill="#F99370"/>
<path d="M60.8931 320.239C60.3557 320.384 59.8533 320.637 59.416 320.982L62.0616 337.314C62.0908 337.499 62.1636 337.674 62.2741 337.826C62.3846 337.977 62.5295 338.099 62.6969 338.183C62.8642 338.267 63.0491 338.309 63.2362 338.307C63.4233 338.305 63.6071 338.258 63.7724 338.17C65.4215 337.266 67.613 334.699 66.7862 327.102C66.7862 327.102 65.6067 324.675 65.6839 320.327C65.6905 320.338 63.067 319.614 60.8931 320.239Z" fill="#1D3F70"/>
<path d="M66.3431 335.119C65.75 334.954 65.8073 334.033 63.8298 333.548C63.7433 333.528 63.6681 333.475 63.6206 333.4C63.5731 333.326 63.5571 333.235 63.5762 333.148C64.3104 332.118 67.7805 335.064 66.3431 335.119Z" fill="#E8C0A6"/>
<path d="M66.8568 332.696C66.8046 332.696 66.7531 332.683 66.7064 332.66C66.6597 332.637 66.6191 332.603 66.5879 332.561C65.8698 331.693 64.8618 331.114 63.7504 330.932C63.6685 330.914 63.5966 330.865 63.5488 330.796C63.5011 330.726 63.4811 330.642 63.4927 330.558C63.5044 330.475 63.5469 330.399 63.6117 330.346C63.6766 330.292 63.7592 330.265 63.843 330.27C65.1334 330.472 66.3031 331.146 67.1258 332.161C67.1616 332.212 67.183 332.27 67.1878 332.332C67.1925 332.393 67.1804 332.455 67.1527 332.51C67.125 332.565 67.0827 332.611 67.0306 332.644C66.9785 332.677 66.9184 332.695 66.8568 332.696Z" fill="#E8C0A6"/>
<path d="M66.9561 329.666C66.4909 329.584 65.8317 328.359 63.6226 327.945C63.5349 327.929 63.4569 327.879 63.4059 327.806C63.3548 327.733 63.3348 327.643 63.3503 327.555C63.3658 327.467 63.4155 327.389 63.4885 327.338C63.5615 327.287 63.6518 327.267 63.7395 327.282C65.953 327.761 68.0694 329.3 66.9561 329.666Z" fill="#E8C0A6"/>
<path d="M63.8033 338.172L60.8931 320.242C60.3557 320.388 59.8533 320.641 59.416 320.986L62.0616 337.318C62.0897 337.507 62.1632 337.686 62.2758 337.84C62.3884 337.994 62.5368 338.119 62.7082 338.203C62.8796 338.287 63.0688 338.328 63.2596 338.323C63.4504 338.317 63.637 338.265 63.8033 338.172Z" fill="#395B96"/>
<path d="M130.087 250.536C132.651 253.438 135.695 254.754 137.984 255.195C136.544 252.253 138.542 250.971 138.91 246.146C139.298 241.097 134.886 235.84 134.886 235.84L130.087 250.536Z" fill="#A523A2"/>
<path d="M134.331 364.753L117.948 364.572C117.677 363.689 118.528 359.741 118.389 358.276C118.389 357.66 118.228 354.285 118.168 353.672L119.394 344.418L126.617 344.497L124.963 356.607C124.869 357.304 125.02 358.012 125.39 358.609C125.76 359.207 126.326 359.657 126.991 359.882C130.001 361.065 133.438 360.544 135.369 362.928C135.481 363.111 135.542 363.321 135.546 363.535C135.549 363.75 135.495 363.961 135.389 364.148C135.283 364.334 135.129 364.489 134.943 364.595C134.756 364.702 134.545 364.756 134.331 364.753Z" fill="#F99370"/>
<path d="M117.467 362.991C117.52 363.545 117.683 364.084 117.948 364.573L134.483 364.757C134.67 364.76 134.856 364.718 135.024 364.634C135.192 364.551 135.338 364.429 135.449 364.277C135.56 364.126 135.633 363.951 135.663 363.765C135.692 363.58 135.677 363.39 135.618 363.212C135.01 361.431 132.858 358.831 125.236 358.356C125.236 358.356 122.635 359.1 118.378 358.281C118.387 358.277 117.222 360.74 117.467 362.991Z" fill="#1D3F70"/>
<path d="M130.764 362.575C130.708 362.575 130.654 362.561 130.606 362.534C130.558 362.508 130.516 362.47 130.486 362.424C130.455 362.378 130.437 362.326 130.431 362.271C130.426 362.216 130.434 362.161 130.455 362.11C131.193 360.344 132.543 359.81 132.6 359.788C132.683 359.756 132.775 359.758 132.857 359.795C132.938 359.831 133.001 359.898 133.033 359.981C133.065 360.064 133.063 360.157 133.026 360.238C132.99 360.319 132.923 360.383 132.84 360.415C132.79 360.435 131.694 360.883 131.077 362.37C131.051 362.432 131.007 362.484 130.952 362.521C130.896 362.558 130.83 362.576 130.764 362.575Z" fill="#E8C0A6"/>
<path d="M128.162 362.235C128.109 362.234 128.057 362.221 128.01 362.197C127.963 362.172 127.923 362.137 127.892 362.094C127.861 362.052 127.841 362.002 127.832 361.95C127.824 361.897 127.828 361.844 127.845 361.793C128.458 359.567 131.372 357.925 130.57 359.478C129.594 360.04 128.853 360.935 128.482 361.999C128.461 362.067 128.418 362.127 128.361 362.169C128.303 362.212 128.234 362.235 128.162 362.235Z" fill="#E8C0A6"/>
<path d="M125.203 361.837C125.151 361.836 125.099 361.823 125.052 361.798C125.006 361.774 124.965 361.739 124.935 361.696C124.904 361.653 124.884 361.603 124.876 361.551C124.868 361.499 124.872 361.446 124.888 361.395C125.352 360.144 126.183 359.063 127.271 358.292C127.346 358.249 127.434 358.235 127.518 358.255C127.603 358.275 127.676 358.327 127.723 358.399C127.77 358.472 127.787 358.56 127.77 358.645C127.754 358.73 127.706 358.805 127.635 358.855C126.674 359.551 125.939 360.513 125.519 361.623C125.494 361.686 125.451 361.741 125.394 361.779C125.338 361.817 125.271 361.837 125.203 361.837Z" fill="#E8C0A6"/>
<path d="M135.618 363.187L117.467 362.988C117.52 363.543 117.683 364.081 117.948 364.571L134.483 364.754C134.673 364.758 134.861 364.716 135.032 364.632C135.202 364.547 135.35 364.423 135.461 364.269C135.573 364.114 135.646 363.935 135.673 363.747C135.7 363.559 135.682 363.366 135.618 363.187Z" fill="#395B96"/>
<path d="M68.3713 318.824C68.3713 318.824 68.3713 323.443 69.628 327.846C101.08 325.222 114.136 321.126 116.588 290.575C116.588 290.575 127.333 311.148 117.07 350.271C116.775 351.419 116.464 352.547 116.133 353.697C116.133 353.697 120.17 357.007 125.748 355.917C132.704 342.675 148.05 310.837 134.798 269.183C126.903 260.026 111.005 259.094 100.908 263.685C92.7881 284.598 107.05 310.327 68.3713 318.824Z" fill="#3A72AA"/>
<path d="M68.3713 318.825C68.3713 318.825 68.3713 323.444 69.628 327.847C69.628 327.847 71.0456 327.748 73.3385 327.512C71.8988 323.98 71.9385 317.953 71.9385 317.953C70.8163 318.275 69.6015 318.527 68.3713 318.825Z" fill="#23659B"/>
<path d="M116.135 353.699C116.135 353.699 120.172 357.009 125.75 355.919C125.75 355.919 126.27 354.906 127.256 353.003C127.256 353.003 120.659 353.626 117.075 350.273C116.782 351.399 116.469 352.541 116.135 353.699Z" fill="#23659B"/>
<path d="M117.073 350.275C116.971 350.672 116.865 351.067 116.757 351.469H118.766C125.755 330.502 126.974 296.003 116.603 290.578C116.603 290.578 127.349 311.152 117.086 350.275H117.073Z" fill="#23659B"/>
<path d="M124 354.903C129.511 342.348 133.171 330.088 134.908 318.464C136.3 309.146 136.452 300.214 135.387 291.912C133.548 277.721 128.79 270.383 128.59 270.078L127.267 270.961C127.316 271.032 132.051 278.37 133.828 292.234C135.468 305.034 134.842 326.206 122.547 354.263L124 354.903Z" fill="#23659B"/>
<path d="M70.9244 326.716C82.1549 325.633 90.5459 323.697 96.5603 320.797C102.542 317.928 106.598 313.889 108.964 308.482C114.89 294.942 112.712 267.779 112.615 266.629L111.025 266.761C111.049 267.037 113.265 294.673 107.498 307.842C103.038 318.034 92.3956 323.042 70.7678 325.125L70.9244 326.716Z" fill="#23659B"/>
<path d="M100.37 265.182C107.394 268.519 123.757 275.517 135.065 270.013C135.693 268.689 135.79 266.65 135.314 265.184C130.925 250.117 142.66 248.151 134.679 235.509C132.891 232.698 129.516 226.681 128.103 224.066C126.78 227.235 122.906 224.236 121.341 222.422C120.19 222.475 107.672 223.525 102.658 250.296C102.154 253.011 95.2287 260.993 100.37 265.182Z" fill="#CE4ABF"/>
<path d="M124.141 260.209C124.304 261.165 122.005 261.182 121.372 261.8C122.321 262.269 123.321 262.626 124.353 262.864C126.279 262.908 128.206 262.844 130.131 262.696C132.777 263.981 125.402 264.409 124.688 264.581C124.688 264.581 124.688 264.601 124.688 264.61C126.653 265.085 128.648 265.423 130.66 265.621C133.072 267.539 124.954 266.214 124.192 266.168V266.181C125.971 266.928 127.83 267.469 129.732 267.792C131.992 269.942 123.852 267.956 123.136 267.662L123.12 267.678C124.44 268.455 125.828 269.113 127.265 269.644C129.084 271.948 122.285 269.229 121.658 268.887C121.107 268.869 118.523 267.715 115.765 265.647C114.861 264.97 116.065 262.048 117.088 261.597C118.038 261.176 119.44 260.968 119.954 260.88C120.882 260.547 123.457 259.262 124.141 260.209Z" fill="#F99370"/>
<path d="M112.117 224.274C105.394 229.321 98.4784 237.108 96.0224 245.179C92.1267 256.319 106.102 262.861 115.093 265.483C116.857 266.145 118.9 266.514 119.628 264.28C120.144 262.239 118.448 261.424 116.863 260.826C113.907 259.456 110.891 257.721 108.446 255.653C105.591 253.303 103.293 250.08 105.52 246.686C108.181 241.23 112.747 236.554 117.913 233.554C123.962 229.739 118.201 220.502 112.117 224.274Z" fill="#F99370"/>
<path d="M121.27 222.426C121.27 222.426 111.228 220.581 103.853 229.709C96.4787 238.837 90.4534 250.42 95.3411 253.45C98.1433 255.185 98.4431 250.607 105.35 251.96C110.739 253.017 109.689 242.982 117.794 234.582C122.258 229.961 122.415 224.068 121.27 222.426Z" fill="#CE4ABF"/>
<path d="M105.946 252.485C106.812 252.485 109.735 252.044 111.678 246.264C113.008 242.388 114.984 238.764 117.52 235.547C117.593 235.454 117.627 235.336 117.615 235.218C117.602 235.101 117.545 234.993 117.455 234.916C117.365 234.84 117.249 234.802 117.131 234.81C117.013 234.817 116.903 234.87 116.824 234.957C114.204 238.257 112.171 241.983 110.814 245.973C108.829 251.878 105.86 251.574 105.831 251.569C105.715 251.559 105.599 251.593 105.507 251.665C105.416 251.738 105.355 251.842 105.338 251.958C105.321 252.074 105.349 252.191 105.416 252.287C105.483 252.383 105.584 252.449 105.699 252.472C105.781 252.481 105.863 252.486 105.946 252.485Z" fill="#A523A2"/>
<path d="M128.092 223.79C128.092 223.79 130.021 224.492 130.858 225.69C130.858 225.69 130.616 227.396 129.364 228.016C127.95 228.716 126.513 226.123 126.513 226.123C126.513 226.123 126.204 228.385 124.458 228.23C122.712 228.076 119.388 225.511 118.347 222.285C118.347 222.285 120.47 221.918 121.27 222.424L128.092 223.79Z" fill="#FFD2D2"/>
<path d="M128.358 221.865L128.092 223.79C127.397 226.822 122.159 223.898 121.341 222.421C121.49 221.728 121.6 221.026 121.672 220.32L128.358 221.865Z" fill="#F99370"/>
<path d="M121.852 213.265C121.852 213.384 121.852 213.506 121.874 213.625C122.044 213.539 121.976 217.864 121.61 220.965C124.366 222.636 127.679 222.442 128.288 222.391C128.821 218.469 128.885 214.85 128.577 212.532C127.842 208.591 121.709 209.268 121.852 213.265Z" fill="#E57D61"/>
<path d="M117.388 210.895C117.924 213.945 119.004 217.375 121.447 219.363C122.45 220.151 123.633 220.676 124.89 220.888C131.978 222.828 140.323 214.294 134.629 208.406C132.578 206.565 132.102 203.254 130.462 201.416C128.065 198.042 122.919 198.293 120.179 201.111C117.708 203.661 116.899 207.137 117.388 210.895Z" fill="#F99370"/>
<path d="M129.017 208.837C129.291 208.302 128.444 207.888 128.189 208.43C127.933 208.973 128.762 209.38 129.017 208.837Z" fill="#C16256"/>
<path d="M132.895 208.132C133.169 207.595 132.322 207.18 132.066 207.723C131.811 208.266 132.64 208.675 132.895 208.132Z" fill="#C16256"/>
<path d="M131.751 212.155C131.467 212.155 130.843 212.277 130.854 211.89C130.861 211.868 130.871 211.847 130.886 211.829C130.901 211.811 130.919 211.796 130.94 211.785C130.96 211.774 130.983 211.768 131.006 211.766C131.029 211.764 131.052 211.766 131.074 211.773C131.663 211.952 132.49 211.645 132.6 211.378C132.638 211.286 132.51 211.195 132.397 211.136C131.41 210.657 130.1 207.913 131.004 208.542C131.004 208.56 131.681 210.363 132.547 210.824C133.55 211.491 132.532 212.032 131.751 212.155Z" fill="#C16256"/>
<path d="M117.388 210.894C117.923 213.944 119.004 217.373 121.447 219.362C120.084 217.72 119.198 214.014 119.198 214.014L119.806 212.352C130.367 208.773 129.348 200.218 129.348 200.218C122.838 195.072 115.9 203.913 117.388 210.894Z" fill="#E57D61"/>
<path d="M128.297 199.434C128.297 199.434 129.179 207.911 119.729 211.5L116.294 209.668C112.879 203.19 118.858 193.442 128.297 199.434Z" fill="#662948"/>
<path d="M117.081 197.089C119.396 205.073 128.687 202.513 126.599 194.48C124.277 186.502 115.018 189.051 117.081 197.089Z" fill="#662948"/>
<path d="M115.47 212.464C116.208 215.914 120.54 214.929 119.729 211.5C118.986 208.052 114.652 209.045 115.47 212.464Z" fill="#F99370"/>
<path d="M116.603 213.168C115.873 212.424 116.133 210.901 116.506 210.634C117.192 210.076 118.431 210.354 118.343 210.705C118.122 211.056 117.417 210.327 116.749 210.888C116.063 211.409 117.002 212.87 116.603 213.168Z" fill="#C16256"/>
<path d="M118.232 212.899C117.875 212.886 117.725 211.575 116.347 211.467C116.301 211.463 116.258 211.442 116.227 211.407C116.196 211.373 116.18 211.328 116.182 211.281C117.137 210.542 118.887 212.963 118.232 212.899Z" fill="#C16256"/>
<path d="M117.405 213.812C117.405 214.322 118.206 214.311 118.19 213.812C118.175 213.313 117.39 213.302 117.405 213.812Z" fill="#F4D4BE"/>
<path d="M130.312 214.361C130.085 214.296 129.887 214.156 129.749 213.963C129.445 213.544 129.483 212.992 129.833 212.736C129.923 212.672 130.027 212.629 130.136 212.611C130.246 212.593 130.358 212.601 130.464 212.633C130.691 212.698 130.889 212.839 131.026 213.032C131.332 213.451 131.295 214.001 130.942 214.259C130.823 214.347 130.678 214.393 130.53 214.392C130.456 214.391 130.383 214.38 130.312 214.361ZM130.034 213.012C129.835 213.158 129.831 213.493 130.034 213.76C130.124 213.891 130.255 213.986 130.406 214.032C130.463 214.049 130.524 214.054 130.583 214.045C130.642 214.037 130.698 214.016 130.748 213.983C130.947 213.838 130.951 213.5 130.748 213.233C130.657 213.104 130.525 213.009 130.373 212.964C130.332 212.952 130.289 212.947 130.246 212.946C130.169 212.947 130.095 212.973 130.034 213.019V213.012Z" fill="#C16256"/>
<path d="M127.093 207.873C127.12 207.873 127.147 207.866 127.171 207.853C127.195 207.841 127.216 207.822 127.232 207.8C127.853 206.917 129.059 206.917 129.07 206.917C129.094 206.92 129.119 206.918 129.142 206.91C129.165 206.903 129.186 206.891 129.204 206.875C129.222 206.859 129.237 206.839 129.247 206.817C129.257 206.795 129.262 206.771 129.262 206.746C129.262 206.722 129.257 206.698 129.247 206.676C129.237 206.654 129.222 206.634 129.204 206.618C129.186 206.602 129.165 206.59 129.142 206.582C129.119 206.575 129.094 206.573 129.07 206.575C128.991 206.575 127.673 206.593 126.952 207.608C126.933 207.634 126.923 207.664 126.921 207.696C126.918 207.727 126.925 207.759 126.94 207.787C126.954 207.815 126.976 207.838 127.003 207.855C127.03 207.871 127.061 207.88 127.093 207.88V207.873Z" fill="#C16256"/>
<path d="M130.759 206.663C130.784 206.663 130.809 206.657 130.832 206.647C131.126 206.496 131.452 206.417 131.783 206.417C132.114 206.417 132.44 206.496 132.734 206.647C132.773 206.668 132.818 206.673 132.861 206.661C132.903 206.649 132.939 206.622 132.962 206.585C132.985 206.547 132.992 206.502 132.983 206.459C132.974 206.416 132.949 206.379 132.913 206.354C132.569 206.175 132.186 206.082 131.799 206.082C131.411 206.082 131.029 206.175 130.684 206.354C130.649 206.37 130.62 206.398 130.602 206.433C130.585 206.468 130.581 206.508 130.589 206.546C130.598 206.585 130.62 206.618 130.651 206.642C130.682 206.666 130.72 206.679 130.759 206.678V206.663Z" fill="#C16256"/>
</g>
<defs>
<clipPath id="clip0_1015_15982">
<rect width="513.995" height="400" fill="white"/>
</clipPath>
</defs>
</svg>
