<svg width="24" height="24" viewBox="0 0 24 24" fill="none" xmlns="http://www.w3.org/2000/svg">
    <g clip-path="url(#rtbhjpof7a)" stroke="#384351" stroke-width="2" stroke-linecap="round" stroke-linejoin="round">
        <path d="M17 11H7a2 2 0 0 0-2 2v6a2 2 0 0 0 2 2h10a2 2 0 0 0 2-2v-6a2 2 0 0 0-2-2z"/>
        <path d="M12 17a1 1 0 1 0 0-2 1 1 0 0 0 0 2zM8 11V7a4 4 0 0 1 8 0v4"/>
    </g>
    <defs>
        <clipPath id="rtbhjpof7a">
            <path fill="#fff" d="M0 0h24v24H0z"/>
        </clipPath>
    </defs>
</svg>
