<svg width="24" height="24" viewBox="0 0 24 24" fill="none" xmlns="http://www.w3.org/2000/svg">
    <g clip-path="url(#rwdns3p0ia)" stroke="#384351" stroke-width="2" stroke-linecap="round" stroke-linejoin="round">
        <path d="M9 11a4 4 0 1 0 0-8 4 4 0 0 0 0 8zM3 21v-2a4 4 0 0 1 4-4h4a4 4 0 0 1 4 4v2M16 3.13a4 4 0 0 1 0 7.75M21 21v-2a4 4 0 0 0-3-3.85"/>
    </g>
    <defs>
        <clipPath id="rwdns3p0ia">
            <path fill="#fff" d="M0 0h24v24H0z"/>
        </clipPath>
    </defs>
</svg>
