<svg width="522" height="522" viewBox="0 0 522 522" fill="none" xmlns="http://www.w3.org/2000/svg">
<path d="M419.949 431.016C332.17 476.879 189.831 476.879 102.051 431.016C14.2715 385.153 14.2611 310.799 102.051 264.936C189.841 219.073 332.17 219.073 419.949 264.936C507.729 310.799 507.739 385.153 419.949 431.016Z" fill="#EDEEF7"/>
<path d="M192.399 419.418C165.928 419.418 144.469 409.191 144.469 396.575C144.469 383.959 165.928 373.732 192.399 373.732C218.87 373.732 240.329 383.959 240.329 396.575C240.329 409.191 218.87 419.418 192.399 419.418Z" fill="#EBEBEB"/>
<path d="M107.49 367.322C87.0676 367.322 70.5118 359.432 70.5118 349.699C70.5118 339.966 87.0676 332.076 107.49 332.076C127.913 332.076 144.469 339.966 144.469 349.699C144.469 359.432 127.913 367.322 107.49 367.322Z" fill="#EBEBEB"/>
<path d="M371.048 344.76C373.136 333.735 380.778 318.023 390.101 309.264C399.069 300.849 412.38 297.915 417.684 301.799C422.987 305.683 419.511 314.076 409.217 324.308C397.597 335.844 375.287 367.853 371.048 385.987V344.76Z" fill="#BA68C8"/>
<g opacity="0.2">
<path d="M371.048 344.76C373.136 333.735 380.778 318.023 390.101 309.264C399.069 300.849 412.38 297.915 417.684 301.799C422.987 305.683 419.511 314.076 409.217 324.308C397.597 335.844 375.287 367.853 371.048 385.987V344.76Z" fill="black"/>
</g>
<path d="M371.048 371.288C371.179 371.286 371.305 371.236 371.401 371.148C371.497 371.059 371.557 370.938 371.57 370.808C374.201 343.037 393.62 311.822 412.286 305.318C412.417 305.27 412.523 305.174 412.584 305.049C412.644 304.925 412.654 304.781 412.61 304.65C412.563 304.519 412.466 304.413 412.341 304.352C412.217 304.292 412.073 304.282 411.942 304.326C392.586 311.06 373.22 342.087 370.505 370.714C370.494 370.852 370.536 370.989 370.624 371.096C370.711 371.203 370.838 371.272 370.975 371.288H371.048Z" fill="white"/>
<path d="M371.048 399.318C371.048 399.318 374.66 402.2 386.708 401.072C398.756 399.945 404.968 391.332 404.968 387.636C404.968 383.94 393.891 383.303 391.49 374.137C393.932 376.755 397.181 378.479 400.719 379.033C406.983 380.213 412.015 378.209 413.445 366.798C410.358 367.249 407.208 366.988 404.237 366.036C399.278 364.438 398.098 361.713 399.393 361.129C400.687 360.544 407.599 361.129 412.025 359.448C416.452 357.767 413.069 334.716 410.167 333.076C407.265 331.437 393.536 335.3 390.863 337.367C388.483 339.205 385.142 342.389 386.687 349.123C384.857 347.412 383.43 345.315 382.511 342.984C381.217 339.852 380.277 340.583 378.335 341.783C377.169 342.441 376.157 343.34 375.367 344.42C374.576 345.5 374.026 346.737 373.752 348.047C373.282 350.971 374.044 361.056 378.158 364.334C378.158 364.334 374.211 364.835 370.986 358.174C370.986 358.174 364.722 360.701 363.302 364.793C361.882 368.886 360.337 388.92 371.048 399.318Z" fill="#BA68C8"/>
<path d="M369.983 401.596C370.111 401.594 370.234 401.547 370.33 401.463C370.425 401.379 370.488 401.263 370.505 401.136C373.261 378.575 390.414 348.936 407.233 337.807C407.349 337.73 407.43 337.609 407.458 337.472C407.485 337.335 407.457 337.193 407.379 337.076C407.302 336.96 407.181 336.879 407.044 336.852C406.907 336.825 406.765 336.853 406.648 336.93C389.621 348.258 372.196 378.2 369.472 401.011C369.454 401.148 369.491 401.287 369.575 401.396C369.659 401.506 369.784 401.577 369.921 401.596H369.983Z" fill="white"/>
<path d="M368.929 404.748C369.551 404.316 370.065 403.745 370.427 403.08C370.79 402.414 370.992 401.673 371.017 400.916V151.494C370.974 150.709 370.747 149.945 370.353 149.265C369.959 148.585 369.41 148.007 368.751 147.579L212.151 57.1477C211.497 56.7371 210.743 56.5128 209.97 56.4987C209.198 56.4847 208.436 56.6816 207.767 57.0681C207.098 57.4546 206.547 58.0162 206.174 58.6925C205.8 59.3687 205.618 60.134 205.647 60.9061L364.544 404.664C365.217 405.022 365.964 405.216 366.726 405.23C367.488 405.245 368.243 405.079 368.929 404.748V404.748Z" fill="#E0E0E0"/>
<path d="M366.809 156.234L303.198 114.61L307.437 112.156L368.782 147.579C369.442 148.007 369.99 148.585 370.384 149.265C370.778 149.946 371.005 150.709 371.048 151.494V153.781L366.809 156.234Z" fill="#37474F"/>
<path opacity="0.2" d="M366.809 156.234L303.198 114.61L307.437 112.156L368.782 147.579C369.442 148.007 369.99 148.585 370.384 149.265C370.778 149.946 371.005 150.709 371.048 151.494V153.781L366.809 156.234Z" fill="#37474F"/>
<path d="M345.564 163.573L370.39 149.291C370.795 149.964 371.021 150.73 371.048 151.515V400.895C371.075 401.666 370.891 402.43 370.517 403.105C370.143 403.78 369.592 404.34 368.923 404.725C368.254 405.11 367.494 405.306 366.722 405.292C365.951 405.277 365.198 405.053 364.544 404.643L345.564 393.733V163.573Z" fill="#263238"/>
<path opacity="0.4" d="M345.564 163.573L370.39 149.291C370.795 149.964 371.021 150.73 371.048 151.515V400.895C371.075 401.666 370.891 402.43 370.517 403.105C370.143 403.78 369.592 404.34 368.923 404.725C368.254 405.11 367.494 405.306 366.722 405.292C365.951 405.277 365.198 405.053 364.544 404.643L345.564 393.733V163.573Z" fill="#263238"/>
<path d="M364.544 404.664L207.944 314.233C207.285 313.805 206.736 313.227 206.342 312.547C205.948 311.867 205.721 311.103 205.678 310.318V60.9064C205.678 59.4657 206.722 58.881 207.944 59.6014L364.544 150.033C365.203 150.461 365.752 151.038 366.146 151.719C366.539 152.399 366.767 153.163 366.809 153.948V403.359C366.809 404.8 365.797 405.385 364.544 404.664Z" fill="#455A64"/>
<path opacity="0.1" d="M364.544 404.664L207.944 314.233C207.285 313.805 206.736 313.227 206.342 312.547C205.948 311.867 205.721 311.103 205.678 310.318V60.9064C205.678 59.4657 206.722 58.881 207.944 59.6014L364.544 150.033C365.203 150.461 365.752 151.038 366.146 151.719C366.539 152.399 366.767 153.163 366.809 153.948V403.359C366.809 404.8 365.797 405.385 364.544 404.664Z" fill="#455A64"/>
<path d="M353.801 211.556L316.217 189.84C313.722 188.4 311.696 189.423 311.696 192.127C311.808 193.645 312.275 195.116 313.061 196.42C313.846 197.724 314.927 198.824 316.217 199.633L353.801 221.348C356.307 222.789 358.322 221.766 358.322 219.062C358.212 217.543 357.746 216.072 356.961 214.767C356.175 213.463 355.092 212.362 353.801 211.556V211.556Z" fill="#BA68C8"/>
<path d="M353.801 226.966L328.922 212.6C326.427 211.159 324.402 212.183 324.402 214.887C324.514 216.405 324.981 217.875 325.766 219.179C326.552 220.483 327.633 221.584 328.922 222.393L353.801 236.758C356.307 238.199 358.322 237.176 358.322 234.472C358.212 232.953 357.746 231.482 356.961 230.177C356.175 228.873 355.092 227.772 353.801 226.966Z" fill="#BA68C8"/>
<path d="M356.515 253.337L351.65 250.528C350.606 249.954 349.844 250.424 349.844 251.572V257.189C349.878 257.816 350.059 258.427 350.373 258.971C350.687 259.515 351.124 259.977 351.65 260.321L356.515 263.088C357.559 263.672 358.322 263.202 358.322 262.044V256.427C358.28 255.807 358.096 255.205 357.783 254.669C357.469 254.133 357.035 253.677 356.515 253.337Z" fill="#BA68C8"/>
<path opacity="0.2" d="M356.515 253.337L351.65 250.528C350.606 249.954 349.844 250.424 349.844 251.572V257.189C349.878 257.816 350.059 258.427 350.373 258.971C350.687 259.515 351.124 259.977 351.65 260.321L356.515 263.088C357.559 263.672 358.322 263.202 358.322 262.044V256.427C358.28 255.807 358.096 255.205 357.783 254.669C357.469 254.133 357.035 253.677 356.515 253.337Z" fill="black"/>
<path d="M356.515 272.933L351.65 270.125C350.606 269.54 349.844 270.01 349.844 271.169V276.785C349.881 277.412 350.063 278.021 350.376 278.565C350.69 279.109 351.126 279.572 351.65 279.917L356.515 282.726C357.559 283.3 358.322 282.83 358.322 281.682V276.065C358.289 275.437 358.109 274.826 357.795 274.282C357.481 273.737 357.042 273.275 356.515 272.933Z" fill="#BA68C8"/>
<g opacity="0.2">
<path d="M356.515 272.933L351.65 270.125C350.606 269.54 349.844 270.01 349.844 271.169V276.785C349.881 277.412 350.063 278.021 350.376 278.565C350.69 279.109 351.126 279.572 351.65 279.917L356.515 282.726C357.559 283.3 358.322 282.83 358.322 281.682V276.065C358.289 275.437 358.109 274.826 357.795 274.282C357.481 273.737 357.042 273.275 356.515 272.933Z" fill="black"/>
</g>
<path d="M343.34 267.775L313.941 250.789C312.688 250.069 311.676 250.58 311.676 251.938C311.732 252.696 311.967 253.431 312.361 254.082C312.754 254.733 313.296 255.283 313.941 255.686L343.34 272.671C344.593 273.392 345.606 272.88 345.606 271.523C345.549 270.764 345.314 270.03 344.921 269.378C344.527 268.727 343.986 268.178 343.34 267.775Z" fill="#BA68C8"/>
<path opacity="0.2" d="M343.34 267.775L313.941 250.789C312.688 250.069 311.676 250.58 311.676 251.938C311.732 252.696 311.967 253.431 312.361 254.082C312.754 254.733 313.296 255.283 313.941 255.686L343.34 272.671C344.593 273.392 345.606 272.88 345.606 271.523C345.549 270.764 345.314 270.03 344.921 269.378C344.527 268.727 343.986 268.178 343.34 267.775Z" fill="black"/>
<path d="M356.515 292.517L351.65 289.709C350.606 289.124 349.844 289.594 349.844 290.753V296.369C349.88 296.996 350.062 297.606 350.375 298.15C350.689 298.694 351.126 299.157 351.65 299.501L356.515 302.31C357.559 302.884 358.322 302.414 358.322 301.266V295.649C358.289 295.021 358.109 294.41 357.795 293.866C357.481 293.321 357.042 292.859 356.515 292.517V292.517Z" fill="#E0E0E0"/>
<path d="M343.34 287.36L313.941 270.395C312.688 269.674 311.676 270.186 311.676 271.543C311.731 272.302 311.965 273.038 312.359 273.689C312.752 274.34 313.295 274.889 313.941 275.291L343.34 292.277C344.593 292.997 345.606 292.486 345.606 291.128C345.552 290.366 345.319 289.627 344.925 288.972C344.532 288.317 343.988 287.765 343.34 287.36V287.36Z" fill="#F0F0F0"/>
<path d="M356.515 312.156L351.65 309.347C350.606 308.763 349.844 309.232 349.844 310.391V316.008C349.88 316.635 350.062 317.245 350.375 317.789C350.689 318.332 351.126 318.795 351.65 319.14L356.515 321.948C357.559 322.523 358.322 322.053 358.322 320.904V315.288C358.289 314.66 358.109 314.049 357.795 313.505C357.481 312.96 357.042 312.498 356.515 312.156V312.156Z" fill="#E0E0E0"/>
<path d="M343.34 306.998L313.941 290.023C312.688 289.292 311.676 289.814 311.676 291.161C311.731 291.921 311.965 292.658 312.358 293.311C312.752 293.964 313.294 294.515 313.941 294.919L343.34 311.894C344.593 312.615 345.606 312.103 345.606 310.746C345.549 309.987 345.314 309.253 344.921 308.601C344.527 307.95 343.986 307.401 343.34 306.998Z" fill="#F0F0F0"/>
<path d="M356.515 331.742L351.65 328.933C350.606 328.349 349.844 328.818 349.844 329.977V335.594C349.88 336.221 350.062 336.831 350.375 337.374C350.689 337.918 351.126 338.381 351.65 338.726L356.515 341.534C357.559 342.108 358.322 341.639 358.322 340.49V334.874C358.289 334.246 358.109 333.635 357.795 333.09C357.481 332.546 357.042 332.084 356.515 331.742Z" fill="#E0E0E0"/>
<path d="M343.34 326.584L313.941 309.609C312.688 308.878 311.676 309.4 311.676 310.747C311.731 311.507 311.965 312.244 312.358 312.897C312.752 313.55 313.294 314.101 313.941 314.505L343.34 331.48C344.593 332.201 345.606 331.689 345.606 330.332C345.549 329.573 345.314 328.839 344.921 328.187C344.527 327.536 343.986 326.987 343.34 326.584V326.584Z" fill="#F0F0F0"/>
<path d="M356.066 351.013L335.186 338.934C333.934 338.213 332.921 338.725 332.921 340.082C332.978 340.841 333.212 341.576 333.606 342.227C334 342.878 334.541 343.427 335.186 343.83L356.066 355.909C357.309 356.63 358.322 356.118 358.322 354.771C358.267 354.012 358.034 353.276 357.642 352.623C357.251 351.97 356.711 351.419 356.066 351.013V351.013Z" fill="#BA68C8"/>
<path d="M356.066 360.805L313.941 336.491C312.688 335.77 311.676 336.282 311.676 337.629C311.731 338.389 311.965 339.126 312.358 339.779C312.752 340.432 313.294 340.983 313.941 341.387L356.066 365.702C357.309 366.422 358.322 365.911 358.322 364.564C358.267 363.804 358.034 363.069 357.642 362.416C357.251 361.763 356.711 361.211 356.066 360.805V360.805Z" fill="#BA68C8"/>
<path opacity="0.8" d="M356.066 360.805L313.941 336.491C312.688 335.77 311.676 336.282 311.676 337.629C311.731 338.389 311.965 339.126 312.358 339.779C312.752 340.432 313.294 340.983 313.941 341.387L356.066 365.702C357.309 366.422 358.322 365.911 358.322 364.564C358.267 363.804 358.034 363.069 357.642 362.416C357.251 361.763 356.711 361.211 356.066 360.805V360.805Z" fill="white"/>
<path d="M356.066 360.806L326.657 343.83C325.415 343.11 324.402 343.621 324.402 344.979C324.458 345.736 324.692 346.47 325.083 347.121C325.475 347.772 326.014 348.322 326.657 348.727L356.066 365.702C357.309 366.422 358.322 365.911 358.322 364.564C358.267 363.805 358.034 363.069 357.642 362.416C357.251 361.763 356.711 361.211 356.066 360.806V360.806Z" fill="#BA68C8"/>
<path d="M356.066 370.618L335.186 358.539C333.934 357.819 332.921 358.33 332.921 359.688C332.978 360.446 333.212 361.181 333.606 361.832C334 362.483 334.541 363.033 335.186 363.436L356.066 375.515C357.309 376.235 358.322 375.723 358.322 374.377C358.267 373.617 358.034 372.881 357.642 372.229C357.251 371.576 356.711 371.024 356.066 370.618V370.618Z" fill="#BA68C8"/>
<path d="M343.34 248.179L313.941 231.203C312.688 230.483 311.676 230.994 311.676 232.352C311.732 233.11 311.967 233.845 312.361 234.496C312.754 235.147 313.296 235.697 313.941 236.1L343.34 253.075C344.593 253.795 345.606 253.284 345.606 251.937C345.551 251.177 345.317 250.44 344.923 249.787C344.529 249.134 343.987 248.583 343.34 248.179V248.179Z" fill="#BA68C8"/>
<path opacity="0.2" d="M343.34 248.179L313.941 231.203C312.688 230.483 311.676 230.994 311.676 232.352C311.732 233.11 311.967 233.845 312.361 234.496C312.754 235.147 313.296 235.697 313.941 236.1L343.34 253.075C344.593 253.795 345.606 253.284 345.606 251.937C345.551 251.177 345.317 250.44 344.923 249.787C344.529 249.134 343.987 248.583 343.34 248.179V248.179Z" fill="black"/>
<path d="M356.066 370.618L335.186 358.539C333.934 357.819 332.921 358.33 332.921 359.688C332.978 360.446 333.212 361.181 333.606 361.832C334 362.483 334.541 363.033 335.186 363.436L356.066 375.515C357.309 376.235 358.322 375.723 358.322 374.377C358.267 373.617 358.034 372.881 357.642 372.229C357.251 371.576 356.711 371.024 356.066 370.618V370.618Z" fill="#BA68C8"/>
<path d="M356.066 380.38L313.941 356.065C312.688 355.345 311.676 355.856 311.676 357.203C311.731 357.963 311.965 358.7 312.358 359.353C312.752 360.006 313.294 360.557 313.941 360.961L356.066 385.234C357.309 385.965 358.322 385.443 358.322 384.096C358.26 383.344 358.025 382.617 357.633 381.971C357.242 381.326 356.705 380.781 356.066 380.38V380.38Z" fill="#BA68C8"/>
<path opacity="0.8" d="M356.066 380.38L313.941 356.065C312.688 355.345 311.676 355.856 311.676 357.203C311.731 357.963 311.965 358.7 312.358 359.353C312.752 360.006 313.294 360.557 313.941 360.961L356.066 385.234C357.309 385.965 358.322 385.443 358.322 384.096C358.26 383.344 358.025 382.617 357.633 381.971C357.242 381.326 356.705 380.781 356.066 380.38V380.38Z" fill="white"/>
<path d="M356.066 380.381L318.18 358.457C316.927 357.737 315.914 358.248 315.914 359.606C315.971 360.364 316.206 361.099 316.599 361.75C316.993 362.401 317.534 362.951 318.18 363.354L356.066 385.278C357.309 386.008 358.322 385.486 358.322 384.14C358.267 383.38 358.034 382.644 357.642 381.991C357.251 381.338 356.711 380.787 356.066 380.381V380.381Z" fill="#BA68C8"/>
<path d="M207.923 59.6018L303.198 114.61V369.242L207.923 314.244C207.264 313.816 206.715 313.238 206.321 312.558C205.928 311.877 205.7 311.114 205.658 310.329V60.9068C205.668 59.5078 206.712 58.8814 207.923 59.6018Z" fill="#EBEBEB"/>
<path opacity="0.6" d="M207.923 59.6018L303.198 114.61V369.242L207.923 314.244C207.264 313.816 206.715 313.238 206.321 312.558C205.928 311.877 205.7 311.114 205.658 310.329V60.9068C205.668 59.5078 206.712 58.8814 207.923 59.6018Z" fill="white"/>
<path d="M303.199 124.401V143.987L311.676 153.78H303.199V173.365L214.145 121.948V72.9844L303.199 124.401Z" fill="#BA68C8"/>
<g opacity="0.6">
<path d="M291.547 125.081L255.467 104.201C253.723 103.157 252.335 104.013 252.335 106.028C252.392 107.123 252.706 108.189 253.25 109.141C253.793 110.092 254.553 110.904 255.467 111.509L291.547 132.337C293.301 133.381 294.679 132.525 294.679 130.51C294.616 129.423 294.3 128.367 293.757 127.424C293.213 126.482 292.456 125.679 291.547 125.081V125.081Z" fill="white"/>
</g>
<path d="M293.583 140.939L223.75 100.62C223.124 100.265 222.622 100.515 222.622 101.194C222.649 101.574 222.766 101.942 222.962 102.268C223.157 102.595 223.428 102.871 223.75 103.073L293.583 143.34C294.21 143.695 294.711 143.445 294.711 142.766C294.676 142.395 294.556 142.038 294.36 141.721C294.165 141.404 293.899 141.136 293.583 140.939V140.939Z" fill="#BA68C8"/>
<path d="M293.583 140.939L223.75 100.62C223.124 100.265 222.622 100.515 222.622 101.194C222.649 101.574 222.766 101.942 222.962 102.268C223.157 102.595 223.428 102.871 223.75 103.073L293.583 143.34C294.21 143.695 294.711 143.445 294.711 142.766C294.676 142.395 294.556 142.038 294.36 141.721C294.165 141.404 293.899 141.136 293.583 140.939V140.939Z" fill="#BA68C8"/>
<path opacity="0.6" d="M293.583 140.939L223.75 100.62C223.124 100.265 222.622 100.515 222.622 101.194C222.649 101.574 222.766 101.942 222.962 102.268C223.157 102.595 223.428 102.871 223.75 103.073L293.583 143.34C294.21 143.695 294.711 143.445 294.711 142.766C294.676 142.395 294.556 142.038 294.36 141.721C294.165 141.404 293.899 141.136 293.583 140.939V140.939Z" fill="white"/>
<path d="M293.583 148.246L223.75 107.927C223.124 107.562 222.622 107.823 222.622 108.501C222.649 108.88 222.766 109.246 222.962 109.571C223.158 109.896 223.428 110.17 223.75 110.37L293.583 150.689C294.21 151.055 294.711 150.794 294.711 150.115C294.684 149.737 294.568 149.37 294.372 149.045C294.176 148.721 293.905 148.447 293.583 148.246Z" fill="#BA68C8"/>
<path opacity="0.6" d="M293.583 148.246L223.75 107.927C223.124 107.562 222.622 107.823 222.622 108.501C222.649 108.88 222.766 109.246 222.962 109.571C223.158 109.896 223.428 110.17 223.75 110.37L293.583 150.689C294.21 151.055 294.711 150.794 294.711 150.115C294.684 149.737 294.568 149.37 294.372 149.045C294.176 148.721 293.905 148.447 293.583 148.246Z" fill="white"/>
<path opacity="0.6" d="M293.583 155.554L223.75 115.235C223.124 114.88 222.622 115.131 222.622 115.809C222.649 116.189 222.766 116.557 222.962 116.884C223.157 117.21 223.428 117.486 223.75 117.688L293.583 158.008C294.21 158.363 294.711 158.112 294.711 157.434C294.684 157.054 294.568 156.686 294.372 156.359C294.176 156.033 293.906 155.757 293.583 155.554V155.554Z" fill="white"/>
<path d="M290.952 176.121L286.056 173.302C285.012 172.718 284.25 173.187 284.25 174.346V179.963C284.284 180.59 284.466 181.2 284.78 181.744C285.093 182.288 285.531 182.751 286.056 183.095L290.921 185.903C291.965 186.478 292.727 186.008 292.727 184.859V179.253C292.698 178.628 292.523 178.019 292.214 177.475C291.906 176.931 291.474 176.467 290.952 176.121V176.121Z" fill="#BA68C8"/>
<path opacity="0.2" d="M290.952 176.121L286.056 173.302C285.012 172.718 284.25 173.187 284.25 174.346V179.963C284.284 180.59 284.466 181.2 284.78 181.744C285.093 182.288 285.531 182.751 286.056 183.095L290.921 185.903C291.965 186.478 292.727 186.008 292.727 184.859V179.253C292.698 178.628 292.523 178.019 292.214 177.475C291.906 176.931 291.474 176.467 290.952 176.121V176.121Z" fill="white"/>
<path d="M277.777 170.965L248.378 153.979C247.125 153.258 246.112 153.77 246.112 155.127C246.169 155.886 246.404 156.621 246.797 157.272C247.191 157.923 247.733 158.472 248.378 158.875L277.777 175.861C279.03 176.581 280.042 176.07 280.042 174.712C279.986 173.954 279.751 173.219 279.357 172.568C278.964 171.917 278.422 171.367 277.777 170.965V170.965Z" fill="#BA68C8"/>
<path opacity="0.8" d="M277.777 170.965L248.378 153.979C247.125 153.258 246.112 153.77 246.112 155.127C246.169 155.886 246.404 156.621 246.797 157.272C247.191 157.923 247.733 158.472 248.378 158.875L277.777 175.861C279.03 176.581 280.042 176.07 280.042 174.712C279.986 173.954 279.751 173.219 279.357 172.568C278.964 171.917 278.422 171.367 277.777 170.965V170.965Z" fill="white"/>
<path d="M291.631 193.661L217.507 150.857C216.88 150.492 216.379 150.753 216.379 151.421C216.405 151.801 216.521 152.169 216.717 152.496C216.913 152.823 217.184 153.098 217.507 153.3L291.631 196.104C292.257 196.47 292.758 196.209 292.758 195.53C292.731 195.152 292.615 194.785 292.419 194.46C292.223 194.135 291.953 193.861 291.631 193.661Z" fill="#BA68C8"/>
<path d="M291.631 201L217.507 158.196C216.88 157.841 216.379 158.092 216.379 158.77C216.406 159.15 216.522 159.518 216.718 159.845C216.914 160.171 217.184 160.447 217.507 160.649L291.631 203.453C292.257 203.808 292.758 203.558 292.758 202.879C292.731 202.499 292.615 202.131 292.419 201.805C292.223 201.478 291.953 201.203 291.631 201Z" fill="#BA68C8"/>
<path d="M291.631 208.351L217.507 165.547C216.88 165.181 216.379 165.442 216.379 166.11C216.405 166.49 216.521 166.859 216.717 167.185C216.913 167.512 217.184 167.788 217.507 167.99L291.631 210.794C292.257 211.159 292.758 210.898 292.758 210.23C292.732 209.85 292.616 209.481 292.42 209.155C292.224 208.828 291.954 208.553 291.631 208.351Z" fill="#BA68C8"/>
<path d="M291.631 215.711L217.507 172.907C216.88 172.552 216.379 172.803 216.379 173.481C216.406 173.861 216.522 174.229 216.718 174.556C216.914 174.882 217.184 175.158 217.507 175.36L291.631 218.164C292.257 218.519 292.758 218.269 292.758 217.59C292.731 217.21 292.615 216.842 292.419 216.516C292.223 216.189 291.953 215.913 291.631 215.711Z" fill="#BA68C8"/>
<path d="M291.631 193.661L217.507 150.857C216.88 150.492 216.379 150.753 216.379 151.421C216.405 151.801 216.521 152.169 216.717 152.496C216.913 152.823 217.184 153.098 217.507 153.3L291.631 196.104C292.257 196.47 292.758 196.209 292.758 195.53C292.731 195.152 292.615 194.785 292.419 194.46C292.223 194.135 291.953 193.861 291.631 193.661Z" fill="#E0E0E0"/>
<path d="M291.631 201L217.507 158.196C216.88 157.841 216.379 158.092 216.379 158.77C216.406 159.15 216.522 159.518 216.718 159.845C216.914 160.171 217.184 160.447 217.507 160.649L291.631 203.453C292.257 203.808 292.758 203.558 292.758 202.879C292.731 202.499 292.615 202.131 292.419 201.805C292.223 201.478 291.953 201.203 291.631 201Z" fill="#E0E0E0"/>
<path d="M291.631 208.351L217.507 165.547C216.88 165.181 216.379 165.442 216.379 166.11C216.405 166.49 216.521 166.859 216.717 167.185C216.913 167.512 217.184 167.788 217.507 167.99L291.631 210.794C292.257 211.159 292.758 210.898 292.758 210.23C292.732 209.85 292.616 209.481 292.42 209.155C292.224 208.828 291.954 208.553 291.631 208.351Z" fill="#E0E0E0"/>
<path d="M291.631 215.711L217.507 172.907C216.88 172.552 216.379 172.803 216.379 173.481C216.406 173.861 216.522 174.229 216.718 174.556C216.914 174.882 217.184 175.158 217.507 175.36L291.631 218.164C292.257 218.519 292.758 218.269 292.758 217.59C292.731 217.21 292.615 216.842 292.419 216.516C292.223 216.189 291.953 215.913 291.631 215.711Z" fill="#E0E0E0"/>
<path opacity="0.8" d="M291.631 193.661L217.507 150.857C216.88 150.492 216.379 150.753 216.379 151.421C216.405 151.801 216.521 152.169 216.717 152.496C216.913 152.823 217.184 153.098 217.507 153.3L291.631 196.104C292.257 196.47 292.758 196.209 292.758 195.53C292.731 195.152 292.615 194.785 292.419 194.46C292.223 194.135 291.953 193.861 291.631 193.661Z" fill="#E0E0E0"/>
<path opacity="0.8" d="M291.631 201L217.507 158.196C216.88 157.841 216.379 158.092 216.379 158.77C216.406 159.15 216.522 159.518 216.718 159.845C216.914 160.171 217.184 160.447 217.507 160.649L291.631 203.453C292.257 203.808 292.758 203.558 292.758 202.879C292.731 202.499 292.615 202.131 292.419 201.805C292.223 201.478 291.953 201.203 291.631 201Z" fill="#E0E0E0"/>
<path opacity="0.8" d="M291.631 208.351L217.507 165.547C216.88 165.181 216.379 165.442 216.379 166.11C216.405 166.49 216.521 166.859 216.717 167.185C216.913 167.512 217.184 167.788 217.507 167.99L291.631 210.794C292.257 211.159 292.758 210.898 292.758 210.23C292.732 209.85 292.616 209.481 292.42 209.155C292.224 208.828 291.954 208.553 291.631 208.351Z" fill="#E0E0E0"/>
<path opacity="0.8" d="M291.631 215.711L217.507 172.907C216.88 172.552 216.379 172.803 216.379 173.481C216.406 173.861 216.522 174.229 216.718 174.556C216.914 174.882 217.184 175.158 217.507 175.36L291.631 218.164C292.257 218.519 292.758 218.269 292.758 217.59C292.731 217.21 292.615 216.842 292.419 216.516C292.223 216.189 291.953 215.913 291.631 215.711Z" fill="#E0E0E0"/>
<path d="M291.631 246.905L217.507 204.101C216.88 203.736 216.379 203.997 216.379 204.665C216.405 205.045 216.521 205.414 216.717 205.74C216.913 206.067 217.184 206.342 217.507 206.544L291.631 249.348C292.257 249.714 292.758 249.453 292.758 248.774C292.731 248.396 292.615 248.029 292.419 247.704C292.223 247.379 291.953 247.106 291.631 246.905Z" fill="#E0E0E0"/>
<path d="M291.631 254.244L217.507 211.44C216.88 211.085 216.379 211.336 216.379 212.014C216.406 212.394 216.522 212.762 216.718 213.089C216.914 213.415 217.184 213.691 217.507 213.894L291.631 256.698C292.257 257.053 292.758 256.802 292.758 256.123C292.731 255.744 292.615 255.375 292.419 255.049C292.223 254.722 291.953 254.447 291.631 254.244V254.244Z" fill="#E0E0E0"/>
<path d="M291.631 261.595L217.507 218.791C216.88 218.425 216.379 218.686 216.379 219.355C216.405 219.735 216.521 220.103 216.717 220.43C216.913 220.756 217.184 221.032 217.507 221.234L291.631 264.038C292.257 264.403 292.758 264.142 292.758 263.474C292.732 263.094 292.616 262.726 292.42 262.399C292.224 262.072 291.954 261.797 291.631 261.595V261.595Z" fill="#E0E0E0"/>
<path d="M291.631 268.955L217.507 226.151C216.88 225.796 216.379 226.047 216.379 226.725C216.406 227.105 216.522 227.473 216.718 227.8C216.914 228.126 217.184 228.402 217.507 228.604L291.631 271.408C292.257 271.763 292.758 271.513 292.758 270.834C292.731 270.454 292.615 270.086 292.419 269.76C292.223 269.433 291.953 269.158 291.631 268.955V268.955Z" fill="#E0E0E0"/>
<path opacity="0.8" d="M291.631 246.905L217.507 204.101C216.88 203.736 216.379 203.997 216.379 204.665C216.405 205.045 216.521 205.414 216.717 205.74C216.913 206.067 217.184 206.342 217.507 206.544L291.631 249.348C292.257 249.714 292.758 249.453 292.758 248.774C292.731 248.396 292.615 248.029 292.419 247.704C292.223 247.379 291.953 247.106 291.631 246.905Z" fill="#E0E0E0"/>
<path opacity="0.8" d="M291.631 254.244L217.507 211.44C216.88 211.085 216.379 211.336 216.379 212.014C216.406 212.394 216.522 212.762 216.718 213.089C216.914 213.415 217.184 213.691 217.507 213.894L291.631 256.698C292.257 257.053 292.758 256.802 292.758 256.123C292.731 255.744 292.615 255.375 292.419 255.049C292.223 254.722 291.953 254.447 291.631 254.244V254.244Z" fill="#E0E0E0"/>
<path opacity="0.8" d="M291.631 261.595L217.507 218.791C216.88 218.425 216.379 218.686 216.379 219.355C216.405 219.735 216.521 220.103 216.717 220.43C216.913 220.756 217.184 221.032 217.507 221.234L291.631 264.038C292.257 264.403 292.758 264.142 292.758 263.474C292.732 263.094 292.616 262.726 292.42 262.399C292.224 262.072 291.954 261.797 291.631 261.595V261.595Z" fill="#E0E0E0"/>
<path opacity="0.8" d="M291.631 268.955L217.507 226.151C216.88 225.796 216.379 226.047 216.379 226.725C216.406 227.105 216.522 227.473 216.718 227.8C216.914 228.126 217.184 228.402 217.507 228.604L291.631 271.408C292.257 271.763 292.758 271.513 292.758 270.834C292.731 270.454 292.615 270.086 292.419 269.76C292.223 269.433 291.953 269.158 291.631 268.955V268.955Z" fill="#E0E0E0"/>
<path d="M291.631 301.192L217.507 258.388C216.88 258.023 216.379 258.284 216.379 258.952C216.405 259.332 216.521 259.701 216.717 260.027C216.913 260.354 217.184 260.629 217.507 260.831L291.631 303.635C292.257 304.001 292.758 303.74 292.758 303.061C292.731 302.683 292.615 302.316 292.419 301.991C292.223 301.666 291.953 301.393 291.631 301.192V301.192Z" fill="#E0E0E0"/>
<path d="M291.631 308.533L217.507 265.729C216.88 265.374 216.379 265.625 216.379 266.303C216.406 266.683 216.522 267.051 216.718 267.378C216.914 267.704 217.184 267.98 217.507 268.183L291.631 310.987C292.257 311.342 292.758 311.091 292.758 310.412C292.731 310.033 292.615 309.664 292.419 309.338C292.223 309.011 291.953 308.736 291.631 308.533V308.533Z" fill="#E0E0E0"/>
<path d="M291.631 315.882L217.507 273.078C216.88 272.712 216.379 272.973 216.379 273.642C216.405 274.022 216.521 274.39 216.717 274.717C216.913 275.043 217.184 275.319 217.507 275.521L291.631 318.325C292.257 318.69 292.758 318.429 292.758 317.761C292.732 317.381 292.616 317.013 292.42 316.686C292.224 316.359 291.954 316.084 291.631 315.882Z" fill="#E0E0E0"/>
<path d="M291.631 323.242L217.507 280.438C216.88 280.083 216.379 280.334 216.379 281.012C216.406 281.392 216.522 281.76 216.718 282.087C216.914 282.413 217.184 282.689 217.507 282.892L291.631 325.696C292.257 326.051 292.758 325.8 292.758 325.121C292.731 324.742 292.615 324.373 292.419 324.047C292.223 323.72 291.953 323.445 291.631 323.242V323.242Z" fill="#E0E0E0"/>
<path opacity="0.8" d="M291.631 301.192L217.507 258.388C216.88 258.023 216.379 258.284 216.379 258.952C216.405 259.332 216.521 259.701 216.717 260.027C216.913 260.354 217.184 260.629 217.507 260.831L291.631 303.635C292.257 304.001 292.758 303.74 292.758 303.061C292.731 302.683 292.615 302.316 292.419 301.991C292.223 301.666 291.953 301.393 291.631 301.192V301.192Z" fill="#E0E0E0"/>
<path opacity="0.8" d="M291.631 308.533L217.507 265.729C216.88 265.374 216.379 265.625 216.379 266.303C216.406 266.683 216.522 267.051 216.718 267.378C216.914 267.704 217.184 267.98 217.507 268.183L291.631 310.987C292.257 311.342 292.758 311.091 292.758 310.412C292.731 310.033 292.615 309.664 292.419 309.338C292.223 309.011 291.953 308.736 291.631 308.533V308.533Z" fill="#E0E0E0"/>
<path opacity="0.8" d="M291.631 315.882L217.507 273.078C216.88 272.712 216.379 272.973 216.379 273.642C216.405 274.022 216.521 274.39 216.717 274.717C216.913 275.043 217.184 275.319 217.507 275.521L291.631 318.325C292.257 318.69 292.758 318.429 292.758 317.761C292.732 317.381 292.616 317.013 292.42 316.686C292.224 316.359 291.954 316.084 291.631 315.882Z" fill="#E0E0E0"/>
<path opacity="0.8" d="M291.631 323.242L217.507 280.438C216.88 280.083 216.379 280.334 216.379 281.012C216.406 281.392 216.522 281.76 216.718 282.087C216.914 282.413 217.184 282.689 217.507 282.892L291.631 325.696C292.257 326.051 292.758 325.8 292.758 325.121C292.731 324.742 292.615 324.373 292.419 324.047C292.223 323.72 291.953 323.445 291.631 323.242V323.242Z" fill="#E0E0E0"/>
<path d="M290.952 229.981L286.056 227.173C285.012 226.599 284.25 227.068 284.25 228.217V233.854C284.282 234.482 284.462 235.093 284.776 235.637C285.09 236.182 285.529 236.644 286.056 236.986L290.921 239.795C291.965 240.369 292.727 239.91 292.727 238.751V233.134C292.701 232.506 292.526 231.893 292.218 231.345C291.909 230.797 291.476 230.33 290.952 229.981V229.981Z" fill="#BA68C8"/>
<path opacity="0.2" d="M290.952 229.981L286.056 227.173C285.012 226.599 284.25 227.068 284.25 228.217V233.854C284.282 234.482 284.462 235.093 284.776 235.637C285.09 236.182 285.529 236.644 286.056 236.986L290.921 239.795C291.965 240.369 292.727 239.91 292.727 238.751V233.134C292.701 232.506 292.526 231.893 292.218 231.345C291.909 230.797 291.476 230.33 290.952 229.981V229.981Z" fill="white"/>
<path d="M277.777 224.825L248.378 207.85C247.125 207.13 246.112 207.641 246.112 208.988C246.168 209.749 246.402 210.485 246.795 211.138C247.189 211.792 247.731 212.342 248.378 212.746L277.777 229.68C279.03 230.4 280.042 229.889 280.042 228.542C279.981 227.789 279.744 227.06 279.351 226.415C278.957 225.77 278.418 225.225 277.777 224.825V224.825Z" fill="#BA68C8"/>
<path opacity="0.8" d="M277.777 224.825L248.378 207.85C247.125 207.13 246.112 207.641 246.112 208.988C246.168 209.749 246.402 210.485 246.795 211.138C247.189 211.792 247.731 212.342 248.378 212.746L277.777 229.68C279.03 230.4 280.042 229.889 280.042 228.542C279.981 227.789 279.744 227.06 279.351 226.415C278.957 225.77 278.418 225.225 277.777 224.825V224.825Z" fill="white"/>
<path d="M290.952 283.853L286.056 281.044C285.012 280.46 284.25 280.93 284.25 282.088V287.705C284.283 288.333 284.464 288.943 284.778 289.488C285.091 290.032 285.529 290.494 286.056 290.837L290.921 293.646C291.965 294.22 292.727 293.75 292.727 292.602V286.985C292.698 286.36 292.523 285.751 292.214 285.207C291.906 284.662 291.474 284.199 290.952 283.853V283.853Z" fill="#BA68C8"/>
<path opacity="0.2" d="M290.952 283.853L286.056 281.044C285.012 280.46 284.25 280.93 284.25 282.088V287.705C284.283 288.333 284.464 288.943 284.778 289.488C285.091 290.032 285.529 290.494 286.056 290.837L290.921 293.646C291.965 294.22 292.727 293.75 292.727 292.602V286.985C292.698 286.36 292.523 285.751 292.214 285.207C291.906 284.662 291.474 284.199 290.952 283.853V283.853Z" fill="white"/>
<path d="M277.777 278.748L248.378 261.762C247.125 261.041 246.112 261.553 246.112 262.91C246.168 263.671 246.403 264.407 246.796 265.06C247.19 265.713 247.732 266.264 248.378 266.669L277.777 283.644C279.03 284.364 280.042 283.853 280.042 282.496C279.986 281.737 279.751 281.002 279.357 280.351C278.964 279.7 278.422 279.151 277.777 278.748V278.748Z" fill="#BA68C8"/>
<path opacity="0.8" d="M277.777 278.748L248.378 261.762C247.125 261.041 246.112 261.553 246.112 262.91C246.168 263.671 246.403 264.407 246.796 265.06C247.19 265.713 247.732 266.264 248.378 266.669L277.777 283.644C279.03 284.364 280.042 283.853 280.042 282.496C279.986 281.737 279.751 281.002 279.357 280.351C278.964 279.7 278.422 279.151 277.777 278.748V278.748Z" fill="white"/>
<path d="M284.031 331.27L279.166 328.462C278.122 327.888 277.349 328.357 277.349 329.506V335.123C277.383 335.751 277.566 336.362 277.881 336.907C278.197 337.451 278.637 337.913 279.166 338.255L284.031 341.063C285.022 341.648 285.837 341.178 285.837 340.019V334.402C285.8 333.776 285.618 333.166 285.305 332.622C284.991 332.079 284.555 331.616 284.031 331.27V331.27Z" fill="#BA68C8"/>
<path d="M291.631 350.355L271.555 338.766C270.928 338.411 270.427 338.662 270.427 339.341C270.454 339.72 270.57 340.088 270.766 340.415C270.962 340.741 271.232 341.017 271.555 341.22L291.631 352.808C292.257 353.163 292.758 352.913 292.758 352.234C292.731 351.854 292.615 351.486 292.419 351.16C292.223 350.833 291.953 350.557 291.631 350.355V350.355Z" fill="#E0E0E0"/>
<path d="M257.022 315.673L252.157 312.864C251.165 312.29 250.351 312.76 250.351 313.908V319.525C250.385 320.152 250.566 320.763 250.88 321.307C251.194 321.851 251.631 322.313 252.157 322.657L257.022 325.465C258.066 326.039 258.839 325.58 258.839 324.421V318.805C258.804 318.176 258.621 317.565 258.305 317.021C257.99 316.477 257.55 316.015 257.022 315.673V315.673Z" fill="#BA68C8"/>
<path d="M264.633 334.758L244.557 323.169C243.93 322.804 243.429 323.065 243.429 323.744C243.456 324.122 243.573 324.489 243.769 324.813C243.964 325.138 244.235 325.412 244.557 325.612L264.633 337.211C265.259 337.577 265.76 337.316 265.76 336.647C265.736 336.266 265.621 335.895 265.425 335.567C265.229 335.238 264.957 334.961 264.633 334.758Z" fill="#E0E0E0"/>
<path d="M230.024 300.076L225.159 297.267C224.168 296.683 223.353 297.152 223.353 298.311V303.928C223.389 304.555 223.571 305.165 223.884 305.708C224.198 306.252 224.635 306.715 225.159 307.06L230.024 309.868C231.068 310.442 231.831 309.973 231.831 308.824V303.208C231.798 302.58 231.618 301.969 231.304 301.424C230.99 300.88 230.551 300.418 230.024 300.076V300.076Z" fill="#BA68C8"/>
<path opacity="0.2" d="M284.031 331.27L279.166 328.462C278.122 327.888 277.349 328.357 277.349 329.506V335.123C277.383 335.751 277.566 336.362 277.881 336.907C278.197 337.451 278.637 337.913 279.166 338.255L284.031 341.063C285.022 341.648 285.837 341.178 285.837 340.019V334.402C285.8 333.776 285.618 333.166 285.305 332.622C284.991 332.079 284.555 331.616 284.031 331.27V331.27Z" fill="white"/>
<path opacity="0.2" d="M257.022 315.673L252.157 312.864C251.165 312.29 250.351 312.76 250.351 313.908V319.525C250.385 320.152 250.566 320.763 250.88 321.307C251.194 321.851 251.631 322.313 252.157 322.657L257.022 325.465C258.066 326.039 258.839 325.58 258.839 324.421V318.805C258.804 318.176 258.621 317.565 258.305 317.021C257.99 316.477 257.55 316.015 257.022 315.673V315.673Z" fill="white"/>
<path opacity="0.2" d="M230.024 300.076L225.159 297.267C224.168 296.683 223.353 297.152 223.353 298.311V303.928C223.389 304.555 223.571 305.165 223.884 305.708C224.198 306.252 224.635 306.715 225.159 307.06L230.024 309.868C231.068 310.442 231.831 309.973 231.831 308.824V303.208C231.798 302.58 231.618 301.969 231.304 301.424C230.99 300.88 230.551 300.418 230.024 300.076V300.076Z" fill="white"/>
<path d="M237.635 319.16L217.559 307.572C216.933 307.207 216.432 307.468 216.432 308.136C216.458 308.516 216.574 308.884 216.769 309.211C216.965 309.537 217.236 309.813 217.559 310.015L237.635 321.603C238.251 321.969 238.763 321.708 238.763 321.029C238.733 320.651 238.616 320.286 238.42 319.961C238.225 319.637 237.956 319.363 237.635 319.16V319.16Z" fill="#E0E0E0"/>
<path d="M337.118 144.969C348.832 151.567 358.322 168.01 358.322 181.686C358.322 195.362 348.832 200.979 337.118 194.214C325.404 187.449 315.914 171.016 315.914 157.486C315.914 143.956 325.415 138.36 337.118 144.969Z" fill="#FAFAFA"/>
<path d="M326.845 187.115L343.82 191.667C344.113 191.762 344.424 191.783 344.727 191.727C345.029 191.672 345.313 191.542 345.552 191.349C345.792 191.156 345.979 190.907 346.098 190.623C346.217 190.339 346.263 190.031 346.232 189.725V160.827C346.172 158.435 345.373 156.12 343.945 154.2C342.517 152.281 340.529 150.85 338.256 150.105L332.451 148.549C328.035 147.37 324.454 150.251 324.454 154.98V183.889C324.473 184.607 324.713 185.302 325.14 185.879C325.568 186.456 326.163 186.888 326.845 187.115V187.115Z" fill="#37474F"/>
<path d="M326.031 194.589L327.816 186.707C327.816 186.707 327.816 176.069 329.33 175.087C330.843 174.106 331.282 173.918 331.282 173.918C329.34 173.25 325.248 172.749 323.974 176.486C322.753 180.015 320.926 188.712 320.059 192.992L326.031 194.589Z" fill="#F28F8F"/>
<path d="M326.177 194.632L332.232 174.013C329.549 172.969 326.104 172.102 324.433 174.869C322.93 177.353 320.529 190.372 320.059 192.993L326.177 194.632Z" fill="#BA68C8"/>
<g opacity="0.4">
<path d="M326.177 194.632L332.232 174.013C329.549 172.969 326.104 172.102 324.433 174.869C322.93 177.353 320.529 190.372 320.059 192.993L326.177 194.632Z" fill="black"/>
</g>
<path d="M325.362 194.412L331.313 196.009C331.074 194.3 330.51 192.653 329.653 191.155C328.462 189.438 326.748 188.153 324.767 187.49C325.196 189.772 325.396 192.091 325.362 194.412Z" fill="#BA68C8"/>
<path d="M325.362 194.412L331.313 196.009C331.074 194.3 330.51 192.653 329.653 191.155C328.462 189.438 326.748 188.153 324.767 187.49C325.196 189.772 325.396 192.091 325.362 194.412Z" fill="#BA68C8"/>
<g opacity="0.7">
<path d="M325.362 194.412L331.313 196.009C331.074 194.3 330.51 192.653 329.653 191.155C328.462 189.438 326.748 188.153 324.767 187.49C325.196 189.772 325.396 192.091 325.362 194.412Z" fill="black"/>
</g>
<path d="M326.636 194.758L343.34 199.215L345.178 193.526C345.178 193.526 340.302 182.115 346.326 179.181C345.564 178.607 339.143 176.101 339.143 176.101L332.242 174.013C330.927 173.658 325.613 176.018 324.266 181.248C323.786 183.096 323.953 184.756 326.657 194.382C326.626 194.507 326.636 194.632 326.636 194.758Z" fill="#BA68C8"/>
<path d="M328.014 152.1C326.866 152.517 325.446 155.232 325.582 161.777C325.697 167.332 327.367 169.085 328.202 169.754C329.453 170.38 330.833 170.705 332.232 170.704V174.013C332.232 174.013 330.061 176.101 330.196 177.688C330.332 179.275 333.328 180.402 335.354 179.463C336.833 178.629 338.112 177.481 339.102 176.101V168.48C339.254 168.656 339.44 168.799 339.649 168.902C339.857 169.006 340.084 169.066 340.316 169.081C340.549 169.095 340.781 169.064 341.001 168.987C341.221 168.911 341.423 168.792 341.597 168.637C341.923 168.413 342.201 168.127 342.414 167.795C342.628 167.462 342.772 167.09 342.839 166.701C342.906 166.311 342.895 165.913 342.805 165.528C342.715 165.143 342.549 164.78 342.317 164.461C341.273 163.093 339.446 162.895 338.736 164.262C337.852 162.117 336.271 160.333 334.247 159.199C330.948 157.194 329.152 155.409 328.014 152.1Z" fill="#FFA8A7"/>
<path d="M331.324 161.934C331.319 162.132 331.376 162.326 331.486 162.49C331.596 162.655 331.755 162.781 331.94 162.852C332.018 162.879 332.102 162.887 332.184 162.875C332.266 162.862 332.344 162.83 332.411 162.78C332.478 162.731 332.532 162.666 332.568 162.591C332.604 162.517 332.621 162.434 332.618 162.351C332.623 162.153 332.566 161.959 332.456 161.794C332.346 161.63 332.187 161.503 332.002 161.432C331.924 161.405 331.84 161.398 331.758 161.41C331.676 161.423 331.598 161.455 331.531 161.504C331.464 161.554 331.411 161.619 331.374 161.693C331.338 161.768 331.321 161.851 331.324 161.934V161.934Z" fill="#37474F"/>
<path d="M331.157 166.568L329.653 166.673C329.697 166.902 329.817 167.11 329.993 167.263C330.169 167.416 330.391 167.506 330.624 167.518C331.042 167.487 331.282 167.038 331.157 166.568Z" fill="#F28F8F"/>
<path d="M326.02 158.385L327.325 157.769C327.247 157.567 327.098 157.401 326.905 157.303C326.712 157.204 326.49 157.181 326.281 157.237C326.188 157.294 326.107 157.37 326.043 157.459C325.979 157.548 325.934 157.649 325.91 157.756C325.885 157.863 325.883 157.974 325.902 158.082C325.921 158.19 325.961 158.293 326.02 158.385V158.385Z" fill="#37474F"/>
<path d="M333.203 160.826L331.898 159.5C331.967 159.43 332.051 159.375 332.143 159.339C332.234 159.303 332.333 159.287 332.432 159.292C332.53 159.297 332.627 159.323 332.715 159.367C332.803 159.412 332.88 159.475 332.942 159.552C333.123 159.704 333.248 159.912 333.295 160.144C333.342 160.375 333.31 160.615 333.203 160.826V160.826Z" fill="#37474F"/>
<path d="M326.323 160.097C326.317 160.295 326.373 160.49 326.483 160.655C326.594 160.82 326.753 160.946 326.939 161.015C327.018 161.043 327.103 161.05 327.186 161.037C327.269 161.024 327.347 160.991 327.415 160.94C327.482 160.89 327.535 160.824 327.571 160.747C327.606 160.671 327.622 160.588 327.617 160.504C327.62 160.306 327.563 160.112 327.453 159.948C327.343 159.784 327.185 159.657 327.001 159.585C326.922 159.557 326.837 159.55 326.754 159.563C326.671 159.576 326.593 159.609 326.526 159.66C326.459 159.71 326.405 159.777 326.37 159.853C326.334 159.929 326.318 160.013 326.323 160.097Z" fill="#37474F"/>
<path d="M329.371 160.514L329.277 164.658L327.221 163.426L329.371 160.514Z" fill="#F28F8F"/>
<path d="M332.232 170.704C333.881 170.913 337.285 170.777 337.817 169.482C337.624 170.118 337.2 170.659 336.627 170.996C335.583 171.664 332.232 171.811 332.232 171.811V170.704Z" fill="#F28F8F"/>
<path d="M343.246 199.203L343.946 196.719L342.108 198.901L343.246 199.203Z" fill="#BA68C8"/>
<path d="M344.614 199.571C345.363 195.999 346.379 192.488 347.652 189.068C349.406 184.255 347.443 180.1 346.263 179.181C345.083 178.263 339.08 176.102 339.08 176.102C336.909 182.282 336.314 190.561 336.262 197.337L344.614 199.571Z" fill="#BA68C8"/>
<path opacity="0.4" d="M344.614 199.571C345.363 195.999 346.379 192.488 347.652 189.068C349.406 184.255 347.443 180.1 346.263 179.181C345.083 178.263 339.08 176.102 339.08 176.102C336.909 182.282 336.314 190.561 336.262 197.337L344.614 199.571Z" fill="black"/>
<path d="M347.579 200.362L353.54 201.96C353.707 201.848 353.864 201.722 354.01 201.584C354.01 201.584 351.191 190.705 350.293 187.093C349.395 183.481 348.706 180.996 346.284 179.18C341.931 182.009 343.946 189.87 343.946 189.87L347.579 200.362Z" fill="#BA68C8"/>
<path opacity="0.4" d="M347.579 200.362L353.54 201.96C353.707 201.848 353.864 201.722 354.01 201.584C354.01 201.584 351.191 190.705 350.293 187.093C349.395 183.481 348.706 180.996 346.284 179.18C341.931 182.009 343.946 189.87 343.946 189.87L347.579 200.362Z" fill="black"/>
<path d="M434.377 130.845V110.163C434.44 106.154 431.83 102.135 426.537 99.0863C416.097 93.0415 399.121 93.0415 388.66 99.0863C383.367 102.135 380.757 106.154 380.82 110.163V130.772C380.82 134.76 383.388 141.89 388.66 144.928C399.1 150.973 416.076 150.973 426.537 144.928C431.757 141.922 434.367 134.843 434.377 130.887V130.845Z" fill="#DADBDD"/>
<path d="M407.598 84.502L363.406 110.017L407.598 135.533L451.791 110.017L407.598 84.502Z" fill="white"/>
<path d="M429.71 122.764L407.943 110.34C407.853 110.289 407.754 110.256 407.652 110.243C407.549 110.23 407.445 110.237 407.345 110.264C407.245 110.291 407.151 110.338 407.07 110.401C406.988 110.464 406.919 110.543 406.868 110.633C406.816 110.723 406.783 110.822 406.77 110.924C406.757 111.027 406.764 111.131 406.791 111.231C406.818 111.331 406.865 111.424 406.928 111.506C406.991 111.588 407.07 111.657 407.16 111.708L428.155 123.662L429.71 122.764Z" fill="#E0E0E0"/>
<path d="M363.406 110.018V111.845L407.598 137.349V135.533L363.406 110.018Z" fill="#E6E6E6"/>
<path d="M451.791 110.018V111.845L407.598 137.349V135.533L451.791 110.018Z" fill="#F0F0F0"/>
<path d="M430.807 123.955L429.46 124.728C429.256 124.395 428.973 124.119 428.635 123.924L428.165 123.652L429.7 122.775C430.153 123.08 430.532 123.483 430.807 123.955V123.955Z" fill="#E0E0E0"/>
<path d="M380.768 121.867L407.598 140.085L434.356 121.909L407.598 137.35L380.768 121.867Z" fill="#E0E0E0"/>
<path d="M432.529 145.439C432.155 145.633 431.739 145.733 431.318 145.733C430.897 145.733 430.481 145.633 430.107 145.439L428.113 158.312C428.113 160.744 434.429 160.744 434.429 158.312L432.529 145.439Z" fill="white"/>
<path d="M432.644 152.789L433.041 159.846C433.171 159.807 433.297 159.755 433.417 159.69L432.644 152.789Z" fill="#EBEBEB"/>
<path d="M429.658 159.9L430.493 148.416L429.251 159.733C429.383 159.797 429.519 159.852 429.658 159.9V159.9Z" fill="#EBEBEB"/>
<path d="M431.078 160.13H431.475L431.266 151.016L431.078 160.13Z" fill="#EBEBEB"/>
<path d="M431.329 146.516C430.866 146.504 430.418 146.351 430.045 146.077C429.886 145.96 429.778 145.787 429.743 145.593C429.708 145.399 429.749 145.198 429.857 145.033C429.971 144.871 430.143 144.759 430.338 144.722C430.533 144.685 430.735 144.726 430.901 144.835C431 144.931 431.133 144.985 431.271 144.985C431.41 144.985 431.543 144.931 431.642 144.835C431.723 144.763 431.818 144.708 431.922 144.675C432.025 144.641 432.135 144.63 432.243 144.641C432.351 144.652 432.456 144.685 432.55 144.739C432.644 144.793 432.727 144.866 432.791 144.953C432.856 145.041 432.902 145.14 432.926 145.246C432.95 145.352 432.952 145.462 432.931 145.569C432.91 145.676 432.868 145.777 432.806 145.866C432.744 145.956 432.664 146.031 432.571 146.088C432.212 146.357 431.777 146.506 431.329 146.516V146.516Z" fill="#E0E0E0"/>
<path d="M431.276 144.51C431.174 144.512 431.073 144.493 430.978 144.455C430.883 144.416 430.796 144.36 430.723 144.288C430.651 144.216 430.593 144.13 430.553 144.036C430.514 143.941 430.493 143.84 430.493 143.738V125.489C430.492 125.078 430.384 124.676 430.179 124.32C429.974 123.965 429.679 123.669 429.324 123.463L407.16 110.831C406.984 110.73 406.855 110.564 406.8 110.369C406.745 110.174 406.77 109.965 406.868 109.787C406.917 109.699 406.983 109.621 407.062 109.559C407.141 109.496 407.232 109.45 407.329 109.423C407.426 109.396 407.527 109.388 407.627 109.4C407.727 109.413 407.824 109.445 407.912 109.495L430.128 122.148C430.72 122.49 431.212 122.981 431.555 123.573C431.897 124.165 432.079 124.836 432.08 125.52V143.769C432.076 143.871 432.052 143.97 432.01 144.063C431.967 144.155 431.907 144.238 431.832 144.306C431.757 144.375 431.67 144.429 431.575 144.464C431.479 144.499 431.378 144.515 431.276 144.51V144.51Z" fill="white"/>
<path d="M429.564 143.738C429.562 143.399 429.661 143.067 429.848 142.784C430.035 142.501 430.301 142.28 430.614 142.149C430.927 142.018 431.271 141.982 431.604 142.047C431.937 142.112 432.243 142.274 432.483 142.513C432.724 142.752 432.888 143.057 432.955 143.39C433.022 143.722 432.988 144.067 432.859 144.381C432.73 144.694 432.51 144.962 432.229 145.151C431.947 145.339 431.615 145.44 431.276 145.44C431.052 145.441 430.83 145.398 430.622 145.313C430.414 145.229 430.225 145.103 430.066 144.945C429.907 144.787 429.781 144.599 429.695 144.392C429.609 144.185 429.564 143.963 429.564 143.738V143.738Z" fill="#F5F5F5"/>
<path d="M432.968 143.832C432.896 144.009 432.788 144.168 432.649 144.299C432.511 144.43 432.346 144.529 432.166 144.591C431.986 144.652 431.794 144.674 431.605 144.655C431.415 144.636 431.232 144.576 431.068 144.479C430.858 144.353 430.684 144.175 430.564 143.962C430.444 143.749 430.38 143.508 430.38 143.263C430.38 143.018 430.444 142.778 430.564 142.565C430.684 142.352 430.858 142.173 431.068 142.047C430.748 142.091 430.448 142.225 430.202 142.433C429.955 142.641 429.773 142.915 429.677 143.222C429.58 143.53 429.573 143.859 429.656 144.17C429.739 144.482 429.908 144.763 430.145 144.982C430.382 145.201 430.676 145.348 430.993 145.406C431.31 145.465 431.637 145.432 431.936 145.311C432.235 145.19 432.494 144.987 432.682 144.726C432.87 144.464 432.98 144.154 432.999 143.832H432.968Z" fill="#EBEBEB"/>
<path d="M128.819 133.664L136.889 129.018L132.452 128.078L128.036 131.158L128.819 133.664Z" fill="#E0E0E0"/>
<path d="M142.945 92.0814C142.945 79.5534 150.618 73.7384 160.045 79.1776L173.972 87.2164C183.368 92.6556 191.062 107.313 191.062 119.883C191.062 120.395 191.062 120.927 191.062 121.376C191.062 121.658 191.062 121.898 191.062 122.17C191.062 122.441 191.01 122.66 190.989 122.9C190.969 123.14 190.927 123.454 190.885 123.725C190.675 125.209 190.304 126.665 189.778 128.068C189.559 128.59 189.329 129.112 189.079 129.551C188.963 129.793 188.831 130.026 188.682 130.25L188.546 130.469C188.314 130.843 188.045 131.193 187.743 131.513C187.576 131.701 187.419 131.9 187.241 132.077L186.699 132.599C186.511 132.745 186.333 132.923 186.135 133.069C185.947 133.22 185.748 133.356 185.54 133.476L184.924 133.831C184.126 134.262 183.261 134.555 182.366 134.698C182.297 134.681 182.226 134.681 182.157 134.698C181.917 134.698 181.698 134.75 181.458 134.75C181.204 134.771 180.949 134.771 180.696 134.75C180.024 134.757 179.355 134.683 178.702 134.53C178.311 134.453 177.924 134.355 177.543 134.238C176.323 133.864 175.152 133.346 174.056 132.693L160.129 124.654C159.174 124.1 158.26 123.479 157.393 122.796C157.393 122.629 157.393 122.483 157.393 122.326C157.393 122.17 157.393 121.835 157.393 121.648C157.393 121.23 157.393 120.802 157.393 120.374C157.425 109.694 150.994 97.0926 142.945 92.0814Z" fill="#E0E0E0"/>
<path d="M140.596 83.0508L148.687 78.3945C148.634 78.3945 147.862 84.0217 147.862 84.0217L141.859 84.7316L140.596 83.0508Z" fill="#E0E0E0"/>
<path d="M177.981 137.768L185.456 133.529L180.957 131.598L177.981 137.768Z" fill="#E0E0E0"/>
<path d="M173.972 132.818C174.025 135.912 175.02 138.916 176.822 141.431C177.156 141.87 176.645 142.256 176.269 142.058C174.563 141.172 173.051 139.955 171.822 138.477C169.46 135.686 167.809 132.366 167.009 128.799L173.972 132.818Z" fill="#E0E0E0"/>
<path d="M176.739 142.037L168.648 146.693C168.648 146.693 164.106 142.862 164.106 135.105L172.886 134.51C172.886 134.51 173.095 139.563 176.739 142.037Z" fill="#E0E0E0"/>
<path d="M155.191 119.214C155.191 119.604 155.191 119.98 155.191 120.342C155.191 120.55 155.191 120.728 155.191 120.926C155.191 121.125 155.191 121.292 155.128 121.48C155.065 121.668 155.128 121.897 155.055 122.106C154.934 123.031 154.717 123.941 154.408 124.82C154.363 124.981 154.307 125.138 154.241 125.29C154.164 125.5 154.077 125.706 153.98 125.906C153.898 126.1 153.804 126.288 153.698 126.47C153.615 126.652 153.517 126.826 153.405 126.992L153.301 127.159C153.117 127.447 152.915 127.722 152.696 127.984C152.582 128.136 152.456 128.279 152.32 128.412L151.923 128.798C151.788 128.925 151.645 129.044 151.495 129.153C151.352 129.264 151.202 129.365 151.046 129.456C150.889 129.55 150.743 129.644 150.576 129.727L150.096 129.957L149.595 130.134C149.289 130.227 148.979 130.304 148.666 130.364H148.509C148.335 130.38 148.161 130.38 147.987 130.364C147.8 130.385 147.611 130.385 147.423 130.364C146.974 130.364 146.527 130.318 146.087 130.228C145.735 130.169 145.386 130.088 145.043 129.988C144.127 129.707 143.247 129.318 142.423 128.829L131.983 122.795C131.051 122.258 130.174 121.632 129.362 120.926V120.926C129.07 120.676 128.777 120.404 128.485 120.133C127.959 119.643 127.46 119.123 126.992 118.577L126.324 117.972C126.147 117.763 125.98 117.544 125.802 117.324C125.759 117.249 125.706 117.178 125.645 117.116C124.95 116.197 124.309 115.238 123.725 114.245C123.568 113.984 123.422 113.712 123.265 113.441C123.109 113.169 122.962 112.898 122.816 112.616C122.67 112.334 122.534 112.052 122.388 111.781L121.991 110.925C121.856 110.643 121.73 110.34 121.605 110.069C121.386 109.568 121.188 109.025 121.01 108.544C121.01 108.45 120.937 108.357 120.906 108.263C120.791 107.97 120.697 107.678 120.603 107.386C120.415 106.822 120.248 106.258 120.081 105.673C119.714 104.301 119.438 102.906 119.256 101.497C119.256 101.257 119.204 101.028 119.173 100.788C119.141 100.547 119.173 100.38 119.12 100.172C119.068 99.9627 119.12 99.754 119.12 99.5452C119.12 99.1554 119.12 98.7691 119.12 98.3863C119.12 88.9903 124.873 84.5951 131.951 88.6771L142.391 94.7219C149.438 98.783 155.191 109.776 155.191 119.214Z" fill="#E0E0E0"/>
<path d="M115.352 92.6867L123.38 88.0723L126.407 90.2125L117.043 95.8814L115.352 92.6867Z" fill="#E0E0E0"/>
<path d="M142.913 134.102L150.983 129.456L144.657 127.566L142.913 134.102Z" fill="#E0E0E0"/>
<path d="M133.496 123.809C133.496 125.479 131.408 127.755 129.018 128.183C128.694 128.246 128.777 128.956 129.164 129.227C130.588 130.001 132.232 130.273 133.83 130C134.868 129.969 135.879 129.662 136.76 129.112C137.64 128.562 138.359 127.787 138.842 126.868L133.496 123.809Z" fill="#BA68C8"/>
<path d="M151.965 83.8236L165.902 91.8729C175.298 97.3121 182.982 111.97 182.982 124.529C182.982 125.051 182.982 125.573 182.982 126.033C182.982 126.314 182.982 126.555 182.982 126.826C182.982 127.097 182.93 127.306 182.898 127.546C182.867 127.786 182.836 128.121 182.794 128.382C182.606 129.86 182.255 131.312 181.75 132.714C181.531 133.247 181.301 133.758 181.051 134.207C180.935 134.446 180.803 134.676 180.654 134.896C180.61 134.972 180.561 135.046 180.508 135.115C180.281 135.51 180.015 135.881 179.714 136.222C179.547 136.41 179.38 136.619 179.203 136.786L178.67 137.308C178.482 137.454 178.294 137.631 178.106 137.778C177.917 137.926 177.718 138.062 177.511 138.185L176.885 138.54C176.09 138.969 175.229 139.262 174.338 139.406C174.27 139.383 174.197 139.383 174.129 139.406C173.889 139.406 173.659 139.406 173.429 139.406C173.176 139.422 172.921 139.422 172.667 139.406C171.996 139.409 171.327 139.336 170.673 139.187C170.282 139.109 169.895 139.012 169.514 138.895V138.895C168.297 138.518 167.127 138.003 166.027 137.36V137.36C166.079 140.452 167.077 143.455 168.888 145.963C169.222 146.411 168.71 146.798 168.324 146.599C166.616 145.713 165.103 144.492 163.877 143.008C161.522 140.217 159.871 136.902 159.064 133.341L160.108 133.915L152.142 129.321C151.371 128.877 150.629 128.385 149.918 127.849C149.98 127.584 150.025 127.316 150.054 127.045C150.054 126.868 150.117 126.607 150.138 126.335C150.176 126.104 150.2 125.87 150.211 125.636V125.511C150.221 125.337 150.221 125.162 150.211 124.989C150.211 124.592 150.211 124.174 150.211 123.757C150.211 113.191 143.947 101.279 135.887 96.6126L135 96.0906C135.083 84.0116 142.673 78.4575 151.965 83.8236Z" fill="white"/>
<path d="M123.829 93.3035L134.269 99.3378C141.337 103.43 147.1 114.424 147.1 123.861C147.1 124.248 147.1 124.624 147.1 124.989C147.1 125.354 147.1 125.375 147.1 125.574C147.1 125.772 147.1 125.939 147.047 126.127C147.031 126.334 147.003 126.539 146.964 126.743C146.849 127.672 146.632 128.586 146.317 129.468C146.277 129.629 146.221 129.787 146.15 129.937C146.079 130.144 145.995 130.347 145.899 130.543C145.816 130.739 145.721 130.931 145.617 131.117C145.531 131.299 145.43 131.474 145.314 131.639C145.29 131.698 145.258 131.755 145.22 131.806C145.022 132.099 144.824 132.37 144.615 132.631C144.494 132.781 144.365 132.924 144.229 133.059L143.832 133.445C143.697 133.572 143.554 133.691 143.404 133.8C143.266 133.913 143.12 134.014 142.965 134.103C142.809 134.197 142.663 134.291 142.496 134.374L142.015 134.604L141.514 134.782C141.209 134.874 140.899 134.951 140.585 135.011H140.428C140.255 135.027 140.08 135.027 139.906 135.011C139.716 135.038 139.523 135.038 139.332 135.011C138.884 135.014 138.436 134.972 137.996 134.886C137.644 134.825 137.295 134.745 136.952 134.646C136.034 134.369 135.154 133.98 134.332 133.487L130.803 131.462C130.313 132.371 129.592 133.135 128.712 133.676C127.832 134.217 126.824 134.516 125.792 134.542C124.192 134.811 122.549 134.535 121.125 133.759C120.749 133.518 120.655 132.808 120.989 132.715C123.38 132.286 125.458 130.011 125.458 128.34L123.871 127.421C122.941 126.881 122.064 126.256 121.25 125.553V125.553C120.958 125.302 120.666 125.031 120.384 124.759C119.854 124.269 119.352 123.75 118.88 123.204C118.692 122.984 118.504 122.776 118.317 122.525C118.129 122.275 117.972 122.107 117.795 121.888L117.638 121.679C116.943 120.76 116.301 119.802 115.717 118.808L115.247 118.005C115.091 117.733 114.944 117.462 114.798 117.18C114.652 116.898 114.527 116.616 114.381 116.345L113.974 115.489C113.838 115.196 113.723 114.904 113.598 114.632C113.378 114.131 113.17 113.588 112.992 113.108L112.898 112.826C112.783 112.534 112.679 112.242 112.595 111.949C112.397 111.375 112.24 110.822 112.063 110.237C111.696 108.865 111.42 107.47 111.238 106.061C111.238 105.821 111.186 105.591 111.165 105.351C111.144 105.111 111.165 104.934 111.113 104.735C111.061 104.537 111.113 104.318 111.113 104.109C111.113 103.723 111.113 103.326 111.113 102.94C110.998 93.5749 116.761 89.2215 123.829 93.3035Z" fill="white"/>
<path d="M207.704 231.403C211.65 230.171 215.701 233.366 218.353 239.818C221.004 246.27 226.569 262.681 227.394 267.056C228.218 271.43 209.552 280.951 210.074 280.701C210.596 280.45 207.704 231.403 207.704 231.403Z" fill="#263238"/>
<path d="M216.379 383.263C216.943 383.471 217.079 384.536 217.162 386.645C217.225 388.242 217.569 391.03 215.701 391.583C213.832 392.137 211.086 391.855 209.886 390.351C208.393 388.472 207.38 386.823 205.25 384.526C203.392 382.542 201.398 380.684 200.646 377.896C199.968 375.37 200.531 374.284 202.254 373.553C204.613 372.509 208.33 375.829 210.178 376.351C211.775 376.8 215.826 383.054 216.379 383.263Z" fill="#263238"/>
<path d="M216.379 381.311V383.9C215.407 384.522 214.284 384.867 213.131 384.898C211.978 384.929 210.838 384.645 209.833 384.077C209.719 383.827 209.155 380.371 209.155 380.371L216.379 381.311Z" fill="#FFA8A7"/>
<path d="M195.406 398.191C195.406 398.191 196.147 400.446 196.543 402.367C196.867 403.933 197.316 406.543 196.773 407.734C196.23 408.924 194.08 409.675 190.77 409.644C188.62 409.644 185.268 411.095 182.982 412.369C180.696 413.643 175.674 414.217 173.179 413.924C170.235 413.58 167.176 411.836 166.696 410.646C166.215 409.456 166.852 408.151 173.805 405.186C173.868 405.186 183.473 402.054 186.845 398.327L195.406 398.191Z" fill="#263238"/>
<path d="M195.406 395.395C195.406 395.395 195.406 397.315 195.406 398.412C195.406 399.508 194.111 401.147 190.749 401.032C188.39 400.949 186.751 400.312 186.845 398.37V395.562L195.406 395.395Z" fill="#FFA8A7"/>
<path d="M218.071 346.932C217.494 342.343 216.469 337.822 215.012 333.433C215.012 333.433 215.931 321.792 216.379 310.757C216.86 298.835 216.379 283.843 216.578 280.878C216.578 280.878 178.106 273.09 177.417 286.871C176.728 300.651 178.942 335.73 179.391 341.785C179.839 347.84 180.894 353.196 182.147 363.01C183.4 372.823 186.845 395.561 186.845 395.561C188.175 396.24 189.653 396.579 191.146 396.55C192.639 396.521 194.102 396.124 195.406 395.394C195.406 395.394 198.109 367.833 197.828 360.848C197.608 355.661 196.716 350.523 195.176 345.564L196.543 324.319C197.191 314.432 197.869 309.703 198.026 305.391L198.851 304.974C198.851 304.974 199.696 322.033 200.145 328.088C200.594 334.143 201.565 339.948 203.277 351.191C204.801 360.942 209.322 381.582 209.322 381.582C213.717 383.963 216.338 381.28 216.338 381.28C216.338 381.28 219.24 355.388 218.071 346.932Z" fill="#455A64"/>
<path d="M198.026 305.423C198.026 305.423 207.359 300.819 212.026 296.674C212.026 296.674 207.693 302.781 201.993 305.496C201.993 305.496 199.968 326.678 199.978 326.261L198.809 305.381L198.026 305.423Z" fill="#37474F"/>
<path d="M189.716 227.039L191.992 239.567L203.309 238.742L200.939 224.533L189.716 227.039Z" fill="#FFA8A7"/>
<path d="M215.262 237.824C214.145 234.42 209.823 230.714 205.501 231.56C199.073 232.647 192.738 234.228 186.552 236.289C182.596 237.698 178.994 241.123 178.66 254.152L176.655 292.947L181.447 293.991L183.118 285.2L183.89 293.991C188.901 295.244 197.598 294.21 203.308 292.947C215.21 290.347 216.64 285.409 216.64 285.409C216.64 285.409 216.797 263.579 216.442 254.152C216.108 246.092 216.035 240.12 215.262 237.824Z" fill="#37474F"/>
<path d="M181.343 212.193C181.343 212.193 178.597 216.255 178.952 216.683C179.587 217.11 180.294 217.418 181.04 217.591L181.343 212.193Z" fill="#FFA8A7"/>
<path d="M189.716 199.33C187.074 200.667 182.512 203.13 181.259 212.787C179.965 222.705 181.666 225.9 183.003 227.216C183.911 228.103 188.839 228.155 191.302 227.414C194.434 226.485 201.346 223.843 204.519 218.749C208.257 212.756 209.092 204.728 204.874 201.533C198.955 197.044 191.95 198.203 189.716 199.33Z" fill="#FFA8A7"/>
<path d="M180.706 202.65C181.572 205.031 183.034 210.856 189.11 213.289C189.11 213.289 189.977 209.572 193.098 209.969C196.22 210.365 196.752 214.343 194.831 216.817C192.91 219.292 191.052 218.394 191.052 218.394C191.052 218.394 190.634 223.718 194.184 226.13C194.184 226.13 198.475 228.844 203.016 226.756C205.104 225.817 207.954 220.92 209.646 216.901C213.237 208.403 213.749 201.585 208.33 199.435C207.662 195.572 205.919 194.121 202.421 193.4C194.894 191.845 189.204 196.793 182.877 195.927C179.568 195.468 179.714 199.936 180.706 202.65Z" fill="#37474F"/>
<path d="M208.456 200.73L212.005 198.537C211.868 198.292 211.682 198.076 211.459 197.904C211.235 197.732 210.98 197.606 210.707 197.536C210.434 197.465 210.15 197.45 209.871 197.492C209.593 197.534 209.325 197.632 209.086 197.78C208.846 197.928 208.639 198.123 208.476 198.354C208.314 198.584 208.2 198.845 208.141 199.121C208.082 199.396 208.08 199.681 208.134 199.957C208.188 200.234 208.297 200.497 208.456 200.73V200.73Z" fill="#37474F"/>
<path d="M190.551 231.601L189.256 235.349C189.256 235.349 190.206 237.019 194.247 237.103C198.287 237.186 202.599 235.902 203.935 234.18C204.239 233.842 204.464 233.442 204.594 233.006C204.724 232.571 204.756 232.113 204.687 231.664C204.687 231.664 203.079 228.114 201.555 228.271L201.805 229.816C201.805 229.816 201.461 231.079 197.796 232.05C192.096 233.564 190.551 231.601 190.551 231.601Z" fill="#455A64"/>
<path d="M158.083 256.511C156.454 254.642 155.827 250.497 153.656 247.658C151.484 244.818 150.681 242.74 149.824 243.983C148.687 245.622 151.255 248.91 150.681 249.203C150.106 249.495 147.987 253.859 147.768 256.26C147.549 258.661 153.917 264.717 153.917 264.717L158.083 256.511Z" fill="#FFA8A7"/>
<path d="M190.551 231.6C190.288 231.595 190.029 231.661 189.801 231.791C189.573 231.922 189.385 232.112 189.256 232.341C188.618 233.494 188.046 234.683 187.544 235.901L189.256 235.348L190.551 231.6Z" fill="#455A64"/>
<path d="M150.858 248.869C150.858 248.869 143.164 248.201 142.047 248.869C140.929 249.537 141.264 252.868 142.047 254.914C142.83 256.96 146.755 258.286 150.399 260.75C150.399 260.374 150.858 248.869 150.858 248.869Z" fill="#FFA8A7"/>
<path d="M187.544 235.943C184.235 237.102 181.343 238.428 178.253 244.233C174.285 251.687 166.769 263.609 166.769 263.609L158.114 255.978C158.114 255.978 156.809 254.714 154.376 258.734C153.664 259.816 153.212 261.049 153.058 262.335C152.904 263.622 153.052 264.927 153.489 266.146C153.489 266.146 163.48 277.87 165.39 279.656C167.301 281.441 170.464 280.052 172.521 277.244C174.578 274.436 187.575 258.201 187.575 258.201C187.575 258.201 194.633 248.826 187.544 235.943Z" fill="#37474F"/>
<path d="M98.2718 216.451H122.921C123.851 216.451 124.743 216.082 125.401 215.424C126.059 214.766 126.428 213.874 126.428 212.943V173.783C126.428 170.701 125.204 167.746 123.025 165.567C120.846 163.387 117.89 162.163 114.809 162.163H106.352C103.276 162.171 100.329 163.399 98.1562 165.578C95.9838 167.756 94.7639 170.707 94.7639 173.783V212.943C94.7639 213.874 95.1335 214.766 95.7913 215.424C96.4492 216.082 97.3414 216.451 98.2718 216.451Z" fill="#37474F"/>
<path d="M127.076 203.09C129.466 210.137 133.475 230.411 133.475 230.411C133.475 230.411 141.827 240.621 144.552 243.096C146.045 244.474 149.407 246.948 149.407 246.948L143.299 251.437C137.785 247.196 132.606 242.536 127.806 237.5C126.739 236.364 125.99 234.967 125.635 233.449L121.459 215.534C121.459 215.534 121.459 201.127 119.256 199.237C117.053 197.348 116.416 196.951 116.416 196.951C119.246 196.742 125.196 197.546 127.076 203.09Z" fill="#F28F8F"/>
<path d="M115.111 196.74C119.006 196.291 123.996 196.375 126.428 200.728C128.861 205.082 132.912 227.591 132.912 227.591C132.912 227.591 129.08 230.566 124.946 230.514L115.111 196.74Z" fill="#BA68C8"/>
<path d="M125.938 217.715C125.236 221.07 124.966 224.501 125.134 227.925C125.436 232.435 128.548 240.307 128.548 240.307C128.548 240.307 126.115 242.98 119.256 241.904C113.671 241.038 115.644 224.156 118.849 220.92C120.718 218.989 123.253 217.843 125.938 217.715V217.715Z" fill="#BA68C8"/>
<path opacity="0.3" d="M125.938 217.715C125.236 221.07 124.966 224.501 125.134 227.925C125.436 232.435 128.548 240.307 128.548 240.307C128.548 240.307 126.115 242.98 119.256 241.904C113.671 241.038 115.644 224.156 118.849 220.92C120.718 218.989 123.253 217.843 125.938 217.715V217.715Z" fill="black"/>
<path d="M113.034 336.939C112.989 337.71 113.183 338.475 113.587 339.132C114.62 340.838 115.834 342.427 117.21 343.872C119.141 345.96 122.033 348.413 124.111 350.219C125.259 351.263 125.301 352.746 123.651 353.278C120.577 354.027 117.332 353.575 114.579 352.015C112.491 350.908 109.589 345.751 107.876 345.02C105.903 344.133 104.807 343.694 104.139 342.786C103.634 342.27 103.318 341.597 103.244 340.879C103.17 340.16 103.342 339.437 103.732 338.829C104.661 337.096 106.06 334.434 106.634 334.737L106.457 335.279C106.905 336.689 110.747 338.328 112.721 337.942L113.034 336.939Z" fill="#37474F"/>
<path d="M92.9161 278.037C92.0287 268.641 89.4813 253.524 92.0913 242.332L126.752 244.169C127.713 255.205 128.84 289.657 127.629 293.603C126.23 298.259 113.733 330.487 113.013 336.971C112.963 337.731 113.157 338.488 113.566 339.132C114.598 340.842 115.813 342.435 117.189 343.882C118.129 344.926 119.277 345.97 120.488 347.014C120.59 347.163 120.651 347.335 120.666 347.515C120.666 348.559 118.035 348.883 116.49 348.434C114.563 347.754 112.902 346.478 111.75 344.79C110.862 343.61 108.868 341.345 107.574 339.643C107.142 339.118 106.774 338.543 106.478 337.931C106.132 337.167 106.073 336.303 106.311 335.499L106.394 335.238C107.072 333.124 107.492 330.937 107.647 328.723C108.127 321.613 109.349 305.191 110.476 300.817C111.259 297.629 112.448 294.556 114.015 291.671L110.059 260.884C110.059 260.884 109.641 288.028 108.409 294.95C107.438 300.493 107.062 307.425 105.924 316.936C104.88 326.04 103.669 342.076 103.669 342.076C103.638 342.081 103.606 342.081 103.575 342.076V349.739H97.0921V345.291C97.0921 343.283 96.9244 341.279 96.5909 339.299C95.5469 333.244 93.3754 319.39 92.9265 314.702C92.2166 307.269 94.8997 297.925 94.8997 297.925C94.8997 297.925 93.7826 287.203 92.9161 278.037Z" fill="#FFA8A7"/>
<path d="M105.131 197.064C105.131 197.064 95.8079 198.108 94.6909 198.641C103.44 204.79 96.3508 218.477 96.3508 218.477L99.702 228.99C95.975 233.761 92.7594 236.601 90.7654 241.831C88.5521 247.678 86.5894 256.374 87.1114 274.195C95.4634 280.459 120.874 279.781 130.771 274.195C130.771 274.195 129.101 258.462 127.128 246.237C125.823 238.167 122.743 229.376 123.265 226.401C127.191 214.332 127.441 212.161 126.731 209.467C124.779 201.888 117.053 196.762 115.153 196.762L105.131 197.064Z" fill="#BA68C8"/>
<path opacity="0.6" d="M105.131 197.064C105.131 197.064 95.8079 198.108 94.6909 198.641C103.44 204.79 96.3508 218.477 96.3508 218.477L99.702 228.99C95.975 233.761 92.7594 236.601 90.7654 241.831C88.5521 247.678 86.5894 256.374 87.1114 274.195C95.4634 280.459 120.874 279.781 130.771 274.195C130.771 274.195 129.101 258.462 127.128 246.237C125.823 238.167 122.743 229.376 123.265 226.401C127.191 214.332 127.441 212.161 126.731 209.467C124.779 201.888 117.053 196.762 115.153 196.762L105.131 197.064Z" fill="white"/>
<path d="M103.638 346.492V345.563C104.452 348.684 106.081 351.534 108.357 353.821C110.445 355.71 113.264 357.903 113.994 360.022C114.725 362.141 110.643 363.091 107.95 362.82C105.34 362.501 102.935 361.243 101.185 359.281C99.4724 357.318 99.5037 355.982 98.7102 354.896C97.9168 353.81 96.0689 352.62 95.6409 351.367C95.5073 350.198 95.6357 349.014 96.0167 347.901C96.3195 346.742 96.6536 345.458 97.0607 345.563V346.283C98.0001 347.022 99.1646 347.416 100.36 347.4C101.268 347.421 103.648 347.223 103.638 346.492Z" fill="#37474F"/>
<path d="M97.0919 346.264C98.0312 347.003 99.1958 347.397 100.391 347.381C101.351 347.381 103.69 347.224 103.68 346.494V345.564C104.494 348.686 106.122 351.536 108.398 353.822L109.975 355.232C111.081 356.464 110.768 357.539 108.169 357.758C105.569 357.978 103.283 356.412 101.32 354C99.6466 351.575 98.2296 348.982 97.0919 346.264V346.264Z" fill="#FFA8A7"/>
<path d="M121.229 168.564C122.9 169.556 124.967 173.784 124.768 182.575C124.591 190.05 122.169 191.898 120.947 192.43C119.726 192.963 117.387 192.639 115.111 192.263V196.742C115.111 196.742 118.243 200.406 118.066 202.463C117.889 204.52 113.514 205 110.56 202.996C108.426 201.341 106.591 199.336 105.131 197.066L105.183 186.761C105.183 186.761 103.836 188.056 101.56 186.072C99.6811 184.433 99.0547 181.656 100.516 180.174C100.896 179.817 101.355 179.556 101.856 179.413C102.357 179.27 102.885 179.248 103.395 179.35C103.906 179.452 104.385 179.675 104.792 180C105.2 180.325 105.523 180.742 105.736 181.218C105.736 181.218 107 177.699 112.251 175.998C116.991 174.421 119.569 172.636 121.229 168.564Z" fill="#FFA8A7"/>
<path d="M116.417 180.705C116.416 180.889 116.362 181.069 116.261 181.223C116.159 181.376 116.015 181.497 115.845 181.569C115.676 181.641 115.489 181.662 115.308 181.629C115.127 181.596 114.96 181.51 114.827 181.383C114.694 181.256 114.602 181.092 114.561 180.913C114.52 180.734 114.533 180.546 114.597 180.374C114.662 180.202 114.776 180.052 114.925 179.944C115.074 179.836 115.251 179.774 115.435 179.766C115.561 179.763 115.687 179.785 115.804 179.831C115.922 179.877 116.029 179.945 116.12 180.032C116.212 180.12 116.285 180.224 116.335 180.339C116.386 180.455 116.414 180.579 116.417 180.705V180.705Z" fill="#37474F"/>
<path d="M116.667 187.031L118.849 187.731C118.811 187.876 118.743 188.013 118.651 188.132C118.558 188.251 118.443 188.35 118.311 188.423C118.179 188.496 118.034 188.542 117.885 188.557C117.735 188.573 117.583 188.558 117.439 188.514C117.145 188.413 116.9 188.203 116.756 187.927C116.613 187.651 116.58 187.33 116.667 187.031V187.031Z" fill="#F28F8F"/>
<path d="M124.121 177.813L122.221 176.498C122.301 176.369 122.407 176.258 122.531 176.172C122.656 176.086 122.797 176.025 122.945 175.995C123.093 175.965 123.246 175.965 123.395 175.996C123.543 176.027 123.684 176.087 123.808 176.174C124.062 176.353 124.237 176.624 124.296 176.93C124.354 177.236 124.292 177.553 124.121 177.813V177.813Z" fill="#37474F"/>
<path d="M113.681 178.523L115.592 177.208C115.511 177.079 115.406 176.969 115.281 176.882C115.157 176.796 115.017 176.735 114.869 176.704C114.721 176.673 114.568 176.672 114.42 176.701C114.271 176.73 114.13 176.789 114.005 176.873C113.752 177.056 113.578 177.328 113.518 177.634C113.458 177.941 113.516 178.258 113.681 178.523V178.523Z" fill="#37474F"/>
<path d="M123.683 180.017C123.684 180.202 123.632 180.383 123.532 180.538C123.431 180.692 123.288 180.814 123.119 180.888C122.95 180.962 122.763 180.984 122.581 180.952C122.399 180.921 122.231 180.836 122.097 180.709C121.963 180.582 121.869 180.419 121.828 180.239C121.786 180.059 121.798 179.871 121.863 179.699C121.927 179.526 122.041 179.376 122.19 179.267C122.339 179.159 122.517 179.096 122.701 179.088C122.954 179.082 123.199 179.177 123.383 179.351C123.567 179.525 123.674 179.764 123.683 180.017V180.017Z" fill="#37474F"/>
<path d="M119.256 179.484L119.402 185.143L122.378 184.224L119.256 179.484Z" fill="#F28F8F"/>
<path d="M115.111 192.262C112.71 191.939 107.803 190.519 106.989 188.566C107.299 189.555 107.904 190.426 108.722 191.062C110.205 192.325 115.111 193.755 115.111 193.755V192.262Z" fill="#F28F8F"/>
<path d="M98.0837 223.26L104.671 232.176L99.7019 228.991L98.0837 223.26Z" fill="#BA68C8"/>
<path d="M149.981 246.947C151.39 248.764 152.257 252.293 152.998 253.483C153.739 254.673 154.627 255.707 152.998 255.926C151.369 256.145 148.989 252.961 148.102 251.029C147.652 249.94 146.805 249.063 145.732 248.576C146.494 248.315 146.097 245.256 146.63 244.828C146.63 244.828 149.407 245.966 149.981 246.947Z" fill="#F28F8F"/>
<path d="M150.399 260.728C148.927 259.632 148.874 258.285 148.593 256.145C148.311 254.005 142.412 251.687 142.224 253.285C142.036 254.882 141.504 256.218 143.268 258.16C145.033 260.102 147.705 262.169 150.399 260.728Z" fill="#F28F8F"/>
<path d="M105.131 197.064C105.131 197.064 96.4029 197.827 94.6907 198.641C92.9786 199.455 90.1284 204.383 92.6758 211.534C95.2232 218.686 97.5408 227.1 97.2798 228.792C97.0188 230.483 90.9323 239.232 90.9323 239.232C92.6116 240.471 94.5103 241.381 96.5282 241.915L99.6602 235.108L98.9294 242.343C102.075 243.108 105.308 243.459 108.545 243.387C108.545 243.387 111.499 215.595 105.131 197.064Z" fill="#BA68C8"/>
<path d="M83.6243 231.152C82.9248 227.039 83.6243 225.692 85.0651 221.662L92.3731 226.391C91.7737 227.913 91.4212 229.52 91.3291 231.152C91.3917 232.342 93.0099 244.139 94.5237 248.253C94.7965 248.984 95.3327 249.587 96.0271 249.944C97.5324 250.863 98.8968 251.996 100.078 253.306C101.195 254.35 102.093 254.538 101.978 254.893C101.805 255.277 101.497 255.585 101.112 255.757C100.726 255.928 100.291 255.951 99.8898 255.822C98.9804 255.526 98.1081 255.127 97.2903 254.632C98.0153 256.167 98.981 257.577 100.151 258.808C102.834 261.668 103.074 263.526 98.0628 263.913C94.9308 264.153 92.3104 262.399 89.4812 255.665C88.6044 253.197 87.8827 250.676 87.3201 248.117C85.7959 242.281 84.3134 235.297 83.6243 231.152Z" fill="#FFA8A7"/>
<path d="M94.6908 198.641C91.1726 200.217 90.1703 203.328 88.8653 207.901C87.5603 212.474 83.4678 226.192 83.4678 226.192C83.4678 226.192 86.9757 230.368 91.8198 229.198L98.0838 213.987C98.0838 213.987 101.007 204.059 94.6908 198.641Z" fill="#BA68C8"/>
</svg>
