<svg width="24" height="25" viewBox="0 0 24 25" fill="none" xmlns="http://www.w3.org/2000/svg">
<path fill-rule="evenodd" clip-rule="evenodd" d="M2 6.9707C2 6.17505 2.31607 5.41199 2.87868 4.84938C3.44129 4.28677 4.20435 3.9707 5 3.9707H19C19.7956 3.9707 20.5587 4.28677 21.1213 4.84938C21.6839 5.41199 22 6.17505 22 6.9707V18.9707C22 19.7664 21.6839 20.5294 21.1213 21.092C20.5587 21.6546 19.7956 21.9707 19 21.9707H5C4.20435 21.9707 3.44129 21.6546 2.87868 21.092C2.31607 20.5294 2 19.7664 2 18.9707V6.9707ZM7 7.9707C6.73478 7.9707 6.48043 8.07606 6.29289 8.2636C6.10536 8.45113 6 8.70549 6 8.9707V12.9707C6 13.2359 6.10536 13.4903 6.29289 13.6778C6.48043 13.8653 6.73478 13.9707 7 13.9707H11C11.2652 13.9707 11.5196 13.8653 11.7071 13.6778C11.8946 13.4903 12 13.2359 12 12.9707V8.9707C12 8.70549 11.8946 8.45113 11.7071 8.2636C11.5196 8.07606 11.2652 7.9707 11 7.9707H7ZM8 11.9707V9.9707H10V11.9707H8ZM15 7.9707C14.7348 7.9707 14.4804 8.07606 14.2929 8.2636C14.1054 8.45113 14 8.70549 14 8.9707C14 9.23592 14.1054 9.49027 14.2929 9.67781C14.4804 9.86535 14.7348 9.9707 15 9.9707H17C17.2652 9.9707 17.5196 9.86535 17.7071 9.67781C17.8946 9.49027 18 9.23592 18 8.9707C18 8.70549 17.8946 8.45113 17.7071 8.2636C17.5196 8.07606 17.2652 7.9707 17 7.9707H15ZM15 11.9707C14.7348 11.9707 14.4804 12.0761 14.2929 12.2636C14.1054 12.4511 14 12.7055 14 12.9707C14 13.2359 14.1054 13.4903 14.2929 13.6778C14.4804 13.8653 14.7348 13.9707 15 13.9707H17C17.2652 13.9707 17.5196 13.8653 17.7071 13.6778C17.8946 13.4903 18 13.2359 18 12.9707C18 12.7055 17.8946 12.4511 17.7071 12.2636C17.5196 12.0761 17.2652 11.9707 17 11.9707H15ZM7 15.9707C6.73478 15.9707 6.48043 16.0761 6.29289 16.2636C6.10536 16.4511 6 16.7055 6 16.9707C6 17.2359 6.10536 17.4903 6.29289 17.6778C6.48043 17.8653 6.73478 17.9707 7 17.9707H17C17.2652 17.9707 17.5196 17.8653 17.7071 17.6778C17.8946 17.4903 18 17.2359 18 16.9707C18 16.7055 17.8946 16.4511 17.7071 16.2636C17.5196 16.0761 17.2652 15.9707 17 15.9707H7Z" fill="#4E57AA"/>
</svg>
