<svg width="360" height="356" viewBox="0 0 360 356" fill="none" xmlns="http://www.w3.org/2000/svg">
<path d="M289.62 293.95C229.082 325.228 130.918 325.228 70.38 293.95C9.84241 262.672 9.83524 211.963 70.38 180.685C130.925 149.407 229.082 149.407 289.62 180.685C350.158 211.963 350.165 262.672 289.62 293.95Z" fill="white"/>
<path d="M132.689 286.038C114.433 286.038 99.6336 279.063 99.6336 270.459C99.6336 261.856 114.433 254.881 132.689 254.881C150.945 254.881 165.744 261.856 165.744 270.459C165.744 279.063 150.945 286.038 132.689 286.038Z" fill="#EBEBEB"/>
<path d="M74.1313 250.51C60.0467 250.51 48.6289 245.129 48.6289 238.491C48.6289 231.854 60.0467 226.473 74.1313 226.473C88.2158 226.473 99.6337 231.854 99.6337 238.491C99.6337 245.129 88.2158 250.51 74.1313 250.51Z" fill="#EBEBEB"/>
<path d="M255.895 235.124C257.335 227.606 262.606 216.89 269.035 210.916C275.22 205.178 284.4 203.177 288.058 205.826C291.715 208.474 289.318 214.199 282.218 221.176C274.205 229.044 258.818 250.874 255.895 263.241V235.124Z" fill="#4E56AB"/>
<g opacity="0.2">
<path d="M255.895 235.124C257.335 227.606 262.606 216.89 269.035 210.916C275.22 205.178 284.4 203.177 288.058 205.826C291.715 208.474 289.318 214.199 282.218 221.176C274.205 229.044 258.818 250.874 255.895 263.241V235.124Z" fill="black"/>
</g>
<path d="M255.895 253.215C255.985 253.214 256.072 253.18 256.138 253.12C256.205 253.059 256.246 252.977 256.255 252.888C258.07 233.949 271.462 212.66 284.335 208.224C284.425 208.192 284.499 208.126 284.54 208.041C284.582 207.956 284.588 207.858 284.558 207.768C284.526 207.68 284.459 207.607 284.373 207.566C284.287 207.524 284.188 207.518 284.098 207.548C270.749 212.14 257.393 233.301 255.521 252.824C255.513 252.918 255.542 253.012 255.602 253.085C255.663 253.158 255.75 253.205 255.845 253.215H255.895Z" fill="white"/>
<path d="M255.895 272.334C255.895 272.334 258.386 274.299 266.695 273.531C275.004 272.762 279.288 266.888 279.288 264.367C279.288 261.847 271.649 261.412 269.993 255.161C271.677 256.946 273.918 258.122 276.358 258.5C280.678 259.305 284.148 257.938 285.134 250.156C283.005 250.463 280.833 250.286 278.784 249.636C275.364 248.546 274.55 246.688 275.443 246.289C276.336 245.891 281.102 246.289 284.155 245.143C287.208 243.997 284.875 228.276 282.874 227.158C280.872 226.04 271.404 228.675 269.561 230.084C267.919 231.337 265.615 233.509 266.681 238.101C265.419 236.935 264.435 235.504 263.801 233.915C262.908 231.779 262.26 232.277 260.921 233.096C260.117 233.544 259.419 234.157 258.873 234.894C258.328 235.631 257.949 236.474 257.76 237.368C257.436 239.362 257.962 246.24 260.798 248.475C260.798 248.475 258.077 248.817 255.852 244.274C255.852 244.274 251.532 245.997 250.553 248.789C249.574 251.58 248.508 265.243 255.895 272.334Z" fill="#4E56AB"/>
<path d="M255.161 273.886C255.249 273.885 255.334 273.853 255.4 273.796C255.466 273.738 255.509 273.659 255.521 273.573C257.422 258.187 269.251 237.973 280.85 230.383C280.931 230.33 280.986 230.248 281.005 230.154C281.024 230.061 281.005 229.964 280.951 229.885C280.898 229.805 280.815 229.75 280.72 229.732C280.626 229.713 280.527 229.732 280.447 229.785C268.704 237.51 256.687 257.93 254.808 273.488C254.796 273.581 254.821 273.675 254.879 273.75C254.937 273.825 255.023 273.874 255.118 273.886H255.161Z" fill="white"/>
<path d="M254.433 276.035C254.863 275.741 255.217 275.351 255.467 274.897C255.717 274.443 255.856 273.938 255.873 273.422V103.318C255.844 102.782 255.687 102.262 255.415 101.798C255.144 101.334 254.765 100.94 254.311 100.648L146.311 38.9743C145.859 38.6943 145.339 38.5413 144.807 38.5317C144.274 38.5222 143.749 38.6564 143.287 38.92C142.826 39.1836 142.446 39.5667 142.188 40.0278C141.931 40.489 141.805 41.011 141.825 41.5375L251.409 275.978C251.873 276.222 252.389 276.354 252.914 276.364C253.44 276.374 253.96 276.261 254.433 276.035Z" fill="#E0E0E0"/>
<path d="M252.972 106.551L209.102 78.1634L212.026 76.4902L254.333 100.648C254.787 100.94 255.166 101.334 255.437 101.798C255.709 102.262 255.866 102.783 255.895 103.318V104.878L252.972 106.551Z" fill="#37474F"/>
<path opacity="0.2" d="M252.972 106.551L209.102 78.1634L212.026 76.4902L254.333 100.648C254.787 100.94 255.166 101.334 255.437 101.798C255.709 102.262 255.866 102.783 255.895 103.318V104.878L252.972 106.551Z" fill="#37474F"/>
<path d="M238.32 111.555L255.442 101.814C255.721 102.274 255.877 102.796 255.895 103.331V273.406C255.914 273.932 255.787 274.453 255.529 274.914C255.271 275.374 254.891 275.756 254.43 276.018C253.969 276.281 253.444 276.415 252.912 276.405C252.38 276.395 251.86 276.242 251.41 275.963L238.32 268.522V111.555Z" fill="#263238"/>
<path opacity="0.4" d="M238.32 111.555L255.442 101.814C255.721 102.274 255.877 102.796 255.895 103.331V273.406C255.914 273.932 255.787 274.453 255.529 274.914C255.271 275.374 254.891 275.756 254.43 276.018C253.969 276.281 253.444 276.415 252.912 276.405C252.38 276.395 251.86 276.242 251.41 275.963L238.32 268.522V111.555Z" fill="#263238"/>
<path d="M251.41 275.978L143.41 214.305C142.955 214.013 142.576 213.619 142.305 213.155C142.033 212.691 141.877 212.17 141.847 211.635V41.5378C141.847 40.5553 142.567 40.1566 143.41 40.6478L251.41 102.321C251.864 102.613 252.243 103.007 252.514 103.471C252.786 103.935 252.943 104.456 252.972 104.991V275.088C252.972 276.071 252.274 276.469 251.41 275.978Z" fill="#455A64"/>
<path opacity="0.1" d="M251.41 275.978L143.41 214.305C142.955 214.013 142.576 213.619 142.305 213.155C142.033 212.691 141.877 212.17 141.847 211.635V41.5378C141.847 40.5553 142.567 40.1566 143.41 40.6478L251.41 102.321C251.864 102.613 252.243 103.007 252.514 103.471C252.786 103.935 252.943 104.456 252.972 104.991V275.088C252.972 276.071 252.274 276.469 251.41 275.978Z" fill="#455A64"/>
<path d="M244.001 144.278L218.081 129.469C216.36 128.486 214.963 129.184 214.963 131.028C215.04 132.063 215.362 133.066 215.904 133.956C216.446 134.845 217.191 135.596 218.081 136.147L244.001 150.957C245.729 151.939 247.118 151.242 247.118 149.398C247.043 148.362 246.722 147.358 246.18 146.469C245.638 145.579 244.891 144.829 244.001 144.278Z" fill="#4E56AB"/>
<path d="M244.001 154.787L226.843 144.99C225.122 144.008 223.726 144.705 223.726 146.549C223.803 147.585 224.125 148.588 224.666 149.477C225.208 150.366 225.954 151.117 226.843 151.669L244.001 161.466C245.729 162.448 247.118 161.751 247.118 159.907C247.043 158.871 246.722 157.867 246.18 156.978C245.638 156.088 244.891 155.338 244.001 154.787Z" fill="#4E56AB"/>
<path d="M245.873 172.774L242.518 170.859C241.798 170.467 241.272 170.787 241.272 171.571V175.401C241.295 175.829 241.42 176.245 241.637 176.616C241.853 176.987 242.155 177.303 242.518 177.537L245.873 179.424C246.593 179.823 247.118 179.502 247.118 178.712V174.881C247.09 174.459 246.963 174.048 246.747 173.682C246.53 173.317 246.231 173.006 245.873 172.774Z" fill="#4E56AB"/>
<path opacity="0.2" d="M245.873 172.774L242.518 170.859C241.798 170.467 241.272 170.787 241.272 171.571V175.401C241.295 175.829 241.42 176.245 241.637 176.616C241.853 176.987 242.155 177.303 242.518 177.537L245.873 179.424C246.593 179.823 247.118 179.502 247.118 178.712V174.881C247.09 174.459 246.963 174.048 246.747 173.682C246.53 173.317 246.231 173.006 245.873 172.774Z" fill="black"/>
<path d="M245.873 186.138L242.518 184.222C241.798 183.824 241.272 184.144 241.272 184.934V188.765C241.297 189.192 241.423 189.608 241.639 189.979C241.855 190.35 242.156 190.665 242.518 190.901L245.873 192.816C246.593 193.208 247.118 192.887 247.118 192.104V188.274C247.096 187.846 246.972 187.429 246.755 187.058C246.539 186.686 246.236 186.371 245.873 186.138Z" fill="#4E56AB"/>
<g opacity="0.2">
<path d="M245.873 186.138L242.518 184.222C241.798 183.824 241.272 184.144 241.272 184.934V188.765C241.297 189.192 241.423 189.608 241.639 189.979C241.855 190.35 242.156 190.665 242.518 190.901L245.873 192.816C246.593 193.208 247.118 192.887 247.118 192.104V188.274C247.096 187.846 246.972 187.429 246.755 187.058C246.539 186.686 246.236 186.371 245.873 186.138Z" fill="black"/>
</g>
<path d="M236.786 182.621L216.511 171.037C215.647 170.546 214.949 170.895 214.949 171.82C214.988 172.338 215.15 172.839 215.421 173.283C215.693 173.727 216.066 174.101 216.511 174.376L236.786 185.961C237.65 186.452 238.349 186.103 238.349 185.177C238.31 184.66 238.148 184.159 237.876 183.715C237.605 183.271 237.231 182.896 236.786 182.621Z" fill="#4E56AB"/>
<path opacity="0.2" d="M236.786 182.621L216.511 171.037C215.647 170.546 214.949 170.895 214.949 171.82C214.988 172.338 215.15 172.839 215.421 173.283C215.693 173.727 216.066 174.101 216.511 174.376L236.786 185.961C237.65 186.452 238.349 186.103 238.349 185.177C238.31 184.66 238.148 184.159 237.876 183.715C237.605 183.271 237.231 182.896 236.786 182.621Z" fill="black"/>
<path d="M245.873 199.495L242.518 197.58C241.798 197.181 241.272 197.501 241.272 198.292V202.122C241.297 202.55 241.422 202.966 241.638 203.337C241.855 203.708 242.156 204.023 242.518 204.258L245.873 206.174C246.593 206.565 247.118 206.245 247.118 205.462V201.631C247.096 201.203 246.972 200.786 246.755 200.415C246.539 200.044 246.236 199.728 245.873 199.495Z" fill="#E0E0E0"/>
<path d="M236.786 195.978L216.511 184.408C215.647 183.917 214.949 184.266 214.949 185.191C214.987 185.709 215.148 186.211 215.42 186.655C215.691 187.099 216.065 187.473 216.511 187.747L236.786 199.332C237.65 199.823 238.349 199.474 238.349 198.548C238.312 198.028 238.151 197.525 237.879 197.078C237.608 196.631 237.233 196.254 236.786 195.978Z" fill="#F0F0F0"/>
<path d="M245.873 212.888L242.518 210.972C241.798 210.574 241.272 210.894 241.272 211.684V215.515C241.297 215.942 241.422 216.358 241.638 216.729C241.855 217.1 242.156 217.416 242.518 217.651L245.873 219.566C246.593 219.958 247.118 219.637 247.118 218.854V215.024C247.096 214.596 246.972 214.179 246.755 213.808C246.539 213.436 246.236 213.121 245.873 212.888Z" fill="#E0E0E0"/>
<path d="M236.786 209.369L216.511 197.792C215.647 197.294 214.949 197.65 214.949 198.568C214.987 199.087 215.148 199.59 215.42 200.035C215.691 200.48 216.065 200.856 216.511 201.132L236.786 212.709C237.65 213.2 238.349 212.851 238.349 211.926C238.31 211.408 238.148 210.907 237.876 210.463C237.605 210.019 237.231 209.644 236.786 209.369Z" fill="#F0F0F0"/>
<path d="M245.873 226.245L242.518 224.33C241.798 223.931 241.272 224.251 241.272 225.042V228.872C241.297 229.3 241.422 229.716 241.638 230.087C241.855 230.458 242.156 230.773 242.518 231.008L245.873 232.924C246.593 233.315 247.118 232.995 247.118 232.212V228.381C247.096 227.953 246.972 227.536 246.755 227.165C246.539 226.794 246.236 226.478 245.873 226.245Z" fill="#E0E0E0"/>
<path d="M236.786 222.727L216.511 211.15C215.647 210.651 214.949 211.007 214.949 211.926C214.987 212.444 215.148 212.947 215.42 213.392C215.691 213.838 216.065 214.214 216.511 214.489L236.786 226.066C237.65 226.557 238.349 226.209 238.349 225.283C238.31 224.765 238.148 224.264 237.876 223.82C237.605 223.376 237.231 223.002 236.786 222.727Z" fill="#F0F0F0"/>
<path d="M245.563 239.388L231.163 231.15C230.299 230.659 229.601 231.008 229.601 231.933C229.64 232.451 229.802 232.952 230.073 233.396C230.345 233.84 230.718 234.215 231.163 234.49L245.563 242.727C246.42 243.219 247.118 242.87 247.118 241.951C247.081 241.433 246.92 240.932 246.65 240.486C246.38 240.041 246.008 239.665 245.563 239.388Z" fill="#4E56AB"/>
<path d="M245.563 246.067L216.511 229.484C215.647 228.993 214.949 229.342 214.949 230.261C214.987 230.779 215.148 231.282 215.42 231.727C215.691 232.173 216.065 232.548 216.511 232.824L245.563 249.406C246.42 249.898 247.118 249.549 247.118 248.63C247.081 248.112 246.92 247.61 246.65 247.165C246.38 246.72 246.008 246.344 245.563 246.067Z" fill="#BA68C8"/>
<path opacity="0.8" d="M245.563 246.067L216.511 229.484C215.647 228.993 214.949 229.342 214.949 230.261C214.987 230.779 215.148 231.282 215.42 231.727C215.691 232.173 216.065 232.548 216.511 232.824L245.563 249.406C246.42 249.898 247.118 249.549 247.118 248.63C247.081 248.112 246.92 247.61 246.65 247.165C246.38 246.72 246.008 246.344 245.563 246.067Z" fill="white"/>
<path d="M245.563 246.067L225.281 234.49C224.424 233.999 223.726 234.348 223.726 235.273C223.765 235.79 223.925 236.29 224.196 236.734C224.466 237.178 224.837 237.553 225.281 237.829L245.563 249.407C246.42 249.898 247.118 249.549 247.118 248.63C247.081 248.113 246.92 247.611 246.65 247.165C246.38 246.72 246.008 246.344 245.563 246.067Z" fill="#4E56AB"/>
<path d="M245.563 252.759L231.163 244.521C230.299 244.03 229.601 244.379 229.601 245.305C229.64 245.822 229.802 246.323 230.073 246.767C230.345 247.211 230.718 247.586 231.163 247.861L245.563 256.098C246.42 256.59 247.118 256.241 247.118 255.322C247.081 254.804 246.92 254.303 246.65 253.857C246.38 253.412 246.008 253.036 245.563 252.759Z" fill="#BA68C8"/>
<path d="M236.786 169.257L216.511 157.68C215.647 157.188 214.949 157.537 214.949 158.463C214.988 158.98 215.15 159.481 215.421 159.925C215.693 160.369 216.066 160.744 216.511 161.019L236.786 172.596C237.65 173.087 238.349 172.738 238.349 171.82C238.311 171.301 238.149 170.799 237.878 170.353C237.606 169.908 237.232 169.532 236.786 169.257Z" fill="#4E56AB"/>
<path opacity="0.2" d="M236.786 169.257L216.511 157.68C215.647 157.188 214.949 157.537 214.949 158.463C214.988 158.98 215.15 159.481 215.421 159.925C215.693 160.369 216.066 160.744 216.511 161.019L236.786 172.596C237.65 173.087 238.349 172.738 238.349 171.82C238.311 171.301 238.149 170.799 237.878 170.353C237.606 169.908 237.232 169.532 236.786 169.257Z" fill="black"/>
<path d="M245.563 252.759L231.163 244.521C230.299 244.03 229.601 244.379 229.601 245.305C229.64 245.822 229.802 246.323 230.073 246.767C230.345 247.211 230.718 247.586 231.163 247.861L245.563 256.098C246.42 256.59 247.118 256.241 247.118 255.322C247.081 254.804 246.92 254.303 246.65 253.857C246.38 253.412 246.008 253.036 245.563 252.759Z" fill="#4E56AB"/>
<path d="M245.563 259.417L216.511 242.834C215.647 242.343 214.949 242.692 214.949 243.61C214.987 244.129 215.148 244.631 215.42 245.077C215.691 245.522 216.065 245.898 216.511 246.173L245.563 262.727C246.42 263.226 247.118 262.87 247.118 261.951C247.076 261.438 246.914 260.942 246.644 260.502C246.374 260.062 246.004 259.69 245.563 259.417Z" fill="#BA68C8"/>
<path opacity="0.8" d="M245.563 259.417L216.511 242.834C215.647 242.343 214.949 242.692 214.949 243.61C214.987 244.129 215.148 244.631 215.42 245.077C215.691 245.522 216.065 245.898 216.511 246.173L245.563 262.727C246.42 263.226 247.118 262.87 247.118 261.951C247.076 261.438 246.914 260.942 246.644 260.502C246.374 260.062 246.004 259.69 245.563 259.417Z" fill="white"/>
<path d="M245.563 259.417L219.434 244.465C218.57 243.973 217.872 244.322 217.872 245.248C217.911 245.765 218.073 246.266 218.344 246.711C218.616 247.155 218.989 247.529 219.434 247.804L245.563 262.756C246.42 263.254 247.118 262.898 247.118 261.98C247.081 261.462 246.92 260.96 246.65 260.515C246.38 260.07 246.008 259.693 245.563 259.417Z" fill="#4E56AB"/>
<path d="M143.395 40.6467L209.102 78.162V251.819L143.395 214.311C142.941 214.019 142.562 213.625 142.291 213.161C142.019 212.697 141.862 212.176 141.833 211.641V41.5367C141.84 40.5826 142.56 40.1554 143.395 40.6467Z" fill="#EBEBEB"/>
<path opacity="0.6" d="M143.395 40.6467L209.102 78.162V251.819L143.395 214.311C142.941 214.019 142.562 213.625 142.291 213.161C142.019 212.697 141.862 212.176 141.833 211.641V41.5367C141.84 40.5826 142.56 40.1554 143.395 40.6467Z" fill="white"/>
<path d="M209.102 84.8414V98.1985L214.949 104.877H209.102V118.234L147.686 83.1682V49.7754L209.102 84.8414Z" fill="#4E56AB"/>
<g opacity="0.6">
<path d="M201.067 85.3046L176.184 71.0646C174.982 70.3526 174.024 70.9364 174.024 72.3106C174.064 73.0572 174.28 73.7843 174.655 74.4334C175.03 75.0826 175.554 75.6357 176.184 76.0486L201.067 90.253C202.277 90.965 203.227 90.3812 203.227 89.007C203.184 88.2661 202.966 87.5456 202.591 86.9028C202.216 86.2599 201.694 85.7127 201.067 85.3046Z" fill="white"/>
</g>
<path d="M202.471 96.1189L154.31 68.6214C153.878 68.3793 153.533 68.5502 153.533 69.013C153.551 69.272 153.632 69.5231 153.767 69.7458C153.902 69.9684 154.088 70.1565 154.31 70.2946L202.471 97.7565C202.903 97.9985 203.249 97.8277 203.249 97.3649C203.225 97.112 203.142 96.8681 203.007 96.652C202.872 96.4359 202.689 96.2535 202.471 96.1189Z" fill="#4E56AB"/>
<path d="M202.471 96.1189L154.31 68.6214C153.878 68.3793 153.533 68.5502 153.533 69.013C153.551 69.272 153.632 69.5231 153.767 69.7458C153.902 69.9684 154.088 70.1565 154.31 70.2946L202.471 97.7565C202.903 97.9985 203.249 97.8277 203.249 97.3649C203.225 97.112 203.142 96.8681 203.007 96.652C202.872 96.4359 202.689 96.2535 202.471 96.1189Z" fill="#4E56AB"/>
<path opacity="0.6" d="M202.471 96.1189L154.31 68.6214C153.878 68.3793 153.533 68.5502 153.533 69.013C153.551 69.272 153.632 69.5231 153.767 69.7458C153.902 69.9684 154.088 70.1565 154.31 70.2946L202.471 97.7565C202.903 97.9985 203.249 97.8277 203.249 97.3649C203.225 97.112 203.142 96.8681 203.007 96.652C202.872 96.4359 202.689 96.2535 202.471 96.1189Z" fill="white"/>
<path d="M202.471 101.102L154.31 73.605C153.878 73.3558 153.533 73.5338 153.533 73.9966C153.551 74.2547 153.632 74.5048 153.767 74.7263C153.902 74.9478 154.088 75.1345 154.31 75.2711L202.471 102.769C202.903 103.018 203.249 102.84 203.249 102.377C203.23 102.119 203.15 101.869 203.015 101.647C202.88 101.426 202.693 101.239 202.471 101.102Z" fill="#4E56AB"/>
<path opacity="0.6" d="M202.471 101.102L154.31 73.605C153.878 73.3558 153.533 73.5338 153.533 73.9966C153.551 74.2547 153.632 74.5048 153.767 74.7263C153.902 74.9478 154.088 75.1345 154.31 75.2711L202.471 102.769C202.903 103.018 203.249 102.84 203.249 102.377C203.23 102.119 203.15 101.869 203.015 101.647C202.88 101.426 202.693 101.239 202.471 101.102Z" fill="white"/>
<path opacity="0.6" d="M202.471 106.088L154.31 78.5902C153.878 78.3481 153.533 78.519 153.533 78.9818C153.551 79.2408 153.632 79.4918 153.767 79.7145C153.902 79.9372 154.088 80.1252 154.31 80.2634L202.471 107.761C202.903 108.003 203.249 107.832 203.249 107.369C203.23 107.11 203.15 106.859 203.015 106.636C202.88 106.414 202.694 106.226 202.471 106.088Z" fill="white"/>
<path d="M200.657 120.113L197.28 118.191C196.56 117.792 196.034 118.113 196.034 118.903V122.734C196.058 123.161 196.183 123.577 196.4 123.948C196.616 124.319 196.918 124.635 197.28 124.87L200.635 126.785C201.355 127.177 201.881 126.856 201.881 126.073V122.249C201.861 121.823 201.74 121.408 201.527 121.037C201.314 120.666 201.016 120.349 200.657 120.113Z" fill="#4E56AB"/>
<path opacity="0.2" d="M200.657 120.113L197.28 118.191C196.56 117.792 196.034 118.113 196.034 118.903V122.734C196.058 123.161 196.183 123.577 196.4 123.948C196.616 124.319 196.918 124.635 197.28 124.87L200.635 126.785C201.355 127.177 201.881 126.856 201.881 126.073V122.249C201.861 121.823 201.74 121.408 201.527 121.037C201.314 120.666 201.016 120.349 200.657 120.113Z" fill="white"/>
<path d="M191.57 116.596L171.295 105.012C170.431 104.52 169.733 104.869 169.733 105.795C169.772 106.312 169.934 106.813 170.205 107.257C170.477 107.701 170.85 108.076 171.295 108.351L191.57 119.935C192.434 120.426 193.133 120.078 193.133 119.152C193.094 118.634 192.932 118.133 192.66 117.689C192.389 117.245 192.016 116.871 191.57 116.596Z" fill="#4E56AB"/>
<path opacity="0.8" d="M191.57 116.596L171.295 105.012C170.431 104.52 169.733 104.869 169.733 105.795C169.772 106.312 169.934 106.813 170.205 107.257C170.477 107.701 170.85 108.076 171.295 108.351L191.57 119.935C192.434 120.426 193.133 120.078 193.133 119.152C193.094 118.634 192.932 118.133 192.66 117.689C192.389 117.245 192.016 116.871 191.57 116.596Z" fill="white"/>
<path d="M201.125 132.075L150.005 102.883C149.573 102.633 149.227 102.811 149.227 103.267C149.245 103.526 149.325 103.777 149.46 104C149.595 104.223 149.782 104.411 150.005 104.549L201.125 133.741C201.557 133.99 201.902 133.812 201.902 133.349C201.884 133.091 201.804 132.841 201.668 132.619C201.533 132.398 201.347 132.211 201.125 132.075Z" fill="#BA68C8"/>
<path d="M201.125 137.081L150.005 107.889C149.573 107.647 149.227 107.818 149.227 108.281C149.246 108.54 149.326 108.791 149.461 109.013C149.596 109.236 149.782 109.424 150.005 109.562L201.125 138.754C201.557 138.996 201.902 138.825 201.902 138.363C201.884 138.104 201.804 137.853 201.669 137.63C201.533 137.407 201.347 137.219 201.125 137.081Z" fill="#BA68C8"/>
<path d="M201.125 142.094L150.005 112.902C149.573 112.653 149.227 112.831 149.227 113.287C149.245 113.546 149.325 113.797 149.46 114.02C149.595 114.243 149.782 114.43 150.005 114.568L201.125 143.76C201.557 144.009 201.902 143.831 201.902 143.376C201.884 143.117 201.804 142.865 201.669 142.643C201.534 142.42 201.347 142.232 201.125 142.094Z" fill="#BA68C8"/>
<path d="M201.125 147.112L150.005 117.92C149.573 117.678 149.227 117.849 149.227 118.312C149.246 118.571 149.326 118.822 149.461 119.045C149.596 119.267 149.782 119.455 150.005 119.593L201.125 148.785C201.557 149.028 201.902 148.857 201.902 148.394C201.884 148.135 201.804 147.884 201.669 147.661C201.533 147.438 201.347 147.25 201.125 147.112Z" fill="#BA68C8"/>
<path d="M201.125 132.075L150.005 102.883C149.573 102.633 149.227 102.811 149.227 103.267C149.245 103.526 149.325 103.777 149.46 104C149.595 104.223 149.782 104.411 150.005 104.549L201.125 133.741C201.557 133.99 201.902 133.812 201.902 133.349C201.884 133.091 201.804 132.841 201.668 132.619C201.533 132.398 201.347 132.211 201.125 132.075Z" fill="#E0E0E0"/>
<path d="M201.125 137.081L150.005 107.889C149.573 107.647 149.227 107.818 149.227 108.281C149.246 108.54 149.326 108.791 149.461 109.013C149.596 109.236 149.782 109.424 150.005 109.562L201.125 138.754C201.557 138.996 201.902 138.825 201.902 138.363C201.884 138.104 201.804 137.853 201.669 137.63C201.533 137.407 201.347 137.219 201.125 137.081Z" fill="#E0E0E0"/>
<path d="M201.125 142.094L150.005 112.902C149.573 112.653 149.227 112.831 149.227 113.287C149.245 113.546 149.325 113.797 149.46 114.02C149.595 114.243 149.782 114.43 150.005 114.568L201.125 143.76C201.557 144.009 201.902 143.831 201.902 143.376C201.884 143.117 201.804 142.865 201.669 142.643C201.534 142.42 201.347 142.232 201.125 142.094Z" fill="#E0E0E0"/>
<path d="M201.125 147.112L150.005 117.92C149.573 117.678 149.227 117.849 149.227 118.312C149.246 118.571 149.326 118.822 149.461 119.045C149.596 119.267 149.782 119.455 150.005 119.593L201.125 148.785C201.557 149.028 201.902 148.857 201.902 148.394C201.884 148.135 201.804 147.884 201.669 147.661C201.533 147.438 201.347 147.25 201.125 147.112Z" fill="#E0E0E0"/>
<path opacity="0.8" d="M201.125 132.075L150.005 102.883C149.573 102.633 149.227 102.811 149.227 103.267C149.245 103.526 149.325 103.777 149.46 104C149.595 104.223 149.782 104.411 150.005 104.549L201.125 133.741C201.557 133.99 201.902 133.812 201.902 133.349C201.884 133.091 201.804 132.841 201.668 132.619C201.533 132.398 201.347 132.211 201.125 132.075Z" fill="#E0E0E0"/>
<path opacity="0.8" d="M201.125 137.081L150.005 107.889C149.573 107.647 149.227 107.818 149.227 108.281C149.246 108.54 149.326 108.791 149.461 109.013C149.596 109.236 149.782 109.424 150.005 109.562L201.125 138.754C201.557 138.996 201.902 138.825 201.902 138.363C201.884 138.104 201.804 137.853 201.669 137.63C201.533 137.407 201.347 137.219 201.125 137.081Z" fill="#E0E0E0"/>
<path opacity="0.8" d="M201.125 142.094L150.005 112.902C149.573 112.653 149.227 112.831 149.227 113.287C149.245 113.546 149.325 113.797 149.46 114.02C149.595 114.243 149.782 114.43 150.005 114.568L201.125 143.76C201.557 144.009 201.902 143.831 201.902 143.376C201.884 143.117 201.804 142.865 201.669 142.643C201.534 142.42 201.347 142.232 201.125 142.094Z" fill="#E0E0E0"/>
<path opacity="0.8" d="M201.125 147.112L150.005 117.92C149.573 117.678 149.227 117.849 149.227 118.312C149.246 118.571 149.326 118.822 149.461 119.045C149.596 119.267 149.782 119.455 150.005 119.593L201.125 148.785C201.557 149.028 201.902 148.857 201.902 148.394C201.884 148.135 201.804 147.884 201.669 147.661C201.533 147.438 201.347 147.25 201.125 147.112Z" fill="#E0E0E0"/>
<path d="M201.125 168.387L150.005 139.195C149.573 138.946 149.227 139.124 149.227 139.58C149.245 139.839 149.325 140.09 149.46 140.313C149.595 140.536 149.782 140.723 150.005 140.861L201.125 170.053C201.557 170.302 201.902 170.124 201.902 169.662C201.884 169.403 201.804 169.153 201.668 168.932C201.533 168.71 201.347 168.524 201.125 168.387Z" fill="#E0E0E0"/>
<path d="M201.125 173.393L150.005 144.201C149.573 143.959 149.227 144.13 149.227 144.593C149.246 144.852 149.326 145.103 149.461 145.326C149.596 145.549 149.782 145.737 150.005 145.875L201.125 175.067C201.557 175.309 201.902 175.138 201.902 174.675C201.884 174.416 201.804 174.165 201.669 173.942C201.533 173.72 201.347 173.532 201.125 173.393Z" fill="#E0E0E0"/>
<path d="M201.125 178.405L150.005 149.213C149.573 148.963 149.227 149.141 149.227 149.597C149.245 149.856 149.325 150.108 149.46 150.33C149.595 150.553 149.782 150.741 150.005 150.879L201.125 180.071C201.557 180.32 201.902 180.142 201.902 179.686C201.884 179.427 201.804 179.176 201.669 178.953C201.534 178.73 201.347 178.542 201.125 178.405Z" fill="#E0E0E0"/>
<path d="M201.125 183.425L150.005 154.233C149.573 153.991 149.227 154.162 149.227 154.624C149.246 154.883 149.326 155.134 149.461 155.357C149.596 155.58 149.782 155.768 150.005 155.906L201.125 185.098C201.557 185.34 201.902 185.169 201.902 184.706C201.884 184.447 201.804 184.196 201.669 183.974C201.533 183.751 201.347 183.563 201.125 183.425Z" fill="#E0E0E0"/>
<path opacity="0.8" d="M201.125 168.387L150.005 139.195C149.573 138.946 149.227 139.124 149.227 139.58C149.245 139.839 149.325 140.09 149.46 140.313C149.595 140.536 149.782 140.723 150.005 140.861L201.125 170.053C201.557 170.302 201.902 170.124 201.902 169.662C201.884 169.403 201.804 169.153 201.668 168.932C201.533 168.71 201.347 168.524 201.125 168.387Z" fill="#E0E0E0"/>
<path opacity="0.8" d="M201.125 173.393L150.005 144.201C149.573 143.959 149.227 144.13 149.227 144.593C149.246 144.852 149.326 145.103 149.461 145.326C149.596 145.549 149.782 145.737 150.005 145.875L201.125 175.067C201.557 175.309 201.902 175.138 201.902 174.675C201.884 174.416 201.804 174.165 201.669 173.942C201.533 173.72 201.347 173.532 201.125 173.393Z" fill="#E0E0E0"/>
<path opacity="0.8" d="M201.125 178.405L150.005 149.213C149.573 148.963 149.227 149.141 149.227 149.597C149.245 149.856 149.325 150.108 149.46 150.33C149.595 150.553 149.782 150.741 150.005 150.879L201.125 180.071C201.557 180.32 201.902 180.142 201.902 179.686C201.884 179.427 201.804 179.176 201.669 178.953C201.534 178.73 201.347 178.542 201.125 178.405Z" fill="#E0E0E0"/>
<path opacity="0.8" d="M201.125 183.425L150.005 154.233C149.573 153.991 149.227 154.162 149.227 154.624C149.246 154.883 149.326 155.134 149.461 155.357C149.596 155.58 149.782 155.768 150.005 155.906L201.125 185.098C201.557 185.34 201.902 185.169 201.902 184.706C201.884 184.447 201.804 184.196 201.669 183.974C201.533 183.751 201.347 183.563 201.125 183.425Z" fill="#E0E0E0"/>
<path d="M201.125 205.411L150.005 176.219C149.573 175.969 149.227 176.147 149.227 176.603C149.245 176.862 149.325 177.113 149.46 177.336C149.595 177.559 149.782 177.747 150.005 177.885L201.125 207.077C201.557 207.326 201.902 207.148 201.902 206.685C201.884 206.427 201.804 206.177 201.668 205.955C201.533 205.734 201.347 205.547 201.125 205.411Z" fill="#E0E0E0"/>
<path d="M201.125 210.417L150.005 181.225C149.573 180.983 149.227 181.154 149.227 181.617C149.246 181.876 149.326 182.127 149.461 182.349C149.596 182.572 149.782 182.76 150.005 182.898L201.125 212.09C201.557 212.332 201.902 212.161 201.902 211.699C201.884 211.439 201.804 211.188 201.669 210.966C201.533 210.743 201.347 210.555 201.125 210.417Z" fill="#E0E0E0"/>
<path d="M201.125 215.43L150.005 186.238C149.573 185.989 149.227 186.167 149.227 186.623C149.245 186.882 149.325 187.133 149.46 187.356C149.595 187.578 149.782 187.766 150.005 187.904L201.125 217.096C201.557 217.345 201.902 217.167 201.902 216.712C201.884 216.452 201.804 216.201 201.669 215.978C201.534 215.756 201.347 215.568 201.125 215.43Z" fill="#E0E0E0"/>
<path d="M201.125 220.448L150.005 191.256C149.573 191.014 149.227 191.185 149.227 191.648C149.246 191.907 149.326 192.158 149.461 192.381C149.596 192.603 149.782 192.791 150.005 192.929L201.125 222.121C201.557 222.363 201.902 222.193 201.902 221.73C201.884 221.471 201.804 221.22 201.669 220.997C201.533 220.774 201.347 220.586 201.125 220.448Z" fill="#E0E0E0"/>
<path opacity="0.8" d="M201.125 205.411L150.005 176.219C149.573 175.969 149.227 176.147 149.227 176.603C149.245 176.862 149.325 177.113 149.46 177.336C149.595 177.559 149.782 177.747 150.005 177.885L201.125 207.077C201.557 207.326 201.902 207.148 201.902 206.685C201.884 206.427 201.804 206.177 201.668 205.955C201.533 205.734 201.347 205.547 201.125 205.411Z" fill="#E0E0E0"/>
<path opacity="0.8" d="M201.125 210.417L150.005 181.225C149.573 180.983 149.227 181.154 149.227 181.617C149.246 181.876 149.326 182.127 149.461 182.349C149.596 182.572 149.782 182.76 150.005 182.898L201.125 212.09C201.557 212.332 201.902 212.161 201.902 211.699C201.884 211.439 201.804 211.188 201.669 210.966C201.533 210.743 201.347 210.555 201.125 210.417Z" fill="#E0E0E0"/>
<path opacity="0.8" d="M201.125 215.43L150.005 186.238C149.573 185.989 149.227 186.167 149.227 186.623C149.245 186.882 149.325 187.133 149.46 187.356C149.595 187.578 149.782 187.766 150.005 187.904L201.125 217.096C201.557 217.345 201.902 217.167 201.902 216.712C201.884 216.452 201.804 216.201 201.669 215.978C201.534 215.756 201.347 215.568 201.125 215.43Z" fill="#E0E0E0"/>
<path opacity="0.8" d="M201.125 220.448L150.005 191.256C149.573 191.014 149.227 191.185 149.227 191.648C149.246 191.907 149.326 192.158 149.461 192.381C149.596 192.603 149.782 192.791 150.005 192.929L201.125 222.121C201.557 222.363 201.902 222.193 201.902 221.73C201.884 221.471 201.804 221.22 201.669 220.997C201.533 220.774 201.347 220.586 201.125 220.448Z" fill="#E0E0E0"/>
<path d="M200.657 156.846L197.28 154.931C196.56 154.539 196.034 154.86 196.034 155.643V159.488C196.057 159.916 196.181 160.332 196.398 160.704C196.614 161.075 196.916 161.39 197.28 161.624L200.635 163.539C201.355 163.93 201.881 163.617 201.881 162.827V158.996C201.863 158.568 201.742 158.15 201.53 157.776C201.317 157.402 201.018 157.084 200.657 156.846Z" fill="#4E56AB"/>
<path opacity="0.2" d="M200.657 156.846L197.28 154.931C196.56 154.539 196.034 154.86 196.034 155.643V159.488C196.057 159.916 196.181 160.332 196.398 160.704C196.614 161.075 196.916 161.39 197.28 161.624L200.635 163.539C201.355 163.93 201.881 163.617 201.881 162.827V158.996C201.863 158.568 201.742 158.15 201.53 157.776C201.317 157.402 201.018 157.084 200.657 156.846Z" fill="white"/>
<path d="M191.57 153.329L171.295 141.752C170.431 141.261 169.733 141.61 169.733 142.528C169.771 143.047 169.932 143.549 170.204 143.995C170.475 144.44 170.849 144.816 171.295 145.091L191.57 156.64C192.434 157.131 193.133 156.782 193.133 155.864C193.09 155.35 192.927 154.853 192.656 154.413C192.384 153.973 192.013 153.602 191.57 153.329Z" fill="#4E56AB"/>
<path opacity="0.8" d="M191.57 153.329L171.295 141.752C170.431 141.261 169.733 141.61 169.733 142.528C169.771 143.047 169.932 143.549 170.204 143.995C170.475 144.44 170.849 144.816 171.295 145.091L191.57 156.64C192.434 157.131 193.133 156.782 193.133 155.864C193.09 155.35 192.927 154.853 192.656 154.413C192.384 153.973 192.013 153.602 191.57 153.329Z" fill="white"/>
<path d="M200.657 193.585L197.28 191.67C196.56 191.271 196.034 191.591 196.034 192.382V196.212C196.057 196.64 196.182 197.057 196.398 197.428C196.615 197.799 196.917 198.114 197.28 198.348L200.635 200.263C201.355 200.655 201.881 200.335 201.881 199.551V195.721C201.861 195.295 201.74 194.879 201.527 194.508C201.314 194.137 201.016 193.821 200.657 193.585Z" fill="#4E56AB"/>
<path opacity="0.2" d="M200.657 193.585L197.28 191.67C196.56 191.271 196.034 191.591 196.034 192.382V196.212C196.057 196.64 196.182 197.057 196.398 197.428C196.615 197.799 196.917 198.114 197.28 198.348L200.635 200.263C201.355 200.655 201.881 200.335 201.881 199.551V195.721C201.861 195.295 201.74 194.879 201.527 194.508C201.314 194.137 201.016 193.821 200.657 193.585Z" fill="#4E56AB"/>
<path d="M191.57 190.104L171.295 178.519C170.431 178.028 169.733 178.377 169.733 179.303C169.771 179.821 169.933 180.323 170.204 180.769C170.476 181.214 170.85 181.59 171.295 181.866L191.57 193.443C192.434 193.934 193.133 193.585 193.133 192.66C193.094 192.142 192.932 191.641 192.66 191.197C192.389 190.753 192.016 190.378 191.57 190.104Z" fill="#4E56AB"/>
<path opacity="0.8" d="M191.57 190.104L171.295 178.519C170.431 178.028 169.733 178.377 169.733 179.303C169.771 179.821 169.933 180.323 170.204 180.769C170.476 181.214 170.85 181.59 171.295 181.866L191.57 193.443C192.434 193.934 193.133 193.585 193.133 192.66C193.094 192.142 192.932 191.641 192.66 191.197C192.389 190.753 192.016 190.378 191.57 190.104Z" fill="white"/>
<path d="M195.883 225.924L192.528 224.009C191.808 223.617 191.275 223.938 191.275 224.721V228.551C191.299 228.98 191.425 229.397 191.642 229.768C191.86 230.139 192.164 230.454 192.528 230.687L195.883 232.603C196.567 233.001 197.129 232.681 197.129 231.891V228.06C197.104 227.633 196.978 227.217 196.762 226.846C196.546 226.475 196.245 226.16 195.883 225.924Z" fill="#4E56AB"/>
<path d="M201.125 238.939L187.279 231.035C186.847 230.793 186.502 230.964 186.502 231.427C186.52 231.686 186.6 231.937 186.735 232.16C186.87 232.382 187.057 232.571 187.279 232.709L201.125 240.612C201.557 240.854 201.902 240.683 201.902 240.22C201.884 239.961 201.804 239.71 201.669 239.488C201.533 239.265 201.347 239.077 201.125 238.939Z" fill="#E0E0E0"/>
<path d="M177.257 215.287L173.902 213.372C173.218 212.981 172.656 213.301 172.656 214.084V217.915C172.679 218.343 172.804 218.759 173.021 219.13C173.237 219.501 173.539 219.817 173.902 220.051L177.257 221.966C177.977 222.358 178.51 222.044 178.51 221.254V217.423C178.485 216.995 178.359 216.578 178.142 216.207C177.924 215.836 177.621 215.521 177.257 215.287Z" fill="#4E56AB"/>
<path d="M182.506 228.303L168.66 220.4C168.228 220.151 167.882 220.329 167.882 220.792C167.901 221.05 167.981 221.3 168.116 221.521C168.251 221.743 168.438 221.929 168.66 222.066L182.506 229.976C182.938 230.226 183.283 230.048 183.283 229.592C183.266 229.331 183.187 229.079 183.052 228.855C182.916 228.631 182.729 228.442 182.506 228.303Z" fill="#E0E0E0"/>
<path d="M158.638 204.649L155.282 202.734C154.598 202.335 154.037 202.656 154.037 203.446V207.277C154.061 207.704 154.187 208.12 154.403 208.491C154.619 208.862 154.92 209.178 155.282 209.413L158.638 211.328C159.358 211.719 159.883 211.399 159.883 210.616V206.785C159.861 206.357 159.736 205.941 159.52 205.569C159.303 205.198 159.001 204.883 158.638 204.649Z" fill="#4E56AB"/>
<path opacity="0.2" d="M195.883 225.924L192.528 224.009C191.808 223.617 191.275 223.938 191.275 224.721V228.551C191.299 228.98 191.425 229.397 191.642 229.768C191.86 230.139 192.164 230.454 192.528 230.687L195.883 232.603C196.567 233.001 197.129 232.681 197.129 231.891V228.06C197.104 227.633 196.978 227.217 196.762 226.846C196.546 226.475 196.245 226.16 195.883 225.924Z" fill="white"/>
<path opacity="0.2" d="M177.257 215.287L173.902 213.372C173.218 212.981 172.656 213.301 172.656 214.084V217.915C172.679 218.343 172.804 218.759 173.021 219.13C173.237 219.501 173.539 219.817 173.902 220.051L177.257 221.966C177.977 222.358 178.51 222.044 178.51 221.254V217.423C178.485 216.995 178.359 216.578 178.142 216.207C177.924 215.836 177.621 215.521 177.257 215.287Z" fill="white"/>
<path opacity="0.2" d="M158.638 204.649L155.282 202.734C154.598 202.335 154.037 202.656 154.037 203.446V207.277C154.061 207.704 154.187 208.12 154.403 208.491C154.619 208.862 154.92 209.178 155.282 209.413L158.638 211.328C159.358 211.719 159.883 211.399 159.883 210.616V206.785C159.861 206.357 159.736 205.941 159.52 205.569C159.303 205.198 159.001 204.883 158.638 204.649Z" fill="white"/>
<path d="M163.886 217.665L150.041 209.761C149.609 209.512 149.263 209.69 149.263 210.146C149.281 210.405 149.361 210.656 149.496 210.879C149.631 211.102 149.818 211.29 150.041 211.428L163.886 219.331C164.311 219.58 164.664 219.402 164.664 218.939C164.644 218.682 164.563 218.432 164.428 218.211C164.293 217.99 164.107 217.803 163.886 217.665Z" fill="#E0E0E0"/>
<path d="M232.495 98.8673C240.574 103.367 247.118 114.581 247.118 123.908C247.118 133.236 240.574 137.066 232.495 132.452C224.417 127.839 217.872 116.632 217.872 107.404C217.872 98.1767 224.424 94.3603 232.495 98.8673Z" fill="#FAFAFA"/>
<path d="M225.41 127.61L237.118 130.715C237.319 130.78 237.534 130.794 237.743 130.756C237.951 130.718 238.147 130.63 238.312 130.498C238.477 130.367 238.607 130.197 238.688 130.003C238.77 129.81 238.802 129.599 238.781 129.39V109.682C238.739 108.051 238.189 106.472 237.204 105.163C236.219 103.854 234.848 102.878 233.28 102.37L229.277 101.309C226.231 100.505 223.762 102.47 223.762 105.695V125.41C223.775 125.9 223.94 126.374 224.235 126.768C224.53 127.161 224.94 127.456 225.41 127.61Z" fill="#37474F"/>
<path d="M224.849 132.709L226.08 127.333C226.08 127.333 226.08 120.078 227.124 119.409C228.168 118.74 228.47 118.611 228.47 118.611C227.131 118.156 224.309 117.814 223.43 120.363C222.588 122.769 221.328 128.7 220.73 131.62L224.849 132.709Z" fill="#F28F8F"/>
<path d="M224.95 132.737L229.126 118.675C227.275 117.963 224.899 117.372 223.747 119.259C222.71 120.953 221.054 129.832 220.73 131.619L224.95 132.737Z" fill="#4E56AB"/>
<g opacity="0.4">
<path d="M224.95 132.737L229.126 118.675C227.275 117.963 224.899 117.372 223.747 119.259C222.71 120.953 221.054 129.832 220.73 131.619L224.95 132.737Z" fill="black"/>
</g>
<path d="M224.388 132.588L228.492 133.677C228.327 132.512 227.938 131.388 227.347 130.366C226.526 129.196 225.344 128.319 223.978 127.867C224.273 129.423 224.411 131.005 224.388 132.588Z" fill="#BA68C8"/>
<path d="M224.388 132.588L228.492 133.677C228.327 132.512 227.938 131.388 227.347 130.366C226.526 129.196 225.344 128.319 223.978 127.867C224.273 129.423 224.411 131.005 224.388 132.588Z" fill="#BA68C8"/>
<g opacity="0.7">
<path d="M224.388 132.588L228.492 133.677C228.327 132.512 227.938 131.388 227.347 130.366C226.526 129.196 225.344 128.319 223.978 127.867C224.273 129.423 224.411 131.005 224.388 132.588Z" fill="black"/>
</g>
<path d="M225.266 132.824L236.786 135.864L238.054 131.983C238.054 131.983 234.691 124.201 238.846 122.2C238.32 121.809 233.892 120.1 233.892 120.1L229.133 118.676C228.226 118.434 224.561 120.043 223.632 123.61C223.301 124.87 223.416 126.003 225.281 132.567C225.259 132.653 225.266 132.738 225.266 132.824Z" fill="#4E56AB"/>
<path d="M226.217 103.73C225.425 104.015 224.446 105.866 224.539 110.331C224.618 114.119 225.77 115.315 226.346 115.77C227.209 116.198 228.161 116.419 229.126 116.418V118.675C229.126 118.675 227.628 120.099 227.722 121.182C227.815 122.264 229.882 123.033 231.278 122.392C232.299 121.823 233.181 121.041 233.863 120.099V114.902C233.968 115.022 234.097 115.12 234.24 115.19C234.384 115.26 234.541 115.302 234.701 115.312C234.861 115.321 235.022 115.3 235.173 115.248C235.325 115.196 235.464 115.114 235.584 115.009C235.809 114.856 236.001 114.661 236.148 114.434C236.295 114.208 236.395 113.954 236.441 113.688C236.487 113.423 236.479 113.151 236.417 112.888C236.356 112.626 236.241 112.378 236.081 112.161C235.361 111.228 234.101 111.093 233.611 112.025C233.002 110.562 231.911 109.346 230.515 108.572C228.24 107.205 227.002 105.988 226.217 103.73Z" fill="#FFA8A7"/>
<path d="M228.499 110.437C228.496 110.572 228.535 110.705 228.611 110.817C228.687 110.929 228.797 111.015 228.924 111.064C228.978 111.082 229.036 111.087 229.093 111.079C229.149 111.07 229.203 111.048 229.249 111.015C229.295 110.981 229.332 110.937 229.357 110.886C229.382 110.835 229.394 110.779 229.392 110.722C229.395 110.587 229.356 110.454 229.28 110.342C229.204 110.23 229.095 110.144 228.967 110.095C228.913 110.077 228.855 110.072 228.799 110.08C228.742 110.089 228.688 110.111 228.642 110.144C228.596 110.178 228.559 110.222 228.534 110.273C228.509 110.324 228.497 110.381 228.499 110.437Z" fill="#37474F"/>
<path d="M228.384 113.598L227.347 113.669C227.378 113.825 227.46 113.967 227.581 114.071C227.703 114.176 227.856 114.237 228.017 114.246C228.305 114.224 228.47 113.918 228.384 113.598Z" fill="#F28F8F"/>
<path d="M224.842 108.016L225.742 107.596C225.688 107.458 225.585 107.345 225.452 107.278C225.319 107.211 225.166 107.195 225.022 107.233C224.957 107.272 224.901 107.324 224.857 107.385C224.813 107.445 224.782 107.514 224.765 107.587C224.749 107.66 224.747 107.736 224.76 107.809C224.773 107.883 224.801 107.953 224.842 108.016Z" fill="#37474F"/>
<path d="M229.795 109.684L228.895 108.779C228.943 108.731 229 108.694 229.064 108.669C229.127 108.645 229.195 108.634 229.263 108.637C229.331 108.641 229.398 108.658 229.458 108.689C229.519 108.719 229.573 108.762 229.615 108.815C229.74 108.918 229.826 109.06 229.859 109.218C229.891 109.376 229.869 109.54 229.795 109.684Z" fill="#37474F"/>
<path d="M225.05 109.185C225.046 109.32 225.085 109.453 225.161 109.565C225.237 109.678 225.347 109.764 225.475 109.811C225.53 109.83 225.588 109.835 225.646 109.826C225.703 109.817 225.757 109.795 225.803 109.76C225.85 109.726 225.887 109.68 225.911 109.629C225.935 109.577 225.946 109.519 225.943 109.462C225.945 109.327 225.906 109.195 225.83 109.083C225.754 108.971 225.645 108.885 225.518 108.836C225.464 108.817 225.405 108.812 225.348 108.821C225.291 108.83 225.237 108.852 225.19 108.887C225.144 108.921 225.107 108.966 225.083 109.018C225.058 109.07 225.047 109.127 225.05 109.185Z" fill="#37474F"/>
<path d="M227.153 109.469L227.088 112.295L225.67 111.455L227.153 109.469Z" fill="#F28F8F"/>
<path d="M229.126 116.419C230.263 116.561 232.61 116.469 232.978 115.586C232.845 116.02 232.552 116.388 232.157 116.618C231.437 117.074 229.126 117.174 229.126 117.174V116.419Z" fill="#F28F8F"/>
<path d="M236.722 135.857L237.204 134.162L235.937 135.65L236.722 135.857Z" fill="#BA68C8"/>
<path d="M237.665 136.105C238.182 133.67 238.882 131.275 239.76 128.943C240.97 125.66 239.616 122.827 238.802 122.2C237.989 121.573 233.849 120.1 233.849 120.1C232.351 124.315 231.941 129.961 231.905 134.582L237.665 136.105Z" fill="#4E56AB"/>
<path opacity="0.4" d="M237.665 136.105C238.182 133.67 238.882 131.275 239.76 128.943C240.97 125.66 239.616 122.827 238.802 122.2C237.989 121.573 233.849 120.1 233.849 120.1C232.351 124.315 231.941 129.961 231.905 134.582L237.665 136.105Z" fill="black"/>
<path d="M239.71 136.646L243.821 137.735C243.936 137.659 244.044 137.573 244.145 137.479C244.145 137.479 242.201 130.06 241.582 127.596C240.962 125.133 240.487 123.438 238.817 122.199C235.814 124.129 237.204 129.49 237.204 129.49L239.71 136.646Z" fill="#4E56AB"/>
<path opacity="0.4" d="M239.71 136.646L243.821 137.735C243.936 137.659 244.044 137.573 244.145 137.479C244.145 137.479 242.201 130.06 241.582 127.596C240.962 125.133 240.487 123.438 238.817 122.199C235.814 124.129 237.204 129.49 237.204 129.49L239.71 136.646Z" fill="black"/>
<path d="M299.57 89.2353V75.1306C299.614 72.3965 297.814 69.6553 294.163 67.5762C286.963 63.4538 275.256 63.4538 268.042 67.5762C264.391 69.6553 262.591 72.3965 262.634 75.1306V89.1854C262.634 91.9053 264.406 96.7682 268.042 98.8402C275.242 102.963 286.949 102.963 294.163 98.8402C297.763 96.7896 299.563 91.9622 299.57 89.2638V89.2353Z" fill="#DADBDD"/>
<path d="M281.102 57.6289L250.625 75.0302L281.102 92.4315L311.58 75.0302L281.102 57.6289Z" fill="white"/>
<path d="M296.352 83.7235L281.34 75.2507C281.278 75.2157 281.21 75.193 281.139 75.184C281.068 75.1751 280.996 75.18 280.927 75.1985C280.859 75.217 280.794 75.2488 280.738 75.2919C280.681 75.3351 280.634 75.3888 280.598 75.4501C280.563 75.5113 280.54 75.5789 280.531 75.6489C280.522 75.7189 280.527 75.7899 280.546 75.858C280.564 75.9261 280.596 75.9899 280.64 76.0458C280.684 76.1016 280.738 76.1484 280.8 76.1834L295.279 84.3358L296.352 83.7235Z" fill="#E0E0E0"/>
<path d="M250.625 75.0293V76.2753L281.102 93.6695V92.4306L250.625 75.0293Z" fill="#E6E6E6"/>
<path d="M311.58 75.0293V76.2753L281.102 93.6695V92.4306L311.58 75.0293Z" fill="#F0F0F0"/>
<path d="M297.108 84.535L296.179 85.0619C296.039 84.8351 295.843 84.6467 295.61 84.5137L295.286 84.3286L296.345 83.7305C296.657 83.9382 296.918 84.2132 297.108 84.535Z" fill="#E0E0E0"/>
<path d="M262.598 83.1113L281.102 95.5357L299.556 83.1398L281.102 93.6703L262.598 83.1113Z" fill="#E0E0E0"/>
<path d="M298.296 99.1875C298.038 99.3193 297.751 99.388 297.461 99.388C297.17 99.388 296.884 99.3193 296.626 99.1875L295.25 107.966C295.25 109.625 299.606 109.625 299.606 107.966L298.296 99.1875Z" fill="white"/>
<path d="M298.375 104.201L298.649 109.014C298.739 108.987 298.825 108.952 298.908 108.907L298.375 104.201Z" fill="#EBEBEB"/>
<path d="M296.316 109.049L296.892 101.217L296.035 108.935C296.126 108.978 296.22 109.016 296.316 109.049Z" fill="#EBEBEB"/>
<path d="M297.295 109.206H297.569L297.425 102.99L297.295 109.206Z" fill="#EBEBEB"/>
<path d="M297.468 99.9221C297.149 99.9143 296.84 99.8099 296.582 99.6231C296.473 99.5432 296.399 99.4249 296.374 99.2926C296.35 99.1602 296.378 99.0237 296.453 98.9111C296.531 98.8003 296.65 98.7241 296.785 98.6989C296.919 98.6736 297.059 98.7012 297.173 98.7758C297.241 98.8415 297.333 98.8782 297.428 98.8782C297.524 98.8782 297.615 98.8415 297.684 98.7758C297.74 98.7265 297.806 98.6893 297.877 98.6665C297.948 98.6437 298.024 98.6358 298.098 98.6434C298.173 98.651 298.245 98.6739 298.31 98.7106C298.375 98.7473 298.432 98.797 298.477 98.8565C298.521 98.9161 298.553 98.9842 298.57 99.0565C298.586 99.1288 298.587 99.2037 298.573 99.2765C298.559 99.3493 298.529 99.4183 298.487 99.4792C298.444 99.5401 298.389 99.5915 298.325 99.6302C298.077 99.8135 297.777 99.9156 297.468 99.9221Z" fill="#E0E0E0"/>
<path d="M297.432 98.5542C297.361 98.5552 297.291 98.5422 297.226 98.5162C297.16 98.4901 297.101 98.4515 297.051 98.4024C297 98.3534 296.96 98.295 296.933 98.2306C296.906 98.1662 296.892 98.0971 296.892 98.0273V85.5816C296.891 85.3017 296.816 85.027 296.675 84.7846C296.533 84.5423 296.33 84.3408 296.086 84.2003L280.8 75.5851C280.679 75.5164 280.589 75.4031 280.552 75.2699C280.514 75.1367 280.531 74.9942 280.598 74.8731C280.632 74.813 280.678 74.76 280.732 74.7174C280.787 74.6748 280.849 74.6433 280.916 74.6247C280.983 74.6062 281.053 74.601 281.122 74.6094C281.191 74.6178 281.258 74.6397 281.318 74.6737L296.64 83.3032C297.048 83.5364 297.388 83.8715 297.624 84.2751C297.86 84.6787 297.985 85.1366 297.986 85.6029V98.0487C297.984 98.1179 297.967 98.1859 297.938 98.2488C297.908 98.3116 297.867 98.3682 297.815 98.4151C297.764 98.4621 297.703 98.4985 297.638 98.5224C297.572 98.5463 297.502 98.5571 297.432 98.5542Z" fill="white"/>
<path d="M296.251 98.0283C296.25 97.7971 296.318 97.5706 296.447 97.3777C296.576 97.1847 296.759 97.0339 296.975 96.9445C297.191 96.855 297.428 96.8308 297.658 96.8751C297.887 96.9193 298.099 97.03 298.264 97.193C298.43 97.356 298.543 97.5641 298.59 97.7908C298.636 98.0175 298.613 98.2526 298.524 98.4664C298.434 98.6802 298.283 98.863 298.089 98.9916C297.894 99.1202 297.666 99.1889 297.432 99.1889C297.277 99.1898 297.124 99.1605 296.981 99.1026C296.837 99.0447 296.707 98.9593 296.597 98.8515C296.488 98.7436 296.401 98.6154 296.341 98.4741C296.282 98.3328 296.251 98.1813 296.251 98.0283Z" fill="#F5F5F5"/>
<path d="M298.598 98.0925C298.549 98.213 298.474 98.3215 298.379 98.4108C298.283 98.5001 298.17 98.568 298.045 98.6099C297.921 98.6518 297.789 98.6667 297.658 98.6536C297.528 98.6405 297.401 98.5997 297.288 98.534C297.143 98.4478 297.024 98.3262 296.941 98.1809C296.858 98.0355 296.814 97.8714 296.814 97.7045C296.814 97.5376 296.858 97.3734 296.941 97.2281C297.024 97.0828 297.143 96.9611 297.288 96.875C297.068 96.9051 296.861 96.9964 296.691 97.1383C296.521 97.2802 296.395 97.467 296.329 97.6767C296.262 97.8865 296.257 98.1107 296.314 98.3232C296.371 98.5356 296.489 98.7277 296.652 98.8769C296.815 99.0262 297.018 99.1265 297.237 99.1662C297.455 99.2059 297.681 99.1833 297.887 99.1011C298.093 99.0189 298.272 98.8805 298.401 98.7019C298.531 98.5234 298.607 98.312 298.62 98.0925H298.598Z" fill="#EBEBEB"/>
<path d="M88.8408 91.1569L94.4064 87.9885L91.3464 87.3477L88.3008 89.4481L88.8408 91.1569Z" fill="#E0E0E0"/>
<path d="M98.5824 62.7977C98.5824 54.2537 103.874 50.2878 110.376 53.9973L119.981 59.4797C126.461 63.1893 131.767 73.1857 131.767 81.7582C131.767 82.1071 131.767 82.4702 131.767 82.7764C131.767 82.9686 131.767 83.1324 131.767 83.3175C131.767 83.5026 131.731 83.6521 131.717 83.8159C131.702 83.9797 131.674 84.1933 131.645 84.3784C131.5 85.3902 131.244 86.3833 130.882 87.3403C130.73 87.6963 130.572 88.0523 130.399 88.3513C130.319 88.5165 130.228 88.6759 130.126 88.8284L130.032 88.9779C129.872 89.233 129.686 89.4715 129.478 89.6899C129.362 89.8181 129.254 89.9533 129.132 90.0744L128.758 90.4304C128.628 90.5301 128.506 90.6511 128.369 90.7508C128.24 90.8538 128.102 90.9466 127.958 91.0285L127.534 91.2705C126.983 91.5642 126.387 91.764 125.77 91.8615C125.722 91.85 125.673 91.85 125.626 91.8615C125.46 91.8615 125.309 91.8971 125.143 91.8971C124.968 91.9113 124.792 91.9113 124.618 91.8971C124.155 91.9021 123.693 91.8519 123.242 91.7476C122.973 91.6946 122.706 91.628 122.443 91.5482C121.602 91.2933 120.795 90.9395 120.038 90.4945L110.434 85.0121C109.775 84.6341 109.145 84.2106 108.547 83.7447C108.547 83.6308 108.547 83.5311 108.547 83.4243C108.547 83.3175 108.547 83.0897 108.547 82.9615C108.547 82.6767 108.547 82.3848 108.547 82.0929C108.569 74.8091 104.134 66.2153 98.5824 62.7977Z" fill="#E0E0E0"/>
<path d="M96.9624 56.6384L102.542 53.4629C102.506 53.4629 101.974 57.3006 101.974 57.3006L97.8336 57.7847L96.9624 56.6384Z" fill="#E0E0E0"/>
<path d="M122.746 93.954L127.901 91.0633L124.798 89.7461L122.746 93.954Z" fill="#E0E0E0"/>
<path d="M119.981 90.5791C120.018 92.6891 120.703 94.738 121.946 96.4531C122.177 96.7521 121.824 97.0156 121.565 96.8803C120.388 96.2764 119.345 95.4461 118.498 94.4381C116.869 92.5349 115.73 90.2705 115.178 87.8379L119.981 90.5791Z" fill="#E0E0E0"/>
<path d="M121.889 96.8659L116.309 100.041C116.309 100.041 113.177 97.4284 113.177 92.1383L119.232 91.7324C119.232 91.7324 119.376 95.1785 121.889 96.8659Z" fill="#E0E0E0"/>
<path d="M107.028 81.3028C107.028 81.5686 107.028 81.8249 107.028 82.0717C107.028 82.2141 107.028 82.3352 107.028 82.4704C107.028 82.6057 107.028 82.7196 106.985 82.8478C106.942 82.976 106.985 83.1326 106.934 83.275C106.851 83.9057 106.701 84.5261 106.488 85.1262C106.457 85.2355 106.419 85.3426 106.373 85.4466C106.32 85.5896 106.26 85.7298 106.193 85.8667C106.137 85.999 106.072 86.1274 105.998 86.2512C105.941 86.3752 105.874 86.4943 105.797 86.6072L105.725 86.7211C105.598 86.9172 105.458 87.1051 105.307 87.2836C105.229 87.3873 105.142 87.4849 105.048 87.5755L104.774 87.8389C104.681 87.9255 104.582 88.0063 104.479 88.081C104.381 88.1564 104.277 88.2253 104.17 88.2875C104.062 88.3516 103.961 88.4156 103.846 88.4726L103.514 88.6292L103.169 88.7503C102.958 88.8134 102.744 88.8656 102.528 88.9069H102.42C102.3 88.9178 102.18 88.9178 102.06 88.9069C101.931 88.9214 101.8 88.9214 101.671 88.9069C101.362 88.9068 101.053 88.8758 100.75 88.8144C100.507 88.7736 100.266 88.7189 100.03 88.6506C99.3976 88.4591 98.7909 88.1937 98.2224 87.8603L91.0224 83.7449C90.38 83.3784 89.7748 82.9516 89.2152 82.4704C89.0136 82.2996 88.812 82.1144 88.6104 81.9293C88.2474 81.595 87.9037 81.2408 87.5808 80.8684L87.12 80.4555C86.9976 80.3131 86.8824 80.1636 86.76 80.014C86.7301 79.9623 86.6938 79.9144 86.652 79.8716C86.1725 79.2448 85.7302 78.591 85.3272 77.9136C85.2192 77.7356 85.1184 77.5505 85.0104 77.3654C84.9024 77.1803 84.8016 76.9952 84.7008 76.8029C84.6 76.6107 84.5064 76.4184 84.4056 76.2333L84.132 75.6495C84.0384 75.4572 83.952 75.2508 83.8656 75.0656C83.7144 74.7239 83.5776 74.3536 83.4552 74.0261C83.4552 73.962 83.4048 73.898 83.3832 73.8339C83.304 73.6345 83.2392 73.4352 83.1744 73.2358C83.0448 72.8513 82.9296 72.4668 82.8144 72.0681C82.561 71.1323 82.371 70.1809 82.2456 69.2201C82.2456 69.0564 82.2096 68.8997 82.188 68.736C82.1664 68.5722 82.188 68.4583 82.152 68.3159C82.116 68.1735 82.152 68.0311 82.152 67.8887C82.152 67.6229 82.152 67.3594 82.152 67.0984C82.152 60.6904 86.1192 57.6928 91.0008 60.4768L98.2008 64.5992C103.061 67.3689 107.028 74.8663 107.028 81.3028Z" fill="#E0E0E0"/>
<path d="M79.5528 63.2115L85.0896 60.0645L87.1776 61.5241L80.7192 65.3902L79.5528 63.2115Z" fill="#E0E0E0"/>
<path d="M98.5608 91.4552L104.126 88.2868L99.7631 86.998L98.5608 91.4552Z" fill="#E0E0E0"/>
<path d="M92.0664 84.4355C92.0664 85.5747 90.6264 87.1269 88.9776 87.4188C88.7544 87.4615 88.812 87.9457 89.0784 88.1308C90.061 88.6586 91.1946 88.8442 92.2968 88.6577C93.0126 88.6366 93.7099 88.4277 94.3172 88.0523C94.9245 87.677 95.4199 87.1487 95.7528 86.5217L92.0664 84.4355Z" fill="#BA68C8"/>
<path d="M104.803 57.1664L114.415 62.6559C120.895 66.3655 126.194 76.3619 126.194 84.9273C126.194 85.2833 126.194 85.6393 126.194 85.9526C126.194 86.1448 126.194 86.3086 126.194 86.4937C126.194 86.6788 126.158 86.8212 126.137 86.985C126.115 87.1487 126.094 87.3766 126.065 87.5546C125.935 88.5626 125.693 89.5535 125.345 90.5094C125.194 90.8725 125.035 91.2214 124.862 91.5275C124.783 91.6906 124.691 91.8477 124.589 91.9975C124.559 92.0494 124.525 92.0994 124.488 92.147C124.332 92.416 124.148 92.6689 123.941 92.9017C123.826 93.0299 123.71 93.1723 123.588 93.2862L123.221 93.6422C123.091 93.7419 122.962 93.8629 122.832 93.9626C122.701 94.064 122.564 94.1567 122.422 94.2403L121.99 94.4823C121.441 94.7749 120.848 94.9747 120.233 95.0733C120.186 95.0576 120.135 95.0576 120.089 95.0733C119.923 95.0733 119.765 95.0733 119.606 95.0733C119.431 95.0838 119.256 95.0838 119.081 95.0733C118.618 95.0753 118.157 95.0251 117.706 94.9238C117.436 94.8708 117.169 94.8042 116.906 94.7244C116.067 94.4674 115.26 94.1162 114.502 93.6778C114.537 95.7869 115.226 97.8345 116.474 99.5447C116.705 99.8508 116.352 100.114 116.086 99.979C114.907 99.3745 113.864 98.5415 113.018 97.5297C111.394 95.6264 110.256 93.3653 109.699 90.9366L110.419 91.3282L104.926 88.1954C104.394 87.8924 103.882 87.5571 103.392 87.1915C103.434 87.0107 103.465 86.8277 103.486 86.6432C103.486 86.5222 103.529 86.3442 103.543 86.1591C103.569 86.0012 103.586 85.8419 103.594 85.682V85.5966C103.601 85.478 103.601 85.3591 103.594 85.2406C103.594 84.97 103.594 84.6852 103.594 84.4004C103.594 77.195 99.2735 69.0711 93.7151 65.8884L93.1031 65.5324C93.1607 57.2946 98.3951 53.5067 104.803 57.1664Z" fill="white"/>
<path d="M85.3992 63.6301L92.5992 67.7455C97.4736 70.5365 101.448 78.0339 101.448 84.4704C101.448 84.7338 101.448 84.9901 101.448 85.2393C101.448 85.4885 101.448 85.5028 101.448 85.6381C101.448 85.7733 101.448 85.8873 101.412 86.0154C101.4 86.1564 101.381 86.2966 101.354 86.4355C101.275 87.0693 101.126 87.6925 100.908 88.2938C100.88 88.4041 100.842 88.5115 100.793 88.6142C100.744 88.7553 100.686 88.8933 100.62 89.0272C100.562 89.1611 100.498 89.2918 100.426 89.4188C100.366 89.543 100.296 89.6621 100.217 89.7748C100.2 89.8152 100.178 89.8535 100.152 89.8887C100.015 90.0881 99.8784 90.2732 99.7344 90.4512C99.6512 90.5534 99.5623 90.6508 99.468 90.7431L99.1944 91.0065C99.1011 91.0931 99.0025 91.174 98.8992 91.2486C98.8042 91.3255 98.7031 91.3945 98.5968 91.4551C98.4888 91.5192 98.388 91.5833 98.2728 91.6402L97.9416 91.7969L97.596 91.9179C97.3853 91.981 97.1714 92.0333 96.9552 92.0746H96.8472C96.7275 92.0854 96.607 92.0854 96.4872 92.0746C96.3558 92.0926 96.2226 92.0926 96.0912 92.0746C95.7819 92.0763 95.4732 92.0477 95.1696 91.9891C94.9267 91.9478 94.6863 91.8931 94.4496 91.8253C93.8166 91.6365 93.2096 91.3711 92.6424 91.035L90.2088 89.6537C89.8712 90.2741 89.3737 90.7952 88.7668 91.1641C88.1598 91.533 87.465 91.7365 86.7528 91.7541C85.6498 91.9379 84.5163 91.7498 83.5344 91.2201C83.2752 91.0564 83.2104 90.5722 83.4408 90.5082C85.0896 90.2162 86.5224 88.6641 86.5224 87.5249L85.428 86.8983C84.7868 86.53 84.1818 86.1034 83.6208 85.6238C83.4192 85.4529 83.2176 85.2678 83.0232 85.0827C82.6579 84.7484 82.3118 84.3943 81.9864 84.0218C81.8568 83.8723 81.7272 83.7299 81.5976 83.559C81.468 83.3881 81.36 83.2742 81.2376 83.1247L81.1296 82.9823C80.6502 82.3555 80.2078 81.7017 79.8048 81.0243L79.4808 80.4761C79.3728 80.2909 79.272 80.1058 79.1712 79.9136C79.0704 79.7213 78.984 79.5291 78.8832 79.344L78.6024 78.7601C78.5088 78.5608 78.4296 78.3614 78.3432 78.1763C78.192 77.8345 78.048 77.4643 77.9256 77.1368L77.8608 76.9445C77.7816 76.7452 77.7096 76.5458 77.652 76.3465C77.5152 75.9549 77.4072 75.5775 77.2848 75.1788C77.0315 74.243 76.8414 73.2916 76.716 72.3308C76.716 72.167 76.68 72.0104 76.6656 71.8466C76.6512 71.6829 76.6656 71.5618 76.6296 71.4265C76.5936 71.2913 76.6296 71.1417 76.6296 70.9993C76.6296 70.7359 76.6296 70.4653 76.6296 70.2019C76.5504 63.8153 80.5248 60.8462 85.3992 63.6301Z" fill="white"/>
<path d="M143.244 157.816C145.966 156.976 148.759 159.155 150.588 163.555C152.417 167.955 156.254 179.148 156.823 182.131C157.392 185.114 144.518 191.608 144.878 191.437C145.238 191.266 143.244 157.816 143.244 157.816Z" fill="#263238"/>
<path d="M149.227 261.382C149.616 261.525 149.71 262.251 149.767 263.689C149.81 264.779 150.048 266.68 148.759 267.057C147.47 267.434 145.577 267.242 144.749 266.217C143.719 264.935 143.021 263.81 141.552 262.244C140.27 260.891 138.895 259.624 138.377 257.723C137.909 256 138.298 255.259 139.486 254.761C141.113 254.049 143.676 256.313 144.95 256.669C146.052 256.975 148.846 261.24 149.227 261.382Z" fill="#263238"/>
<path d="M149.227 260.051V261.817C148.557 262.241 147.782 262.476 146.987 262.497C146.192 262.519 145.405 262.325 144.713 261.938C144.634 261.767 144.245 259.41 144.245 259.41L149.227 260.051Z" fill="#FFA8A7"/>
<path d="M134.762 271.564C134.762 271.564 135.274 273.102 135.547 274.412C135.77 275.48 136.08 277.26 135.706 278.072C135.331 278.884 133.848 279.396 131.566 279.375C130.082 279.375 127.771 280.365 126.194 281.233C124.618 282.102 121.154 282.494 119.434 282.294C117.403 282.059 115.294 280.87 114.962 280.059C114.631 279.247 115.07 278.357 119.866 276.335C119.909 276.335 126.533 274.199 128.858 271.657L134.762 271.564Z" fill="#263238"/>
<path d="M134.762 269.656C134.762 269.656 134.762 270.966 134.762 271.714C134.762 272.462 133.87 273.579 131.551 273.501C129.924 273.444 128.794 273.01 128.858 271.685V269.77L134.762 269.656Z" fill="#FFA8A7"/>
<path d="M150.394 236.606C149.996 233.477 149.289 230.393 148.284 227.4C148.284 227.4 148.918 219.461 149.227 211.935C149.558 203.804 149.227 193.58 149.364 191.558C149.364 191.558 122.832 186.246 122.357 195.645C121.882 205.043 123.408 228.966 123.718 233.096C124.027 237.225 124.754 240.878 125.618 247.571C126.482 254.264 128.858 269.771 128.858 269.771C129.776 270.233 130.795 270.465 131.825 270.445C132.855 270.425 133.864 270.155 134.762 269.657C134.762 269.657 136.627 250.86 136.433 246.097C136.281 242.559 135.666 239.055 134.604 235.673L135.547 221.184C135.994 214.441 136.462 211.216 136.57 208.276L137.138 207.991C137.138 207.991 137.722 219.625 138.031 223.754C138.341 227.884 139.01 231.843 140.191 239.511C141.242 246.161 144.36 260.237 144.36 260.237C147.391 261.861 149.198 260.031 149.198 260.031C149.198 260.031 151.2 242.373 150.394 236.606Z" fill="#455A64"/>
<path d="M136.57 208.297C136.57 208.297 143.006 205.157 146.225 202.33C146.225 202.33 143.237 206.495 139.306 208.346C139.306 208.346 137.909 222.793 137.916 222.508L137.11 208.268L136.57 208.297Z" fill="#37474F"/>
<path d="M130.838 154.84L132.408 163.384L140.213 162.821L138.578 153.131L130.838 154.84Z" fill="#FFA8A7"/>
<path d="M148.457 162.195C147.686 159.874 144.706 157.346 141.725 157.923C137.291 158.665 132.923 159.743 128.657 161.148C125.928 162.11 123.444 164.445 123.214 173.331L121.831 199.789L125.136 200.501L126.288 194.506L126.821 200.501C130.277 201.355 136.274 200.65 140.213 199.789C148.421 198.016 149.407 194.648 149.407 194.648C149.407 194.648 149.515 179.76 149.27 173.331C149.04 167.834 148.99 163.761 148.457 162.195Z" fill="#37474F"/>
<path d="M125.064 144.715C125.064 144.715 123.17 147.485 123.415 147.776C123.853 148.068 124.341 148.278 124.855 148.396L125.064 144.715Z" fill="#FFA8A7"/>
<path d="M130.838 135.942C129.017 136.854 125.87 138.534 125.006 145.12C124.114 151.884 125.287 154.063 126.209 154.96C126.835 155.565 130.233 155.601 131.933 155.095C134.093 154.461 138.859 152.66 141.048 149.185C143.626 145.099 144.201 139.623 141.293 137.445C137.21 134.383 132.379 135.173 130.838 135.942Z" fill="#FFA8A7"/>
<path d="M124.625 138.208C125.222 139.831 126.23 143.804 130.421 145.463C130.421 145.463 131.018 142.928 133.171 143.199C135.324 143.469 135.691 146.182 134.366 147.869C133.042 149.557 131.76 148.945 131.76 148.945C131.76 148.945 131.472 152.576 133.92 154.22C133.92 154.22 136.879 156.072 140.011 154.648C141.451 154.007 143.417 150.668 144.583 147.926C147.06 142.131 147.413 137.481 143.676 136.015C143.215 133.38 142.013 132.391 139.601 131.899C134.41 130.838 130.486 134.213 126.122 133.622C123.84 133.309 123.941 136.356 124.625 138.208Z" fill="#37474F"/>
<path d="M143.762 136.898L146.21 135.403C146.115 135.235 145.987 135.088 145.833 134.971C145.68 134.853 145.503 134.768 145.315 134.719C145.127 134.671 144.931 134.661 144.739 134.69C144.547 134.718 144.362 134.785 144.197 134.886C144.031 134.987 143.889 135.12 143.777 135.277C143.665 135.435 143.586 135.612 143.545 135.8C143.505 135.988 143.503 136.182 143.54 136.371C143.578 136.56 143.653 136.739 143.762 136.898Z" fill="#37474F"/>
<path d="M131.414 157.95L130.522 160.507C130.522 160.507 131.177 161.646 133.963 161.703C136.75 161.76 139.723 160.884 140.645 159.709C140.855 159.479 141.01 159.206 141.1 158.909C141.189 158.612 141.211 158.299 141.163 157.993C141.163 157.993 140.054 155.572 139.003 155.679L139.176 156.733C139.176 156.733 138.938 157.595 136.411 158.257C132.48 159.289 131.414 157.95 131.414 157.95Z" fill="#455A64"/>
<path d="M109.022 174.939C107.899 173.665 107.467 170.838 105.97 168.901C104.472 166.965 103.918 165.548 103.327 166.395C102.542 167.513 104.314 169.756 103.918 169.955C103.522 170.155 102.06 173.131 101.909 174.768C101.758 176.406 106.15 180.536 106.15 180.536L109.022 174.939Z" fill="#FFA8A7"/>
<path d="M131.414 157.951C131.233 157.948 131.054 157.993 130.897 158.082C130.74 158.171 130.61 158.301 130.522 158.457C130.081 159.243 129.687 160.054 129.341 160.885L130.522 160.507L131.414 157.951Z" fill="#455A64"/>
<path d="M104.04 169.728C104.04 169.728 98.7335 169.272 97.9631 169.728C97.1927 170.184 97.4231 172.455 97.9631 173.85C98.5031 175.246 101.21 176.15 103.723 177.83C103.723 177.574 104.04 169.728 104.04 169.728Z" fill="#FFA8A7"/>
<path d="M129.341 160.912C127.058 161.702 125.064 162.607 122.933 166.565C120.197 171.649 115.013 179.78 115.013 179.78L109.044 174.575C109.044 174.575 108.144 173.714 106.466 176.455C105.975 177.193 105.664 178.034 105.557 178.911C105.451 179.789 105.553 180.678 105.854 181.51C105.854 181.51 112.745 189.506 114.062 190.724C115.38 191.941 117.562 190.994 118.98 189.079C120.398 187.164 129.362 176.092 129.362 176.092C129.362 176.092 134.23 169.698 129.341 160.912Z" fill="#37474F"/>
<path d="M67.7736 147.619H84.7728C85.4144 147.619 86.0297 147.367 86.4834 146.918C86.9371 146.47 87.192 145.861 87.192 145.227V118.52C87.192 116.418 86.3477 114.402 84.8448 112.916C83.342 111.43 81.3037 110.595 79.1784 110.595H73.3464C71.2248 110.601 69.192 111.438 67.6939 112.924C66.1957 114.409 65.3544 116.422 65.3544 118.52V145.227C65.3544 145.861 65.6093 146.47 66.0629 146.918C66.5166 147.367 67.132 147.619 67.7736 147.619Z" fill="#37474F"/>
<path d="M87.6384 138.505C89.2872 143.311 92.052 157.138 92.052 157.138C92.052 157.138 97.812 164.102 99.6912 165.789C100.721 166.729 103.039 168.416 103.039 168.416L98.8272 171.478C95.0243 168.585 91.4521 165.408 88.1424 161.973C87.4063 161.198 86.8897 160.245 86.6448 159.21L83.7648 146.992C83.7648 146.992 83.7648 137.167 82.2456 135.878C80.7264 134.589 80.2872 134.319 80.2872 134.319C82.2384 134.176 86.3424 134.724 87.6384 138.505Z" fill="#F28F8F"/>
<path d="M79.3871 134.177C82.0727 133.871 85.5143 133.928 87.1919 136.897C88.8695 139.866 91.6631 155.217 91.6631 155.217C91.6631 155.217 89.0207 157.246 86.1695 157.211L79.3871 134.177Z" fill="#4E56AB"/>
<path d="M86.8536 148.48C86.37 150.769 86.1837 153.109 86.2992 155.444C86.508 158.52 88.6536 163.888 88.6536 163.888C88.6536 163.888 86.976 165.711 82.2456 164.978C78.3936 164.387 79.7544 152.874 81.9648 150.666C83.2539 149.349 85.0021 148.568 86.8536 148.48Z" fill="#4E56AB"/>
<path opacity="0.3" d="M86.8536 148.48C86.37 150.769 86.1837 153.109 86.2992 155.444C86.508 158.52 88.6536 163.888 88.6536 163.888C88.6536 163.888 86.976 165.711 82.2456 164.978C78.3936 164.387 79.7544 152.874 81.9648 150.666C83.2539 149.349 85.0021 148.568 86.8536 148.48Z" fill="black"/>
<path d="M77.9544 229.792C77.9238 230.317 78.057 230.839 78.336 231.287C79.0482 232.451 79.8859 233.535 80.8344 234.52C82.1664 235.944 84.1608 237.617 85.5936 238.849C86.3856 239.561 86.4144 240.572 85.2768 240.935C83.1563 241.445 80.9187 241.137 79.02 240.073C77.58 239.318 75.5784 235.801 74.3976 235.303C73.0368 234.698 72.2808 234.399 71.82 233.779C71.4715 233.427 71.2541 232.968 71.2031 232.478C71.1521 231.988 71.2706 231.496 71.5392 231.081C72.18 229.899 73.1448 228.083 73.5408 228.29L73.4184 228.66C73.728 229.621 76.3776 230.739 77.7384 230.475L77.9544 229.792Z" fill="#37474F"/>
<path d="M64.0799 189.62C63.4679 183.212 61.7111 172.902 63.5111 165.27L87.4151 166.523C88.0775 174.048 88.8551 197.544 88.0199 200.236C87.0551 203.411 78.4367 225.391 77.9399 229.812C77.9057 230.331 78.0393 230.847 78.3215 231.286C79.0328 232.453 79.8706 233.539 80.8199 234.526C81.4679 235.238 82.2599 235.95 83.0951 236.662C83.1651 236.763 83.2072 236.881 83.2175 237.004C83.2175 237.716 81.4031 237.936 80.3375 237.63C79.0086 237.166 77.8636 236.296 77.0687 235.145C76.4567 234.341 75.0815 232.796 74.1887 231.635C73.8908 231.277 73.637 230.885 73.4327 230.467C73.1943 229.946 73.1534 229.357 73.3175 228.808L73.3751 228.63C73.8424 227.189 74.1324 225.697 74.2391 224.188C74.5703 219.339 75.4127 208.139 76.1903 205.156C76.7302 202.982 77.5505 200.886 78.6311 198.919L75.9023 177.922C75.9023 177.922 75.6143 196.434 74.7647 201.154C74.0951 204.935 73.8359 209.663 73.0511 216.149C72.3311 222.358 71.4959 233.294 71.4959 233.294C71.4745 233.298 71.4525 233.298 71.4311 233.294V238.52H66.9599V235.487C66.9599 234.118 66.8443 232.75 66.6143 231.4C65.8943 227.27 64.3967 217.822 64.0871 214.625C63.5975 209.556 65.4479 203.184 65.4479 203.184C65.4479 203.184 64.6775 195.871 64.0799 189.62Z" fill="#FFA8A7"/>
<path d="M72.5039 134.398C72.5039 134.398 66.0743 135.11 65.3039 135.473C71.3375 139.667 66.4487 149.001 66.4487 149.001L68.7599 156.171C66.1895 159.425 63.9719 161.361 62.5967 164.928C61.0703 168.916 59.7167 174.847 60.0767 187C65.8367 191.272 83.3615 190.81 90.1871 187C90.1871 187 89.0351 176.271 87.6743 167.933C86.7743 162.429 84.6503 156.434 85.0103 154.405C87.7175 146.174 87.8903 144.693 87.4007 142.856C86.0543 137.687 80.7263 134.191 79.4159 134.191L72.5039 134.398Z" fill="#4E56AB"/>
<path opacity="0.6" d="M72.5039 134.398C72.5039 134.398 66.0743 135.11 65.3039 135.473C71.3375 139.667 66.4487 149.001 66.4487 149.001L68.7599 156.171C66.1895 159.425 63.9719 161.361 62.5967 164.928C61.0703 168.916 59.7167 174.847 60.0767 187C65.8367 191.272 83.3615 190.81 90.1871 187C90.1871 187 89.0351 176.271 87.6743 167.933C86.7743 162.429 84.6503 156.434 85.0103 154.405C87.7175 146.174 87.8903 144.693 87.4007 142.856C86.0543 137.687 80.7263 134.191 79.4159 134.191L72.5039 134.398Z" fill="white"/>
<path d="M71.4743 236.306V235.672C72.036 237.801 73.159 239.745 74.7287 241.304C76.1687 242.593 78.1127 244.088 78.6167 245.533C79.1207 246.979 76.3055 247.627 74.4479 247.441C72.6479 247.224 70.9895 246.366 69.7823 245.028C68.6015 243.689 68.6231 242.778 68.0759 242.037C67.5287 241.297 66.2543 240.485 65.9591 239.631C65.867 238.834 65.9555 238.026 66.2183 237.267C66.4271 236.477 66.6575 235.601 66.9383 235.672V236.163C67.5862 236.667 68.3893 236.936 69.2135 236.925C69.8399 236.939 71.4815 236.804 71.4743 236.306Z" fill="#37474F"/>
<path d="M66.9599 236.149C67.6078 236.653 68.4109 236.922 69.2351 236.911C69.8975 236.911 71.5103 236.804 71.5031 236.306V235.672C72.0648 237.801 73.1878 239.744 74.7575 241.304L75.8447 242.265C76.6079 243.105 76.3919 243.839 74.5991 243.988C72.8063 244.138 71.2295 243.07 69.8759 241.425C68.7218 239.771 67.7446 238.003 66.9599 236.149Z" fill="#FFA8A7"/>
<path d="M83.6063 114.961C84.7583 115.637 86.1839 118.521 86.0471 124.516C85.9247 129.614 84.2543 130.874 83.4119 131.237C82.5695 131.6 80.9567 131.38 79.3871 131.123V134.178C79.3871 134.178 81.5471 136.677 81.4247 138.08C81.3023 139.482 78.2855 139.81 76.2479 138.443C74.7768 137.315 73.5107 135.947 72.5039 134.399L72.5399 127.371C72.5399 127.371 71.6111 128.254 70.0415 126.901C68.7455 125.783 68.3135 123.889 69.3215 122.878C69.5833 122.635 69.9 122.457 70.2454 122.359C70.5908 122.262 70.9548 122.247 71.3071 122.317C71.6594 122.386 71.9897 122.538 72.2705 122.76C72.5514 122.981 72.7746 123.266 72.9215 123.59C72.9215 123.59 73.7927 121.191 77.4143 120.03C80.6831 118.955 82.4615 117.738 83.6063 114.961Z" fill="#FFA8A7"/>
<path d="M80.2871 123.241C80.287 123.366 80.2496 123.489 80.1796 123.593C80.1096 123.698 80.01 123.78 79.8933 123.829C79.7765 123.879 79.6478 123.893 79.5229 123.87C79.398 123.848 79.2826 123.79 79.191 123.703C79.0993 123.616 79.0354 123.504 79.0073 123.382C78.9791 123.26 78.9879 123.132 79.0326 123.014C79.0772 122.897 79.1558 122.795 79.2585 122.721C79.3612 122.648 79.4835 122.605 79.6103 122.6C79.6973 122.598 79.7838 122.613 79.8649 122.644C79.946 122.675 80.0201 122.722 80.083 122.782C80.1458 122.841 80.1962 122.912 80.2312 122.991C80.2662 123.07 80.2852 123.155 80.2871 123.241Z" fill="#37474F"/>
<path d="M80.4599 127.555L81.9647 128.032C81.9383 128.131 81.8918 128.224 81.8281 128.305C81.7643 128.386 81.6847 128.454 81.5939 128.504C81.5031 128.554 81.403 128.585 81.2997 128.595C81.1964 128.606 81.092 128.596 80.9927 128.566C80.7895 128.497 80.6208 128.354 80.5216 128.166C80.4224 127.977 80.4003 127.759 80.4599 127.555Z" fill="#F28F8F"/>
<path d="M85.6008 121.269L84.2904 120.372C84.3457 120.284 84.4186 120.209 84.5044 120.15C84.5902 120.091 84.6873 120.05 84.7896 120.029C84.892 120.008 84.9976 120.009 85.0999 120.03C85.2022 120.05 85.2991 120.092 85.3848 120.151C85.5603 120.273 85.6809 120.458 85.7212 120.667C85.7615 120.875 85.7184 121.091 85.6008 121.269Z" fill="#37474F"/>
<path d="M78.4008 121.753L79.7184 120.856C79.6629 120.769 79.5902 120.693 79.5045 120.634C79.4189 120.575 79.3222 120.534 79.2201 120.513C79.1179 120.491 79.0125 120.491 78.9101 120.51C78.8077 120.53 78.7104 120.57 78.624 120.628C78.4496 120.753 78.3296 120.938 78.2882 121.147C78.2468 121.356 78.287 121.573 78.4008 121.753Z" fill="#37474F"/>
<path d="M85.2984 122.771C85.2997 122.896 85.2635 123.02 85.1944 123.125C85.1252 123.231 85.0262 123.314 84.9096 123.364C84.793 123.415 84.664 123.43 84.5387 123.408C84.4134 123.387 84.2973 123.329 84.2049 123.242C84.1126 123.156 84.048 123.044 84.0192 122.922C83.9905 122.799 83.9988 122.671 84.0433 122.553C84.0877 122.435 84.1662 122.333 84.2691 122.259C84.3719 122.185 84.4945 122.142 84.6216 122.137C84.7961 122.133 84.9651 122.197 85.0918 122.316C85.2185 122.435 85.2928 122.598 85.2984 122.771Z" fill="#37474F"/>
<path d="M82.2455 122.408L82.3463 126.267L84.3983 125.641L82.2455 122.408Z" fill="#F28F8F"/>
<path d="M79.3872 131.122C77.7312 130.901 74.3472 129.933 73.7856 128.602C73.9993 129.276 74.4163 129.87 74.9808 130.303C76.0032 131.165 79.3872 132.14 79.3872 132.14V131.122Z" fill="#F28F8F"/>
<path d="M67.6439 152.262L72.1871 158.342L68.7599 156.171L67.6439 152.262Z" fill="#BA68C8"/>
<path d="M103.435 168.418C104.407 169.657 105.005 172.063 105.516 172.875C106.027 173.687 106.639 174.392 105.516 174.541C104.393 174.691 102.751 172.519 102.139 171.202C101.829 170.459 101.245 169.861 100.505 169.529C101.03 169.351 100.757 167.265 101.124 166.973C101.124 166.973 103.039 167.749 103.435 168.418Z" fill="#F28F8F"/>
<path d="M103.723 177.815C102.708 177.068 102.672 176.149 102.478 174.69C102.283 173.23 98.2152 171.65 98.0856 172.739C97.956 173.828 97.5888 174.74 98.8056 176.064C100.022 177.388 101.866 178.798 103.723 177.815Z" fill="#F28F8F"/>
<path d="M72.5039 134.398C72.5039 134.398 66.4847 134.918 65.3039 135.474C64.1231 136.029 62.1575 139.39 63.9143 144.267C65.6711 149.144 67.2695 154.883 67.0895 156.036C66.9095 157.19 62.7119 163.156 62.7119 163.156C63.87 164.001 65.1795 164.622 66.5711 164.986L68.7311 160.344L68.2271 165.278C70.3968 165.8 72.626 166.039 74.8583 165.99C74.8583 165.99 76.8959 147.036 72.5039 134.398Z" fill="#4E56AB"/>
<path d="M57.6719 157.644C57.1895 154.839 57.6719 153.92 58.6655 151.172L63.7055 154.397C63.2922 155.435 63.0491 156.531 62.9855 157.644C63.0287 158.456 64.1447 166.501 65.1887 169.307C65.3769 169.805 65.7466 170.217 66.2255 170.46C67.2637 171.087 68.2046 171.859 69.0191 172.753C69.7895 173.465 70.4087 173.593 70.3295 173.835C70.2105 174.097 69.9978 174.307 69.7321 174.424C69.4663 174.541 69.1663 174.557 68.8895 174.469C68.2623 174.267 67.6607 173.995 67.0967 173.657C67.5967 174.704 68.2627 175.665 69.0695 176.505C70.9199 178.456 71.0855 179.723 67.6295 179.987C65.4695 180.15 63.6623 178.954 61.7111 174.362C61.1064 172.678 60.6087 170.959 60.2207 169.214C59.1695 165.234 58.1471 160.471 57.6719 157.644Z" fill="#FFA8A7"/>
<path d="M65.304 135.473C62.8776 136.548 62.1864 138.67 61.2864 141.788C60.3864 144.907 57.564 154.262 57.564 154.262C57.564 154.262 59.9832 157.11 63.324 156.313L67.644 145.939C67.644 145.939 69.66 139.168 65.304 135.473Z" fill="#4E56AB"/>
</svg>
