<svg width="24" height="24" viewBox="0 0 24 24" fill="none" xmlns="http://www.w3.org/2000/svg">
<path d="M9.13004 14.6414L17.5964 6.38484C17.8595 6.12828 18.1943 6 18.6009 6C19.0075 6 19.3423 6.12828 19.6054 6.38484C19.8685 6.6414 20 6.96793 20 7.36443C20 7.76093 19.8685 8.08746 19.6054 8.34402L10.1345 17.5802C9.84753 17.8601 9.51271 18 9.13004 18C8.74738 18 8.41256 17.8601 8.12556 17.5802L4.39462 13.9417C4.13154 13.6851 4 13.3586 4 12.9621C4 12.5656 4.13154 12.2391 4.39462 11.9825C4.6577 11.7259 4.99253 11.5977 5.3991 11.5977C5.80568 11.5977 6.14051 11.7259 6.40359 11.9825L9.13004 14.6414Z" fill="#4E57AA"/>
</svg>
