<svg width="40" height="40" viewBox="0 0 40 40" fill="none" xmlns="http://www.w3.org/2000/svg">
<rect width="40" height="40" rx="4" fill="#4E56AB"/>
<path d="M19.1386 26.2344H12.4283C12.1411 26.2344 11.9082 26.0016 11.9082 25.7144L11.9083 11.0401C11.9083 10.7529 12.1411 10.52 12.4284 10.52H24.6941C24.9812 10.52 25.2141 10.7528 25.2141 11.0401V20.1769C25.2141 20.464 24.9814 20.6969 24.6941 20.6969C24.407 20.6969 24.1741 20.4641 24.1741 20.1769V11.5591H12.9486V25.1942H19.1389C19.426 25.1942 19.6589 25.427 19.6589 25.7143C19.6588 26.0016 19.4258 26.2344 19.1386 26.2344Z" fill="white" stroke="white" stroke-width="0.3"/>
<path d="M21.82 14.6194H15.3023C15.0151 14.6194 14.7822 14.3867 14.7822 14.0994C14.7822 13.8122 15.015 13.5793 15.3023 13.5793H21.82C22.1071 13.5793 22.34 13.8121 22.34 14.0994C22.34 14.3867 22.1065 14.6194 21.82 14.6194Z" fill="white" stroke="white" stroke-width="0.3"/>
<path d="M21.82 17.3297H15.3023C15.0151 17.3297 14.7822 17.0969 14.7822 16.8097C14.7822 16.5225 15.015 16.2896 15.3023 16.2896H21.82C22.1071 16.2896 22.34 16.5224 22.34 16.8097C22.34 17.0969 22.1065 17.3297 21.82 17.3297Z" fill="white" stroke="white" stroke-width="0.3"/>
<path d="M21.82 20.04H15.3023C15.0151 20.04 14.7822 19.8072 14.7822 19.5199C14.7822 19.2328 15.015 18.9999 15.3023 18.9999H21.82C22.1071 18.9999 22.34 19.2326 22.34 19.5199C22.34 19.8071 22.1065 20.04 21.82 20.04Z" fill="white" stroke="white" stroke-width="0.3"/>
<path d="M22.3951 26.1192C20.8719 26.1192 19.6318 24.88 19.6318 23.356C19.6318 21.8328 20.8711 20.5928 22.3951 20.5928C23.919 20.5928 25.1583 21.832 25.1583 23.356C25.1583 24.8792 23.919 26.1192 22.3951 26.1192ZM22.3951 21.6329C21.4447 21.6329 20.6718 22.4057 20.6718 23.3562C20.6718 24.3066 21.4446 25.0795 22.3951 25.0795C23.3454 25.0795 24.1183 24.3067 24.1183 23.3562C24.1191 22.4057 23.3454 21.6329 22.3951 21.6329Z" fill="white" stroke="white" stroke-width="0.3"/>
<path d="M27.5622 29.4768C27.4285 29.4768 27.2958 29.4264 27.195 29.3248L24.5606 26.6904C24.3574 26.4872 24.3574 26.1584 24.5606 25.9553C24.7638 25.7521 25.0926 25.7521 25.2957 25.9553L27.9301 28.5897C28.1332 28.7928 28.1332 29.1217 27.9301 29.3248C27.8278 29.4264 27.6949 29.4768 27.5622 29.4768Z" fill="white" stroke="white" stroke-width="0.3"/>
</svg>
