<svg width="94" height="92" viewBox="0 0 94 92" fill="none" xmlns="http://www.w3.org/2000/svg">
<path d="M91.7961 46C91.7961 70.2643 71.7312 90 46.898 90C22.0649 90 2 70.2643 2 46C2 21.7358 22.0649 2 46.898 2C71.7312 2 91.7961 21.7358 91.7961 46Z" stroke="#D9D9D9" stroke-width="4"/>
<path d="M64.1663 45.3958V35.4583L54.2288 24.4166H31.0413C30.4557 24.4166 29.894 24.6493 29.4798 25.0634C29.0657 25.4776 28.833 26.0393 28.833 26.625V66.375C28.833 66.9606 29.0657 67.5223 29.4798 67.9365C29.894 68.3506 30.4557 68.5833 31.0413 68.5833H44.2913" stroke="#5AB4AB" stroke-width="4" stroke-linecap="round" stroke-linejoin="round"/>
<path d="M48.708 61.9583L55.333 67.4791L65.2705 55.3333M53.1247 24.4166V35.4583H64.1663" stroke="#5AB4AB" stroke-width="4" stroke-linecap="round" stroke-linejoin="round"/>
</svg>
