<svg width="32" height="32" viewBox="0 0 32 32" fill="none" xmlns="http://www.w3.org/2000/svg">
<g clip-path="url(#clip0_1823_59810)">
<path d="M22.1473 21.2801C18.1473 18.8641 13.9969 18.7713 9.97126 21.0945C8.55686 21.9137 7.64166 22.9857 7.21286 24.1409H24.6017C24.2113 23.0401 23.3921 22.0289 22.1473 21.2801ZM15.9009 7.87207C18.7393 7.86887 21.0209 10.1281 21.0337 12.9537C21.0497 15.7633 18.7553 18.0833 15.9457 18.1057C13.0977 18.1313 10.8065 15.8433 10.8033 12.9697C10.8001 10.1281 13.0497 7.87527 15.9009 7.87207ZM30.8481 21.7569C29.6769 20.7265 28.2817 20.3233 26.7745 20.2657C25.4657 20.2177 24.1953 20.4129 23.0177 21.1105C24.2529 22.0673 25.0177 23.0337 25.3633 24.1409H32.0001C32.0001 23.2833 31.6129 22.4289 30.8481 21.7569ZM8.98886 21.1137C8.86726 21.0401 8.78726 20.9729 8.69126 20.9345C6.21126 19.8817 3.77606 19.9521 1.52646 21.4753C0.508859 22.1665 -0.0063411 23.1553 5.89001e-05 24.1409H6.65606C7.05606 23.0113 7.88166 22.0193 8.98886 21.1137ZM23.2897 16.1825C23.2801 14.4769 24.7137 13.0273 26.4257 13.0113C28.1697 12.9953 29.6289 14.4225 29.6449 16.1665C29.6609 17.8625 28.2017 19.3697 26.5377 19.3761C24.7457 19.3825 23.2993 17.9585 23.2897 16.1825ZM5.59366 19.3377C3.81126 19.3537 2.40966 17.9777 2.39046 16.2017C2.37126 14.4705 3.80806 13.0273 5.56806 13.0081C7.26726 12.9921 8.72006 14.4289 8.73606 16.1441C8.75526 17.9137 7.36646 19.3249 5.59366 19.3377Z" fill="white"/>
</g>
<defs>
<clipPath id="clip0_1823_59810">
<rect width="32" height="32" fill="white"/>
</clipPath>
</defs>
</svg>
