<svg width="24" height="24" viewBox="0 0 24 24" fill="none" xmlns="http://www.w3.org/2000/svg">
<rect width="24" height="24" rx="4" fill="#364087"/>
<path d="M11.1386 18.2344H4.42825C4.14111 18.2344 3.9082 18.0016 3.9082 17.7144L3.90834 3.04007C3.90834 2.75292 4.14111 2.52002 4.42838 2.52002H16.6941C16.9812 2.52002 17.2141 2.75279 17.2141 3.04007V12.1769C17.2141 12.464 16.9814 12.6969 16.6941 12.6969C16.407 12.6969 16.1741 12.4641 16.1741 12.1769V3.55915H4.94857V17.1942H11.1389C11.426 17.1942 11.6589 17.427 11.6589 17.7143C11.6588 18.0016 11.4258 18.2344 11.1386 18.2344Z" fill="white"/>
<path d="M13.82 6.61968H7.30227C7.01513 6.61968 6.78223 6.38691 6.78223 6.09963C6.78223 5.81249 7.015 5.57959 7.30227 5.57959H13.82C14.1071 5.57959 14.34 5.81235 14.34 6.09963C14.34 6.38691 14.1065 6.61968 13.82 6.61968Z" fill="white"/>
<path d="M13.82 9.32964H7.30227C7.01513 9.32964 6.78223 9.09687 6.78223 8.8096C6.78223 8.52245 7.015 8.28955 7.30227 8.28955H13.82C14.1071 8.28955 14.34 8.52232 14.34 8.8096C14.34 9.09687 14.1065 9.32964 13.82 9.32964Z" fill="white"/>
<path d="M13.82 12.0401H7.30227C7.01513 12.0401 6.78223 11.8073 6.78223 11.52C6.78223 11.2329 7.015 11 7.30227 11H13.82C14.1071 11 14.34 11.2327 14.34 11.52C14.34 11.8072 14.1065 12.0401 13.82 12.0401Z" fill="white"/>
<path d="M14.3951 18.1192C12.8719 18.1192 11.6318 16.88 11.6318 15.356C11.6318 13.8328 12.8711 12.5928 14.3951 12.5928C15.919 12.5928 17.1583 13.832 17.1583 15.356C17.1583 16.8792 15.919 18.1192 14.3951 18.1192ZM14.3951 13.6329C13.4447 13.6329 12.6718 14.4057 12.6718 15.3562C12.6718 16.3066 13.4446 17.0795 14.3951 17.0795C15.3454 17.0795 16.1183 16.3067 16.1183 15.3562C16.1191 14.4057 15.3454 13.6329 14.3951 13.6329Z" fill="white"/>
<path d="M19.5622 21.4766C19.4285 21.4766 19.2958 21.4262 19.195 21.3246L16.5606 18.6902C16.3574 18.487 16.3574 18.1582 16.5606 17.9551C16.7638 17.7519 17.0926 17.7519 17.2957 17.9551L19.9301 20.5895C20.1332 20.7926 20.1332 21.1215 19.9301 21.3246C19.8278 21.4262 19.6949 21.4766 19.5622 21.4766Z" fill="white"/>
</svg>
