<svg width="24" height="24" viewBox="0 0 24 24" fill="none" xmlns="http://www.w3.org/2000/svg">
<rect width="24" height="24" rx="4" fill="#364087"/>
<mask id="mask0_888_13623" style="mask-type:alpha" maskUnits="userSpaceOnUse" x="0" y="0" width="24" height="24">
<rect width="24" height="24" fill="#D9D9D9"/>
</mask>
<g mask="url(#mask0_888_13623)">
<path d="M5.77778 20.312C5.28889 20.312 4.87022 20.1381 4.52178 19.7903C4.17393 19.4418 4 19.0231 4 18.5343V14.4898L6.44444 11.712L7.71111 12.9787L5.77778 15.4236H17.9111L16.3333 13.0231L17.6 11.7565L20 14.4898V18.5343C20 19.0231 19.8261 19.4418 19.4782 19.7903C19.1298 20.1381 18.7111 20.312 18.2222 20.312H5.77778ZM5.77778 18.5343H18.2222V16.7565H5.77778V18.5343ZM10.7778 13.5343L7.64444 10.4009C7.3037 10.0602 7.13719 9.64181 7.14489 9.14581C7.152 8.64922 7.32593 8.23056 7.66667 7.88981L12.0222 3.53426C12.363 3.19352 12.7852 3.01574 13.2889 3.00093C13.7926 2.98611 14.2148 3.14907 14.5556 3.48981L17.6889 6.62315C18.0296 6.96389 18.2074 7.3787 18.2222 7.86759C18.237 8.35648 18.0741 8.7713 17.7333 9.11204L13.2889 13.5565C12.9481 13.8972 12.5298 14.0637 12.0338 14.056C11.5372 14.0489 11.1185 13.875 10.7778 13.5343ZM16.4444 8.3125L13.3333 4.75694L8.88889 9.20139L12 12.7569L16.4444 8.3125Z" fill="white"/>
</g>
</svg>
