<svg width="24" height="24" viewBox="0 0 24 24" fill="none" xmlns="http://www.w3.org/2000/svg">
<path d="M6.38562 4.39272L12 10.0071L17.5853 4.42181C17.7087 4.29049 17.8573 4.18544 18.0222 4.11296C18.1872 4.04048 18.3651 4.00206 18.5453 4C18.931 4 19.301 4.15324 19.5738 4.42601C19.8465 4.69879 19.9998 5.06874 19.9998 5.4545C20.0032 5.63283 19.9701 5.80996 19.9025 5.97504C19.835 6.14012 19.7345 6.28966 19.607 6.41447L13.949 11.9998L19.607 17.6578C19.8468 17.8923 19.9873 18.2099 19.9998 18.545C19.9998 18.9308 19.8465 19.3007 19.5738 19.5735C19.301 19.8463 18.931 19.9995 18.5453 19.9995C18.3599 20.0072 18.1749 19.9763 18.0022 19.9087C17.8294 19.8411 17.6726 19.7383 17.5417 19.6068L12 13.9924L6.40017 19.5923C6.27727 19.7192 6.13045 19.8205 5.96818 19.8904C5.80591 19.9603 5.63141 19.9974 5.45474 19.9995C5.06898 19.9995 4.69902 19.8463 4.42625 19.5735C4.15348 19.3007 4.00024 18.9308 4.00024 18.545C3.99685 18.3667 4.02993 18.1896 4.09746 18.0245C4.16499 17.8594 4.26555 17.7099 4.39295 17.5851L10.051 11.9998L4.39295 6.34175C4.15323 6.10722 4.01266 5.78964 4.00024 5.4545C4.00024 5.06874 4.15348 4.69879 4.42625 4.42601C4.69902 4.15324 5.06898 4 5.45474 4C5.80382 4.00436 6.13836 4.14545 6.38562 4.39272Z" fill="#FF0000"/>
</svg>
